<svg width="1026" height="822" viewBox="0 0 1026 822" fill="none" xmlns="http://www.w3.org/2000/svg">
    <path fill-rule="evenodd" clip-rule="evenodd" d="M32.5529 -24C32.5529 -24 -67.5365 109.219 83.3192 180.399C141.202 206.531 260.933 171.786 278.699 416.874C281.47 491.785 356.987 561.509 470.681 554.677C584.376 547.843 621.025 706.488 698.342 757.127C775.659 807.766 859.089 842.294 1025.99 808.591C1025.48 641.666 1025.99 -24 1025.99 -24L32.5529 -24Z" fill="#081178"/>
    <path fill-rule="evenodd" clip-rule="evenodd" d="M149.01 -24C149.01 -24 169.81 45.7529 321.3 10.3485C379.162 -2.99132 734.547 -68.4803 841.956 169.195C886.652 255.823 888.173 315.838 898.755 388.553C909.337 461.268 955.549 622.676 1025.65 675.989C1026.42 564.031 1025.65 -24 1025.65 -24H149.01Z" fill="#0000FF"/>
</svg>
