<svg width="227" height="132" viewBox="0 0 227 132" fill="none" xmlns="http://www.w3.org/2000/svg">
    <path d="M92.9922 94.5216V39.6726C92.9922 26.8708 103.407 16.4521 116.213 16.4521H202.887C215.689 16.4521 226.107 26.8673 226.107 39.6726V94.5216C226.107 107.323 215.692 117.742 202.887 117.742H116.213C103.411 117.742 92.9922 107.327 92.9922 94.5216ZM116.209 27.1696C109.316 27.1696 103.706 32.7796 103.706 39.6726V94.5216C103.706 101.415 109.316 107.025 116.209 107.025H202.883C209.776 107.025 215.387 101.415 215.387 94.5216V39.6726C215.387 32.7796 209.776 27.1696 202.883 27.1696H116.209Z" fill="#E0C979"/>
    <path d="M0 108.779V53.9304C0 41.1286 10.4151 30.71 23.2205 30.71H109.895C122.697 30.71 133.115 41.1251 133.115 53.9304V108.779C133.115 121.581 122.7 132 109.895 132H23.2205C10.4186 132 0 121.585 0 108.779ZM23.2205 41.4274C16.3274 41.4274 10.7174 47.0374 10.7174 53.9304V108.779C10.7174 115.672 16.3274 121.282 23.2205 121.282H109.895C116.788 121.282 122.398 115.672 122.398 108.779V53.9304C122.398 47.0374 116.788 41.4274 109.895 41.4274H23.2205Z" fill="#E0C979"/>
    <path d="M122.732 107.067H132.757C132.953 107.067 133.115 106.909 133.115 106.708C133.115 106.508 132.953 106.35 132.757 106.35H122.732C122.535 106.35 122.373 106.511 122.373 106.708C122.373 106.905 122.535 107.067 122.732 107.067Z" fill="#B3A162"/>
    <path d="M95.2667 30.72H107.362C107.559 30.72 107.721 30.5583 107.721 30.3615C107.721 30.1646 107.559 30.0029 107.362 30.0029H95.2667C95.0699 30.0029 94.9082 30.1611 94.9082 30.3615C94.9082 30.5618 95.0664 30.72 95.2667 30.72Z" fill="#B3A162"/>
    <path d="M92.9883 41.4268H103.706V44.1158H92.9883V41.4268Z" fill="#B3A162"/>
    <path d="M129.98 120.404H114.492C116.046 119.785 117.448 118.868 118.626 117.715H131.322C130.932 118.643 130.482 119.539 129.983 120.404H129.98Z" fill="#B3A162"/>
    <path d="M46.7549 121.282C47.9641 123.546 49.4228 125.497 51.0397 127.117C50.3824 128.544 44.0729 131.195 41.4542 130.868C39.6896 128.221 37.5946 124.906 35.7598 121.282H46.7549Z" fill="#B3A162"/>
    <path d="M52.2793 52.0396C57.4464 53.4351 64.3851 52.3313 74.0094 72.216C72.3432 98.1747 67.0742 112.47 67.0742 121.283H29.449C30.8761 112.949 29.449 91.5067 29.449 84.8386C23.2554 83.886 21.7756 82.6944 20.4364 81.3552C19.5611 81.1724 18.8054 81.0283 18.2324 80.7541C19.9126 68.1667 23.2765 56.9185 25.9972 52.8832C27.3294 50.9113 31.5791 49.7724 38.5459 49.3119C41.1963 48.637 46.4619 50.4684 52.2793 52.0396Z" fill="#CC4944"/>
    <path d="M36.2242 83.2953C37.2506 77.9735 38.9132 68.395 38.9132 66.3633C39.7463 70.9961 38.8675 84.9931 38.8675 89.1409C34.8147 90.6699 33.5141 88.1145 36.2277 83.2918L36.2242 83.2953Z" fill="#A33A36"/>
    <path d="M62.0059 64.9551C62.3257 67.0114 62.6983 69.0572 63.0112 71.1135C63.1939 72.3191 63.3802 73.5213 63.5384 74.7305C63.6368 75.4897 63.7107 76.2525 63.8513 77.0047C64.0868 75.0328 63.9919 73.0784 63.7282 71.117C63.4506 69.0431 62.9444 66.8391 62.0059 64.9586V64.9551Z" fill="#943531"/>
    <path d="M32.7848 52.3311C34.3947 53.2625 35.8253 54.5701 36.9044 56.0781C37.4668 56.9077 37.9027 57.7653 38.2437 58.7074C38.5776 59.5193 38.6725 60.4122 38.8588 61.2628C38.9502 60.3841 39.0099 59.4244 38.7568 58.5668C38.4651 57.5052 38.096 56.5913 37.4879 55.6704C36.3209 54.1167 34.711 52.7915 32.7812 52.3346L32.7848 52.3311Z" fill="#943531"/>
    <path d="M109.166 92.9999C110.449 91.7169 110.267 89.2458 109.166 89.2458C108.066 89.2458 103.697 92.4796 100.235 95.942C98.8497 97.3269 88.3889 93.0561 81.4853 88.4092C80.1742 95.1968 80.6522 96.7434 80.0547 99.3656C83.9845 101.984 101.026 107.197 102.723 106.093C105.746 101.39 107.771 97.2917 109.17 92.9999H109.166Z" fill="#D6794D"/>
    <path d="M41.704 41.9148C40.0519 37.7671 37.6265 34.6562 35.6756 31.2923C33.7248 27.9284 32.7019 19.067 40.8041 14.7329C47.5073 11.1475 54.323 8.84868 60.5798 10.3988C66.5941 11.8892 72.4642 16.1178 72.879 19.4817C73.4344 23.9951 67.8068 25.1023 64.1546 23.1655C57.2757 30.0761 49.9081 42.4315 41.7004 41.9113L41.704 41.9148Z" fill="#2E2222"/>
    <path d="M65.7968 30.7091C65.7651 29.9252 65.5156 22.4241 64.7387 20.2412C62.3626 20.779 54.8649 20.7052 54.4994 23.2853C54.1338 25.8653 51.153 25.324 50.4079 28.3786C49.6627 31.4332 49.2057 32.2873 47.7786 33.2575C47.529 27.9603 43.557 27.4928 41.7714 29.3241C39.3671 31.7917 41.9014 35.9289 43.4972 36.9377C40.2775 43.7323 42.1791 46.4635 38.541 49.3107C41.4163 54.9102 48.7206 63.0687 52.5239 59.2654C53.5925 55.434 52.5239 52.4181 53.5925 48.9557C57.1919 49.0928 61.2518 50.077 63.2273 47.3634C64.6544 45.402 65.375 42.5302 65.6913 38.9694C67.0552 39.1065 68.6405 39.1768 68.644 37.9887C68.651 36.2382 65.8284 31.4894 65.7968 30.7055V30.7091Z" fill="#E6885D"/>
    <path d="M63.8083 31.5801C63.8505 32.2093 63.5482 32.7436 63.1299 32.7717C62.7116 32.7998 62.339 32.3112 62.2969 31.682C62.2547 31.0528 62.5605 30.5185 62.9753 30.4904C63.3936 30.4623 63.7662 30.9509 63.8083 31.5801Z" fill="#2E2222"/>
    <path d="M64.3094 29.7669C63.8805 29.7529 63.4447 29.7212 63.0158 29.7599C62.5764 29.8091 62.2003 29.9286 61.7891 30.0692C62.3234 29.2959 63.5817 29.1975 64.3058 29.7669H64.3094Z" fill="#BD653C"/>
    <path d="M64.7963 27.95C65.4325 27.5001 64.9228 26.0167 62.8208 26.0483C61.2777 26.073 59.5166 27.2118 59.6783 27.9359C59.84 28.6565 61.3831 27.8375 62.7189 27.9008C63.5308 27.9395 64.3604 28.2558 64.7963 27.95Z" fill="#2E2222"/>
    <path d="M43.498 36.9418C43.8706 37.0226 44.2362 37.0508 44.6158 37.0332C44.999 37.0191 45.361 36.8926 45.7407 36.8574C45.1993 37.4269 44.0359 37.6659 43.498 36.9418Z" fill="#BD653C"/>
    <path d="M46.0145 33.6009C45.6559 32.0156 44.8721 29.8749 43.5996 30.817C42.3272 31.759 43.3254 34.3285 45.0056 35.1967C44.7631 34.1211 44.8756 33.5622 46.0145 33.6009Z" fill="#BD653C"/>
    <path d="M46.8509 41.7578C46.6365 44.5593 49.5645 48.5454 53.1886 50.8794C53.3151 50.0498 53.4733 49.3855 53.5928 48.9567C51.8528 48.6614 48.0285 46.9636 46.8509 41.7578Z" fill="#BD653C"/>
    <path d="M64.5763 42.3442C63.1492 43.0015 61.4725 41.8345 61.5287 40.3125C61.8732 40.8152 62.1614 41.3389 62.6992 41.6693C63.0015 41.8556 63.3319 42.0208 63.6764 42.1157C63.7643 42.1403 64.5657 42.2915 64.5763 42.3442Z" fill="#BD653C"/>
    <path d="M38.9367 86.3077C36.9823 86.3077 30.374 86.2022 31.179 96.0268C31.9839 105.851 34.2757 108.182 42.1916 106.256C43.3235 98.1675 42.1424 90.7858 38.9367 86.3077Z" fill="#3B5175"/>
    <path d="M72.6898 63.566C65.7405 70.5153 49.0194 81.2327 38.9382 86.3084C37.9047 91.2647 37.6622 101.729 42.1931 106.256C49.3357 106.861 70.5842 107.286 82.5671 109.638C81.5723 104.369 72.6862 69.6787 72.6862 63.5625L72.6898 63.566Z" fill="#4D6A99"/>
    <path d="M44.6801 109.642C45.6432 116.57 48.5045 121.987 52.1953 125.678C51.538 127.105 45.2285 129.755 42.6097 129.428C39.0349 124.071 34.1103 115.973 32.7324 108.145C37.7836 109.245 43.1792 109.642 44.6801 109.642Z" fill="#3B5175"/>
    <path d="M71.2847 87.8497C73.9632 100.732 79.4537 110.483 83.5522 109.632C87.6508 108.782 88.8002 97.6496 86.1218 84.7669C83.4433 71.8843 77.9528 62.1335 73.8542 62.9876C69.7592 63.8383 68.6062 74.9705 71.2847 87.8532V87.8497Z" fill="#4D6A99"/>
    <path d="M69.906 72.4693C70.4438 70.5641 71.2874 69.355 72.4123 69.123C75.6672 68.4481 80.0329 76.1988 82.163 86.4346C84.2932 96.674 83.3792 105.521 80.1208 106.2C79.4107 106.347 78.6515 106.094 77.8711 105.504C75.2805 101.585 72.82 95.2328 71.2839 87.8512C70.0958 82.1287 69.66 76.7542 69.906 72.4728V72.4693Z" fill="#3B5175"/>
    <path d="M70 78.8848C71.9719 79.3558 74.8402 79.405 77.2691 79.405C77.2691 81.7144 79.1356 88.7058 80.1972 93.4828C77.1321 94.4389 75.726 95.6235 74.2638 98.1824C73.1003 95.1314 72.0739 91.6269 71.2865 87.8517C70.6362 84.7162 70.2109 81.6898 70 78.8848Z" fill="#C7B67F"/>
    <path d="M76.4931 86.9099C77.3016 90.7975 78.9607 93.7396 80.1944 93.4831C81.4317 93.2265 81.7762 89.8661 80.9713 85.9784C80.1628 82.0907 78.5037 79.1486 77.2699 79.4052C76.0326 79.6618 75.6881 83.0222 76.4931 86.9099Z" fill="#F0E2B4"/>
    <path d="M77.2708 79.4053C76.7611 79.5529 76.4166 80.1153 76.2092 80.5617C75.9245 81.1769 75.7944 81.8728 75.7452 82.5442C75.6363 84.0452 75.8823 85.4863 76.1424 86.9591C76.4869 88.337 76.8068 89.7782 77.4957 91.0366C77.798 91.6517 78.1812 92.2563 78.6908 92.7168C78.9193 92.9242 79.1794 93.1035 79.4677 93.2195C79.5063 93.237 80.2094 93.4725 80.1988 93.4866C80.2269 93.4374 79.661 93.1492 79.6223 93.1245C79.3728 92.9875 79.1548 92.7836 78.9685 92.5692C78.5256 92.063 78.2339 91.4338 77.9843 90.8116C77.4219 89.5497 77.1583 88.1402 76.8419 86.8045C76.5818 85.4617 76.2338 84.0662 76.269 82.6883C76.2549 82.017 76.2901 81.3245 76.4764 80.6777C76.6064 80.2278 76.8384 79.6443 77.2743 79.4053H77.2708Z" fill="white"/>
    <path d="M75.3208 108.544C73.7742 108.361 72.1713 108.196 70.5403 108.044C61.6648 91.5763 61.4539 78.7956 62.3643 71.9412C64.034 70.7461 65.6263 69.5615 67.0921 68.4121C66.1606 71.5827 62.7475 86.8416 75.3208 108.544Z" fill="#7C9FD6"/>
    <path opacity="0.2" d="M38.8641 91.5281C39.0539 91.5281 39.2437 91.4789 39.416 91.3734L64.3694 76.3782C64.8755 76.0724 65.0407 75.4151 64.7349 74.9089C64.4291 74.4027 63.7718 74.2375 63.2656 74.5433L38.3122 89.5386C37.8061 89.8444 37.6408 90.5017 37.9467 91.0079C38.147 91.3418 38.502 91.5281 38.8676 91.5281H38.8641Z" fill="white"/>
    <path d="M70.9346 87.9213C68.1753 74.6484 69.4231 63.5409 73.7818 62.634C73.9716 62.5953 74.165 62.5742 74.3618 62.5742C78.6431 62.5742 83.8489 72.0825 86.4712 84.691C87.7718 90.9548 88.2217 97.0112 87.7331 101.746C87.2304 106.611 85.7717 109.535 83.624 109.982C83.4342 110.02 83.2408 110.042 83.044 110.042C78.7627 110.042 73.5569 100.533 70.9346 87.9248V87.9213ZM73.9259 63.3335C70.0945 64.1314 69.047 75.3233 71.6341 87.7772C74.1052 99.6581 79.2231 109.324 83.044 109.324C83.1916 109.324 83.3358 109.31 83.4799 109.279C85.269 108.906 86.5626 106.133 87.023 101.672C87.5046 97.0112 87.0617 91.0321 85.7717 84.8386C83.3006 72.9577 78.1827 63.2913 74.3618 63.2913C74.2142 63.2913 74.0701 63.3054 73.9259 63.337V63.3335Z" fill="#7C9FD6"/>
    <path d="M20.4368 81.3541C19.9693 94.1313 19.094 103.197 22.0432 106.146C24.9888 109.091 58.1042 116.571 61.1834 117.999C63.6052 119.12 66.2626 119.088 69.3102 119.039C71.1239 119.011 74.3754 118.533 75.7111 117.046C77.7428 116.666 79.314 115.795 79.314 114.962C80.0592 114.814 82.4916 113.58 82.4916 112.389C84.2773 111.555 85.019 110.28 84.4003 109.661C84.1578 109.418 70.4104 111.984 68.9059 110.719C70.2171 108.455 73.7462 106.139 71.943 105.228C70.5299 104.515 67.7425 107.886 66.7618 108.03C63.2326 108.547 62.9339 110.227 61.092 109.96C53.6998 108.891 39.5482 98.0331 34.3037 96.5919C35.2211 90.1312 35.6219 87.6601 36.2194 83.2909C30.6305 82.8269 24.0854 81.8462 20.4333 81.3506L20.4368 81.3541Z" fill="#E6885D"/>
    <path d="M73.0898 113.34C76.3623 113.34 82.359 112.514 82.4188 112.504C82.4785 112.497 82.5172 112.44 82.5102 112.384C82.5031 112.324 82.4469 112.286 82.3907 112.293C82.3309 112.3 76.3483 113.126 73.0898 113.126C73.0301 113.126 72.9844 113.175 72.9844 113.231C72.9844 113.288 73.0336 113.337 73.0898 113.337V113.34Z" fill="#B56139"/>
    <path d="M72.6742 115.537C73.7393 115.537 78.9626 115.097 79.1876 115.08C79.2474 115.076 79.2895 115.024 79.286 114.964C79.2825 114.904 79.2333 114.862 79.17 114.865C79.1173 114.869 73.7322 115.322 72.6777 115.322C72.618 115.322 72.5723 115.372 72.5723 115.428C72.5723 115.484 72.6215 115.533 72.6777 115.533L72.6742 115.537Z" fill="#B56139"/>
    <path d="M72.4062 117.362C73.9423 117.362 75.612 117.155 75.6295 117.151C75.6893 117.144 75.7315 117.091 75.7244 117.032C75.7174 116.972 75.6682 116.933 75.6049 116.94C75.5874 116.94 73.9318 117.148 72.4062 117.148C72.3465 117.148 72.3008 117.197 72.3008 117.253C72.3008 117.309 72.35 117.359 72.4062 117.359V117.362Z" fill="#B56139"/>
    <path d="M28.855 97.4594C28.9007 97.4594 28.9464 97.4418 28.9816 97.4066C30.3279 96.0604 34.2366 96.7634 34.2753 96.7704C34.3737 96.7845 34.4651 96.7247 34.4827 96.6263C34.5002 96.5279 34.437 96.4365 34.3385 96.4189C34.1698 96.3873 30.2048 95.6772 28.7285 97.1536C28.6582 97.2239 28.6582 97.3363 28.7285 97.4066C28.7637 97.4418 28.8094 97.4594 28.855 97.4594Z" fill="#B56139"/>
    <path d="M169.961 46.4443C159.05 47.0384 141.658 55.0422 135.193 59.6434C139.763 70.2132 150.326 93.1981 154.66 102.288C159.669 100.727 171.852 92.9415 177.455 89.7639C174.699 80.9938 174.319 53.0105 169.961 46.4479V46.4443Z" fill="#A33A36"/>
    <path d="M169.962 46.4443C158.18 48.0015 143.511 55.0422 137.051 59.6434C141.62 70.2132 152.183 93.1981 156.517 102.288C161.526 100.727 173.709 92.9415 179.309 89.7639C176.553 80.9938 174.317 53.0105 169.962 46.4479V46.4443Z" fill="#E0D5AA"/>
    <path d="M169.961 46.4443C159.581 48.4725 145.166 55.0422 138.705 59.6434C143.275 70.2132 153.837 93.1981 158.171 102.288C163.18 100.727 175.364 92.9415 180.967 89.7639C178.211 80.9938 174.32 53.0105 169.961 46.4479V46.4443Z" fill="#EBE4CA"/>
    <path d="M169.96 46.4443C161.018 48.346 147.752 55.0422 141.291 59.6434C145.861 70.2132 156.423 93.1981 160.757 102.288C165.766 100.727 177.95 92.9415 183.553 89.7639C180.797 80.9938 174.319 53.0105 169.963 46.4479L169.96 46.4443Z" fill="#CC4944"/>
    <path d="M151.622 64.5954C151.682 64.5954 151.741 64.5813 151.798 64.5497C156.61 61.8501 166.107 57.7024 166.202 57.6602C166.382 57.5828 166.466 57.3719 166.389 57.1892C166.311 57.0099 166.1 56.9255 165.918 57.0064C165.823 57.0486 156.29 61.2104 151.45 63.9275C151.277 64.0224 151.218 64.2404 151.313 64.4126C151.379 64.5286 151.499 64.5954 151.625 64.5954H151.622Z" fill="#EBE4CA"/>
    <path d="M153.179 67.4528C153.238 67.4528 153.298 67.4387 153.354 67.4071C158.166 64.7075 167.664 60.5598 167.759 60.5176C167.938 60.4403 168.023 60.2294 167.945 60.0466C167.868 59.8673 167.657 59.783 167.474 59.8638C167.379 59.906 157.847 64.0713 153.006 66.785C152.834 66.8799 152.774 67.0978 152.869 67.27C152.936 67.386 153.055 67.4528 153.182 67.4528H153.179Z" fill="#EBE4CA"/>
    <path d="M154.53 70.5602C154.589 70.5602 154.649 70.5462 154.705 70.5145C159.518 67.815 169.015 63.6672 169.11 63.625C169.289 63.5477 169.374 63.3368 169.293 63.154C169.216 62.9747 169.005 62.8904 168.822 62.9712C168.727 63.0134 159.194 67.1752 154.354 69.8924C154.182 69.9908 154.122 70.2052 154.217 70.3775C154.284 70.4935 154.403 70.5602 154.53 70.5602Z" fill="#EBE4CA"/>
    <path d="M185.39 31.6555C187.028 27.1457 189.53 23.7255 191.516 20.0452C193.502 16.365 194.307 6.81456 185.46 2.42777C178.142 -1.20329 166.514 1.22913 160.883 0.132433C155.252 -0.964266 154.183 4.9797 160.415 9.49655C168.036 16.6954 176.591 32.485 185.393 31.6555H185.39Z" fill="#2E2222"/>
    <path d="M159.139 20.4107C159.146 19.5671 159.167 11.5 159.93 9.13086C162.499 9.63 170.552 9.3031 171.03 12.0659C171.508 14.8288 174.693 14.1468 175.593 17.4053C176.493 20.6638 177.013 21.5636 178.581 22.5619C178.672 16.864 182.925 16.2278 184.904 18.14C187.569 20.713 184.985 25.2404 183.301 26.3757C186.982 33.5711 189.418 38.4359 193.418 41.3745C188.335 46.6119 179.449 47.8211 175.28 50.6296C176.064 46.5908 176.465 43.2375 174.001 39.5818C170.137 39.8454 164.661 41.0757 162.45 38.225C160.854 36.1652 159.982 33.1036 159.529 29.2862C158.067 29.4795 156.365 29.6061 156.323 28.3301C156.26 26.4496 159.135 21.2543 159.142 20.4142L159.139 20.4107Z" fill="#E6885D"/>
    <path d="M161.072 21.771C161.047 22.4424 161.388 23.0013 161.834 23.0153C162.281 23.0329 162.66 22.5021 162.685 21.8272C162.71 21.1558 162.369 20.5969 161.922 20.5794C161.476 20.5653 161.096 21.0961 161.072 21.7675V21.771Z" fill="#2E2222"/>
    <path d="M160.707 20.02C161.168 19.9884 161.631 19.9427 162.095 19.9708C162.567 20.0094 162.974 20.1254 163.424 20.2625C162.827 19.447 161.47 19.3838 160.711 20.02H160.707Z" fill="#BD653C"/>
    <path d="M160.127 18.1719C159.428 17.7114 159.927 16.1015 162.187 16.0629C163.846 16.0383 165.776 17.2053 165.625 17.9856C165.474 18.766 163.794 17.9364 162.356 18.0489C161.484 18.1192 160.605 18.4848 160.124 18.1719H160.127Z" fill="#2E2222"/>
    <path d="M183.302 26.3691C182.905 26.4676 182.511 26.5097 182.103 26.5062C181.692 26.5027 181.298 26.3797 180.891 26.3516C181.492 26.9456 182.747 27.1635 183.302 26.3691Z" fill="#BD653C"/>
    <path d="M180.49 22.8648C180.824 21.153 181.594 18.8225 182.993 19.7962C184.392 20.7663 183.404 23.5608 181.629 24.5485C181.854 23.385 181.713 22.7875 180.49 22.8648Z" fill="#BD653C"/>
    <path d="M179.858 31.6562C180.178 34.6581 178.803 38.7391 174.989 41.3684C174.726 40.7778 174.406 40.1803 173.998 39.5792C175.858 39.2066 178.761 37.2874 179.858 31.6598V31.6562Z" fill="#BD653C"/>
    <path d="M160.834 32.8717C162.387 33.529 164.152 32.2214 164.039 30.5869C163.684 31.1388 163.393 31.7117 162.827 32.0843C162.507 32.2952 162.159 32.485 161.79 32.594C161.695 32.6256 160.841 32.8084 160.83 32.8682L160.834 32.8717Z" fill="#BD653C"/>
    <path d="M191.742 39.6383C186.079 36.2357 176.532 39.9722 169.39 50.6228C162.247 61.2735 152.974 76.2933 148.689 80.5817C153.055 84.9474 155.126 89.8228 155.126 92.916C160.096 89.6751 162.128 87.647 166.057 84.849C166.057 94.3748 166.198 98.86 164.701 106.955H199.661C199.661 99.0041 200.115 89.1549 202.02 77.2389C203.925 65.3228 200.526 44.9109 191.745 39.6383H191.742Z" fill="#325288"/>
    <path d="M183.326 43.8918C186.265 44.8198 188.887 46.7706 190.476 49.414C191.987 51.9307 191.991 54.9748 191.776 57.8009C192.529 54.922 192.655 51.7409 191.105 49.08C190.258 47.6248 189.105 46.4051 187.674 45.5017C186.388 44.6932 184.855 44.0429 183.33 43.8848L183.326 43.8918Z" fill="#28426E"/>
    <path d="M185.582 66.7539C179.624 75.1162 171.955 84.758 166.053 91.0992C166.053 89.883 166.053 88.3118 166.053 84.8529C171.529 80.8036 179.329 73.0037 185.579 66.7539H185.582Z" fill="#28426E"/>
    <path d="M148.69 80.582C143.969 81.8334 129.413 94.2451 120.84 95.1379C112.267 96.0307 111.908 91.7459 108.696 93.173C105.479 94.6001 98.1399 100.245 100.238 103.328C100.077 105.381 100.815 105.564 101.462 105.767C101.528 106.875 102.766 106.959 103.574 106.959C103.384 108.267 105.659 109.806 105.926 108.087C107.666 106.347 113.248 104.425 117.982 103.978C122.714 103.532 149.671 96.4947 155.126 92.9164C157.685 87.9742 151.548 81.6506 148.69 80.582Z" fill="#E6885D"/>
    <path d="M100.238 103.432C100.283 103.432 100.326 103.4 100.34 103.354C100.35 103.316 101.507 99.5159 105.261 97.5509C105.313 97.5228 105.334 97.4595 105.306 97.4068C105.278 97.3541 105.215 97.333 105.162 97.3611C101.327 99.3682 100.146 103.256 100.136 103.295C100.118 103.351 100.15 103.411 100.21 103.428C100.22 103.428 100.231 103.432 100.241 103.432H100.238Z" fill="#B56139"/>
    <path d="M101.46 105.871C101.509 105.871 101.552 105.84 101.566 105.791C101.576 105.752 102.624 101.822 106.195 100.114C106.248 100.089 106.269 100.026 106.244 99.9696C106.22 99.9169 106.153 99.8958 106.1 99.9204C102.437 101.674 101.365 105.699 101.355 105.738C101.341 105.794 101.376 105.854 101.432 105.868C101.443 105.868 101.45 105.868 101.46 105.868V105.871Z" fill="#B56139"/>
    <path d="M103.574 107.062C103.574 107.062 103.574 107.062 103.577 107.062C103.637 107.062 103.683 107.009 103.679 106.95C103.679 106.928 103.637 104.753 107.535 102.658C107.588 102.629 107.609 102.566 107.577 102.513C107.549 102.461 107.483 102.443 107.433 102.471C103.402 104.64 103.458 106.869 103.461 106.96C103.461 107.016 103.511 107.062 103.567 107.062H103.574Z" fill="#B56139"/>
    <path d="M105.923 108.088C106.549 106.523 108.187 102.906 109.794 103.978C110.194 103.04 111.685 100.941 112.265 103.353C112.799 102.101 114.451 102.014 114.451 103.532C115.031 102.952 116.282 103.304 115.924 104.938C115.565 106.569 114.672 107.553 113.512 107.553C112.693 108.523 111.593 108.46 111.14 108.147C110.31 108.615 109.136 108.608 108.539 108.207C107.291 108.784 106.5 108.668 105.92 108.088H105.923Z" fill="#D6794D"/>
    <path d="M109.169 89.2422C111.194 89.2422 112.336 91.991 113.039 95.0174C113.573 97.3268 110.09 95.7696 109.169 92.9963C109.169 91.1157 108.336 90.0753 109.169 89.2422Z" fill="#D6794D"/>
    <path d="M108.542 108.314C108.581 108.314 108.619 108.293 108.64 108.255C109.308 106.831 109.874 104.117 109.899 104.001C109.909 103.942 109.874 103.885 109.814 103.875C109.755 103.864 109.698 103.9 109.688 103.959C109.681 103.987 109.104 106.764 108.447 108.163C108.422 108.216 108.447 108.283 108.5 108.307C108.514 108.314 108.531 108.318 108.546 108.318L108.542 108.314Z" fill="#945436"/>
    <path d="M111.143 108.25C111.185 108.25 111.227 108.226 111.241 108.184C111.814 106.732 112.345 103.505 112.37 103.368C112.38 103.308 112.342 103.255 112.282 103.245C112.222 103.234 112.169 103.273 112.159 103.333C112.152 103.364 111.607 106.672 111.045 108.103C111.024 108.159 111.048 108.219 111.104 108.243C111.118 108.247 111.132 108.25 111.143 108.25Z" fill="#945436"/>
    <path d="M113.515 107.656C113.557 107.656 113.6 107.632 113.614 107.586C114.148 106.194 114.552 103.572 114.556 103.544C114.566 103.484 114.524 103.431 114.468 103.421C114.412 103.414 114.355 103.452 114.345 103.509C114.341 103.533 113.937 106.134 113.413 107.505C113.392 107.561 113.42 107.621 113.477 107.642C113.491 107.646 113.501 107.649 113.515 107.649V107.656Z" fill="#945436"/>
    <path d="M112.57 96.268C112.654 96.268 112.732 96.2575 112.798 96.2399C112.932 96.2012 113.037 96.1134 113.104 95.9798C113.406 95.3893 112.893 93.9832 112.869 93.9235C112.848 93.8673 112.788 93.8391 112.732 93.8602C112.675 93.8813 112.647 93.9411 112.668 93.9973C112.809 94.3769 113.129 95.4596 112.914 95.8849C112.876 95.9657 112.816 96.0149 112.742 96.036C112.138 96.2083 110.338 95.3928 108.64 91.7898C108.615 91.7371 108.549 91.7125 108.496 91.7371C108.443 91.7617 108.419 91.825 108.443 91.8812C109.99 95.1608 111.684 96.2715 112.566 96.2715L112.57 96.268Z" fill="#B56139"/>
    <path d="M144.506 20.2207H130.316C127.528 20.2207 125.271 22.4809 125.271 25.2648V30.2035C125.271 32.7132 127.106 34.7871 129.504 35.1773C130.804 36.5341 132.562 38.3057 133.124 38.5658C133.753 38.8575 133.785 36.8047 133.722 35.2511H144.506C147.293 35.2511 149.55 32.9909 149.55 30.207V25.2683C149.55 22.4809 147.29 20.2242 144.506 20.2242V20.2207Z" fill="#24A19C"/>
    <path d="M133.744 25.3006H128.32C128.088 25.3006 127.898 25.1108 127.898 24.8788C127.898 24.6468 128.088 24.457 128.32 24.457H133.744C133.976 24.457 134.166 24.6468 134.166 24.8788C134.166 25.1108 133.976 25.3006 133.744 25.3006Z" fill="white"/>
    <path d="M146.472 25.3006H136.693C136.461 25.3006 136.271 25.1108 136.271 24.8788C136.271 24.6468 136.461 24.457 136.693 24.457H146.472C146.704 24.457 146.894 24.6468 146.894 24.8788C146.894 25.1108 146.704 25.3006 146.472 25.3006Z" fill="white"/>
    <path d="M139.213 28.1542H128.32C128.088 28.1542 127.898 27.9643 127.898 27.7324C127.898 27.5004 128.088 27.3105 128.32 27.3105H139.213C139.445 27.3105 139.635 27.5004 139.635 27.7324C139.635 27.9643 139.445 28.1542 139.213 28.1542Z" fill="white"/>
    <path d="M146.473 28.1542H141.598C141.366 28.1542 141.176 27.9643 141.176 27.7324C141.176 27.5004 141.366 27.3105 141.598 27.3105H146.473C146.705 27.3105 146.895 27.5004 146.895 27.7324C146.895 27.9643 146.705 28.1542 146.473 28.1542Z" fill="white"/>
    <path d="M142.683 31.0135H128.32C128.088 31.0135 127.898 30.8272 127.898 30.5917C127.898 30.3562 128.088 30.1699 128.32 30.1699H142.683C142.915 30.1699 143.105 30.3597 143.105 30.5917C143.105 30.8237 142.915 31.0135 142.683 31.0135Z" fill="white"/>
    <path d="M92.0973 37.817H77.907C75.1196 37.817 72.8594 40.0772 72.8594 42.8611V47.7998C72.8594 50.5872 75.1196 52.8439 77.907 52.8439H88.6912C88.6279 54.401 88.6596 56.4503 89.2888 56.1586C89.8512 55.8985 91.6122 54.1269 92.9093 52.7701C95.3101 52.3799 97.1414 50.306 97.1414 47.7962V42.8576C97.1414 40.0701 94.8812 37.8135 92.0973 37.8135V37.817Z" fill="#24A19C"/>
    <path d="M94.0916 42.8958H83.9296C83.6976 42.8958 83.5078 42.7095 83.5078 42.474C83.5078 42.2384 83.6976 42.0557 83.9296 42.0557H94.0916C94.3236 42.0557 94.5135 42.2455 94.5135 42.474C94.5135 42.7024 94.3236 42.8958 94.0916 42.8958Z" fill="white"/>
    <path d="M81.7572 42.8958H75.9433C75.7113 42.8958 75.5215 42.7095 75.5215 42.474C75.5215 42.2384 75.7078 42.0557 75.9433 42.0557H81.7572C81.9892 42.0557 82.179 42.2455 82.179 42.474C82.179 42.7024 81.9892 42.8958 81.7572 42.8958Z" fill="white"/>
    <path d="M94.0913 45.7528H86.8046C86.5726 45.7528 86.3828 45.563 86.3828 45.331C86.3828 45.099 86.5691 44.9092 86.8046 44.9092H94.0913C94.3233 44.9092 94.5131 45.0955 94.5131 45.331C94.5131 45.5665 94.3233 45.7528 94.0913 45.7528Z" fill="white"/>
    <path d="M84.6286 45.7528H75.9394C75.7074 45.7528 75.5176 45.563 75.5176 45.331C75.5176 45.099 75.7039 44.9092 75.9394 44.9092H84.6286C84.8606 44.9092 85.0504 45.0955 85.0504 45.331C85.0504 45.5665 84.8641 45.7528 84.6286 45.7528Z" fill="white"/>
    <path d="M88.6674 48.6063H75.9394C75.7074 48.6063 75.5176 48.4165 75.5176 48.1845C75.5176 47.9525 75.7039 47.7627 75.9394 47.7627H88.6674C88.8994 47.7627 89.0892 47.9525 89.0892 48.1845C89.0892 48.4165 88.8994 48.6063 88.6674 48.6063Z" fill="white"/>
    <path d="M6.98242 110.353C6.98242 113.215 9.30236 115.531 12.1636 115.531C15.0249 115.531 17.3448 113.211 17.3448 110.353C17.3448 107.496 15.0249 105.176 12.1636 105.176C9.30236 105.176 6.98242 107.496 6.98242 110.353Z" fill="#CC4944"/>
    <path d="M9.33122 109.488C9.514 108.23 11.2645 107.783 12.1608 109.094C13.0607 107.78 14.8112 108.226 14.9905 109.488C15.233 111.168 13.588 112.578 12.1608 113.442C10.7337 112.578 9.08517 111.168 9.33122 109.488Z" fill="white"/>
    <path d="M17.3418 121.284C17.3418 125.421 20.6952 128.774 24.8324 128.774C28.9696 128.774 32.323 125.421 32.323 121.284C32.323 117.146 28.9696 113.793 24.8324 113.793C20.6952 113.793 17.3418 117.146 17.3418 121.284Z" fill="#325288"/>
    <path d="M23.9403 118.681C24.3656 118.115 25.1037 117.128 25.8454 116.147C26.5765 115.18 27.8771 115.701 27.4237 116.903C27.2901 117.261 26.9632 118.042 26.6961 118.688H28.2567C29.2234 118.692 29.719 119.202 29.719 119.753C29.719 120.007 29.6276 120.235 29.4835 120.418C29.6276 120.601 29.719 120.829 29.719 121.082C29.719 121.335 29.6276 121.564 29.4835 121.746C29.6276 121.929 29.719 122.158 29.719 122.411C29.719 122.664 29.6276 122.892 29.4835 123.079C29.6276 123.261 29.719 123.49 29.719 123.743C29.719 124.295 29.3007 124.741 28.7664 124.805V124.829H23.8207C23.2865 124.829 21.6484 124.045 21.6484 124.045V119.775L23.9403 118.678V118.681Z" fill="white"/>
    <path d="M19.9473 123.78C19.9473 124.36 20.4183 124.831 20.9983 124.831C21.5783 124.831 22.0528 124.36 22.0528 123.78V119.858C22.0528 119.278 21.5783 118.807 20.9983 118.807C20.4183 118.807 19.9473 119.278 19.9473 119.858V123.78Z" fill="#6580AD"/>
    <path d="M3.62891 92.4764C3.62891 95.8403 6.35659 98.568 9.7205 98.568C13.0844 98.568 15.8121 95.8403 15.8121 92.4764C15.8121 89.1125 13.0844 86.3848 9.7205 86.3848C6.35659 86.3848 3.62891 89.1125 3.62891 92.4764Z" fill="#325288"/>
    <path d="M8.99228 90.3617C9.33675 89.9012 9.93783 89.0998 10.5424 88.3019C11.1365 87.518 12.1945 87.9398 11.8254 88.9135C11.7164 89.2052 11.4528 89.8379 11.2349 90.3652H12.5038C13.2912 90.3652 13.6919 90.7835 13.6919 91.2334C13.6919 91.4373 13.6181 91.6271 13.4986 91.7747C13.6146 91.9224 13.6919 92.1122 13.6919 92.3161C13.6919 92.5199 13.6181 92.7097 13.4986 92.8574C13.6146 93.005 13.6919 93.1913 13.6919 93.3987C13.6919 93.6061 13.6181 93.7924 13.4986 93.94C13.6146 94.0877 13.6919 94.2739 13.6919 94.4813C13.6919 94.9313 13.351 95.2933 12.9186 95.346V95.3671H8.89737C8.4615 95.3671 7.13281 94.7309 7.13281 94.7309V91.258L8.99579 90.3687L8.99228 90.3617Z" fill="white"/>
    <path d="M5.74609 94.5101C5.74609 94.9811 6.12924 95.3642 6.60025 95.3642C7.07127 95.3642 7.45793 94.9811 7.45793 94.5101V91.3219C7.45793 90.8509 7.07479 90.4678 6.60025 90.4678C6.12924 90.4678 5.74609 90.8509 5.74609 91.3219V94.5101Z" fill="#6580AD"/>
    <path d="M183.296 106.955C183.296 109.415 181.303 111.412 178.842 111.412C176.382 111.412 174.389 109.419 174.389 106.955C174.389 104.49 176.382 102.501 178.842 102.501C181.303 102.501 183.296 104.494 183.296 106.955Z" fill="#BD732D"/>
    <path d="M183.999 106.955C183.999 109.415 182.006 111.412 179.545 111.412C177.084 111.412 175.088 109.419 175.088 106.955C175.088 104.49 177.081 102.501 179.545 102.501C182.009 102.501 183.999 104.494 183.999 106.955Z" fill="#F5B43B"/>
    <path d="M179.543 110.712C177.473 110.712 175.789 109.029 175.789 106.958C175.789 104.888 177.473 103.204 179.543 103.204C181.614 103.204 183.297 104.888 183.297 106.958C183.297 109.029 181.614 110.712 179.543 110.712ZM179.543 103.419C177.592 103.419 176.003 105.004 176.003 106.958C176.003 108.913 177.592 110.498 179.543 110.498C181.494 110.498 183.083 108.909 183.083 106.958C183.083 105.007 181.494 103.419 179.543 103.419Z" fill="#BD732D"/>
    <path d="M179.524 109.222C179.321 109.226 179.134 109.212 178.965 109.177C178.797 109.141 178.649 109.099 178.53 109.046C178.403 108.997 178.308 108.945 178.234 108.885C178.164 108.825 178.129 108.769 178.129 108.723C178.129 108.681 178.146 108.625 178.182 108.561C178.217 108.498 178.255 108.438 178.298 108.386C178.34 108.333 178.378 108.308 178.407 108.308C178.421 108.308 178.438 108.315 178.463 108.326C178.487 108.34 178.519 108.358 178.558 108.379C178.66 108.435 178.797 108.491 178.962 108.551C179.127 108.607 179.324 108.632 179.549 108.618C179.767 108.604 179.95 108.554 180.09 108.467C180.231 108.379 180.301 108.217 180.301 107.985C180.301 107.82 180.259 107.69 180.175 107.588C180.09 107.486 179.981 107.401 179.841 107.335C179.704 107.268 179.552 107.205 179.394 107.145C179.148 107.043 178.937 106.927 178.765 106.804C178.589 106.677 178.456 106.537 178.361 106.379C178.266 106.22 178.217 106.041 178.217 105.837C178.217 105.602 178.273 105.391 178.385 105.208C178.498 105.025 178.663 104.881 178.878 104.783C179.092 104.681 179.356 104.632 179.661 104.632C179.816 104.632 179.981 104.649 180.157 104.688C180.333 104.723 180.477 104.772 180.593 104.832C180.646 104.864 180.684 104.892 180.716 104.927C180.748 104.958 180.762 104.994 180.762 105.025C180.762 105.064 180.748 105.117 180.72 105.18C180.691 105.243 180.656 105.303 180.618 105.356C180.575 105.408 180.54 105.433 180.512 105.433C180.495 105.433 180.466 105.422 180.431 105.405C180.396 105.384 180.35 105.366 180.298 105.349C180.224 105.317 180.129 105.289 180.016 105.257C179.9 105.226 179.763 105.212 179.598 105.212C179.384 105.212 179.212 105.264 179.081 105.366C178.951 105.472 178.888 105.616 178.888 105.799C178.888 105.929 178.927 106.034 179.004 106.122C179.081 106.21 179.183 106.284 179.313 106.347C179.444 106.41 179.581 106.473 179.728 106.537C179.988 106.646 180.21 106.765 180.393 106.899C180.579 107.032 180.719 107.184 180.818 107.349C180.916 107.514 180.966 107.704 180.966 107.915C180.966 108.319 180.846 108.639 180.607 108.867C180.368 109.099 180.009 109.215 179.531 109.219L179.524 109.222ZM179.588 109.662C179.475 109.662 179.419 109.619 179.419 109.532V104.382C179.419 104.294 179.475 104.252 179.588 104.252H179.619C179.732 104.252 179.788 104.294 179.788 104.382V109.532C179.788 109.616 179.732 109.662 179.619 109.662H179.588Z" fill="#BD732D"/>
    <path d="M217.102 87.6654C217.102 91.7148 213.819 94.9978 209.77 94.9978C205.721 94.9978 202.438 91.7148 202.438 87.6654C202.438 83.6161 205.721 80.333 209.77 80.333C213.819 80.333 217.102 83.6161 217.102 87.6654Z" fill="#BD732D"/>
    <path d="M218.259 87.6654C218.259 91.7148 214.976 94.9978 210.926 94.9978C206.877 94.9978 203.594 91.7148 203.594 87.6654C203.594 83.6161 206.877 80.333 210.926 80.333C214.976 80.333 218.259 83.6161 218.259 87.6654Z" fill="#F5B43B"/>
    <path d="M210.929 93.8453C207.523 93.8453 204.75 91.0719 204.75 87.6658C204.75 84.2597 207.523 81.4863 210.929 81.4863C214.336 81.4863 217.109 84.2562 217.109 87.6658C217.109 91.0754 214.336 93.8453 210.929 93.8453ZM210.929 81.8414C207.717 81.8414 205.105 84.453 205.105 87.6658C205.105 90.8786 207.717 93.4903 210.929 93.4903C214.142 93.4903 216.754 90.8786 216.754 87.6658C216.754 84.453 214.142 81.8414 210.929 81.8414Z" fill="#BD732D"/>
    <path d="M210.895 91.3918C210.561 91.3989 210.255 91.3743 209.974 91.318C209.692 91.2618 209.453 91.1915 209.257 91.1071C209.049 91.0298 208.891 90.9419 208.771 90.8435C208.655 90.7416 208.596 90.6537 208.596 90.5764C208.596 90.5061 208.624 90.4147 208.68 90.3092C208.736 90.2038 208.8 90.1053 208.87 90.021C208.94 89.9366 209 89.8944 209.049 89.8944C209.07 89.8944 209.098 89.905 209.141 89.9261C209.179 89.9472 209.232 89.9753 209.295 90.0104C209.464 90.1018 209.685 90.1967 209.96 90.2916C210.234 90.3865 210.554 90.4252 210.923 90.4041C211.285 90.383 211.58 90.2987 211.812 90.1545C212.04 90.0104 212.156 89.7433 212.156 89.3637C212.156 89.093 212.086 88.8751 211.949 88.7099C211.812 88.5447 211.629 88.404 211.401 88.2951C211.172 88.1861 210.93 88.0807 210.666 87.9822C210.262 87.8135 209.917 87.6237 209.629 87.4198C209.341 87.2124 209.119 86.9805 208.965 86.7239C208.81 86.4637 208.729 86.1685 208.729 85.8345C208.729 85.4444 208.821 85.0999 209.007 84.7976C209.19 84.4953 209.46 84.2633 209.815 84.0946C210.17 83.9294 210.599 83.845 211.102 83.845C211.359 83.845 211.629 83.8731 211.917 83.9364C212.206 83.9962 212.445 84.077 212.635 84.1754C212.719 84.2246 212.786 84.2774 212.838 84.3301C212.888 84.3828 212.912 84.4391 212.912 84.4953C212.912 84.5586 212.888 84.6465 212.842 84.7519C212.796 84.8574 212.74 84.9558 212.673 85.0401C212.606 85.1245 212.547 85.1667 212.497 85.1667C212.469 85.1667 212.424 85.1526 212.364 85.121C212.304 85.0893 212.23 85.0577 212.146 85.0296C212.026 84.9804 211.872 84.9312 211.682 84.882C211.492 84.8327 211.264 84.8081 210.996 84.8081C210.641 84.8081 210.357 84.8925 210.146 85.0612C209.931 85.2335 209.826 85.469 209.826 85.7748C209.826 85.9892 209.889 86.165 210.016 86.3056C210.142 86.4497 210.315 86.5692 210.525 86.6746C210.736 86.7766 210.965 86.882 211.207 86.9875C211.633 87.1632 211.998 87.3636 212.304 87.585C212.61 87.803 212.845 88.0525 213.007 88.3232C213.169 88.5974 213.253 88.9067 213.253 89.2547C213.253 89.9226 213.056 90.4463 212.663 90.8259C212.269 91.2056 211.678 91.3989 210.891 91.4059L210.895 91.3918ZM211.004 92.1159C210.817 92.1159 210.726 92.0456 210.726 91.9015V83.4302C210.726 83.2896 210.817 83.2158 211.004 83.2158H211.056C211.239 83.2158 211.334 83.2896 211.334 83.4302V91.9015C211.334 92.0421 211.243 92.1159 211.056 92.1159H211.004Z" fill="#BD732D"/>
    <path d="M204.683 101.975C204.683 106.977 200.627 111.033 195.625 111.033C190.623 111.033 186.57 106.977 186.57 101.975C186.57 96.9728 190.627 92.9199 195.625 92.9199C200.623 92.9199 204.683 96.9763 204.683 101.975Z" fill="#BD732D"/>
    <path d="M206.111 101.975C206.111 106.977 202.058 111.033 197.056 111.033C192.054 111.033 187.998 106.977 187.998 101.975C187.998 96.9728 192.051 92.9199 197.056 92.9199C202.062 92.9199 206.111 96.9763 206.111 101.975Z" fill="#F5B43B"/>
    <path d="M197.055 109.606C192.847 109.606 189.424 106.182 189.424 101.971C189.424 97.76 192.847 94.3398 197.055 94.3398C201.263 94.3398 204.686 97.7635 204.686 101.971C204.686 106.179 201.263 109.606 197.055 109.606ZM197.055 94.7792C193.087 94.7792 189.86 98.006 189.86 101.971C189.86 105.936 193.087 109.166 197.055 109.166C201.024 109.166 204.247 105.94 204.247 101.971C204.247 98.0025 201.02 94.7792 197.055 94.7792Z" fill="#BD732D"/>
    <path d="M197.014 106.576C196.603 106.583 196.224 106.555 195.876 106.485C195.531 106.415 195.232 106.327 194.99 106.225C194.737 106.13 194.536 106.017 194.392 105.894C194.248 105.771 194.178 105.662 194.178 105.564C194.178 105.476 194.213 105.367 194.283 105.237C194.353 105.107 194.431 104.987 194.519 104.882C194.607 104.777 194.68 104.724 194.744 104.724C194.768 104.724 194.807 104.738 194.856 104.763C194.902 104.791 194.969 104.826 195.046 104.868C195.257 104.98 195.531 105.1 195.868 105.216C196.206 105.335 196.603 105.381 197.06 105.353C197.506 105.325 197.872 105.223 198.157 105.044C198.442 104.864 198.582 104.538 198.582 104.063C198.582 103.729 198.498 103.462 198.325 103.255C198.157 103.047 197.928 102.878 197.651 102.741C197.369 102.608 197.067 102.478 196.744 102.355C196.245 102.144 195.816 101.912 195.461 101.659C195.106 101.406 194.832 101.117 194.638 100.798C194.445 100.478 194.35 100.112 194.35 99.7009C194.35 99.2193 194.462 98.7905 194.691 98.4179C194.919 98.0453 195.25 97.757 195.689 97.5496C196.129 97.3458 196.656 97.2403 197.278 97.2403C197.594 97.2403 197.928 97.279 198.283 97.3528C198.638 97.4266 198.934 97.525 199.169 97.6481C199.275 97.7113 199.359 97.7746 199.419 97.8379C199.478 97.9047 199.51 97.9714 199.51 98.0417C199.51 98.1226 199.482 98.228 199.426 98.3581C199.369 98.4917 199.299 98.6077 199.215 98.7131C199.13 98.8186 199.06 98.8678 198.997 98.8678C198.962 98.8678 198.909 98.8502 198.832 98.808C198.758 98.7694 198.666 98.7307 198.561 98.6955C198.413 98.6358 198.22 98.5725 197.988 98.5128C197.756 98.453 197.475 98.4214 197.141 98.4214C196.702 98.4214 196.354 98.5268 196.09 98.7377C195.826 98.9486 195.696 99.2404 195.696 99.62C195.696 99.8836 195.774 100.102 195.932 100.277C196.09 100.453 196.301 100.604 196.564 100.731C196.828 100.857 197.106 100.987 197.405 101.117C197.932 101.335 198.382 101.581 198.758 101.852C199.134 102.123 199.422 102.429 199.626 102.766C199.826 103.103 199.928 103.487 199.928 103.915C199.928 104.738 199.686 105.388 199.197 105.856C198.712 106.323 197.981 106.562 197.011 106.573L197.014 106.576ZM197.148 107.469C196.919 107.469 196.807 107.381 196.807 107.206V96.7412C196.807 96.5654 196.919 96.4775 197.148 96.4775H197.215C197.443 96.4775 197.556 96.5654 197.556 96.7412V107.206C197.556 107.381 197.443 107.469 197.215 107.469H197.148Z" fill="#BD732D"/>
</svg>
