<svg width="784" height="791" viewBox="0 0 784 791" fill="none" xmlns="http://www.w3.org/2000/svg">
    <path fill-rule="evenodd" clip-rule="evenodd" d="M862.031 490.214C862.031 490.214 796.028 149.536 381.007 24.198C287.061 -0.225413 200.676 -52.6332 74.4203 158.053C17.491 267.384 -48.9572 428.763 53.2766 584.409C96.299 651.711 323.442 794.383 587.161 733.138C782.126 683.274 860.178 639.729 862.031 490.214Z" fill="#0000FF"/>
    <path fill-rule="evenodd" clip-rule="evenodd" d="M823.18 160.847C823.18 160.847 540.39 -40.27 153.46 155.273C68.5963 202.397 -30.0969 224.043 23.8297 463.67C58.0318 582.095 121.245 744.768 302.628 786.932C380.201 805.98 643.067 752.587 791.748 526.33C898.504 355.739 924.975 270.372 823.18 160.847Z" fill="#081178"/>
</svg>
