<svg width="834" height="791" viewBox="0 0 834 791" fill="none" xmlns="http://www.w3.org/2000/svg">
    <path fill-rule="evenodd" clip-rule="evenodd" d="M-28.9795 490.214C-28.9795 490.214 37.0237 149.536 452.044 24.198C545.991 -0.225413 632.376 -52.6332 758.631 158.053C815.561 267.384 882.009 428.763 779.775 584.409C736.753 651.711 509.61 794.383 245.891 733.138C50.9255 683.274 -27.1265 639.729 -28.9795 490.214Z" fill="#0000FF"/>
    <path fill-rule="evenodd" clip-rule="evenodd" d="M9.86908 160.847C9.86908 160.847 292.659 -40.27 679.589 155.273C764.453 202.397 863.146 224.043 809.219 463.67C775.017 582.095 711.804 744.768 530.421 786.932C452.848 805.98 189.982 752.587 41.3004 526.33C-65.4556 355.739 -91.9264 270.372 9.86908 160.847Z" fill="#081178"/>
</svg>
