<svg width="185" height="177" viewBox="0 0 185 177" fill="none" xmlns="http://www.w3.org/2000/svg">
<path d="M144.459 37.7693C143.633 35.4829 142.714 33.2123 141.707 31.0051C139.701 26.6126 139.24 22.4499 136.421 18.7766" stroke="#51A951" stroke-width="0.821721"/>
<path d="M129.889 14.5657C127.464 12.1049 125.195 9.45989 121.074 7.48454C112.364 3.32386 101.228 2.90184 87.0125 8.78625" stroke="#51A951" stroke-width="0.821721"/>
<path d="M27.2495 175.828C13.4752 156.405 9.02019 134.446 11.3222 111.988" stroke="#51A951" stroke-width="0.821721"/>
<path d="M152.209 80.2125V80.4523C152.075 84.8111 156.112 102.88 167.565 108.62C179.017 114.36 187.182 139.554 161.362 149.439C135.541 159.323 136.947 175.828 136.947 175.828" stroke="#51A951" stroke-width="0.821721"/>
<path d="M87.009 27.4426V6.09622C87.0017 3.0432 84.5222 0.570122 81.4619 0.5625H10.5943C7.53371 0.570122 5.05454 3.0432 5.04688 6.09622V106.468C5.05235 109.52 7.53473 111.991 10.5943 111.99H81.4619C82.1493 111.995 82.8307 111.864 83.4679 111.606" stroke="black" stroke-width="0.821721" stroke-linecap="round" stroke-linejoin="round"/>
<path d="M74.4081 3.94427H17.65C12.0645 3.94427 7.53662 8.46101 7.53662 14.0327V98.5294C7.53662 104.101 12.0645 108.618 17.65 108.618H74.4081C79.9936 108.618 84.5215 104.101 84.5215 98.5294V14.0327C84.5215 8.46101 79.9936 3.94427 74.4081 3.94427Z" fill="#51A951"/>
<path d="M75.7734 12.044H17.1288C14.3349 12.044 12.0701 14.3033 12.0701 17.0902V26.5967C12.0701 29.3837 14.3349 31.6429 17.1288 31.6429H75.7734C78.5673 31.6429 80.8321 29.3837 80.8321 26.5967V17.0902C80.8321 14.3033 78.5673 12.044 75.7734 12.044Z" fill="#51A951"/>
<path d="M46.0304 20.2994C47.1526 20.2994 48.0623 19.3919 48.0623 18.2725C48.0623 17.1531 47.1526 16.2457 46.0304 16.2457C44.9082 16.2457 43.9985 17.1531 43.9985 18.2725C43.9985 19.3919 44.9082 20.2994 46.0304 20.2994Z" fill="#51A951"/>
<path d="M40.3508 27.4415C40.3508 24.3131 42.8933 21.777 46.0295 21.777C49.1656 21.777 51.708 24.3131 51.708 27.4415H40.3508Z" fill="#51A951"/>
<path fill-rule="evenodd" clip-rule="evenodd" d="M46.4418 52.6421C42.0118 52.6396 38.0169 55.3002 36.3206 59.3821C34.6242 63.4644 35.5607 68.1641 38.6931 71.2884C41.8253 74.4132 46.5367 75.3472 50.629 73.6551C54.721 71.9629 57.3882 67.9781 57.3857 63.559C57.3825 57.531 52.4847 52.6453 46.4418 52.6421ZM46.4418 71.8428C45.5594 71.8428 44.8439 71.1291 44.8439 70.2489C44.8439 69.3686 45.5594 68.6549 46.4418 68.6549C47.3242 68.6549 48.0397 69.3686 48.0397 70.2489C48.0397 71.1291 47.3242 71.8428 46.4418 71.8428ZM48.3254 60.5717C48.3733 60.232 48.4211 59.894 48.4698 59.5588V59.5669C48.492 59.389 48.5229 59.203 48.5541 59.0129C48.73 57.9442 48.9278 56.7425 47.8301 56.1134C46.7892 55.525 44.9878 55.6637 44.3543 56.787C43.7848 57.7744 44.1244 59.2697 44.4025 60.4944C44.4803 60.8373 44.5537 61.1596 44.6007 61.443C44.8654 63.2254 45.2489 64.9879 45.7487 66.7193C45.9274 67.266 46.9679 67.266 47.139 66.7193C47.7373 64.7449 48.0356 62.6278 48.3254 60.5717Z" fill="#51A951"/>
<path d="M18.946 40.3922H72.4123" stroke="white" stroke-width="0.821721"/>
<path d="M18.946 45.6405H72.4123" stroke="white" stroke-width="0.821721"/>
<path d="M18.946 79.4479H72.4123" stroke="white" stroke-width="0.821721"/>
<path d="M31.3655 84.4123H59.9926" stroke="white" stroke-width="0.821721"/>
<mask id="mask0_1_750" style="mask-type:alpha" maskUnits="userSpaceOnUse" x="0" y="2" width="146" height="175">
<path fill-rule="evenodd" clip-rule="evenodd" d="M0.791016 2.43228H145.499V176.705H0.791016V2.43228Z" fill="white"/>
</mask>
<g mask="url(#mask0_1_750)">
<path d="M114.277 112.767C114.078 112.824 111.544 113.559 110.547 115.311C110.159 114.492 109.333 113.97 108.425 113.971H78.6621C77.5717 113.97 76.6244 114.72 76.38 115.78L70.5187 140.85C70.1214 140.772 69.7242 140.725 69.3112 140.685L55.4791 137.242C54.2497 136.934 52.9871 137.609 52.5635 138.801C52.4715 139.059 52.4257 139.331 52.4285 139.605C52.4285 140.896 53.4293 141.968 54.7203 142.058L61.261 142.478C54.9607 145.436 47.296 151.071 40.8986 156.248C34.6739 146.526 40.5153 136.806 44.9085 131.571C44.3427 125.801 41.4744 112.406 27.1641 112.771C32.0938 106.464 38.2411 101.059 45.8582 97.4415C71.9487 126.289 101.797 102.704 102.431 102.197C106.894 105.101 110.889 108.667 114.277 112.771" fill="white"/>
<path d="M111.565 195.521V200.506H25.4023V193.444C28.759 193.642 32.2905 192.85 35.5021 191.405C39.5679 189.559 43.0796 186.69 46.0824 183.417C49.1712 180.029 50.8675 175.331 52.8355 171.246C55.7913 165.094 59.7061 160.711 65.9188 158.855L65.5216 160.559C65.3599 161.253 65.5249 161.984 65.9691 162.543C66.4134 163.102 67.0887 163.428 67.8037 163.43H97.7158C97.1199 168.581 94.6072 196.715 111.565 195.527" fill="white"/>
<path d="M97.7285 64.4161C97.7046 67.0815 97.3564 69.734 96.6916 72.3158C96.0722 74.8154 94.0427 76.7215 91.504 77.1877C91.4541 75.3888 90.6876 73.8094 89.5178 72.8289C89.6244 71.3057 89.609 69.7765 89.472 68.2561C89.3946 67.2513 89.2734 66.3145 89.1461 65.4722C89.0703 64.9931 88.9608 64.5196 88.8186 64.0558C88.4193 63.6276 87.9487 63.2718 87.4282 63.0037C85.5868 61.9694 81.7972 60.8696 74.7762 62.4865C73.6299 62.7481 72.5512 63.2471 71.61 63.9507C71.5893 63.9636 71.5703 63.9794 71.5545 63.9984C70.9209 64.5806 70.1143 65.3178 69.2801 65.7003C68.4163 66.0965 67.5144 66.1123 66.7576 65.175C66.7378 65.1552 66.728 65.1374 66.7102 65.1176C66.313 64.6004 65.9336 63.9288 65.2323 63.7962C63.7548 63.5188 63.0357 64.985 62.8489 66.2174C62.6859 67.3565 63.022 68.3609 63.5124 69.3179C63.923 70.0959 64.4601 70.8011 65.1014 71.4044C65.266 71.5629 65.4167 71.7351 65.5521 71.9195C65.4905 71.9304 65.4301 71.947 65.3713 71.9688C65.2356 72.0145 65.103 72.0687 64.9741 72.1314C63.1865 72.934 61.9133 74.9448 61.8858 77.2985C61.8858 77.3721 58.8886 77.3284 58.5092 77.2985C57.0472 77.1638 55.6074 76.7437 54.5786 75.6443C51.6589 72.5236 51.6727 67.8934 52.8725 64.2717C54.0083 60.834 55.4546 57.4779 57.3491 54.3851C61.4545 47.6924 67.8245 42.7549 75.8884 42.3109C77.8219 42.2139 79.7607 42.3267 81.6703 42.6477C82.5734 42.7897 83.4672 42.9882 84.3456 43.2421C92.5664 46.8206 97.784 54.9317 97.7366 64.4161" fill="white"/>
<path d="M92.9669 140.716C91.9957 143.203 89.6836 144.625 87.8028 143.886C85.922 143.148 85.183 140.548 86.1522 138.061C87.1214 135.575 89.4355 134.151 91.3163 134.891C93.1971 135.632 93.9381 138.232 92.9669 140.718" fill="white"/>
<path fill-rule="evenodd" clip-rule="evenodd" d="M97.965 162.922C97.965 162.922 92.6898 199.605 113.791 195.539C134.777 191.492 142.72 106.326 81.9741 94.0776" fill="white"/>
<path fill-rule="evenodd" clip-rule="evenodd" d="M48.5598 127.606C48.5598 127.606 31.534 141.928 40.7082 156.253L48.5598 127.606Z" fill="white"/>
<path fill-rule="evenodd" clip-rule="evenodd" d="M98.349 152.733C98.0571 152.751 97.64 152.557 97.3559 152.479C96.9955 152.384 96.6388 152.283 96.2854 152.174C94.2108 151.53 92.2595 150.544 90.5112 149.258C90.114 148.974 89.4071 148.792 88.9223 148.978C88.373 149.179 87.977 149.663 87.8894 150.241C87.7407 151.263 88.4638 152.263 89.2522 152.919C90.1878 153.7 91.159 154.419 92.2931 154.886C93.3876 155.325 94.5173 155.672 95.6697 155.923C96.1917 156.044 96.7223 156.121 97.2408 156.254" fill="white"/>
<path fill-rule="evenodd" clip-rule="evenodd" d="M104.883 142.808C105.097 143.937 105.254 145.11 105.147 146.258C105.058 147.228 104.708 148.362 103.625 148.598C103.42 148.652 103.206 148.671 102.994 148.655C98.9182 148.415 95.5595 147.011 91.7241 144.244C87.8891 141.479 86.5385 147.848 90.0419 148.978" fill="white"/>
<path fill-rule="evenodd" clip-rule="evenodd" d="M90.1897 153.688C90.0957 153.611 90.0061 153.528 89.9214 153.44C88.0126 151.449 87.6672 155.449 89.6713 156.626L89.9295 156.779C90.0644 156.836 90.2096 156.904 90.3522 156.977C90.4199 156.995 90.4953 157.024 90.565 157.044C92.3765 157.837 94.3048 158.344 96.2038 158.861C94.3246 158.249 92.4519 157.647 90.565 157.044C90.4021 156.977 90.2473 156.91 90.0843 156.832C90.0344 156.811 89.9826 156.796 89.9295 156.785C89.8606 156.753 89.7807 156.761 89.7187 156.804C89.6737 156.842 89.6405 156.891 89.6234 156.947C89.3158 157.684 89.5659 158.613 89.9591 159.273C90.3721 159.97 91.0815 160.507 91.7807 160.89C93.6615 161.942 95.8483 162.564 97.9594 162.937C98.3513 163.018 98.7522 163.043 99.1511 163.014" fill="white"/>
<path fill-rule="evenodd" clip-rule="evenodd" d="M116.182 167.554C116.182 167.554 109.709 156.549 108.987 146.982C108.546 141.06 106.803 139.806 105.555 139.721" fill="white"/>
<path fill-rule="evenodd" clip-rule="evenodd" d="M103.626 148.595L104.886 142.808L105.557 139.717L110.534 116.801C110.684 116.11 110.512 115.389 110.067 114.839C109.622 114.288 108.951 113.968 108.242 113.968H78.4768C77.3868 113.967 76.44 114.717 76.1947 115.777L70.3334 140.848L66.0554 159.141L65.6582 160.855C65.4981 161.55 65.6634 162.28 66.1081 162.838C66.5524 163.396 67.2277 163.722 67.9423 163.724H97.8523" fill="white"/>
<path d="M66.7219 64.5153C66.7219 64.5153 68.2971 57.8525 77.1912 56.9686C86.0853 56.0851 88.3139 62.7143 88.3139 62.7143L88.0338 63.3823C88.0338 63.3823 76.3412 58.7024 69.884 65.3814C69.884 65.3814 67.5582 66.4335 66.7219 64.5193" fill="white"/>
<path fill-rule="evenodd" clip-rule="evenodd" d="M69.1223 140.685L55.2887 137.238C54.3888 137.016 53.4403 137.319 52.8375 138.022C52.2348 138.724 52.0808 139.705 52.4399 140.558C52.7986 141.41 53.6089 141.988 54.5339 142.05L61.0746 142.481" fill="white"/>
<path fill-rule="evenodd" clip-rule="evenodd" d="M102.251 102.187C102.251 102.187 72.0353 126.604 45.6704 97.4415L102.251 102.187Z" fill="white"/>
<path fill-rule="evenodd" clip-rule="evenodd" d="M44.7227 131.566C44.1564 125.797 41.2905 112.392 26.968 112.766L44.7227 131.566Z" fill="white"/>
<path fill-rule="evenodd" clip-rule="evenodd" d="M114.094 112.762C114.094 112.762 111.394 113.503 110.36 115.314L114.094 112.762Z" fill="white"/>
<path d="M89.5173 72.8368C90.7273 73.8509 91.5035 75.5075 91.5035 77.3817C91.5035 80.4923 89.3369 83.0085 86.6592 83.0085C86.3564 83.0069 86.0549 82.9717 85.7598 82.9034C88.8781 80.5258 89.5096 72.8368 89.5096 72.8368" fill="white"/>
<path fill-rule="evenodd" clip-rule="evenodd" d="M71.8785 85.3932C74.919 86.9026 78.4626 87.0389 81.6109 85.7676C90.3858 82.1119 90.0502 71.3378 89.1386 65.4812C89.0656 65.0061 88.9622 64.5363 88.8285 64.0745C87.8216 60.7262 85.1937 57.998 81.7317 57.2233C75.0264 55.7115 68.8952 59.5038 66.3508 64.6095" fill="white"/>
<path fill-rule="evenodd" clip-rule="evenodd" d="M88.9125 64.1784C88.9125 64.1784 88.8846 64.1388 88.827 64.0737C88.2312 63.4037 84.7813 60.2082 74.7948 62.5044C73.6488 62.7656 72.5706 63.2646 71.6306 63.9686C71.6083 63.9811 71.5885 63.9973 71.571 64.0159" fill="white"/>
<path fill-rule="evenodd" clip-rule="evenodd" d="M62.2925 80.4098H57.3529C53.7875 80.4098 50.9614 77.1528 49.732 74.0955C48.004 69.7961 49.1102 65.3956 50.6655 61.2171C51.9683 57.72 53.625 54.3223 55.8037 51.2808C60.6816 44.4752 68.0464 40.6194 76.5116 41.3327C77.2623 41.3962 78.0102 41.4888 78.754 41.6101C90.1211 43.449 97.7858 52.9293 97.7282 64.4111C97.7043 67.0781 97.3565 69.7327 96.6913 72.3164C96.0671 74.8141 94.0388 76.7185 91.5017 77.1884" fill="white"/>
<path fill-rule="evenodd" clip-rule="evenodd" d="M65.5564 71.9199C65.4202 71.7355 65.2694 71.5624 65.1056 71.4027C64.464 70.8002 63.9269 70.0959 63.5167 69.3183C63.0258 68.3612 62.6902 67.3568 62.8531 66.2178C63.0359 64.993 63.755 63.5192 65.2365 63.7966C65.9378 63.9312 66.3111 64.6008 66.7144 65.118C68.2474 67.0993 70.3589 65.1083 71.654 63.9114" fill="white"/>
<path fill-rule="evenodd" clip-rule="evenodd" d="M89.5173 72.8368C90.7273 73.8509 91.5035 75.5075 91.5035 77.3817C91.5035 80.4923 89.3369 83.0085 86.6592 83.0085C86.3564 83.0069 86.0549 82.9717 85.7598 82.9034" fill="white"/>
<path fill-rule="evenodd" clip-rule="evenodd" d="M79.1526 76.6551C80.2373 77.3821 82.857 77.9785 82.3305 75.8229C81.699 73.2691 80.849 67.8125 86.0548 67.3964C86.0548 67.3964 88.3466 67.4934 89.4788 68.2702" fill="white"/>
<path fill-rule="evenodd" clip-rule="evenodd" d="M81.1123 80.9256C81.1123 80.9256 78.4905 82.3125 77.1914 79.5488L81.1123 80.9256Z" fill="white"/>
<path d="M75.7951 71.1274C75.6937 72.0048 76.0375 72.7638 76.564 72.8252C77.0901 72.8867 77.5988 72.2309 77.7018 71.3474C77.8052 70.4635 77.4578 69.7126 76.9333 69.6511C76.4087 69.5897 75.8964 70.2455 75.7951 71.1274Z" fill="white"/>
<path d="M84.3324 71.6449C84.2311 72.5208 84.5744 73.2817 85.101 73.3432C85.6271 73.4047 86.1358 72.7488 86.2371 71.8649C86.3385 70.9814 85.9947 70.2285 85.4702 70.1691C84.9461 70.1096 84.4338 70.7635 84.3324 71.6449Z" fill="white"/>
<path fill-rule="evenodd" clip-rule="evenodd" d="M79.1514 67.9567C79.1514 67.9567 77.5467 65.4881 73.9099 67.8301L79.1514 67.9567Z" fill="white"/>
<path fill-rule="evenodd" clip-rule="evenodd" d="M27.697 167.552C27.697 167.552 33.3557 162.203 40.7046 156.259C47.1021 151.082 54.7749 145.437 61.0768 142.481C61.8835 142.107 62.6658 141.772 63.4266 141.49C65.2418 140.801 67.1899 140.529 69.125 140.698C69.5303 140.731 69.9332 140.786 70.3325 140.86" fill="white"/>
<path fill-rule="evenodd" clip-rule="evenodd" d="M66.0549 159.142C59.8401 160.999 55.9253 165.381 52.9719 171.534C51.0072 175.619 49.3072 180.316 46.2189 183.704C43.2177 186.975 39.7059 189.846 35.6402 191.693C28.2635 195.041 19.1806 194.784 14.3879 187.503C11.1464 182.565 9.87129 176.431 9.22379 170.662C8.11153 160.634 11.6231 132.369 26.9685 112.764C31.8982 106.458 38.0474 101.053 45.6627 97.4353C51.0072 94.9029 57.0493 93.2467 63.8976 92.7772L65.8165 82.9043" fill="white"/>
<path d="M71.56 77.3823C71.5787 78.8675 71.0501 80.3082 70.074 81.4298C69.5268 81.6826 68.9313 81.8128 68.3282 81.8124C65.6529 81.8124 63.4839 79.2961 63.4839 76.1855C63.4648 74.7003 63.9942 73.26 64.9715 72.1396C65.5183 71.8861 66.1146 71.7547 66.7173 71.7555C69.393 71.7555 71.56 74.2737 71.56 77.3823Z" fill="white"/>
<path d="M66.7214 83.0092C69.3936 83.0092 71.5598 80.49 71.5598 77.3823C71.5598 74.2747 69.3936 71.7555 66.7214 71.7555C64.0493 71.7555 61.8831 74.2747 61.8831 77.3823C61.8831 80.49 64.0493 83.0092 66.7214 83.0092Z" fill="white"/>
<path d="M115.087 112.767C114.888 112.824 112.354 113.559 111.357 115.311C110.97 114.492 110.143 113.97 109.236 113.971H79.4726C78.3822 113.97 77.4349 114.72 77.1905 115.78L71.3292 140.85C70.932 140.772 70.5347 140.725 70.1217 140.685L56.2897 137.242C55.0603 136.934 53.7976 137.609 53.374 138.801C53.282 139.059 53.2362 139.331 53.239 139.605C53.239 140.896 54.2398 141.968 55.5309 142.058L62.0715 142.478C55.7712 145.436 48.1066 151.071 41.709 156.248C35.4844 146.526 41.3258 136.806 45.7191 131.571C45.1532 125.801 42.285 112.406 27.9746 112.771C32.9043 106.464 39.0516 101.059 46.6688 97.4415C72.7593 126.289 102.608 102.704 103.241 102.197C107.705 105.101 111.7 108.667 115.087 112.771" fill="#2E2E2E"/>
<path d="M112.374 195.521V200.506H26.2109V193.444C29.5676 193.642 33.0991 192.85 36.3107 191.405C40.3765 189.559 43.8882 186.69 46.891 183.417C49.9798 180.029 51.6761 175.331 53.6441 171.246C56.5999 165.094 60.5147 160.711 66.7274 158.855L66.3302 160.559C66.1685 161.253 66.3335 161.984 66.7777 162.543C67.222 163.102 67.8973 163.428 68.6123 163.43H98.5244C97.9285 168.581 95.4158 196.715 112.374 195.527" fill="#2E2E2E"/>
<path d="M98.54 64.4161C98.5161 67.0815 98.1679 69.734 97.5031 72.3158C96.8838 74.8154 94.8542 76.7215 92.3155 77.1877C92.2657 75.3888 91.4991 73.8094 90.3293 72.8289C90.4359 71.3057 90.4205 69.7765 90.2835 68.2561C90.2061 67.2513 90.0849 66.3145 89.9576 65.4722C89.8818 64.9931 89.7724 64.5196 89.6301 64.0558C89.2308 63.6276 88.7602 63.2718 88.2398 63.0037C86.3983 61.9694 82.6087 60.8696 75.5877 62.4865C74.4414 62.7481 73.3628 63.2471 72.4215 63.9507C72.4009 63.9636 72.3818 63.9794 72.366 63.9984C71.7325 64.5806 70.9258 65.3178 70.0916 65.7003C69.2278 66.0965 68.3259 66.1123 67.5691 65.175C67.5493 65.1552 67.5396 65.1374 67.5217 65.1176C67.1245 64.6004 66.7451 63.9288 66.0438 63.7962C64.5663 63.5188 63.8473 64.985 63.6604 66.2174C63.4974 67.3565 63.8335 68.3609 64.3239 69.3179C64.7346 70.0959 65.2717 70.8011 65.9129 71.4044C66.0775 71.5629 66.2283 71.7351 66.3637 71.9195C66.302 71.9304 66.2416 71.947 66.1829 71.9688C66.0471 72.0145 65.9145 72.0687 65.7856 72.1314C63.998 72.934 62.7249 74.9448 62.6973 77.2985C62.6973 77.3721 59.7002 77.3284 59.3208 77.2985C57.8587 77.1638 56.4189 76.7437 55.3901 75.6443C52.4704 72.5236 52.4842 67.8934 53.684 64.2717C54.8198 60.834 56.2661 57.4779 58.1607 54.3851C62.266 47.6924 68.636 42.7549 76.7 42.3109C78.6335 42.2139 80.5722 42.3267 82.4818 42.6477C83.3849 42.7897 84.2787 42.9882 85.1571 43.2421C93.3779 46.8206 98.5955 54.9317 98.5481 64.4161" fill="#2E2E2E"/>
<path d="M93.7774 140.716C92.8062 143.203 90.4941 144.625 88.6133 143.886C86.7325 143.148 85.9936 140.548 86.9627 138.061C87.9319 135.575 90.246 134.151 92.1268 134.891C94.0077 135.632 94.7486 138.232 93.7774 140.718" fill="#51A951"/>
<path d="M98.7765 162.922C98.7765 162.922 93.5014 199.605 114.602 195.539C135.589 191.492 143.532 106.326 82.7856 94.0776" stroke="black" stroke-width="0.821721"/>
<path d="M49.3713 127.606C49.3713 127.606 32.3455 141.928 41.5198 156.253" stroke="black" stroke-width="0.821721"/>
<path d="M99.1595 152.733C98.8677 152.751 98.4506 152.557 98.1664 152.479C97.8061 152.384 97.4494 152.283 97.0959 152.174C95.0214 151.53 93.07 150.544 91.3218 149.258C90.9245 148.974 90.2176 148.792 89.7328 148.978C89.1836 149.179 88.7875 149.663 88.7 150.241C88.5512 151.263 89.2744 152.263 90.0628 152.919C90.9983 153.7 91.9695 154.419 93.1037 154.886C94.1981 155.325 95.3278 155.672 96.4802 155.923C97.0023 156.044 97.5329 156.121 98.0513 156.254" stroke="black" stroke-width="0.821721"/>
<path d="M105.694 142.808C105.909 143.937 106.066 145.11 105.959 146.258C105.869 147.228 105.52 148.362 104.437 148.598C104.231 148.652 104.018 148.671 103.805 148.655C99.7297 148.415 96.371 147.011 92.5356 144.244C88.7007 141.479 87.35 147.848 90.8535 148.978" stroke="black" stroke-width="0.821721"/>
<path d="M91.0002 153.688C90.9062 153.611 90.8166 153.528 90.7319 153.44C88.8231 151.449 88.4778 155.449 90.4818 156.626L90.74 156.779C90.875 156.836 91.0201 156.904 91.1628 156.977C91.2305 156.995 91.3059 157.024 91.3756 157.044M91.3756 157.044C93.1871 157.837 95.1153 158.344 97.0144 158.861C95.1352 158.249 93.2625 157.647 91.3756 157.044ZM91.3756 157.044C91.2126 156.977 91.0578 156.91 90.8949 156.832C90.845 156.811 90.7931 156.796 90.74 156.785C90.6711 156.753 90.5913 156.761 90.5292 156.804C90.4842 156.842 90.451 156.891 90.434 156.947C90.1263 157.684 90.3764 158.613 90.7696 159.273C91.1827 159.97 91.892 160.507 92.5912 160.89C94.472 161.942 96.6589 162.564 98.7699 162.937C99.1619 163.018 99.5628 163.043 99.9616 163.014" stroke="black" stroke-width="0.821721"/>
<path d="M116.993 167.554C116.993 167.554 110.52 156.549 109.799 146.982C109.358 141.06 107.614 139.806 106.367 139.721" stroke="black" stroke-width="0.821721"/>
<path d="M104.437 148.595L105.696 142.808L106.367 139.717L111.345 116.801C111.494 116.11 111.322 115.389 110.877 114.839C110.432 114.288 109.761 113.968 109.053 113.968H79.2874C78.1974 113.967 77.2505 114.717 77.0053 115.777L71.144 140.848L66.8659 159.141L66.4687 160.855C66.3086 161.55 66.474 162.28 66.9186 162.838C67.3629 163.396 68.0382 163.722 68.7528 163.724H98.6629" stroke="black" stroke-width="0.821721"/>
<path d="M67.5315 64.5153C67.5315 64.5153 69.1067 57.8525 78.0008 56.9686C86.8949 56.0851 89.1235 62.7143 89.1235 62.7143L88.8434 63.3823C88.8434 63.3823 77.1508 58.7024 70.6936 65.3814C70.6936 65.3814 68.3677 66.4335 67.5315 64.5193" fill="#51A951"/>
<path d="M69.9319 140.685L56.0982 137.238C55.1984 137.016 54.2499 137.319 53.6471 138.022C53.0444 138.724 52.8903 139.705 53.2495 140.558C53.6082 141.41 54.4185 141.988 55.3435 142.05L61.8841 142.481" stroke="black" stroke-width="0.821721"/>
<path d="M103.062 102.187C103.062 102.187 72.8459 126.604 46.481 97.4415" stroke="black" stroke-width="0.821721"/>
<path d="M45.5342 131.566C44.9679 125.797 42.1022 112.392 27.7795 112.766" stroke="black" stroke-width="0.821721"/>
<path d="M114.905 112.762C114.905 112.762 112.206 113.503 111.171 115.314" stroke="black" stroke-width="0.821721"/>
<path d="M90.3279 72.8368C91.5378 73.8509 92.3141 75.5075 92.3141 77.3817C92.3141 80.4923 90.1475 83.0085 87.4698 83.0085C87.167 83.0069 86.8654 82.9717 86.5703 82.9034C89.6886 80.5258 90.3202 72.8368 90.3202 72.8368" fill="#51A951"/>
<path d="M72.6881 85.3932C75.7286 86.9026 79.2721 87.0389 82.4205 85.7676C91.1954 82.112 90.8598 71.3378 89.9481 65.4812C89.8752 65.0061 89.7718 64.5363 89.638 64.0745C88.6312 60.7262 86.0033 57.998 82.5412 57.2233C75.836 55.7115 69.7048 59.5038 67.1604 64.6095" stroke="black" stroke-width="0.821721"/>
<path d="M89.7231 64.1784C89.7231 64.1784 89.6951 64.1388 89.6376 64.0737C89.0417 63.4037 85.5918 60.2082 75.6053 62.5044C74.4594 62.7656 73.3812 63.2646 72.4412 63.9686C72.4189 63.9811 72.399 63.9973 72.3816 64.0159" stroke="black" stroke-width="0.821721"/>
<path d="M63.1038 80.4098H58.1642C54.5988 80.4098 51.7727 77.1528 50.5433 74.0955C48.8153 69.7961 49.9215 65.3956 51.4768 61.2171C52.7796 57.72 54.4362 54.3223 56.615 51.2808C61.4929 44.4752 68.8576 40.6194 77.3229 41.3327C78.0736 41.3962 78.8214 41.4888 79.5653 41.6101C90.9324 43.449 98.5971 52.9293 98.5395 64.4111C98.5156 67.0781 98.1678 69.7327 97.5026 72.3164C96.8784 74.8141 94.85 76.7185 92.313 77.1884" stroke="black" stroke-width="0.821721"/>
<path d="M66.3679 71.9199C66.2317 71.7355 66.0809 71.5624 65.9171 71.4027C65.2755 70.8002 64.7384 70.0959 64.3282 69.3183C63.8373 68.3612 63.5017 67.3568 63.6646 66.2178C63.8474 64.993 64.5665 63.5192 66.0481 63.7966C66.7493 63.9312 67.1226 64.6008 67.526 65.118C69.059 67.0993 71.1704 65.1083 72.4655 63.9114" stroke="black" stroke-width="0.821721"/>
<path d="M90.3279 72.8368C91.5378 73.8509 92.3141 75.5075 92.3141 77.3817C92.3141 80.4923 90.1475 83.0085 87.4698 83.0085C87.167 83.0069 86.8654 82.9717 86.5703 82.9034" stroke="black" stroke-width="0.821721"/>
<path d="M79.9622 76.6551C81.0469 77.3821 83.6666 77.9785 83.1401 75.8229C82.5085 73.2691 81.6585 67.8125 86.8644 67.3964C86.8644 67.3964 89.1562 67.4934 90.2883 68.2702" stroke="black" stroke-width="0.821721"/>
<path d="M81.9229 80.9256C81.9229 80.9256 79.3011 82.3125 78.002 79.5488" stroke="black" stroke-width="0.821721"/>
<path d="M76.6046 71.1274C76.5033 72.0048 76.847 72.7638 77.3736 72.8252C77.8997 72.8867 78.4084 72.2309 78.5114 71.3474C78.6147 70.4635 78.2674 69.7126 77.7428 69.6511C77.2183 69.5897 76.706 70.2455 76.6046 71.1274Z" fill="black"/>
<path d="M85.143 71.6449C85.0416 72.5208 85.385 73.2817 85.9115 73.3432C86.4376 73.4047 86.9464 72.7488 87.0477 71.8649C87.149 70.9814 86.8053 70.2285 86.2808 70.1691C85.7567 70.1096 85.2443 70.7635 85.143 71.6449Z" fill="black"/>
<path d="M79.962 67.9567C79.962 67.9567 78.3572 65.4881 74.7205 67.8301" stroke="black" stroke-width="0.821721"/>
<path d="M82.7837 85.6049V99.2996" stroke="black" stroke-width="0.821721"/>
<path d="M28.5085 167.552C28.5085 167.552 34.1672 162.203 41.5161 156.259C47.9137 151.082 55.5865 145.437 61.8884 142.481C62.695 142.107 63.4773 141.772 64.2382 141.49C66.0533 140.801 68.0014 140.529 69.9365 140.698C70.3419 140.731 70.7448 140.786 71.144 140.86" stroke="black" stroke-width="0.821721"/>
<path d="M66.8654 159.142C60.6506 160.999 56.7358 165.381 53.7825 171.534C51.8178 175.619 50.1177 180.316 47.0294 183.704C44.0282 186.975 40.5165 189.846 36.4507 191.693C29.074 195.041 19.9911 194.784 15.1984 187.503C11.957 182.565 10.6818 176.431 10.0343 170.662C8.92207 160.634 12.4337 132.369 27.779 112.764C32.7087 106.458 38.858 101.053 46.4733 97.4353C51.8178 94.9029 57.8598 93.2467 64.7082 92.7772L66.6271 82.9043" stroke="black" stroke-width="0.821721"/>
<path d="M72.3715 77.3823C72.3902 78.8675 71.8616 80.3082 70.8855 81.4298C70.3383 81.6826 69.7429 81.8128 69.1397 81.8124C66.4644 81.8124 64.2954 79.2961 64.2954 76.1855C64.2764 74.7003 64.8057 73.26 65.783 72.1396C66.3298 71.8861 66.9261 71.7547 67.5289 71.7555C70.2045 71.7555 72.3715 74.2737 72.3715 77.3823Z" fill="#51A951"/>
<path d="M67.533 83.0092C70.2051 83.0092 72.3713 80.49 72.3713 77.3823C72.3713 74.2747 70.2051 71.7555 67.533 71.7555C64.8608 71.7555 62.6946 74.2747 62.6946 77.3823C62.6946 80.49 64.8608 83.0092 67.533 83.0092Z" stroke="black" stroke-width="0.821721"/>
</g>
<path fill-rule="evenodd" clip-rule="evenodd" d="M136.995 3.23821C130.899 1.42552 124.309 3.45425 120.297 8.37841C116.286 13.3026 115.643 20.1524 118.668 25.7339C121.694 31.3154 127.792 34.5293 134.119 33.877C140.446 33.2247 145.756 28.8346 147.574 22.7539C150.055 14.4509 145.319 5.71337 136.995 3.23821ZM129.094 29.6765C127.877 29.3143 127.186 28.037 127.549 26.8235C127.912 25.61 129.192 24.9198 130.409 25.282C131.626 25.6442 132.317 26.9216 131.954 28.1351C131.591 29.3486 130.311 30.0387 129.094 29.6765ZM136.943 13.8718C136.974 13.7965 137.006 13.7192 137.039 13.64H137.033C137.092 13.4998 137.157 13.3541 137.222 13.2039C137.866 11.7379 138.696 9.84699 137.498 8.60157C136.302 7.36524 133.765 6.81246 132.421 8.1003C131.232 9.22891 131.086 11.4431 130.967 13.248C130.934 13.7434 130.903 14.208 130.854 14.6108C130.484 17.1705 130.285 19.7519 130.258 22.3379C130.262 23.17 131.7 23.5979 132.159 22.9045C134.052 20.0603 135.655 17.0344 136.943 13.8718Z" fill="#51A951"/>
<path fill-rule="evenodd" clip-rule="evenodd" d="M147.875 93.1918C145.644 95.4553 144.999 98.8368 146.241 101.759C147.484 104.682 150.369 106.57 153.551 106.542C156.734 106.515 159.586 104.578 160.778 101.635C161.97 98.6917 161.268 95.3214 158.998 93.0967C155.9 90.0601 150.921 90.103 147.875 93.1918ZM157.742 102.867C157.297 103.319 156.569 103.325 156.116 102.88C155.662 102.436 155.656 101.71 156.102 101.258C156.39 100.965 156.812 100.848 157.21 100.951C157.608 101.054 157.921 101.361 158.03 101.756C158.14 102.151 158.03 102.574 157.742 102.867ZM152.871 96.19C152.73 96.0072 152.59 95.8257 152.451 95.6445C152.371 95.5438 152.292 95.4347 152.21 95.3231C151.749 94.6931 151.23 93.9823 150.366 94.2281C149.537 94.4659 148.699 95.4545 148.956 96.3501C149.177 97.1386 150.125 97.722 150.898 98.1971C151.109 98.3273 151.307 98.4491 151.474 98.5651C152.522 99.3285 153.62 100.021 154.761 100.637C155.131 100.832 155.657 100.297 155.458 99.9322C154.745 98.6189 153.794 97.386 152.871 96.19Z" fill="#51A951"/>
<path fill-rule="evenodd" clip-rule="evenodd" d="M178.721 30.3345C180.91 27.6489 180.501 23.7021 177.809 21.519C175.117 19.3359 171.16 19.743 168.972 22.4283C166.783 25.1136 167.191 29.0604 169.883 31.2439C171.176 32.2927 172.833 32.786 174.491 32.6155C176.149 32.4449 177.67 31.6244 178.721 30.3345ZM170.147 23.3821C170.354 23.128 170.681 23.0033 171.005 23.055C171.329 23.1066 171.601 23.3267 171.718 23.6325C171.835 23.9382 171.78 24.2831 171.573 24.5372C171.366 24.7914 171.039 24.9161 170.715 24.8645C170.391 24.8128 170.119 24.5927 170.002 24.2869C169.885 23.9811 169.94 23.6363 170.147 23.3821ZM174.516 28.3198C174.645 28.4576 174.773 28.5948 174.9 28.7316V28.7197C174.967 28.7915 175.035 28.8691 175.104 28.9484C175.52 29.4229 175.99 29.9599 176.669 29.6985C177.311 29.4568 177.903 28.6068 177.633 27.9153C177.398 27.3035 176.602 26.912 175.953 26.5929C175.774 26.5049 175.606 26.4223 175.464 26.3422C174.57 25.8122 173.642 25.3422 172.685 24.9355C172.383 24.8087 171.998 25.2723 172.185 25.5477C172.853 26.5409 173.695 27.4423 174.516 28.3198Z" fill="#51A951"/>
<path d="M116.275 71.6533C118.491 75.4177 118.39 78.0985 117.814 82.4436C117.584 84.0978 119.369 85.2174 120.817 84.3853C133.61 77.0545 145.551 82.8516 160.805 79.2578C166.406 77.9461 173.39 75.2277 178.176 70.8571C179.765 68.5042 180.613 65.7325 180.614 62.896C180.614 51.0082 164.327 41.3573 144.24 41.3573C131.368 41.3573 120.058 45.3199 113.593 51.2897C113.593 51.2897 113.593 51.2897 113.576 51.3074C111.935 53.7586 111.033 56.437 111.033 59.2326C111.023 63.4984 114.203 68.1229 116.275 71.6533Z" fill="#51A951"/>
<path fill-rule="evenodd" clip-rule="evenodd" d="M111.082 59.232V59.5333C111.154 63.694 113.247 67.5713 115.726 70.9257C117.386 73.1686 119.357 75.661 118.89 78.4109C118.691 79.6236 118.006 80.723 117.835 81.9397C117.664 83.1559 118.314 84.6738 119.545 84.7373C120.328 84.7769 120.993 84.2222 121.613 83.7467C125.278 80.9134 130.04 79.8532 134.672 79.6672C139.304 79.4808 143.93 80.091 148.564 80.222C155.245 80.4201 162.032 79.5799 168.203 77.024C173.733 74.7375 178.8 70.9851 182.127 65.9725C185.396 61.0508 183.463 53.9044 179.975 49.6248C176.706 45.6089 171.969 43.0388 167.111 41.2282C154.043 36.362 139.129 36.473 126.243 41.8048C122.418 43.3898 118.717 45.4504 115.849 48.432C113.054 51.3364 111.112 55.208 111.082 59.232Z" stroke="black" stroke-width="0.821721"/>
<path d="M164.697 63.9681C167.467 63.9681 169.714 61.7274 169.714 58.9633C169.714 56.1993 167.467 53.9586 164.697 53.9586C161.926 53.9586 159.679 56.1993 159.679 58.9633C159.679 61.7274 161.926 63.9681 164.697 63.9681Z" fill="white"/>
<path d="M148.469 63.9681C151.24 63.9681 153.486 61.7274 153.486 58.9633C153.486 56.1993 151.24 53.9586 148.469 53.9586C145.698 53.9586 143.452 56.1993 143.452 58.9633C143.452 61.7274 145.698 63.9681 148.469 63.9681Z" fill="white"/>
<path d="M131.927 63.9681C134.697 63.9681 136.944 61.7274 136.944 58.9633C136.944 56.1993 134.697 53.9586 131.927 53.9586C129.156 53.9586 126.909 56.1993 126.909 58.9633C126.909 61.7274 129.156 63.9681 131.927 63.9681Z" fill="white"/>
</svg>
