<svg

        viewBox="0 0 90 90"
        fill="none"
        xmlns="http://www.w3.org/2000/svg"
>
    <circle cx="44.6221" cy="44.6221" r="44.6221" fill="#0000FF" />
    <path
            d="M56.4065 50.9855H52.3738V55.0183H56.4065M56.4065 42.92H52.3738V46.9528H56.4065M60.4392 59.051H44.3083V55.0183H48.341V50.9855H44.3083V46.9528H48.341V42.92H44.3083V38.8873H60.4392M40.2755 34.8546H36.2428V30.8218H40.2755M40.2755 42.92H36.2428V38.8873H40.2755M40.2755 50.9855H36.2428V46.9528H40.2755M40.2755 59.051H36.2428V55.0183H40.2755M32.21 34.8546H28.1773V30.8218H32.21M32.21 42.92H28.1773V38.8873H32.21M32.21 50.9855H28.1773V46.9528H32.21M32.21 59.051H28.1773V55.0183H32.21M44.3083 34.8546V26.7891H24.1445V63.0838H64.472V34.8546H44.3083Z"
            fill="white"
    />
</svg>