<svg width="187" height="186" viewBox="0 0 187 186" fill="none" xmlns="http://www.w3.org/2000/svg">
<path d="M8.31338 104.489C8.16933 102.644 8.05821 100.798 7.96973 98.9556" stroke="#212020" stroke-width="0.821721"/>
<path d="M112.467 170.836H60.1946" stroke="#212020" stroke-width="0.821721"/>
<path d="M127.726 38.9519C127.726 38.9519 143.131 31.6255 156.2 45.9195C160.469 50.5909 163.383 56.7897 163.589 63.1855C163.683 66.3061 163.183 69.416 162.118 72.3478C161.033 75.3405 159.087 77.3219 157.591 79.9871C155.296 84.097 160.093 84.8241 162.667 86.8158C164.378 88.1506 166.001 89.5963 167.525 91.1433C170.962 94.5993 173.985 98.4478 176.535 102.61C181.583 110.901 184.623 120.273 185.408 129.967C186.184 139.526 185.589 149.905 180.722 158.396C178.38 162.485 174.853 166.495 170.516 168.402C164.754 170.932 158.282 170.837 152.125 170.837H139.023" stroke="#212020" stroke-width="0.821721"/>
<path d="M63.1585 134.257L63.1182 134.327L63.1071 134.406C62.6019 138.025 61.8538 142.171 61.024 146.336L60.2642 146.554C60.2639 146.554 60.2636 146.555 60.2634 146.555C57.2624 147.403 54.0836 147.347 51.1188 146.397L52.3209 142.284L52.3574 142.159L52.3154 142.036L44.4578 119.011C44.6235 118.958 44.8375 118.889 45.0931 118.807C45.7438 118.597 46.6636 118.302 47.7401 117.962C49.8798 117.284 52.6366 116.425 55.1285 115.691L55.6021 115.67C56.9328 115.959 58.9216 116.631 60.6026 118.185C62.293 119.748 63.7063 122.234 63.7925 126.223L63.7926 126.227C63.8004 126.479 63.798 126.733 63.7954 127.009C63.7939 127.157 63.7924 127.311 63.7924 127.475V127.535L63.8099 127.593C64.575 130.132 64.2679 132.343 63.1585 134.257Z" fill="#51A951" stroke="#212020" stroke-width="0.821721"/>
<path d="M35.6491 59.187C35.9626 59.0771 36.2658 58.9395 36.5551 58.7758L36.5697 58.7675L36.585 58.7604C37.4825 58.3453 38.5555 57.6434 39.2522 56.9354C39.6045 56.5773 39.8255 56.2526 39.9063 55.993C39.9449 55.869 39.9466 55.7757 39.9303 55.7052C39.9149 55.6385 39.8772 55.5645 39.788 55.4846C39.1015 54.8691 38.801 53.9807 38.7643 53.1098C38.7276 52.2393 38.951 51.3384 39.371 50.6432L39.3719 50.6415C39.5082 50.4183 39.7027 50.1805 39.9448 50.012C40.189 49.8421 40.5208 49.7189 40.888 49.8213C41.1266 49.8874 41.305 50.0285 41.4374 50.1686C41.5666 50.3055 41.6709 50.4625 41.7503 50.583M35.6491 59.187L41.4079 50.8101M35.6491 59.187C35.6382 59.1907 35.6266 59.1951 35.6147 59.2003C35.5727 59.2187 35.3756 59.3181 35.369 59.5655C35.3703 59.5882 35.3748 59.6156 35.381 59.6439C34.2504 59.9691 33.0885 60.1753 31.9139 60.259C30.2639 60.3699 28.7063 60.179 27.5436 59.5688C27.5528 59.5376 27.5625 59.5048 27.5725 59.4706C27.6179 59.3164 27.6716 59.1339 27.7258 58.9472C27.7861 58.7394 27.8462 58.5296 27.893 58.3579C27.9355 58.2019 27.9779 58.0402 27.9892 57.9534C28.0851 57.2203 28.1539 56.4935 28.1977 55.7565L28.1977 55.7556C28.2769 54.3735 28.2705 52.9918 28.2187 51.6215L28.2187 51.6214C28.1259 49.1946 28.2956 46.984 28.7263 45.3163C28.9418 44.4821 29.218 43.8019 29.5458 43.3015C29.8727 42.8023 30.234 42.5065 30.6166 42.3864C30.805 42.3292 30.9854 42.2491 31.154 42.1484C32.2076 41.5586 32.8085 40.2895 32.3012 39.0656L32.3012 39.0655L32.3009 39.0649C34.005 38.592 35.446 38.5368 36.753 38.7515C38.1689 38.9841 39.4516 39.537 40.7666 40.2596C41.2526 40.6528 41.7097 41.0807 42.1344 41.5403C42.8979 42.3754 43.509 43.3364 43.9422 44.3787M35.6491 59.187L43.9422 44.3787M41.7503 50.583C41.7505 50.5833 41.7507 50.5836 41.7509 50.5839L41.4079 50.8101M41.7503 50.583C41.7501 50.5827 41.7499 50.5824 41.7497 50.5821L41.4079 50.8101M41.7503 50.583C41.8868 50.7875 42.0219 50.985 42.1588 51.1848C42.1682 51.1987 42.1777 51.2125 42.1872 51.2263M41.4079 50.8101C41.5459 51.0169 41.6837 51.2182 41.8215 51.4196C41.8895 51.5188 41.9574 51.6181 42.0254 51.718M42.1872 51.2263C42.1531 51.3515 42.1116 51.467 42.0609 51.5717L42.0547 51.5845L42.0494 51.5976C42.053 51.5886 42.0575 51.5803 42.0627 51.5726C42.0722 51.5585 42.0842 51.5468 42.0976 51.5379L42.1486 51.6142L42.156 51.6253L42.1424 51.635L42.0254 51.718M42.1872 51.2263C42.2452 51.3111 42.3035 51.3964 42.3624 51.4829L42.9432 46.1573M42.1872 51.2263C42.2433 51.02 42.2791 50.7874 42.3025 50.5338C42.3266 50.2732 42.336 50.0219 42.3455 49.7664C42.3511 49.6144 42.3569 49.4608 42.3658 49.3028M42.0254 51.718L42.1456 51.6363L42.1577 51.628M42.0254 51.718L42.1577 51.628M42.1577 51.628L42.1698 51.646L42.3258 51.8795L42.2279 51.6694L42.2179 51.6478L42.1577 51.628ZM42.3658 49.3028C42.3657 49.3072 42.3657 49.3116 42.3657 49.316H42.7766L42.3664 49.2925C42.3662 49.2959 42.366 49.2994 42.3658 49.3028ZM42.3658 49.3028C42.3663 49.2587 42.3695 49.2159 42.3716 49.1866L42.372 49.182C42.3748 49.1435 42.3761 49.1238 42.3761 49.1086V49.0936L42.3772 49.0786C42.4487 48.1031 42.5038 47.123 42.5325 46.1463M42.5325 46.1463C42.5325 46.1467 42.5325 46.147 42.5325 46.1474L42.9432 46.1573M42.5325 46.1463C42.5325 46.1459 42.5325 46.1456 42.5325 46.1452L42.9432 46.1573M42.5325 46.1463C42.5429 45.7169 42.6086 45.0877 43.0759 44.7005M42.9432 46.1573C42.9536 45.7262 43.0255 45.2723 43.3425 45.0132M43.0759 44.7005C43.0737 44.7024 43.0716 44.7043 43.0695 44.7062L43.3425 45.0132M43.0759 44.7005C43.2039 44.5882 43.3541 44.5032 43.5174 44.4519M43.0759 44.7005C43.0781 44.6987 43.0803 44.6968 43.0825 44.695L43.3425 45.0132M43.3425 45.0132L43.5174 44.4519M43.5174 44.4519C43.5135 44.4533 43.5095 44.4547 43.5056 44.4562L43.6488 44.8413L43.5296 44.4481C43.5255 44.4493 43.5215 44.4506 43.5174 44.4519ZM43.5174 44.4519C43.6577 44.4013 43.8012 44.3778 43.9422 44.3787M43.5174 44.4519L43.9422 44.3787" fill="#51A951" stroke="#212020" stroke-width="0.821721"/>
<path d="M126.017 92.0116H138.65C141.515 78.6262 142.757 63.7418 138.555 50.4185L138.555 50.418C137.59 47.3459 135.496 44.6073 133.002 42.4684L133.001 42.4679C130.172 40.0321 126.668 38.9017 123.005 38.0533L123.005 38.0532C120.752 37.5308 118.477 37.094 116.181 36.7425C116.125 40.9369 113.165 44.5079 109.213 45.6694C105.547 46.7542 100.999 45.6781 99.2563 41.8219L99.2558 41.8206C99.0678 41.4008 98.9516 40.9526 98.911 40.4946C98.7324 38.7918 99.5192 36.9396 100.893 35.7017C99.351 35.7261 97.459 35.7716 96.2608 35.8514L96.2472 35.8523H96.2335H96.1076C95.3657 35.8969 94.6251 35.9585 93.8864 36.037L95.4312 36.0503C95.4313 36.0503 95.4315 36.0503 95.4317 36.0503L95.4322 36.0503L95.4286 36.4611C96.1709 36.4657 96.7695 37.0734 96.7683 37.8208L126.017 92.0116ZM126.017 92.0116V60.2242L125.197 60.1881L125.606 60.2242C125.197 60.1881 125.197 60.1882 125.197 60.1883L125.197 60.1892L125.196 60.1929L125.195 60.2078L125.19 60.2676C125.185 60.3206 125.178 60.3997 125.168 60.5036C125.148 60.7115 125.118 61.0188 125.078 61.4158C124.998 62.2099 124.875 63.3624 124.707 64.7953C124.37 67.6613 123.851 71.6474 123.12 76.1278C121.673 85.004 119.403 95.7841 116.099 103.641H76.2884C80.7212 100.491 84.285 96.0515 86.7173 91.3106L86.7175 91.3103C87.2342 90.3008 87.878 89.1063 88.7107 88.2575C89.5302 87.4221 90.4778 86.9711 91.6508 87.3069L91.6518 87.3072C91.9995 87.4059 92.4508 87.4937 92.8957 87.4676C93.3411 87.4415 93.8328 87.2964 94.1742 86.8736L94.1807 86.8654L94.1868 86.857C94.4004 86.5631 94.5215 86.2125 94.5365 85.8501C94.6629 84.2293 93.8902 82.7717 92.8064 81.6411C91.7198 80.5077 90.2817 79.6591 88.9728 79.2495C86.3741 78.4361 83.3024 78.8051 81.1908 80.7464L81.1904 80.7467C80.0343 81.812 79.2065 83.1606 78.4156 84.4491C78.1948 84.8088 77.9769 85.1639 77.7555 85.5068C77.3781 86.0836 76.9575 86.6294 76.4975 87.1397C77.4582 81.2115 78.2893 75.6921 78.4531 73.3861C81.0808 71.2304 82.9932 67.8166 83.682 64.7865C83.7716 64.3953 83.8597 64.0058 83.9474 63.618C84.5775 60.8332 85.1874 58.1375 86.1466 55.54L95.4109 55.5723H95.4123C96.391 55.5723 97.1792 54.7737 97.1792 53.7955V37.8214L126.017 92.0116Z" fill="#2E2E2E" stroke="#212020" stroke-width="0.821721"/>
<path d="M78.1626 73.1796C77.8622 78.1245 77.0885 83.0653 76.2488 87.9939" stroke="#212020" stroke-width="0.821721"/>
<path d="M65.1056 65.0397L65.1053 65.0375C64.5487 60.7765 64.4687 56.4678 64.8653 52.1913C65.292 52.7865 65.919 53.4623 66.8199 54.0425C68.3808 55.0476 70.7218 55.7387 74.1758 55.2807C74.3938 55.4082 74.6403 55.4817 74.8946 55.493L74.903 55.4934L74.9113 55.4934L85.3803 55.5365C84.46 58.0972 83.8612 60.746 83.2567 63.4202C83.1677 63.814 83.0786 64.2083 82.9882 64.603C82.3169 67.5193 80.4416 70.8407 77.9064 72.8579C75.7903 74.5402 73.2496 75.3003 70.5393 74.2635C66.9121 72.8705 65.5778 68.8131 65.1056 65.0397Z" fill="#2E2E2E" stroke="#212020" stroke-width="0.821721"/>
<path d="M82.089 44.5014C83.6984 44.0871 84.6777 45.6455 84.4392 46.831C84.0502 48.7647 81.2886 49.5254 79.6444 49.5606C78.3276 49.5875 75.1174 49.2371 73.8088 49.0837" stroke="#212020" stroke-width="0.821721"/>
<path d="M73.2671 45.4592C75.258 46.0389 77.3659 46.074 79.3745 45.5609C81.0639 45.1236 83.06 44.3174 83.9448 42.699C84.4615 41.7579 84.05 40.2574 82.9718 39.9259C81.7266 39.5466 80.5743 40.7942 79.4468 41.1091C78.7193 41.3087 77.9767 41.4474 77.2263 41.5239C77.0207 41.5464 76.827 41.5631 76.6273 41.5797C75.5773 41.6643 74.5216 41.6566 73.473 41.5568C73.2441 41.5568 73.0408 41.4093 72.9689 41.1904C72.8971 40.9716 72.9723 40.731 73.156 40.5931L73.3453 40.4545" stroke="#212020" stroke-width="0.821721"/>
<path d="M85.9689 55.1284C84.8003 58.2017 84.1395 61.4122 83.3888 64.6947C82.1209 70.2056 76.7154 77.0716 70.3916 74.6429C66.5269 73.1587 65.1709 68.8689 64.6975 65.0866C63.9567 59.2297 64.0186 53.2132 65.1094 47.4062C66.0147 42.6229 67.6218 37.5992 72.2436 35.2468L74.4126 34.1546C75.4882 33.607 76.8013 34.0248 77.3695 35.0955C77.5362 35.4154 77.6243 35.7706 77.6269 36.1317C77.6288 36.1846 77.6247 36.2374 77.6143 36.2893" stroke="#212020" stroke-width="0.821721"/>
<path d="M130.023 100.084C131.141 100.049 132.259 100.078 133.373 100.169C134.283 100.244 135.225 100.287 136.092 100.629C136.806 100.915 137.551 101.597 137.514 102.43C137.446 104.063 135.322 104.051 134.157 104.051" stroke="#212020" stroke-width="0.821721"/>
<path opacity="0.54" d="M109.654 98.3785L109.645 98.4027L109.639 98.4279C109.255 99.9707 107.881 101.05 106.307 101.051H66.9208C66.9207 101.051 66.9207 101.051 66.9206 101.051C66.0498 101.05 65.2262 100.649 64.6858 99.9583C64.1525 99.2762 63.9541 98.3877 64.1458 97.5419L74.7459 72.5929L74.7594 72.5611L74.7674 72.5275C75.1379 70.9731 76.5151 69.8793 78.0971 69.8751L116.552 69.8751L116.553 69.8751C117.43 69.8728 118.259 70.278 118.801 70.9744L118.801 70.9745C119.337 71.664 119.532 72.5633 119.329 73.4157L109.654 98.3785Z" fill="white" stroke="#212020" stroke-width="0.821721"/>
<path d="M109.654 98.3785L109.645 98.4027L109.639 98.4279C109.255 99.9707 107.881 101.05 106.307 101.051H66.9208C66.9207 101.051 66.9207 101.051 66.9206 101.051C66.0498 101.05 65.2262 100.649 64.6858 99.9583C64.1525 99.2762 63.9541 98.3877 64.1458 97.5419L74.7459 72.5929L74.7594 72.5611L74.7674 72.5275C75.1379 70.9731 76.5151 69.8793 78.0971 69.8751L116.552 69.8751L116.553 69.8751C117.43 69.8728 118.259 70.278 118.801 70.9744L118.801 70.9745C119.337 71.664 119.532 72.5633 119.329 73.4157L109.654 98.3785Z" fill="#51A951" stroke="#212020" stroke-width="0.821721"/>
<path fill-rule="evenodd" clip-rule="evenodd" d="M110.038 98.527L119.721 73.539C119.964 72.5575 119.744 71.518 119.125 70.7222C118.506 69.9259 117.557 69.4616 116.552 69.4642H78.0965C76.3227 69.4687 74.7819 70.6948 74.3678 72.4322L63.7538 97.414C63.5204 98.391 63.7449 99.422 64.3623 100.212C64.9801 101.001 65.9228 101.461 66.9206 101.462H106.307C108.071 101.461 109.609 100.251 110.038 98.527Z" stroke="#212020" stroke-width="0.821721" stroke-linecap="square" stroke-linejoin="round"/>
<path d="M108.236 97.3683L108.227 97.3926L108.221 97.418C107.872 98.8265 106.616 99.8113 105.179 99.8103H105.179H68.8531C68.0602 99.8097 67.3102 99.4435 66.8183 98.8153L66.8182 98.8152C66.3327 98.1955 66.1509 97.3881 66.323 96.6179L76.0814 73.6029L76.0949 73.5712L76.1029 73.5377C76.4418 72.1148 77.7039 71.1151 79.1517 71.1157H79.1519L114.638 71.1157L114.638 71.1157C115.436 71.1154 116.19 71.4853 116.683 72.1196C117.17 72.7477 117.346 73.5656 117.162 74.341L108.236 97.3683ZM68.8527 100.221H105.179H68.8527Z" fill="#51A951" stroke="#212020" stroke-width="0.821721"/>
<path d="M82.0534 75.1814L82.0534 75.1814L82.0542 75.1802C82.2517 74.8822 82.5001 74.6823 82.7242 74.5892C82.9492 74.4957 83.1066 74.5221 83.2016 74.5865L83.4322 74.2465L83.2014 74.5864C83.3005 74.6537 83.3861 74.7951 83.3876 75.0402C83.3891 75.2836 83.3027 75.5878 83.1076 75.8824C83.046 75.9725 82.9777 76.0574 82.9032 76.136L82.8136 76.2306L82.653 76.3416C82.3218 76.5706 82.0743 76.55 81.9582 76.4717L81.9567 76.4706C81.8653 76.4096 81.7782 76.2714 81.7759 76.0228C81.7736 75.7778 81.8591 75.4725 82.0534 75.1814ZM105.389 97.212C105.155 97.3681 104.839 97.305 104.682 97.067L96.4659 81.4278C96.6593 81.5589 96.7935 81.8133 96.7983 82.1913C96.8031 82.5679 96.6742 83.0253 96.3907 83.4636L96.2376 83.7004L96.4034 83.9284L100.375 89.3894L100.632 89.7426L100.969 89.4646C101.774 88.8 102.585 88.7007 103.069 89.0249C103.403 89.2488 103.612 89.6794 103.617 90.2697C103.622 90.8563 103.421 91.5532 102.99 92.2061C102.98 92.2193 102.969 92.2337 102.951 92.2567C102.948 92.2596 102.946 92.2628 102.943 92.2662C102.926 92.2872 102.901 92.3176 102.878 92.3494L102.701 92.5911L102.877 92.8336L105.516 96.4686L105.535 96.496C105.69 96.735 105.624 97.0553 105.389 97.2119L105.389 97.212Z" fill="#51A951" stroke="#212020" stroke-width="0.821721"/>
<path d="M112.84 74.4578C112.711 74.7516 112.423 74.9393 112.107 74.9399H107.704C107.78 74.7303 107.817 74.5099 107.805 74.2923H112.731C112.793 74.2923 112.848 74.3417 112.851 74.4097C112.85 74.4271 112.846 74.4433 112.84 74.4578Z" fill="#51A951" stroke="#212020" stroke-width="0.821721"/>
<path d="M104.794 74.2885H104.794H106.977C107.003 74.481 106.948 74.719 106.778 74.9402H104.166C104.105 74.9402 104.051 74.8903 104.048 74.8228C104.049 74.8045 104.053 74.7876 104.06 74.7734L104.06 74.7734L104.061 74.7702C104.19 74.4758 104.478 74.2883 104.794 74.2885Z" fill="#51A951" stroke="#212020" stroke-width="0.821721"/>
<path d="M105.285 75.1576L105.285 75.1575L105.279 75.146C105.143 74.9103 105.182 74.5058 105.519 74.1671L105.519 74.1671L105.523 74.1625C105.57 74.1137 105.622 74.0677 105.679 74.0242C106.179 73.6628 106.691 73.7762 106.877 74.036L106.882 74.0428L106.887 74.0494C106.887 74.0498 106.888 74.0511 106.889 74.0539L106.897 74.0702L106.906 74.0857C107.043 74.3179 107.005 74.7241 106.669 75.0608L106.669 75.0607L106.665 75.0643C106.617 75.1136 106.565 75.1595 106.509 75.2015C106.012 75.5662 105.497 75.4531 105.307 75.1909L105.307 75.1908L105.302 75.1843C105.296 75.1772 105.291 75.1685 105.285 75.1576Z" fill="white" stroke="#212020" stroke-width="0.821721"/>
<path d="M102.764 78.07L102.764 78.07L102.764 78.0647C102.763 78.0472 102.766 78.0297 102.771 78.0133C102.903 77.7249 103.189 77.5413 103.501 77.541H107.838C107.761 77.7518 107.724 77.9733 107.737 78.1927H102.884C102.82 78.1927 102.764 78.1403 102.764 78.07Z" fill="#51A951" stroke="#212020" stroke-width="0.821721"/>
<path d="M108.754 77.5485C108.586 77.7657 108.531 78.0005 108.559 78.1921H110.814C111.129 78.1921 111.417 78.0048 111.547 77.7116L111.548 77.7099L111.548 77.7099C111.554 77.6956 111.558 77.6799 111.559 77.6631C111.558 77.6326 111.546 77.6038 111.525 77.583L108.754 77.5485ZM108.754 77.5485L111.441 77.5485L111.442 77.5485C111.473 77.5484 111.502 77.5604 111.525 77.583L108.754 77.5485ZM108.571 77.1376C108.571 77.1376 108.571 77.1376 108.571 77.1376L108.571 77.1376V77.1376Z" fill="#51A951" stroke="#212020" stroke-width="0.821721"/>
<path d="M108.653 78.4446L108.643 78.4188L108.627 78.3928C108.488 78.1594 108.525 77.7573 108.859 77.4179L108.653 78.4446ZM108.653 78.4446C108.84 78.7052 109.352 78.8191 109.851 78.4566C109.907 78.4135 109.96 78.3666 110.009 78.3164L110.01 78.315L110.01 78.315C110.344 77.9756 110.383 77.5687 110.248 77.3353L110.243 77.327L110.243 77.327C110.234 77.3112 110.226 77.2979 110.219 77.2863C110.025 77.0264 109.511 76.9178 109.015 77.2824L109.015 77.2825C108.96 77.3228 108.908 77.3682 108.859 77.4177L108.653 78.4446ZM108.652 78.4435C108.652 78.4435 108.652 78.4435 108.652 78.4435L108.652 78.4435Z" fill="white" stroke="#212020" stroke-width="0.821721"/>
<path d="M110.435 80.9403C110.304 81.2332 110.016 81.4202 109.7 81.4208H107.213C107.291 81.2106 107.328 80.9895 107.316 80.7709H110.325C110.388 80.7714 110.444 80.8225 110.446 80.8925C110.445 80.9082 110.442 80.9246 110.435 80.9403Z" fill="#51A951" stroke="#212020" stroke-width="0.821721"/>
<path d="M101.685 81.3879L101.685 81.3874C101.664 81.3666 101.651 81.3373 101.65 81.3053C101.65 81.2874 101.654 81.2706 101.661 81.2554L101.661 81.2554L101.663 81.2506C101.791 80.9556 102.079 80.7669 102.395 80.7672H102.395H106.482C106.508 80.9604 106.451 81.1984 106.283 81.4211H101.768V81.4211L101.765 81.4211C101.736 81.4213 101.707 81.4095 101.685 81.3879Z" fill="#51A951" stroke="#212020" stroke-width="0.821721"/>
<path d="M104.795 81.6327L104.8 81.6412C104.804 81.6503 104.81 81.6585 104.815 81.6658L104.821 81.6738L104.821 81.6739C105.008 81.9342 105.519 82.048 106.021 81.6823C106.076 81.6411 106.128 81.5951 106.178 81.5447L104.795 81.6327ZM104.795 81.6327L104.79 81.6244M104.795 81.6327L104.79 81.6244M104.79 81.6244C104.654 81.3933 104.692 80.9868 105.026 80.6466C105.076 80.5968 105.128 80.5512 105.184 80.51C105.685 80.1468 106.2 80.2579 106.391 80.5189L106.391 80.5189L106.396 80.5261C106.398 80.5283 106.398 80.5295 106.399 80.5299L106.407 80.547M104.79 81.6244L106.407 80.547M106.407 80.547L106.416 80.5636M106.407 80.547L106.416 80.5636M106.416 80.5636C106.552 80.7979 106.513 81.2046 106.178 81.5445L106.416 80.5636Z" fill="white" stroke="#212020" stroke-width="0.821721"/>
<path d="M89.5494 96.1689C89.4192 96.4618 89.1318 96.6486 88.8169 96.6492H86.3231C86.4001 96.4396 86.4376 96.2193 86.4265 96.0015H89.4407C89.5028 96.0015 89.5581 96.0518 89.5608 96.1203C89.5598 96.1367 89.556 96.1531 89.5494 96.1689Z" fill="#51A951" stroke="#212020" stroke-width="0.821721"/>
<path d="M73.2032 96.6154L73.2026 96.6148C73.182 96.5942 73.1691 96.566 73.1675 96.535C73.1687 96.5162 73.1732 96.4971 73.181 96.4787C73.3095 96.1844 73.5972 95.9966 73.9125 95.9968H73.9128H85.5973C85.6227 96.1889 85.5665 96.4264 85.3981 96.6489L73.2854 96.6489L73.2843 96.6489C73.2541 96.649 73.2247 96.6369 73.2032 96.6154Z" fill="#51A951" stroke="#212020" stroke-width="0.821721"/>
<path d="M85.5813 97.0601L85.2886 96.7718C85.2388 96.8224 85.1854 96.8699 85.129 96.9139C84.627 97.275 84.1178 97.1614 83.9313 96.9015L83.9314 96.9015L83.9254 96.8935C83.92 96.8863 83.9143 96.8776 83.9085 96.8667L83.9045 96.8592L83.9002 96.8519C83.7645 96.621 83.8041 96.2139 84.1376 95.8747L84.1376 95.8747L84.1389 95.8733C84.1866 95.8243 84.2385 95.7787 84.294 95.7369C84.7959 95.3746 85.3094 95.4858 85.5005 95.7478L85.5004 95.7479L85.5063 95.7556C85.508 95.7577 85.5087 95.759 85.5089 95.7593L85.517 95.7769L85.5269 95.7937C85.6621 96.0255 85.6232 96.4315 85.2883 96.7721L85.5813 97.0601ZM85.5813 97.0601C86.0051 96.6291 86.1369 96.024 85.8817 95.5867M85.5813 97.0601C85.5169 97.1255 85.448 97.1865 85.3754 97.2427C84.7561 97.6922 83.962 97.649 83.5975 97.1411L85.8817 95.5867M85.8817 95.5867C85.8684 95.5578 85.8517 95.5308 85.8325 95.5057L85.8817 95.5867Z" fill="white" stroke="#212020" stroke-width="0.821721"/>
<path d="M4.56519 105.471C4.57031 105.446 4.57519 105.421 4.57981 105.399C4.61956 105.392 4.66361 105.384 4.71186 105.376C4.9779 105.332 5.37196 105.27 5.88122 105.199C6.89978 105.056 8.37882 104.877 10.2157 104.731C13.8903 104.439 18.9927 104.281 24.7033 104.816C36.1341 105.887 49.9422 109.729 59.6487 120.762C64.4969 126.273 65.109 130.645 63.2868 134.03C61.4288 137.482 56.9615 140.087 51.2201 141.827C45.5024 143.561 38.6206 144.406 32.0772 144.416C25.529 144.425 19.3584 143.595 15.0545 142.005C6.57303 138.872 3.91738 129.782 3.43269 121.273C3.19156 117.04 3.49219 113.002 3.85404 110.02C4.03486 108.53 4.23072 107.305 4.38119 106.454C4.45641 106.029 4.52026 105.697 4.56519 105.471Z" fill="#2E2E2E" stroke="#212020" stroke-width="0.821721"/>
<path d="M88.9944 36.4056C91.3686 35.9069 93.7758 35.5834 96.1967 35.4377H96.3367C97.9272 35.332 100.713 35.2864 102.304 35.2699" stroke="#212020" stroke-width="0.821721"/>
<path d="M77.2268 41.5171C77.2098 41.5278 77.1991 41.5409 77.1821 41.5517" stroke="#212020" stroke-width="0.821721"/>
<path d="M104.298 28.5294C103.083 29.1719 101.689 28.7367 101.153 27.6424" stroke="#212020" stroke-width="0.821721"/>
<path d="M98.8581 11.7687C99.4099 12.0709 100.039 12.2107 100.672 12.167L100.672 12.167L100.675 12.1667C100.924 12.1475 101.192 12.0849 101.465 12.0096C101.62 11.9668 101.793 11.9151 101.974 11.8614C102.103 11.8227 102.237 11.783 102.369 11.7448C103.024 11.5561 103.796 11.3635 104.718 11.2975C106.551 11.1664 109.035 11.5321 112.366 13.547L112.401 13.5684L112.44 13.5823L112.578 13.1954C112.44 13.5823 112.44 13.5824 112.44 13.5824L112.44 13.5825L112.441 13.5827L112.443 13.5834L112.449 13.5855L112.47 13.5927C112.488 13.5987 112.513 13.6072 112.545 13.6175C112.61 13.6381 112.701 13.6661 112.815 13.6972C113.041 13.7591 113.356 13.8339 113.711 13.8848C114.25 13.9619 114.948 13.9943 115.568 13.7851C115.526 13.9135 115.483 14.0588 115.459 14.2107C115.399 14.5985 115.478 14.9826 115.809 15.4109L98.8581 11.7687ZM98.8581 11.7687C98.6465 11.9963 98.3722 12.1579 98.0692 12.2314L98.0572 12.2961L98.0571 12.2965C98.0012 12.5971 97.8608 12.8742 97.6539 13.0956C97.6221 14.6955 98.5069 16.165 99.9126 16.8804C100.105 16.6189 100.341 16.3922 100.613 16.2111L100.616 16.2086L100.616 16.2086C100.818 16.0774 101.017 15.988 101.222 15.9547C101.434 15.9202 101.624 15.9499 101.798 16.017C101.962 16.0805 102.107 16.1764 102.231 16.2661C102.285 16.3049 102.34 16.3465 102.393 16.3868C102.403 16.3936 102.412 16.4005 102.421 16.4072C102.484 16.4548 102.547 16.5018 102.613 16.5485C102.872 16.7314 103.183 16.9124 103.635 17.0174C104.09 17.1233 104.713 17.1573 105.598 17.0079C108.215 16.563 109.899 16.7927 110.95 17.1625C111.475 17.3473 111.837 17.5657 112.074 17.7473C112.193 17.8379 112.279 17.9187 112.339 17.9806C112.369 18.0116 112.392 18.0378 112.409 18.058C112.417 18.0682 112.424 18.0768 112.43 18.0838L112.437 18.0931L112.439 18.0968L112.441 18.0984L112.441 18.0992C112.441 18.0995 112.442 18.0999 112.109 18.3414L112.442 18.0999L112.443 18.102C112.531 18.225 112.541 18.3632 112.543 18.4191C112.547 18.495 112.541 18.5741 112.532 18.6455C112.514 18.79 112.48 18.9569 112.443 19.1117C112.405 19.2689 112.363 19.4256 112.329 19.5524C112.316 19.5964 112.306 19.6352 112.296 19.6688C112.279 19.7308 112.267 19.7751 112.26 19.8022L112.24 19.9104C112.041 20.9753 111.844 22.031 111.664 23.0997L111.664 23.1039L111.664 23.1039C111.638 23.2461 111.613 23.388 111.587 23.5298C111.86 23.2045 112.161 22.9075 112.488 22.6915C112.826 22.4674 113.217 22.3132 113.646 22.3274C114.08 22.3418 114.499 22.5272 114.893 22.8817L114.898 22.8866L114.898 22.8867C115.216 23.184 115.459 23.5525 115.608 23.9619C115.963 24.9328 115.803 25.7663 115.337 26.4392C114.892 27.0825 114.186 27.5525 113.473 27.891C113.188 28.0632 112.891 28.2122 112.583 28.3367C112.624 28.5891 112.679 28.919 112.729 29.2278L112.795 29.6264C112.808 29.6195 112.821 29.6124 112.834 29.6052C113.156 29.4307 113.589 29.1767 114.036 28.9066C114.481 28.637 114.934 28.3541 115.293 28.1231C115.472 28.0075 115.626 27.9059 115.743 27.8261C115.802 27.7861 115.85 27.7527 115.886 27.7263C115.898 27.7172 115.909 27.7093 115.918 27.7027C116.392 27.0615 116.759 26.3459 117.004 25.5845C118.045 22.2761 117.845 18.0542 115.809 15.4113L98.8581 11.7687Z" fill="#51A951" stroke="#212020" stroke-width="0.821721"/>
<path d="M98.8445 18.7593L98.8516 18.7616" stroke="#212020" stroke-width="0.821721"/>
<path d="M100.073 17.4099C98.2762 16.6755 97.1432 14.8704 97.2554 12.9208C97.2758 12.5556 97.328 12.1928 97.4121 11.8369L97.4717 11.8493C97.5525 11.8678 97.6358 11.874 97.7184 11.868C98.1548 11.8594 98.5503 11.6091 98.7474 11.2173C98.8041 11.1102 98.8437 10.9948 98.8648 10.8753L99.1819 9.14061C99.1819 9.14061 100.21 10.5437 101.857 10.4131C103.503 10.2826 106.983 7.74168 113.792 11.8514C113.792 11.8514 115.426 12.4587 116.582 11.7271C116.644 11.684 116.725 11.683 116.788 11.7245C116.85 11.7661 116.882 11.8418 116.866 11.9157C116.712 12.5851 116.815 13.126 117.348 13.8161C119.494 16.6016 119.675 20.9787 118.609 24.3651C118.143 25.7685 117.314 27.0216 116.208 27.9961C115.922 28.2552 112.493 30.3836 112.465 30.2096C112.465 30.2096 112.183 28.5039 112.115 28.077L112.098 27.9796L112.195 27.9506C112.562 27.8362 112.921 27.6978 113.269 27.5361C114.65 26.8853 115.837 25.7993 115.214 24.1102C115.087 23.761 114.88 23.4472 114.609 23.1942C113.261 21.9797 112.024 23.4677 111.181 24.7941C111.017 25.0459 110.884 25.3158 110.782 25.5983C110.814 25.4159 110.847 25.2376 110.882 25.0553C111.006 24.3879 111.128 23.7178 111.249 23.045C111.455 21.9382 111.646 20.8398 111.848 19.729C111.885 19.5404 112.212 18.5124 112.098 18.3549C112.098 18.3549 110.79 16.5539 105.656 17.4264C101.951 18.0482 102.194 15.6772 100.83 16.5663C100.507 16.7819 100.242 17.0736 100.056 17.4161C99.9989 17.5276 99.9478 17.6425 99.9041 17.7601C99.8967 17.7748 99.8904 17.79 99.8856 17.8057C99.793 18.0627 99.7086 18.3217 99.6263 18.5746C98.8567 21.0388 98.3485 23.6999 98.62 26.2884C98.9511 29.4261 101.221 33.1152 104.832 32.8022C105.969 32.6681 107.077 32.3548 108.117 31.8738" stroke="#212020" stroke-width="0.821721"/>
<path d="M100.672 23.3122C100.676 23.4378 100.637 23.5403 100.586 23.6051C100.537 23.669 100.487 23.686 100.454 23.687C100.42 23.688 100.369 23.6737 100.316 23.6127C100.263 23.5509 100.218 23.4509 100.214 23.3253C100.211 23.1997 100.25 23.0972 100.3 23.0325C100.35 22.9686 100.399 22.9515 100.433 22.9505C100.467 22.9495 100.517 22.9638 100.57 23.0248C100.624 23.0866 100.669 23.1866 100.672 23.3122Z" fill="#51A951" stroke="#212020" stroke-width="0.821721"/>
<path d="M105.507 24.6213C105.511 24.7469 105.472 24.8493 105.421 24.9141C105.372 24.978 105.323 24.9951 105.289 24.996C105.255 24.997 105.205 24.9828 105.151 24.9218C105.098 24.86 105.053 24.7599 105.049 24.6343C105.046 24.5087 105.085 24.4063 105.135 24.3415C105.185 24.2776 105.234 24.2605 105.268 24.2595C105.302 24.2586 105.352 24.2728 105.405 24.3338C105.459 24.3956 105.504 24.4957 105.507 24.6213Z" fill="#51A951" stroke="#212020" stroke-width="0.821721"/>
<path d="M103.214 25.6935C103.214 25.6935 101.344 26.108 101.533 25.1422C101.591 24.8396 102.06 21.8676 102.06 21.8676C102.06 21.8676 101.187 20.0977 98.9054 20.5101" stroke="#212020" stroke-width="0.821721"/>
<path d="M104.053 21.6035C104.053 21.6035 107.019 21.0957 108.155 23.4812" stroke="#212020" stroke-width="0.821721"/>
<path d="M102.337 35.2446C100.001 36.4881 98.7543 39.4808 99.7318 41.6466C101.362 45.2548 105.652 46.3157 109.198 45.2733C113.14 44.1129 116.038 40.4526 115.865 36.2559" stroke="#212020" stroke-width="0.821721"/>
<path d="M116.479 104.048C123.251 88.1979 125.71 60.2216 125.71 60.2216V99.2547C125.71 100.526 126.211 101.746 127.104 102.645C127.997 103.544 129.207 104.049 130.47 104.048H145.492C146.658 104.067 147.65 103.197 147.795 102.032C147.855 101.405 147.65 100.781 147.23 100.315C146.809 99.8484 146.212 99.583 145.586 99.5845H139.434C138.937 99.583 138.468 99.3501 138.164 98.9542C137.859 98.5579 137.754 98.0426 137.878 97.5576C141.582 82.8427 143.872 65.5705 139.051 50.2859C138.055 47.1317 135.909 44.3215 133.374 42.1494C130.464 39.6457 126.877 38.4976 123.202 37.6481C120.778 37.0884 118.332 36.6255 115.866 36.2594C115.858 36.2619 115.851 36.2619 115.843 36.2594C115.827 36.2594 115.81 36.2594 115.8 36.2594H115.784H115.761H115.728" stroke="#212020" stroke-width="0.821721"/>
<path d="M114.314 29.2185L114.042 34.1697C113.989 35.171 114.685 36.0551 115.666 36.2297H115.728C115.738 36.2267 115.75 36.2267 115.761 36.2297H115.771H115.8" stroke="#212020" stroke-width="0.821721"/>
<path d="M115.843 36.2522H115.8H115.783H115.771H115.761H115.728H115.666C114.685 36.0776 113.989 35.1935 114.042 34.1922L114.314 29.241" stroke="#212020" stroke-width="0.821721"/>
<path d="M102.726 32.4938C102.592 32.4399 102.726 38.0232 99.4189 40.4482" stroke="#212020" stroke-width="0.821721"/>
<path d="M58.453 104.051H47.8594" stroke="#212020" stroke-width="0.821721"/>
<path d="M161.944 104.051H74.9454" stroke="#212020" stroke-width="0.821721"/>
<path d="M27.4 51.6466L27.4002 51.651C27.5011 53.7176 27.4277 55.7889 27.1807 57.8427C27.0298 58.9858 26.4231 60.3098 25.7556 61.706C25.7144 61.7921 25.6729 61.8786 25.6314 61.9653C25.0163 63.2485 24.3771 64.5821 24.1379 65.7714L24.1378 65.7719C23.4189 69.373 24.5111 73.0595 25.9621 76.3079C26.3696 77.2206 26.8311 78.1336 27.2912 79.0439C27.328 79.1165 27.3647 79.1891 27.4013 79.2617C27.8994 80.2478 28.3917 81.2324 28.821 82.232C29.6794 84.2309 30.2713 86.2578 30.1436 88.3974C29.8741 92.2107 27.879 95.6865 24.7346 97.824C22.5913 99.2681 20.1433 100.189 17.5853 100.513C17.2273 100.556 16.8707 100.589 16.5178 100.599C16.3764 100.599 16.2377 100.587 16.0799 100.573C16.0353 100.569 15.9893 100.565 15.9412 100.561C12.54 100.271 9.09062 98.8178 6.49883 96.53C3.91024 94.245 2.19484 91.1461 2.20276 87.5566V87.5557C2.20276 85.2722 3.06334 83.222 4.03914 81.1138C4.12712 80.9238 4.21611 80.7331 4.30543 80.5417C5.19535 78.6351 6.1183 76.6576 6.40332 74.4861C6.56887 73.2286 6.50541 71.9492 6.4443 70.7173C6.43446 70.5189 6.42468 70.3218 6.41593 70.1261C6.35198 68.6967 6.34091 67.3335 6.70239 66.0291C7.28876 63.9474 8.71943 62.319 10.3286 60.6677C10.5229 60.4684 10.72 60.2685 10.9183 60.0674C12.3388 58.6271 13.8206 57.1247 14.7689 55.2936L14.7691 55.2931C15.5626 53.7567 16.0194 52.1013 16.4273 50.4668C16.487 50.2276 16.5456 49.9891 16.604 49.7514C16.948 48.3513 17.285 46.9798 17.7954 45.6705L17.7954 45.6704C18.6377 43.5085 19.7232 41.2149 21.0443 39.4175C22.3612 37.6259 23.8587 36.3992 25.5203 36.1942C26.5229 36.315 27.4917 36.6365 28.3696 37.14L28.3695 37.1402L28.3784 37.1449C28.8521 37.4015 29.2544 37.6093 29.5947 37.785C29.6699 37.8239 29.742 37.8611 29.8112 37.897C30.1981 38.0975 30.4851 38.2506 30.713 38.396C30.9369 38.539 31.0906 38.6665 31.2126 38.809C31.334 38.9509 31.4378 39.1238 31.5427 39.3725C31.9116 40.2701 31.3749 41.2774 30.3756 41.5892L30.3732 41.59C29.7533 41.7876 29.2544 42.2429 28.8606 42.8455C28.4671 43.4475 28.1619 44.2205 27.9331 45.1062C27.4754 46.8783 27.3055 49.1739 27.4 51.6466Z" fill="#51A951" stroke="#212020" stroke-width="0.821721"/>
<path d="M29.829 37.4577C35.8583 35.6981 39.6897 38.2868 42.431 41.271C45.1719 44.2553 45.0442 47.6439 45.0442 47.6439" stroke="#212020" stroke-width="0.821721"/>
<path d="M48.5297 95.8277C48.439 100.572 47.8419 105.292 46.75 109.908" stroke="#212020" stroke-width="0.821721"/>
<path fill-rule="evenodd" clip-rule="evenodd" d="M63.5129 134.463C61.305 138.289 56.068 141.006 49.6601 142.697C38.2886 145.698 23.2339 145.464 14.9163 142.388C-2.56253 135.936 4.23228 105.042 4.23228 105.042C4.23228 105.042 34.4632 99.3112 54.6212 115.404C56.5469 116.937 58.3348 118.638 59.9634 120.488C62.1921 123.027 63.5603 125.35 64.2066 127.472C64.9985 130.117 64.6819 132.446 63.5129 134.463Z" stroke="#212020" stroke-width="0.821721"/>
<path d="M51.9263 142.174C51.9263 142.174 41.3349 171.784 59.1286 179.346C76.9224 186.909 -6.21435 187.916 12.137 179.346C30.4883 170.777 19.9401 143.984 19.9401 143.984" stroke="#212020" stroke-width="0.821721"/>
<path d="M73.4706 41.5514C73.2502 40.8738 73.341 38.5172 73.4128 37.1868C73.4417 36.6645 73.8773 36.2597 74.3966 36.2728L95.5361 36.4593C96.278 36.4661 96.8758 37.0738 96.8758 37.8208V53.7977C96.8758 54.16 96.7325 54.5071 96.4777 54.7629C96.2228 55.0184 95.8773 55.161 95.5176 55.1596L74.9174 55.0827C74.297 55.0572 73.8077 54.543 73.808 53.9179V52.6995C75.2733 53.3874 78.0431 53.5989 78.0431 53.5989C79.0288 53.5719 80.5863 53.4517 81.4404 52.9583C82.2223 52.5065 83.2101 51.8578 83.3439 50.8756C83.4513 50.0845 82.9042 49.3548 82.1193 49.2425C81.893 49.197 81.6586 49.2133 81.4404 49.2901" stroke="#212020" stroke-width="0.821721"/>
<path d="M93.6917 85.7945L93.691 85.8034L93.6907 85.8123C93.684 86.0114 93.6181 86.2037 93.5022 86.3646C93.3598 86.5361 93.1332 86.6292 92.8208 86.6475C92.504 86.6661 92.1519 86.6028 91.8497 86.517C90.2868 86.0697 89.0445 86.7193 88.1004 87.6826C87.1694 88.6325 86.4756 89.9354 85.9617 90.9355L85.9616 90.9356C83.3791 95.9652 79.5105 100.626 74.6993 103.706L74.6993 103.706L74.6959 103.708C74.3871 103.91 74.0708 104.101 73.7473 104.289C69.2262 106.916 63.3661 106.505 58.894 103.853L64.4576 90.0891L64.6105 90.2123L64.6105 90.2123L64.6126 90.214C66.501 91.7149 68.6161 92.0437 70.6426 91.6296C72.6561 91.2182 74.5771 90.0767 76.135 88.6429C77.0032 87.8461 77.7691 86.9435 78.4152 85.9557L78.4165 85.9536C78.6609 85.5753 78.8935 85.1968 79.1233 84.823C79.9053 83.5508 80.6544 82.3322 81.7202 81.3514L81.7202 81.3514C83.5687 79.6501 86.3045 79.2965 88.7 80.0344C89.8858 80.3998 91.2014 81.1755 92.1875 82.2066C93.1742 83.2384 93.7928 84.4828 93.6917 85.7945Z" fill="white" stroke="#212020" stroke-width="0.821721"/>
<path d="M94.0769 84.7913C94.0769 84.7913 93.4061 81.2145 87.3583 84.0061" stroke="#212020" stroke-width="0.821721"/>
<path d="M90.7131 80.4971C90.7131 80.4971 86.9433 79.2824 84.8442 82.1838" stroke="#212020" stroke-width="0.821721"/>
<path fill-rule="evenodd" clip-rule="evenodd" d="M14.6137 100.977C15.6203 101.068 16.6335 101.051 17.6366 100.928C20.2588 100.591 22.7674 99.6452 24.9644 98.1647C28.2147 95.9557 30.2756 92.3637 30.5534 88.4243C30.8208 83.9581 28.084 80.0368 26.3369 76.1384C24.8965 72.9116 23.847 69.3219 24.5425 65.8527C25.0261 63.4362 27.2629 60.3355 27.586 57.8921C27.8373 55.8146 27.9131 53.7194 27.8124 51.629C27.6251 46.7277 28.4894 42.6138 30.4978 41.988C31.6872 41.6169 32.4012 40.3774 31.9218 39.2211C31.4629 38.1103 30.8723 38.0441 28.5737 36.786C22.5815 33.5031 18.4144 39.6233 16.1139 45.5238C14.8936 48.6511 14.6466 52.1243 13.1054 55.1045C11.0147 59.1441 6.23235 61.5295 5.01005 65.9233C4.24659 68.6672 5.06972 71.6078 4.69929 74.4328C4.09433 79.0564 0.503482 82.7848 0.493192 87.5556C0.47673 95.0145 7.63989 100.378 14.6137 100.977Z" stroke="#212020" stroke-width="0.821721"/>
<path d="M63.5123 134.463C62.996 138.164 62.2263 142.411 61.3785 146.661C58.975 158.709 55.917 170.829 55.917 170.829" stroke="#212020" stroke-width="0.821721"/>
<path d="M64.1977 127.472C64.2081 127.02 64.2144 126.606 64.1977 126.212C64.0148 117.715 57.9484 115.684 55.339 115.197C54.9497 115.12 54.556 115.069 54.16 115.045" stroke="#212020" stroke-width="0.821721"/>
<path d="M56.8231 167.154C57.5068 166.732 58.3635 166.716 59.0629 167.111C59.7622 167.507 60.1948 168.251 60.1937 169.059V169.165C60.127 171.239 59.0995 173.163 57.4176 174.363L54.5574 176.412" stroke="#212020" stroke-width="0.821721"/>
<path d="M24.3304 68.5933C24.7297 68.4296 25.1371 68.2846 25.5487 68.1497C26.415 66.5373 26.2812 63.0078 26.1989 61.7251L27.0653 59.7581C29.4564 61.2382 32.6213 60.6827 35.5577 59.6528C35.9701 59.5075 36.3711 59.3316 36.7574 59.126C38.6218 58.264 41.2353 56.2246 40.0622 55.1718C38.8892 54.119 38.9714 52.0922 39.7226 50.8487C39.9511 50.4672 40.3563 50.0924 40.7782 50.2103C41.0623 50.289 41.2453 50.5563 41.4079 50.8032C41.6138 51.1119 41.8194 51.4083 42.0253 51.7107C42.0976 51.8124 42.2146 51.9181 42.3257 51.8726C42.3728 51.8412 42.4094 51.7965 42.4309 51.744C42.7928 50.9936 42.725 49.9182 42.7869 49.0954C42.8587 48.1151 42.9143 47.1284 42.9432 46.1441C42.9595 45.601 43.0706 45.0188 43.6488 44.8281C43.8855 44.736 44.1507 44.7589 44.3681 44.8902C44.5859 45.0214 44.7311 45.2462 44.7622 45.4997C45.183 47.8814 45.2448 50.3134 44.9455 52.714C44.6614 55.228 44.1488 57.8951 42.548 59.9219C41.6361 61.0911 40.4138 61.9765 39.0229 62.4755C37.6773 62.9457 37.7206 64.5811 37.7206 66.0153V68.3963C41.8587 69.2421 45.746 70.2616 48.9602 73.163C51.0859 75.1203 53.0861 77.2115 54.9484 79.4243C60.811 86.3524 62.0785 87.6521 64.9016 89.8922C68.466 92.7252 72.8551 91.1357 75.8905 88.34C76.732 87.5663 77.4743 86.6899 78.1003 85.7306C79.1459 84.1122 80.0408 82.3649 81.469 81.0489C83.4506 79.2272 86.3479 78.8709 88.8502 79.6416C91.3526 80.4127 94.361 82.8916 94.1224 85.826C94.1121 86.1106 94.0176 86.3856 93.8506 86.6156C93.3672 87.2148 92.4101 87.0965 91.7601 86.912C89.0232 86.1287 87.3831 89.113 86.3479 91.1235C83.7407 96.2052 79.8248 100.926 74.9416 104.052C74.6249 104.259 74.3037 104.454 73.9745 104.644C68.5193 107.815 61.2058 106.683 56.5141 102.644L45.1963 92.9677" stroke="#212020" stroke-width="0.821721"/>
<path d="M25.5486 68.1486C25.5486 68.1486 30.9544 66.4655 37.7203 68.4014" stroke="#212020" stroke-width="0.821721"/>
<path d="M73.8079 52.6997C73.8079 52.6997 73.849 59.7461 75.518 62.459" stroke="#212020" stroke-width="0.821721"/>
<path d="M77.6617 27.5393L77.6618 27.5392C77.9005 27.3836 78.0307 27.1028 77.9943 26.816C77.9943 26.8159 77.9943 26.8158 77.9943 26.8157L78.4018 26.7638L77.6617 27.5393ZM77.6617 27.5393C77.4237 27.6946 77.1184 27.6987 76.8764 27.5496L76.8765 27.5495M77.6617 27.5393L76.8765 27.5495M76.8765 27.5495L76.867 27.544M76.8765 27.5495L76.867 27.544M76.867 27.544C73.064 25.3395 69.3858 25.117 65.6018 25.1667C64.9814 25.1749 64.359 25.1902 63.7327 25.2056C60.5258 25.2846 57.2178 25.3662 53.5712 24.4988L53.5708 24.4987M76.867 27.544L53.5708 24.4987M53.5708 24.4987C50.3719 23.7413 46.4221 22.1847 43.7198 19.7117C42.8616 18.4108 42.4037 16.8829 42.4044 15.3197V15.3195M53.5708 24.4987L42.4044 15.3195M42.4044 15.3195C42.4044 12.0405 44.6306 9.00052 48.3813 6.75809C52.1236 4.52071 57.3197 3.12339 63.0797 3.12339C70.4535 3.12339 76.884 5.41115 80.5408 8.80067C81.4219 10.0885 81.9026 11.6118 81.9216 13.1767C81.921 14.3351 81.4926 15.5667 80.8921 16.7923C80.4585 17.6773 79.9524 18.5273 79.4751 19.3288C79.2896 19.6404 79.1084 19.9447 78.9375 20.2408L42.4044 15.3195Z" fill="#51A951" stroke="#212020" stroke-width="0.821721"/>
<path fill-rule="evenodd" clip-rule="evenodd" d="M82.2981 13.1786V13.3548C82.2548 15.7941 81.0429 18.0614 79.6043 20.024C78.6412 21.338 77.4993 22.7949 77.7708 24.4053C77.8904 25.1141 78.2834 25.7586 78.3883 26.4778C78.4931 27.1969 78.1105 28.0777 77.3963 28.115C76.9437 28.1378 76.5567 27.8124 76.1989 27.5327C74.0732 25.8747 71.3115 25.2529 68.6261 25.1451C65.9408 25.0374 63.2595 25.3918 60.5719 25.4685C56.6991 25.5804 52.7647 25.0933 49.1863 23.6032C45.9698 22.2519 43.0374 20.0551 41.1073 17.1308C39.212 14.248 40.3335 10.0657 42.3544 7.56005C44.2516 5.20985 46.9966 3.70523 49.8138 2.64619C57.3884 -0.203482 66.0352 -0.135089 73.5072 2.98401C75.7255 3.90005 77.8656 5.11037 79.5324 6.85541C81.1581 8.55694 82.2837 10.8242 82.2981 13.1786Z" stroke="#212020" stroke-width="0.821721"/>
<path d="M53.7121 13.0203C53.7121 14.4147 52.5906 15.54 51.2133 15.54C49.836 15.54 48.7144 14.4147 48.7144 13.0203C48.7144 11.626 49.836 10.5007 51.2133 10.5007C52.5906 10.5007 53.7121 11.626 53.7121 13.0203Z" fill="white" stroke="#212020" stroke-width="0.821721"/>
<path d="M63.121 13.0203C63.121 14.4147 61.9994 15.54 60.6221 15.54C59.2448 15.54 58.1233 14.4147 58.1233 13.0203C58.1233 11.626 59.2448 10.5007 60.6221 10.5007C61.9994 10.5007 63.121 11.626 63.121 13.0203Z" fill="white" stroke="#212020" stroke-width="0.821721"/>
<path d="M72.7115 13.0203C72.7115 14.4147 71.59 15.54 70.2127 15.54C68.8354 15.54 67.7138 14.4147 67.7138 13.0203C67.7138 11.626 68.8354 10.5007 70.2127 10.5007C71.59 10.5007 72.7115 11.626 72.7115 13.0203Z" fill="white" stroke="#212020" stroke-width="0.821721"/>
<g opacity="0.54">
<path d="M125.711 135.904L125.709 135.892C125.703 135.854 125.694 135.798 125.684 135.728C125.684 135.725 125.683 135.722 125.683 135.72L125.711 135.904ZM125.711 135.904L124.538 152.971C124.064 153.865 123.487 154.698 122.819 155.455L122.806 155.45C122.664 155.402 122.519 155.343 122.373 155.282C120.07 154.263 118.356 152.382 117.861 150.296L117.861 150.293C117.678 149.548 117.635 148.784 117.59 147.98C117.578 147.777 117.566 147.57 117.552 147.361C117.484 146.349 117.357 145.289 116.855 144.292C116.346 143.269 115.466 142.408 114.649 141.607C114.499 141.46 114.351 141.315 114.207 141.171C113.249 140.211 112.483 139.301 112.316 138.169L112.316 138.169C112.158 137.099 112.554 136.056 113.009 134.894C113.018 134.873 113.026 134.852 113.034 134.83C113.466 133.729 113.945 132.511 113.757 131.235L113.756 131.232C113.529 129.767 112.529 128.623 111.611 127.59C111.591 127.567 111.57 127.544 111.55 127.521C110.621 126.476 109.782 125.533 109.515 124.385L109.515 124.385C109.34 123.634 109.328 122.815 109.347 121.947C109.351 121.782 109.356 121.614 109.361 121.446C109.381 120.744 109.403 120.018 109.343 119.327C109.199 117.616 108.926 115.919 108.528 114.25C112.993 114.119 117.382 116.643 118.795 120.109C119.308 121.374 119.472 122.723 119.643 124.129C119.674 124.381 119.705 124.635 119.738 124.891C119.953 126.544 120.263 128.244 121.308 129.745L121.309 129.746C121.821 130.477 122.486 131.121 123.117 131.733C123.181 131.795 123.245 131.857 123.308 131.918C124.008 132.599 124.646 133.25 125.077 133.995C125.335 134.446 125.524 134.933 125.64 135.44C125.641 135.473 125.645 135.521 125.657 135.574L125.711 135.904Z" fill="#51A951" stroke="#212020" stroke-width="0.821721"/>
<mask id="path-70-inside-1_1_840" fill="white">
<path d="M126.132 135.869C126.132 135.869 126.118 135.799 126.101 135.662C126.116 135.717 126.126 135.772 126.132 135.828C126.139 135.841 126.139 135.856 126.132 135.869Z"/>
</mask>
<path d="M126.132 135.869C126.132 135.869 126.118 135.799 126.101 135.662C126.116 135.717 126.126 135.772 126.132 135.828C126.139 135.841 126.139 135.856 126.132 135.869Z" fill="#51A951"/>
<path d="M126.132 135.869L125.327 136.031L125.805 138.419L126.871 136.229L126.132 135.869ZM126.101 135.662L126.897 135.457L125.286 135.761L126.101 135.662ZM126.132 135.828L125.316 135.92L125.331 136.056L125.389 136.179L126.132 135.828ZM126.132 135.869C126.938 135.708 126.938 135.708 126.938 135.708C126.938 135.708 126.938 135.708 126.938 135.708C126.938 135.708 126.938 135.708 126.938 135.708C126.938 135.709 126.938 135.709 126.938 135.709C126.938 135.709 126.938 135.709 126.938 135.71C126.938 135.71 126.938 135.711 126.939 135.711C126.939 135.712 126.939 135.712 126.939 135.712C126.939 135.712 126.939 135.712 126.938 135.71C126.938 135.706 126.936 135.698 126.934 135.686C126.93 135.662 126.924 135.62 126.917 135.563L125.286 135.761C125.295 135.84 125.305 135.903 125.312 135.948C125.316 135.971 125.319 135.989 125.321 136.003C125.322 136.01 125.324 136.015 125.324 136.02C125.325 136.022 125.325 136.025 125.326 136.026C125.326 136.027 125.326 136.028 125.326 136.029C125.326 136.029 125.326 136.03 125.326 136.03C125.326 136.03 125.326 136.03 125.326 136.03C125.326 136.031 125.326 136.031 125.326 136.031C125.326 136.031 125.327 136.031 125.327 136.031C125.327 136.031 125.327 136.031 126.132 135.869ZM125.306 135.867C125.311 135.886 125.314 135.904 125.316 135.92L126.949 135.736C126.938 135.64 126.92 135.547 126.897 135.457L125.306 135.867ZM125.389 136.179C125.292 135.973 125.288 135.727 125.393 135.51L126.871 136.229C126.989 135.986 126.985 135.709 126.875 135.477L125.389 136.179Z" fill="#212020" mask="url(#path-70-inside-1_1_840)"/>
</g>
<path d="M141.491 129.046L141.49 129.048C141.358 129.525 141.073 129.975 140.683 130.429C140.318 130.854 139.881 131.26 139.424 131.684C139.391 131.715 139.358 131.746 139.325 131.776C138.841 132.227 138.338 132.701 137.932 133.213C137.524 133.727 137.194 134.304 137.076 134.967L137.076 134.967C136.874 136.109 137.386 137.191 137.83 138.13C137.84 138.153 137.851 138.175 137.861 138.197C138.34 139.21 138.731 140.075 138.574 140.954L138.574 140.955C138.407 141.893 137.634 142.665 136.626 143.501C136.475 143.625 136.32 143.752 136.162 143.88C135.812 144.164 135.452 144.457 135.121 144.754C134.638 145.189 134.183 145.664 133.858 146.203C133.329 147.082 133.196 148.016 133.125 148.895C133.111 149.079 133.098 149.26 133.086 149.437C133.04 150.129 132.996 150.771 132.812 151.401C132.29 153.154 130.521 154.792 128.095 155.672L128.09 155.674C127.935 155.729 127.799 155.778 127.655 155.822C127.637 155.827 127.62 155.832 127.604 155.837C126.887 155.191 126.063 154.145 125.367 152.996L126.524 136.086C126.75 135.897 126.977 135.715 127.208 135.531C127.404 135.375 127.603 135.216 127.806 135.049C128.28 134.658 128.748 134.243 129.138 133.779C129.906 132.868 130.298 131.885 130.545 130.884H130.654V130.473V130.396C130.751 129.909 130.827 129.392 130.901 128.888C130.954 128.531 131.006 128.18 131.063 127.85C131.21 127.008 131.408 126.205 131.779 125.451L131.779 125.45C132.527 123.925 134.1 122.591 136.128 121.672C138.006 120.821 140.24 120.344 142.483 120.398C142.087 121.809 141.811 123.253 141.659 124.713L141.659 124.714C141.599 125.313 141.622 125.945 141.644 126.546C141.649 126.694 141.655 126.84 141.659 126.983C141.68 127.729 141.667 128.42 141.491 129.046Z" fill="#51A951" stroke="#212020" stroke-width="0.821721"/>
<mask id="path-73-inside-2_1_840" fill="white">
<path d="M130.251 130.341V130.461H130.226L130.251 130.341Z"/>
</mask>
<path d="M130.251 130.341V130.461H130.226L130.251 130.341Z" fill="#51A951"/>
<path d="M130.251 130.341H131.072L129.446 130.174L130.251 130.341ZM130.251 130.461V131.282H131.072V130.461H130.251ZM130.226 130.461L129.421 130.294L129.217 131.282H130.226V130.461ZM129.429 130.341V130.461H131.072V130.341H129.429ZM130.251 129.639H130.226V131.282H130.251V129.639ZM131.031 130.627L131.055 130.507L129.446 130.174L129.421 130.294L131.031 130.627Z" fill="#212020" mask="url(#path-73-inside-2_1_840)"/>
<path d="M128.517 133.234L128.516 133.235C128.176 133.641 127.754 134.019 127.291 134.4C127.112 134.548 126.92 134.701 126.726 134.856C126.623 134.939 126.518 135.022 126.415 135.106C126.279 134.577 126.073 134.07 125.803 133.596L125.802 133.594C125.307 132.738 124.588 132.015 123.894 131.339C123.832 131.278 123.77 131.218 123.708 131.158C123.105 130.573 122.531 130.017 122.078 129.402C122.083 129.35 122.088 129.285 122.096 129.207C122.116 128.987 122.151 128.668 122.205 128.277C122.312 127.494 122.498 126.426 122.809 125.285C123.44 122.973 124.553 120.484 126.455 119.345C126.87 119.097 127.175 119.076 127.411 119.15C127.66 119.228 127.916 119.439 128.168 119.822C128.676 120.597 129.045 121.889 129.301 123.363C129.8 126.228 129.839 129.542 129.84 130.299L129.824 130.374C129.597 131.412 129.25 132.366 128.517 133.234Z" fill="#51A951" stroke="#212020" stroke-width="0.821721"/>
<mask id="path-76-inside-3_1_840" fill="white">
<path d="M130.251 130.341V130.461H130.226L130.251 130.341Z"/>
</mask>
<path d="M130.251 130.341V130.461H130.226L130.251 130.341Z" fill="#51A951"/>
<path d="M130.251 130.341H131.072L129.446 130.174L130.251 130.341ZM130.251 130.461V131.282H131.072V130.461H130.251ZM130.226 130.461L129.421 130.294L129.217 131.282H130.226V130.461ZM129.429 130.341V130.461H131.072V130.341H129.429ZM130.251 129.639H130.226V131.282H130.251V129.639ZM131.031 130.627L131.055 130.507L129.446 130.174L129.421 130.294L131.031 130.627Z" fill="#212020" mask="url(#path-76-inside-3_1_840)"/>
<mask id="path-78-inside-4_1_840" fill="white">
<path d="M126.125 135.839V135.886C126.125 135.886 126.111 135.816 126.094 135.679C126.108 135.731 126.119 135.785 126.125 135.839Z"/>
</mask>
<path d="M126.125 135.839V135.886C126.125 135.886 126.111 135.816 126.094 135.679C126.108 135.731 126.119 135.785 126.125 135.839Z" fill="#51A951"/>
<path d="M126.125 135.839H126.947V135.788L126.941 135.737L126.125 135.839ZM126.125 135.886L125.32 136.052L126.947 135.886H126.125ZM126.094 135.679L126.889 135.47L125.279 135.776L126.094 135.679ZM125.304 135.839V135.886H126.947V135.839H125.304ZM126.125 135.886C126.93 135.721 126.93 135.721 126.93 135.721C126.93 135.721 126.93 135.721 126.93 135.721C126.93 135.721 126.93 135.721 126.93 135.721C126.93 135.721 126.93 135.722 126.93 135.722C126.93 135.722 126.93 135.722 126.931 135.723C126.931 135.723 126.931 135.724 126.931 135.724C126.931 135.725 126.931 135.725 126.931 135.726C126.931 135.726 126.931 135.726 126.931 135.724C126.93 135.721 126.929 135.714 126.927 135.702C126.923 135.679 126.917 135.638 126.91 135.582L125.279 135.776C125.288 135.857 125.297 135.92 125.305 135.966C125.309 135.989 125.312 136.008 125.315 136.022C125.316 136.029 125.317 136.035 125.318 136.04C125.319 136.043 125.319 136.045 125.319 136.047C125.32 136.048 125.32 136.049 125.32 136.049C125.32 136.05 125.32 136.05 125.32 136.051C125.32 136.051 125.32 136.051 125.32 136.051C125.32 136.051 125.32 136.051 125.32 136.051C125.32 136.051 125.32 136.052 125.32 136.052C125.32 136.052 125.32 136.052 126.125 135.886ZM125.3 135.888C125.304 135.905 125.308 135.923 125.31 135.94L126.941 135.737C126.929 135.647 126.912 135.557 126.889 135.47L125.3 135.888Z" fill="#212020" mask="url(#path-78-inside-4_1_840)"/>
<path d="M125.759 135.885C126.673 135.101 127.735 134.374 128.467 133.505C130.525 131.062 129.731 127.939 131.05 125.259C132.655 121.986 137.702 119.705 142.664 120.003C142.193 121.55 141.871 123.14 141.705 124.749C141.557 126.183 141.911 127.777 141.522 129.166C140.89 131.4 137.522 132.755 137.112 135.045C136.748 137.074 138.98 138.969 138.612 141.029C138.219 143.242 135.021 144.465 133.844 146.417C132.883 148.007 133.334 149.828 132.836 151.522C132.233 153.563 130.134 155.366 127.399 156.218C127.313 156.247 127.218 156.278 127.129 156.301C126.306 155.615 125.35 154.406 124.572 153.101" stroke="#212020" stroke-width="0.821721"/>
<path d="M139.634 122.566C132.237 130.584 128.757 147.49 127.403 156.219C127.292 156.955 127.197 157.628 127.106 158.236" stroke="#212020" stroke-width="0.821721"/>
<path fill-rule="evenodd" clip-rule="evenodd" d="M140.318 163.153L136.924 183.379C136.758 184.522 135.796 185.378 134.649 185.403H116.853C115.693 185.377 114.726 184.503 114.573 183.345L111.435 163.151L140.318 163.153Z" stroke="#212020" stroke-width="0.821721"/>
<path fill-rule="evenodd" clip-rule="evenodd" d="M143.55 160.894C143.487 162.139 142.482 163.123 141.245 163.153H110.562C109.339 163.124 108.342 162.16 108.261 160.931C108.132 159.481 109.197 158.237 110.562 158.237H141.245C142.597 158.239 143.659 159.464 143.55 160.894Z" stroke="#212020" stroke-width="0.821721"/>
<path fill-rule="evenodd" clip-rule="evenodd" d="M122.568 155.939C123.885 154.623 125.499 151.689 126.213 149.293C126.801 147.318 125.766 145.285 125.528 143.258C125.157 140.085 126.721 136.674 125.073 133.797C124.153 132.193 122.365 131.053 121.29 129.517C119.313 126.688 120.072 123.07 118.809 119.967C117.263 116.172 112.413 113.526 107.647 113.878C108.103 115.682 108.412 117.52 108.571 119.374C108.713 121.033 108.365 122.881 108.748 124.489C109.351 127.08 112.586 128.649 112.983 131.304C113.333 133.65 111.191 135.847 111.543 138.236C111.921 140.798 114.989 142.213 116.123 144.485C117.045 146.327 116.613 148.441 117.09 150.398C117.689 152.843 119.811 154.992 122.568 155.939Z" stroke="#212020" stroke-width="0.821721"/>
<path d="M110.557 116.851C117.658 126.144 121 145.727 122.315 155.837C122.426 156.713 122.521 157.517 122.605 158.237" stroke="#212020" stroke-width="0.821721"/>
<path d="M121.285 129.519C121.285 129.519 121.772 121.446 125.872 118.992C129.971 116.538 129.884 130.289 129.884 130.289" stroke="#212020" stroke-width="0.821721"/>
<path d="M125.758 135.885C125.758 135.885 124.92 131.267 126.39 126.727" stroke="#212020" stroke-width="0.821721"/>
</svg>
