<svg

        viewBox="0 0 24 28"
        fill="none"
        xmlns="http://www.w3.org/2000/svg"
>
    <path
            d="M12 13.5135C11.337 13.5135 10.7011 13.2574 10.2322 12.8016C9.76339 12.3457 9.5 11.7275 9.5 11.0829C9.5 10.4383 9.76339 9.82005 10.2322 9.36424C10.7011 8.90842 11.337 8.65234 12 8.65234C12.663 8.65234 13.2989 8.90842 13.7678 9.36424C14.2366 9.82005 14.5 10.4383 14.5 11.0829C14.5 11.4021 14.4353 11.7181 14.3097 12.013C14.1841 12.3079 13.9999 12.5759 13.7678 12.8016C13.5356 13.0273 13.26 13.2063 12.9567 13.3284C12.6534 13.4506 12.3283 13.5135 12 13.5135ZM12 4.27734C10.1435 4.27734 8.36301 4.99436 7.05025 6.27064C5.7375 7.54693 5 9.27795 5 11.0829C5 16.1871 12 23.7218 12 23.7218C12 23.7218 19 16.1871 19 11.0829C19 9.27795 18.2625 7.54693 16.9497 6.27064C15.637 4.99436 13.8565 4.27734 12 4.27734Z"
            fill="#585C7B"
    />
</svg>