<svg width="213" height="181" viewBox="0 0 213 181" fill="none" xmlns="http://www.w3.org/2000/svg">
<path d="M102.735 88.375C102.674 88.511 102.622 88.647 102.563 88.7903C98.0834 99.6258 94.9687 112.606 94.2425 128.133C81.8218 97.8491 61.2057 83.1883 42.8555 76.1475C43.1832 66.0283 44.5978 48.4291 50.3742 37.6171C50.3742 37.6171 60.1471 39.8912 72.4478 49.4851C82.1523 57.0515 93.4408 69.1892 102.735 88.375Z" fill="#51A951"/>
<path d="M104.568 88.2133L104.15 88.1193C104.209 87.9735 104.261 87.8346 104.32 87.6961C104.403 87.8653 104.485 88.0441 104.568 88.2133Z" fill="#51A951"/>
<path d="M104.568 88.2133L104.15 88.1193C104.209 87.9735 104.261 87.8346 104.32 87.6961C104.403 87.8653 104.485 88.0441 104.568 88.2133Z" fill="#51A951"/>
<path d="M96.535 157.728C96.4173 157.728 96.2991 157.728 96.1787 157.728C49.8328 157.728 11.4414 122.76 4.56142 77.0968C4.08987 73.1987 4.02856 70.873 4.02856 70.873C4.02856 70.873 20.7474 69.1856 40.1422 76.7799C57.3373 83.5176 76.6355 97.5451 88.2665 126.533V126.554C88.3372 126.726 88.4076 126.899 88.4692 127.08C91.9466 135.848 94.7124 145.979 96.5207 157.671C96.5281 157.683 96.535 157.707 96.535 157.728Z" fill="#51A951"/>
<path d="M204.418 72.2687C199.988 124.003 157.831 164.617 106.42 164.824C106.451 162.477 107.189 135.92 123.29 111.846C130.491 100.984 140.162 91.9628 151.519 85.5146C151.842 85.3314 152.156 85.1556 152.484 84.977C152.88 84.7425 153.283 84.5406 153.686 84.3249C153.79 84.2636 153.903 84.2095 154.016 84.1486C154.41 83.9421 154.806 83.7333 155.209 83.5337C155.419 83.4261 155.629 83.3203 155.843 83.2195C156.277 82.9846 156.718 82.7804 157.159 82.5739C157.6 82.3674 157.989 82.1819 158.406 81.9896C158.458 81.9685 158.503 81.9452 158.555 81.9214C158.868 81.7762 159.182 81.6375 159.498 81.4992C159.892 81.316 160.288 81.1448 160.691 80.9781C161.87 80.4712 163.075 79.9854 164.308 79.5256L164.732 79.3635C165.255 79.1639 165.777 78.9738 166.307 78.7884C176.995 75.0171 189.585 72.6373 204.418 72.2687Z" fill="#51A951"/>
<path d="M134.455 48.2732C123.955 56.1895 112.124 68.6674 104.32 87.7003C95.0446 68.1349 83.7773 55.7577 74.0889 48.0388C79.8113 37.4192 92.7743 15.8493 104.568 5.75787C104.568 5.75316 122.409 23.3076 134.455 48.2732Z" fill="#51A951"/>
<path d="M165.273 76.7724C164.752 76.9528 164.241 77.1406 163.727 77.3356L163.31 77.495C162.1 77.9456 160.914 78.4223 159.773 78.9173C159.377 79.0839 158.99 79.2506 158.594 79.431C158.28 79.5675 157.971 79.7012 157.665 79.8441L157.516 79.9123C157.106 80.1 156.696 80.2901 156.295 80.4851C155.894 80.6797 155.43 80.9004 155.005 81.1184C154.793 81.2146 154.588 81.3203 154.383 81.4261C153.987 81.623 153.598 81.825 153.204 82.0292C153.093 82.0901 152.983 82.1418 152.881 82.2027C152.485 82.4138 152.089 82.6254 151.702 82.8433C151.379 83.0151 151.07 83.1886 150.759 83.369C139.618 89.6936 130.132 98.5426 123.07 109.199C107.273 132.813 106.551 158.858 106.523 161.165L106.485 161.097C104.599 148.872 101.701 138.281 98.0681 129.114L98.3535 128.175L97.8557 128.56C97.8557 128.56 97.8557 128.56 97.8557 128.544C98.5631 113.012 101.628 100.027 106.002 89.1872L106.412 89.2787C106.332 89.1121 106.252 88.9381 106.177 88.7741C113.818 70.1117 125.423 57.8728 135.712 50.1072C147.85 40.9546 158.203 38.0022 158.203 38.0022C163.748 44.7964 165.009 65.5775 165.273 76.7724Z" fill="#51A951"/>
<path fill-rule="evenodd" clip-rule="evenodd" d="M95.3662 130.789V130.763C95.3662 130.763 95.3662 130.782 95.3662 130.789Z" stroke="#51A951" stroke-width="0.821721"/>
<path fill-rule="evenodd" clip-rule="evenodd" d="M104.315 87.8611C104.251 88.0067 104.197 88.1524 104.134 88.3071C99.4224 100.003 96.1248 114.015 95.3567 130.773C82.2552 98.0916 60.5185 82.2605 41.1511 74.662C41.4974 63.7382 42.9908 44.7442 49.082 33.0715C49.082 33.0715 59.39 35.5254 72.3664 45.8807C82.6014 54.0498 94.5132 67.15 104.315 87.8611Z" stroke="#51A951" stroke-width="0.821721"/>
<path fill-rule="evenodd" clip-rule="evenodd" d="M104.586 88.4058L104.142 88.3067C104.206 88.1517 104.26 88.0059 104.324 87.8601C104.402 88.0389 104.489 88.2292 104.586 88.4058Z" stroke="#51A951" stroke-width="0.821721"/>
<path fill-rule="evenodd" clip-rule="evenodd" d="M95.3662 130.789V130.763C95.3662 130.763 95.3662 130.782 95.3662 130.789Z" stroke="#51A951" stroke-width="0.821721"/>
<path fill-rule="evenodd" clip-rule="evenodd" d="M104.586 88.4058L104.142 88.3067C104.206 88.1517 104.26 88.0059 104.324 87.8601C104.402 88.0389 104.489 88.2292 104.586 88.4058Z" stroke="#51A951" stroke-width="0.821721"/>
<path opacity="0.9" d="M24.4622 127.361C23.6071 126.321 22.7662 125.248 21.9583 124.174C11.0716 109.737 3.90026 92.8592 1.07175 75.0183C0.376865 70.6462 0.471085 67.9977 0.471085 67.9977C0.471085 67.9977 19.2965 66.0955 41.1464 74.6616C60.5112 82.2601 82.2479 98.0867 95.3498 130.783V130.806C95.4321 131.001 95.5144 131.196 95.5851 131.397C99.507 141.291 102.621 152.717 104.661 165.915V165.988C104.522 165.988 104.392 165.988 104.254 165.988C77.226 165.946 52.5874 155.217 34.0233 137.672C32.0823 135.843 30.1979 133.931 28.3959 131.957" stroke="#51A951" stroke-width="0.821721"/>
<path fill-rule="evenodd" clip-rule="evenodd" d="M95.3662 130.789V130.763C95.3662 130.763 95.3662 130.782 95.3662 130.789Z" stroke="#51A951" stroke-width="0.821721"/>
<path opacity="0.9" fill-rule="evenodd" clip-rule="evenodd" d="M208.268 68.0043C203.587 122.758 159.037 165.746 104.702 165.967C104.735 163.478 105.515 135.373 122.531 109.893C130.141 98.395 140.362 88.8468 152.366 82.0226C152.705 81.828 153.037 81.6425 153.383 81.4543C153.803 81.2199 154.229 80.985 154.653 80.7643C154.764 80.6983 154.889 80.642 155.002 80.5761C155.421 80.3581 155.838 80.1374 156.265 79.9259C156.486 79.8132 156.707 79.6909 156.936 79.5948C157.393 79.3599 157.859 79.125 158.325 78.9116C158.792 78.6977 159.202 78.4958 159.642 78.2939L159.8 78.2211C160.132 78.0663 160.464 77.9207 160.803 77.7728C161.22 77.5777 161.639 77.3991 162.066 77.221C163.305 76.683 164.584 76.171 165.887 75.6852L166.337 75.5135C166.888 75.3024 167.442 75.0986 167.999 74.9031C179.287 70.9138 192.594 68.394 208.268 68.0043Z" stroke="#51A951" stroke-width="0.821721"/>
<path fill-rule="evenodd" clip-rule="evenodd" d="M136.161 46.1312C125.065 54.512 112.564 67.7203 104.315 87.8603C94.5132 67.1497 82.6014 54.0467 72.3665 45.88C78.4111 34.6394 92.1133 11.8083 104.576 1.12891C104.585 1.12891 123.43 19.7098 136.161 46.1312Z" stroke="#51A951" stroke-width="0.821721"/>
<path d="M31.5941 106.03C31.5972 106.014 31.5972 105.997 31.5941 105.981C31.5941 105.964 31.5941 105.95 31.5941 105.917C31.5904 105.891 31.5904 105.864 31.5941 105.837C31.5998 105.894 31.61 105.951 31.6247 106.007C31.6184 106.018 31.6072 106.027 31.5941 106.03Z" fill="white"/>
<path d="M31.6832 121.631C31.31 122.832 30.8337 123.998 30.2595 125.117C30.0974 125.434 29.9353 125.741 29.7567 126.056C29.1477 127.201 28.3988 128.265 27.5271 129.225C27.3721 129.176 27.2194 129.113 27.0808 129.054C27.0478 129.054 27.0244 129.031 26.9985 129.024C24.1793 127.796 22.0648 125.502 21.4375 122.92C20.8759 120.645 21.3787 118.182 20.298 116.044C18.9729 113.412 15.3783 111.762 14.9319 108.79C14.5255 106.01 17.03 103.458 16.6235 100.735C16.1537 97.6576 12.3688 95.8288 11.671 92.8217C11.2223 90.9434 11.6217 88.8004 11.4595 86.8731C11.2728 84.7204 10.9082 82.5871 10.3694 80.4944C10.6302 80.4779 10.8886 80.4711 11.1494 80.4642C16.4755 80.3726 21.7217 83.3632 23.4462 87.5654C24.8347 90.9622 24.1275 94.885 25.9742 98.0707C26.0846 98.2772 26.2095 98.4759 26.3477 98.6646C26.59 98.9989 26.8512 99.3185 27.1301 99.6225L27.7151 100.233C27.8114 100.329 27.9171 100.418 28.0158 100.524C28.1145 100.629 28.2179 100.721 28.3165 100.827C29.2352 101.702 30.1702 102.59 30.7811 103.644C30.8356 103.735 30.8843 103.83 30.9268 103.928C30.9832 104.024 31.032 104.125 31.0724 104.229C31.1248 104.334 31.1711 104.443 31.211 104.555C31.2603 104.677 31.3003 104.806 31.3402 104.928C31.399 105.123 31.4554 105.311 31.4953 105.506C31.4953 105.555 31.4953 105.595 31.5117 105.635C31.5282 105.675 31.5117 105.667 31.5117 105.684C31.5152 105.7 31.5152 105.717 31.5117 105.733C31.5117 105.766 31.5117 105.79 31.5282 105.813V105.829C31.5294 105.86 31.5349 105.89 31.5446 105.919V105.982C31.5477 105.998 31.5477 106.015 31.5446 106.031V106.048L30.9173 115.117C31.3167 117.307 32.3176 119.495 31.6832 121.631Z" fill="white"/>
<path d="M36.4071 99.6177C36.8135 97.65 36.8464 95.5867 37.7721 93.7088C39.4965 90.2485 44.5384 87.7364 49.8176 87.5743H49.9137C50.3839 87.5743 50.8817 87.5743 51.3704 87.6004C50.8247 89.4 50.451 91.2471 50.2543 93.1172C50.076 94.7813 50.4897 96.6385 50.036 98.2439C49.2959 100.843 45.3513 102.421 44.8673 105.078C44.4444 107.425 47.0546 109.637 46.6248 112.034C46.155 114.6 42.4192 116.025 41.0377 118.297C39.9242 120.142 40.4434 122.262 39.8631 124.222C39.1888 126.455 36.978 128.448 34.0412 129.495C33.8556 129.561 33.6841 129.624 33.4962 129.681C33.3975 129.706 33.2847 129.746 33.186 129.772C33.1531 129.746 33.1226 129.714 33.0803 129.681C32.1405 128.875 31.0786 127.518 30.2 126.065L30.2657 125.14C30.8399 124.021 31.3162 122.855 31.6895 121.654C32.3238 119.518 31.323 117.33 30.9564 115.137L31.5837 106.069L31.7787 105.907C31.8497 105.854 31.9172 105.797 31.9808 105.735C32.9488 104.956 33.9895 104.21 34.739 103.322C35.6647 102.233 36.097 101.04 36.3836 99.8004" fill="white"/>
<path d="M36.3843 99.7503C36.3843 99.7074 36.3984 99.6673 36.4079 99.618L36.3843 99.7503Z" fill="white"/>
<path d="M36.4078 99.6103C36.4078 99.6598 36.3913 99.6996 36.3843 99.7422C36.1071 100.993 35.6794 102.186 34.7397 103.263C33.9902 104.151 32.9494 104.906 31.9815 105.677C31.9185 105.739 31.851 105.796 31.7794 105.848L31.5845 106.02C31.5884 106.009 31.5884 105.997 31.5845 105.987C31.5845 105.954 31.568 105.93 31.561 105.907C31.5571 105.88 31.5571 105.853 31.561 105.827V105.81C31.561 105.787 31.561 105.764 31.5445 105.731C31.5479 105.714 31.5479 105.698 31.5445 105.681C31.5515 105.666 31.5515 105.648 31.5445 105.632C31.5384 105.589 31.5298 105.545 31.5187 105.503C31.4787 105.308 31.4223 105.12 31.3636 104.925C31.3236 104.803 31.2837 104.674 31.2344 104.552C31.1945 104.441 31.1482 104.332 31.0958 104.226C31.0603 104.12 31.0113 104.019 30.9501 103.925C30.9076 103.828 30.859 103.733 30.8044 103.641C30.1936 102.594 29.2585 101.707 28.3399 100.824C28.2412 100.718 28.1355 100.613 28.0392 100.522C27.9428 100.43 27.8348 100.326 27.7385 100.23L27.1534 99.6199C26.8746 99.3159 26.6134 98.9963 26.3711 98.662C26.3711 98.662 26.942 89.2717 31.7465 86.4336C36.2621 83.7315 36.4078 98.026 36.4078 99.6103Z" fill="white"/>
<path d="M36.3843 99.7503C36.3843 99.7074 36.3984 99.6673 36.4079 99.618L36.3843 99.7503Z" fill="white"/>
<path d="M31.5839 105.997V106.039C31.587 106.023 31.587 106.006 31.5839 105.99C31.5839 105.974 31.5839 105.959 31.5839 105.926C31.5801 105.9 31.5801 105.873 31.5839 105.846C31.5803 105.896 31.5803 105.947 31.5839 105.997Z" fill="white"/>
<path d="M47.8517 90.5822C39.1894 99.8973 35.1155 119.535 33.532 129.674C33.4028 130.528 33.2854 131.317 33.1843 132.021" fill="white"/>
<path d="M48.6437 137.727L44.6498 161.221C44.4541 162.548 43.328 163.541 41.9856 163.569H21.1792C19.8212 163.54 18.6875 162.525 18.5103 161.179L14.8335 137.722L48.6437 137.727Z" fill="white"/>
<path d="M52.4387 135.103C52.3629 136.547 51.188 137.689 49.7414 137.725H13.8143C12.3827 137.69 11.2139 136.57 11.1196 135.143C10.9669 133.467 12.2168 132.018 13.8143 132.018H49.7414C51.3204 132.02 52.5656 133.443 52.4387 135.103Z" fill="white"/>
<path d="M31.6108 106.046C31.6102 105.994 31.6015 105.941 31.585 105.891L31.6108 106.046Z" fill="white"/>
<path d="M13.8074 83.9433C22.1219 94.7421 26.0243 117.485 27.5631 129.23C27.6947 130.249 27.8122 131.181 27.9038 132.017" fill="white"/>
<path d="M32.3412 95.4088C31.3004 98.611 31.2511 101.846 31.3733 103.893C31.4079 104.554 31.4785 105.214 31.5847 105.867" fill="white"/>
<path fill-rule="evenodd" clip-rule="evenodd" d="M31.6598 106.004C31.6629 105.988 31.6629 105.971 31.6598 105.955C31.6598 105.939 31.6598 105.925 31.6598 105.892C31.656 105.865 31.656 105.838 31.6598 105.812C31.6655 105.869 31.6757 105.926 31.6905 105.981C31.6841 105.993 31.673 106.002 31.6598 106.004Z" stroke="#51A951" stroke-width="0.821721"/>
<path fill-rule="evenodd" clip-rule="evenodd" d="M31.749 121.596C31.3746 122.796 30.8967 123.962 30.3208 125.08C30.1582 125.397 29.9956 125.704 29.8165 126.019C29.2056 127.163 28.4543 128.226 27.58 129.186C27.4245 129.137 27.2713 129.073 27.1322 129.014C27.0993 129.014 27.0757 128.991 27.0498 128.984C24.2218 127.757 22.1008 125.465 21.4716 122.884C20.9084 120.611 21.4127 118.15 20.3286 116.013C18.9994 113.383 15.3938 111.733 14.946 108.764C14.5383 105.985 17.0505 103.435 16.6428 100.714C16.1715 97.6382 12.3749 95.8107 11.675 92.8055C11.2249 90.9285 11.6255 88.7865 11.4629 86.8605C11.2756 84.7093 10.9099 82.5773 10.3694 80.4865C10.631 80.47 10.8902 80.4627 11.1518 80.4558C16.4944 80.3642 21.7568 83.353 23.4865 87.5524C24.8793 90.9473 24.17 94.8675 26.0223 98.0513C26.1331 98.2578 26.2583 98.4561 26.397 98.6447C26.64 98.9785 26.902 99.2982 27.1818 99.6022L27.7686 100.212C27.8652 100.308 27.9712 100.397 28.0702 100.503C28.1692 100.608 28.2729 100.7 28.3719 100.806C29.2933 101.681 30.2313 102.568 30.844 103.621C30.8987 103.712 30.9475 103.807 30.9901 103.905C31.0468 104.001 31.0956 104.101 31.1362 104.205C31.1888 104.311 31.2352 104.42 31.2753 104.531C31.3247 104.653 31.3648 104.782 31.4048 104.904C31.4638 105.099 31.5204 105.287 31.5604 105.481C31.5604 105.531 31.5604 105.571 31.5769 105.61C31.5934 105.65 31.5769 105.643 31.5769 105.659C31.5803 105.676 31.5803 105.692 31.5769 105.709C31.5769 105.742 31.5769 105.765 31.5934 105.789V105.805C31.5946 105.835 31.6002 105.865 31.6099 105.894V105.957C31.6129 105.974 31.6129 105.99 31.6099 106.007V106.023L30.9807 115.086C31.3813 117.275 32.3852 119.462 31.749 121.596Z" stroke="#51A951" stroke-width="0.821721"/>
<path d="M36.488 99.5972C36.8957 97.6315 36.9287 95.569 37.8572 93.6925C39.587 90.2344 44.6444 87.7237 49.9396 87.5621H50.0366C50.5078 87.5621 51.0074 87.5621 51.4974 87.5877C50.95 89.3864 50.5753 91.2322 50.3781 93.1009C50.1989 94.7645 50.6139 96.6204 50.1589 98.2249C49.4165 100.822 45.4598 102.399 44.9743 105.054C44.5501 107.4 47.1683 109.61 46.7371 112.006C46.2659 114.57 42.5186 115.994 41.133 118.265C40.0159 120.109 40.5367 122.227 39.9546 124.186C39.2783 126.418 37.0607 128.409 34.1148 129.456C33.9287 129.521 33.7567 129.585 33.5681 129.641C33.4691 129.667 33.356 129.707 33.257 129.732C33.224 129.707 33.1934 129.674 33.151 129.641C32.2083 128.836 31.1431 127.48 30.2617 126.028L30.3277 125.104C30.9036 123.986 31.3815 122.82 31.7559 121.62C32.3921 119.485 31.3882 117.299 31.0206 115.107L31.6498 106.045L31.8454 105.882C31.9166 105.83 31.9843 105.773 32.0481 105.711C33.019 104.932 34.063 104.186 34.8148 103.299C35.7433 102.211 36.1769 101.019 36.4644 99.7804" stroke="#51A951" stroke-width="0.821721"/>
<path d="M36.4648 99.7287C36.4648 99.6863 36.4791 99.6462 36.4886 99.5965" stroke="#51A951" stroke-width="0.821721"/>
<path fill-rule="evenodd" clip-rule="evenodd" d="M36.4885 99.5906C36.4885 99.64 36.472 99.6799 36.4649 99.722C36.1869 100.973 35.758 102.164 34.8153 103.241C34.0636 104.128 33.0196 104.884 32.0486 105.653C31.9854 105.715 31.9177 105.772 31.8459 105.824L31.6503 105.995C31.6543 105.985 31.6543 105.973 31.6503 105.962C31.6503 105.93 31.6338 105.906 31.6268 105.883C31.623 105.856 31.623 105.83 31.6268 105.803V105.787C31.6268 105.763 31.6268 105.74 31.6103 105.707C31.6137 105.69 31.6137 105.674 31.6103 105.657C31.6172 105.642 31.6172 105.624 31.6103 105.608C31.6041 105.565 31.5955 105.522 31.5843 105.479C31.5443 105.285 31.4877 105.097 31.4288 104.902C31.3887 104.78 31.3487 104.651 31.2992 104.529C31.2592 104.418 31.2127 104.309 31.1602 104.203C31.1245 104.097 31.0754 103.996 31.014 103.903C30.9714 103.805 30.9226 103.71 30.8679 103.619C30.2552 102.572 29.3172 101.686 28.3958 100.804C28.2968 100.698 28.1908 100.592 28.0941 100.501C27.9975 100.409 27.8891 100.306 27.7925 100.21L27.2057 99.6002C26.9259 99.2962 26.6639 98.9765 26.4209 98.6427C26.4209 98.6427 26.9936 89.2584 31.8129 86.4221C36.3424 83.7219 36.4885 98.0071 36.4885 99.5906Z" stroke="#51A951" stroke-width="0.821721"/>
<path d="M36.4648 99.7287C36.4648 99.6863 36.4791 99.6462 36.4886 99.5965" stroke="#51A951" stroke-width="0.821721"/>
<path fill-rule="evenodd" clip-rule="evenodd" d="M31.6506 105.972V106.014C31.6536 105.997 31.6536 105.981 31.6506 105.964C31.6506 105.948 31.6506 105.934 31.6506 105.901C31.6467 105.874 31.6467 105.847 31.6506 105.821C31.647 105.871 31.647 105.921 31.6506 105.972Z" stroke="#51A951" stroke-width="0.821721"/>
<path d="M47.9672 90.5672C39.2783 99.8764 35.1918 119.501 33.6034 129.634C33.4738 130.488 33.356 131.276 33.2546 131.98" stroke="#51A951" stroke-width="0.821721"/>
<path fill-rule="evenodd" clip-rule="evenodd" d="M48.7613 137.682L44.755 161.161C44.5585 162.487 43.4291 163.479 42.0825 163.507H21.212C19.8497 163.478 18.7126 162.464 18.5349 161.119L14.8467 137.677L48.7613 137.682Z" stroke="#51A951" stroke-width="0.821721"/>
<path fill-rule="evenodd" clip-rule="evenodd" d="M52.5678 135.06C52.492 136.503 51.3134 137.645 49.8622 137.681H13.8244C12.3884 137.646 11.216 136.527 11.1213 135.1C10.9682 133.425 12.2219 131.978 13.8244 131.978H49.8622C51.4458 131.98 52.6952 133.402 52.5678 135.06Z" stroke="#51A951" stroke-width="0.821721"/>
<path fill-rule="evenodd" clip-rule="evenodd" d="M31.6753 106.02C31.6748 105.967 31.6661 105.915 31.6494 105.865L31.6753 106.02Z" stroke="#51A951" stroke-width="0.821721"/>
<path d="M13.8176 83.933C22.1578 94.7249 26.0722 117.453 27.6158 129.191C27.7478 130.209 27.8656 131.14 27.9575 131.976" stroke="#51A951" stroke-width="0.821721"/>
<path d="M32.409 95.391C31.365 98.5913 31.3156 101.824 31.4381 103.87C31.4728 104.531 31.5436 105.189 31.6502 105.843" stroke="#51A951" stroke-width="0.821721"/>
<path fill-rule="evenodd" clip-rule="evenodd" d="M168.058 74.9847C167.498 75.1802 166.944 75.3835 166.394 75.5946L165.944 75.7658C164.641 76.2517 163.352 76.7632 162.121 77.3003C161.695 77.4784 161.275 77.657 160.858 77.8516C160.519 77.9995 160.186 78.1447 159.854 78.2999L159.696 78.3722C159.256 78.5742 158.812 78.7784 158.379 78.9895C157.946 79.2006 157.436 79.435 156.989 79.6722C156.753 79.7776 156.539 79.8902 156.317 80.0028C155.89 80.2139 155.473 80.4346 155.054 80.6526C154.936 80.7185 154.818 80.7749 154.705 80.8404C154.281 81.0753 153.854 81.2955 153.435 81.5304C153.088 81.7177 152.756 81.9032 152.417 82.0978C140.407 88.916 130.181 98.4555 122.567 109.943C105.543 135.4 104.763 163.48 104.73 165.967L104.692 165.892C102.654 152.714 99.5357 141.296 95.6188 131.405L95.9254 130.399L95.3904 130.812C95.3904 130.812 95.3904 130.812 95.3904 130.795C96.1562 114.051 99.4488 100.062 104.171 88.3665L104.615 88.4654C104.527 88.2845 104.44 88.0991 104.353 87.9209C112.601 67.7987 125.112 54.6069 136.215 46.229C149.299 36.3756 160.458 33.1802 160.458 33.1802C166.415 40.5141 167.773 62.9188 168.058 74.9847Z" stroke="#51A951" stroke-width="0.821721"/>
<path d="M168.79 161.671C167.048 161.323 165.338 160.911 163.669 160.425C156.817 158.438 148.847 155.04 146.123 147.901C144.735 144.156 145.319 139.97 147.68 136.74C148.915 135.044 150.648 133.77 152.642 133.092C156.978 131.701 161.774 133.868 164.99 137.08C168.206 140.292 170.276 144.417 172.787 148.187C170.512 143.122 168.199 137.913 167.885 132.374C167.648 128.057 168.83 123.379 171.821 120.134C174.578 117.149 181.036 114.81 184.831 117.004C187.338 118.452 188.335 121.53 188.767 124.375C189.949 132.163 188.432 140.077 186.922 147.807C187.936 143.673 189.025 139.501 191.088 135.774C193.151 132.045 196.319 128.749 200.372 127.369C203.207 126.403 206.581 126.508 208.961 128.327C211.179 130.025 212.169 132.892 212.474 135.656C212.984 140.29 211.885 144.992 209.995 149.264C202.942 165.181 183.39 164.578 168.79 161.671Z" fill="white"/>
<path d="M184.699 153.79C184.699 153.79 195.568 156.788 199.406 141.787L184.699 153.79Z" fill="white"/>
<path d="M179.862 128.184C176.84 134.988 179.862 155.4 179.862 155.4V128.184Z" fill="white"/>
<path d="M169.79 153.327C169.336 153.25 164.976 152.645 161.26 150.948C158.382 149.634 155.886 147.663 155.886 144.787" fill="white"/>
<path d="M162.134 144.787C162.134 144.787 157.881 149.714 161.259 150.948L162.134 144.787Z" fill="white"/>
<path d="M159.312 155.425C159.917 154.59 163.062 156.266 165.115 152.326L159.312 155.425Z" fill="white"/>
<path d="M178.52 137.186C177.445 136.386 174.623 137.186 174.221 130.784L178.52 137.186Z" fill="white"/>
<path d="M178.987 143.188C178.987 143.188 183.69 141.503 183.69 137.845L178.987 143.188Z" fill="white"/>
<path d="M189.096 153.876C189.096 153.876 191.548 147.588 192.555 144.787L189.096 153.876Z" fill="white"/>
<path d="M196.711 147.869C196.711 147.869 199.405 149.98 202.619 146.59L196.711 147.869Z" fill="white"/>
<path d="M196.711 144.788C196.711 144.788 194.973 144.04 195.766 139.714L196.711 144.788Z" fill="white"/>
<path fill-rule="evenodd" clip-rule="evenodd" d="M168.708 161.682C166.954 161.447 165.268 160.922 163.605 160.436C156.777 158.448 148.835 155.05 146.12 147.909C144.737 144.162 145.319 139.976 147.672 136.745C148.902 135.049 150.63 133.774 152.616 133.096C156.937 131.704 161.717 133.873 164.922 137.085C168.126 140.298 170.189 144.424 172.692 148.195C170.424 143.128 168.119 137.919 167.806 132.378C167.571 128.059 168.748 123.38 171.729 120.135C174.477 117.149 180.911 114.81 184.693 117.004C187.191 118.452 188.185 121.531 188.616 124.377C189.793 132.166 188.281 140.082 186.777 147.815C187.787 143.68 188.872 139.507 190.928 135.778C192.984 132.049 196.141 128.752 200.179 127.372C203.004 126.405 206.367 126.511 208.738 128.33C210.949 130.028 211.936 132.896 212.239 135.661C212.748 140.296 211.721 145.029 209.769 149.272C202.628 164.773 182.991 163.602 168.708 161.682Z" stroke="#51A951" stroke-width="0.821721"/>
<path d="M184.561 153.8C184.561 153.8 195.392 156.799 199.215 141.794" stroke="#51A951" stroke-width="0.821721"/>
<path d="M179.741 128.186C176.73 134.992 179.741 155.409 179.741 155.409" stroke="#51A951" stroke-width="0.821721"/>
<path d="M169.703 153.338C169.251 153.26 164.907 152.654 161.203 150.958C158.335 149.644 155.849 147.672 155.849 144.795" stroke="#51A951" stroke-width="0.821721"/>
<path d="M162.075 144.795C162.075 144.795 157.837 149.723 161.204 150.958" stroke="#51A951" stroke-width="0.821721"/>
<path d="M159.264 155.435C159.866 154.599 163 156.275 165.046 152.335" stroke="#51A951" stroke-width="0.821721"/>
<path d="M178.404 137.191C177.332 136.391 174.521 137.191 174.12 130.787" stroke="#51A951" stroke-width="0.821721"/>
<path d="M178.871 143.194C178.871 143.194 183.556 141.51 183.556 137.851" stroke="#51A951" stroke-width="0.821721"/>
<path d="M188.942 153.887C188.942 153.887 191.386 147.597 192.389 144.795" stroke="#51A951" stroke-width="0.821721"/>
<path d="M196.531 147.877C196.531 147.877 199.216 149.989 202.418 146.598" stroke="#51A951" stroke-width="0.821721"/>
<path d="M196.531 144.795C196.531 144.795 194.798 144.046 195.589 139.718" stroke="#51A951" stroke-width="0.821721"/>
<path d="M175.265 132.837C175.865 130.853 175.988 128.755 175.623 126.715C175.427 125.54 174.872 122.341 173.157 122.836C172.659 122.975 172.364 123.398 172.177 123.877C172.397 122.82 170.86 122.153 170.11 122.056C168.207 121.789 166.817 123.12 165.911 124.746C163.926 128.317 158.648 130.042 154.971 130.048C149.799 130.048 146.71 126.055 145.822 120.886C143.462 107.219 142.832 74.2943 118.094 65.2686C116.735 64.7681 115.346 64.3518 113.935 64.0235V64.0633C113.919 64.0633 113.902 64.0633 113.886 64.007C113.875 63.9754 113.867 63.9434 113.862 63.9104C114.644 63.7955 115.419 63.6343 116.182 63.4291C117.171 63.1778 118.191 62.8838 118.911 62.2542C119.777 61.5073 120.07 60.4102 120.143 59.3602C120.143 59.1981 120.159 59.0264 120.159 58.8643C120.167 58.7324 120.167 58.5996 120.159 58.4673C120.159 58.2795 120.159 58.0913 120.159 57.8967C120.159 57.7511 120.159 57.5959 120.159 57.4503L121.363 53.6258C121.804 52.7705 122.243 51.9133 122.437 51.0016C122.518 50.6343 122.554 50.2589 122.543 49.8834C122.543 49.8032 122.543 49.7213 122.543 49.632C122.453 48.0463 121.677 46.4769 120.591 45.1684C120.393 43.4331 120.051 41.7171 119.569 40.0377C118.049 34.5405 115.011 28.5641 109.08 26.9055C104.7 25.6863 99.5942 25.7591 95.2889 27.3942C95.2816 27.3973 95.2728 27.3973 95.2655 27.3942C94.9855 27.477 94.7148 27.5888 94.4583 27.7277C93.054 28.4842 92.57 30.2156 92.6458 32.1185C92.6454 32.2246 92.6532 32.3307 92.6693 32.4356C92.6693 32.5742 92.6858 32.7198 92.7093 32.8584C92.9216 34.7214 93.6249 36.6384 94.5079 37.8764C94.4679 37.9727 94.4252 38.062 94.3921 38.1607C94.0193 39.0136 93.5362 39.8144 92.9547 40.5428C91.6566 42.1873 89.9007 43.3877 88.6329 45.0322C87.3656 46.6767 86.6247 48.8192 86.9598 50.877C87.2857 52.8694 88.5433 54.6099 88.8292 56.5926C89.0981 58.4064 88.5929 60.4807 89.7049 61.9373C90.3893 62.8229 91.5247 63.2295 92.6127 63.5372C93.0848 63.6686 93.5569 63.7721 94.0285 63.8802C93.9697 64.0492 93.9531 64.0588 93.92 64.0656C92.5658 64.3825 91.2319 64.7818 89.9264 65.2612L89.7306 65.334C65.1959 74.4702 64.5514 107.249 62.2053 120.875C61.325 126.043 58.2283 130.037 53.057 130.037C49.3797 130.037 44.102 128.305 42.117 124.734C41.2012 123.109 39.8228 121.777 37.9181 122.045C37.1745 122.151 35.7206 122.768 35.8599 123.776C35.8566 123.814 35.8566 123.851 35.8599 123.889V123.929C35.8599 123.929 35.8599 123.955 35.8599 123.962V123.988C35.6805 123.466 35.3878 123.003 34.8544 122.848C33.1385 122.352 32.5839 125.547 32.3879 126.727C32.0229 128.767 32.1458 130.864 32.7467 132.849C33.5397 135.475 35.1966 137.932 37.6561 138.997C39.6865 139.826 41.8081 140.414 43.9768 140.749C40.7103 143.913 38.5931 148.02 38.6922 153.273C38.7654 156.562 40.7598 158.859 43.8707 160.396C47.8573 162.378 53.6753 163.118 59.5903 163.175H59.6229C58.9495 163.302 58.2922 163.501 57.6615 163.769C56.9357 164.07 56.2522 164.466 55.6293 164.944C55.4077 165.116 55.1954 165.295 54.9922 165.479C54.8856 165.572 54.784 165.67 54.6879 165.773C54.4944 165.968 54.3055 166.173 54.1262 166.384C53.7782 166.801 53.4624 167.244 53.182 167.709C53.0428 167.944 52.9127 168.179 52.7996 168.414C52.6861 168.649 52.5776 168.912 52.4787 169.154C52.3257 169.525 52.2034 169.909 52.1129 170.3C52.0467 170.554 51.9901 170.805 51.9405 171.066C51.5157 173.57 52.0963 176.157 53.8757 178.017C54.2002 178.353 54.5532 178.661 54.9311 178.936C55.1269 179.075 55.3319 179.206 55.542 179.335C55.9869 179.596 56.4549 179.816 56.9394 179.993C57.4721 180.191 58.0187 180.348 58.5753 180.463C62.4885 181.25 65.5995 178.722 69.1302 177.644C71.1435 177.051 73.2396 176.785 75.3375 176.855C76.7055 176.895 78.0693 177.03 79.4184 177.256C94.2358 179.669 109.272 180.482 124.264 179.68C134.394 179.126 144.727 177.86 154.343 174.484C161.58 171.942 169.543 167.476 173.107 160.577C174.371 158.147 175.025 155.449 175.012 152.714C175.012 146.965 172.652 142.68 168.974 139.518C169.447 139.347 169.904 139.175 170.355 138.98C172.815 137.921 174.472 135.463 175.265 132.837Z" fill="white"/>
<path d="M75.3918 176.849C73.2796 176.778 71.1693 177.044 69.1426 177.638C65.5931 178.718 62.4613 181.251 58.5225 180.461C48.2682 178.412 50.4075 164.866 59.5981 163.139H59.6123C60.493 163.12 61.3742 163.113 62.2476 163.113H62.3046C66.5381 163.113 70.6623 163.223 74.0477 162.066C73.7204 162.353 65.4768 169.603 75.3918 176.849Z" fill="#51A951"/>
<path d="M117.91 65.2194C117.91 65.2194 117.91 65.2382 117.91 65.245C119.16 68.9889 120.689 72.6398 122.485 76.1693L122.507 76.2091" stroke="black" stroke-width="0.821721"/>
<path d="M130.322 130.404C118.953 132.201 107.927 134.956 96.3304 133.491C90.049 132.688 83.8908 131.092 77.6899 129.844C81.5525 123.68 83.0483 115.741 82.4443 108.832C82.0526 104.294 79.9529 99.9036 80.0591 95.3841C80.1322 92.323 80.7031 89.2756 81.496 86.3267C82.4291 82.8535 83.6964 79.4774 85.2804 76.2446C85.2804 76.2304 85.297 76.2212 85.3043 76.2047C87.0534 72.6862 88.5441 69.0467 89.7636 65.3148C91.1187 64.8143 92.5041 64.3999 93.9116 64.0743L94.1479 65.7663C94.728 69.745 96.0918 75.4886 100.283 77.3678C101.151 77.7451 102.088 77.9406 103.036 77.9411C104.905 78.1284 107.406 77.3678 107.406 77.3678C111.594 75.4954 112.951 69.7524 113.541 65.7663L113.777 64.0743C115.184 64.3976 116.569 64.8088 117.925 65.3052C119.145 69.039 120.635 72.6798 122.384 76.2001C122.393 76.2116 122.399 76.2253 122.401 76.24C123.982 79.4714 125.246 82.8462 126.176 86.3176C127.019 89.2688 127.502 92.3097 127.615 95.3749C127.721 99.8945 125.631 104.285 125.23 108.823C124.588 115.952 126.197 124.167 130.322 130.404Z" fill="#2E2E2E"/>
<path d="M168.866 139.4C172.543 142.553 174.902 146.825 174.91 152.566C174.92 155.292 174.266 157.98 173.003 160.401C169.444 167.273 161.482 171.719 154.236 174.26C144.619 177.626 134.293 178.886 124.161 179.441C109.175 180.243 94.1467 179.435 79.3367 177.031C77.9834 176.806 76.6164 176.675 75.2447 176.637C73.1463 176.568 71.0502 176.832 69.0364 177.422C65.5085 178.497 62.3961 181.02 58.4811 180.233C48.2894 178.193 50.4153 164.706 59.5498 162.987" stroke="black" stroke-width="0.821721"/>
<path d="M144.72 156.716C141.705 163.597 134.244 161.24 126.045 156.291C120.96 153.218 116.624 152.779 114.061 152.882C117.672 152.56 120.83 151.449 121.716 147.378C122.434 144.066 120.564 141.035 117.33 140.058C125.103 139.717 133.085 140.293 139.414 145.177C139.414 145.177 147.742 149.831 144.72 156.716Z" fill="#51A951"/>
<path d="M99.9312 60.372C99.8342 61.1038 99.5726 61.8039 99.1658 62.4207C98.5135 63.3155 97.4439 63.8182 96.3536 63.9735C95.6779 63.8796 95.0095 63.7381 94.354 63.5504C93.2632 63.2404 92.1375 62.8342 91.4521 61.9486C90.3356 60.4847 90.8491 58.4104 90.5806 56.5994C90.2864 54.6212 89.0311 52.8738 88.713 50.8911C88.3714 48.8333 89.1134 46.6953 90.3756 45.0439C91.4687 43.6344 92.9125 42.5397 94.1113 41.2313C94.1113 41.4004 94.0948 41.5813 94.0856 41.7598C93.209 42.7701 92.7884 44.0955 92.9222 45.4247C93.0559 46.7539 93.7321 47.9697 94.7921 48.7861C95.249 50.729 96.4147 54.9482 99.3258 57.452C99.5754 57.7954 99.7648 58.1782 99.8866 58.5844C100.028 59.1705 100.044 59.78 99.9312 60.372Z" fill="#51A951"/>
<path d="M122.293 51.0074C121.911 52.8185 120.54 54.4042 120.157 56.218C119.945 57.2515 120.044 58.3156 119.977 59.3656C119.944 60.0451 119.775 60.7114 119.48 61.325C119.292 61.6776 119.044 61.9954 118.748 62.2646C118.03 62.8919 117.01 63.1923 116.025 63.4391C114.516 63.8219 112.942 64.1438 111.378 64.0005C109.593 63.8293 107.791 62.6992 107.139 60.9843C106.625 59.6431 107.033 58.5927 107.718 57.6251V57.6086C108.467 57.0463 109.153 56.4062 109.765 55.6987C112.591 48.6675 113.882 50.6411 114.224 48.3553C115.519 47.4765 114.541 45.884 114.541 44.209C114.541 43.0133 114.471 42.3814 113.762 41.5357L115.234 41.1927C114.631 40.4762 115.031 40.7229 114.101 40.4481L113.762 40.4856C113.256 40.5655 114.247 40.2671 113.639 40.3681C101.816 42.325 99.5521 28.9207 99.1517 26.8324C98.7936 27.2129 97.4679 26.985 97.1829 27.4079C97.0602 27.5888 98.3606 29.7852 98.2521 29.9708C98.2213 29.8322 98.1956 29.7124 98.179 29.6137C97.8274 29.9885 97.5056 30.3907 97.2183 30.8165C96.265 32.1748 95.5484 33.6838 95.0983 35.2799C95.0818 35.3269 95.0726 35.3832 95.0561 35.4326C94.8878 36.2599 94.6732 37.0771 94.413 37.8804C93.353 36.3934 92.5288 33.9056 92.5288 31.7162C92.5288 29.9849 93.0423 28.4274 94.3445 27.7227C94.3817 27.7015 94.4203 27.6827 94.4599 27.6663C94.6828 27.5554 94.9145 27.4627 95.1526 27.3891C95.1526 27.3891 95.1691 27.3891 95.1783 27.3891C99.4744 25.7447 104.576 25.6742 108.938 26.8934C114.864 28.5519 117.888 34.5376 119.415 40.0322C119.892 41.7124 120.233 43.4281 120.434 45.1628C121.845 46.8588 122.717 48.9661 122.293 51.0074Z" fill="#51A951"/>
<path d="M70.5145 143.407L82.6286 142.447C91.8775 141.716 101.128 140.984 110.381 140.252C112.695 140.073 115.099 139.872 117.498 139.768C125.283 139.428 133.278 140.003 139.617 144.883C139.617 144.883 147.959 149.533 144.932 156.413C141.905 163.293 134.439 160.934 126.227 155.988C121.134 152.918 116.791 152.479 114.224 152.582H114.198C113.92 152.596 113.653 152.615 113.422 152.641C112.864 152.683 112.311 152.775 111.77 152.918C102.348 155.871 87.7594 159.974 74.0507 161.894C70.1803 162.461 66.281 162.813 62.3706 162.945H62.3141C61.4246 162.978 60.5494 162.985 59.6816 162.971H59.6508C53.7316 162.92 47.9191 162.178 43.9321 160.199C40.8228 158.657 38.8317 156.368 38.761 153.08C38.6643 147.824 40.7757 143.724 44.0501 140.557" stroke="black" stroke-width="0.821721"/>
<path d="M168.925 127.484C170.503 126.759 172.355 124.407 172.141 123.459" stroke="black" stroke-width="0.821721"/>
<path d="M157.753 137.343C160.133 137.866 159.041 132.667 161.573 132.242C161.573 132.242 162.596 132.085 162.802 132.946C162.943 133.535 162.752 134.256 162.636 134.824C162.53 135.348 162.448 135.998 162.223 136.467C162.433 135.942 162.609 135.404 162.752 134.857C162.906 134.283 163.016 133.699 163.082 133.108C163.226 132.169 163.33 131.158 163.684 130.292C163.874 129.754 164.266 129.311 164.778 129.057C165.897 128.588 166.609 129.761 166.706 130.78C166.721 130.893 166.726 131.008 166.72 131.123C166.72 131.277 166.706 131.423 166.694 131.569C166.586 133.35 166.394 135.582 165.392 136.979C166.394 135.571 166.599 133.414 166.692 131.625C166.739 130.667 166.73 129.677 167.083 128.808C167.216 128.459 167.426 128.144 167.697 127.886C167.961 127.636 168.309 127.494 168.673 127.486C169.242 127.538 169.742 127.879 169.995 128.388C170.255 128.908 170.395 129.48 170.405 130.062C170.558 132.611 169.959 135.15 168.065 136.847" stroke="black" stroke-width="0.821721"/>
<path d="M122.562 76.0731C124.157 79.3261 125.43 82.726 126.362 86.2249C127.16 89.1825 127.728 92.234 127.802 95.3042C127.908 99.8393 125.813 104.243 125.414 108.796C124.409 120.338 129.226 134.731 141.097 139.046C145.775 140.747 150.817 141.379 155.783 141.261C160.501 141.151 165.979 140.677 170.346 138.802C172.803 137.741 174.46 135.281 175.257 132.661C175.854 130.677 175.977 128.582 175.618 126.542C175.415 125.368 174.865 122.174 173.145 122.669C172.574 122.828 172.275 123.359 172.098 123.925C171.744 125.098 171.928 126.333 171.888 127.539C171.843 129.23 171.596 132.53 170.038 133.659" stroke="black" stroke-width="0.821721"/>
<path d="M94.1208 63.9038L94.3571 65.6008C94.9418 69.5915 96.3006 75.3492 100.49 77.2339C101.356 77.6158 102.292 77.8132 103.239 77.8136C105.112 78.0014 107.608 77.2339 107.608 77.2339C111.796 75.356 113.154 69.5983 113.742 65.6008L113.978 63.9038" stroke="black" stroke-width="0.821721"/>
<path d="M89.9713 65.1201C89.9713 65.1201 89.9713 65.1388 89.9713 65.1462C88.755 68.8914 87.2662 72.5441 85.5171 76.075L85.4983 76.1148" stroke="black" stroke-width="0.821721"/>
<path d="M35.9775 123.924L35.9398 123.802C35.9318 123.786 35.927 123.768 35.9256 123.75C35.9256 123.75 35.9256 123.739 35.9256 123.731C35.6732 122.661 37.209 121.99 37.9734 121.886C39.8606 121.617 41.2596 122.95 42.1678 124.577C44.1495 128.142 49.4267 129.865 53.1022 129.87C58.2734 129.87 61.3707 125.879 62.2532 120.715C64.598 107.056 65.2397 74.1617 89.9656 65.141C91.3239 64.6451 92.7112 64.232 94.1196 63.9042L94.4947 63.8195" stroke="black" stroke-width="0.821721"/>
<path d="M113.59 63.8354C113.712 63.8546 113.826 63.8871 113.953 63.9132C115.361 64.2397 116.748 64.6509 118.105 65.1455C142.831 74.1662 143.473 107.061 145.817 120.72C146.7 125.883 149.797 129.874 154.971 129.874C158.644 129.874 163.921 128.146 165.902 124.581C166.811 122.954 168.198 121.621 170.097 121.891C170.899 122.001 172.586 122.75 172.093 123.928" stroke="black" stroke-width="0.821721"/>
<path d="M39.1492 127.484C37.571 126.759 35.7192 124.407 35.9338 123.459" stroke="black" stroke-width="0.821721"/>
<path d="M50.3211 137.343C47.9387 137.866 49.0308 132.667 46.4995 132.242C46.4995 132.242 45.4757 132.085 45.2704 132.946C45.1313 133.535 45.32 134.256 45.4379 134.824C45.5441 135.348 45.6266 135.998 45.8484 136.467C45.6399 135.942 45.4642 135.404 45.3223 134.857C45.1672 134.284 45.0568 133.699 44.9921 133.108C44.8481 132.169 44.742 131.158 44.3881 130.292C44.2 129.754 43.808 129.311 43.2959 129.057C42.1777 128.588 41.4652 129.761 41.3661 130.78C41.3529 130.894 41.349 131.008 41.3544 131.123C41.3544 131.277 41.3661 131.423 41.3803 131.569C41.4865 133.35 41.6799 135.582 42.6801 136.979C41.6799 135.571 41.4723 133.414 41.3826 131.625C41.3331 130.667 41.3449 129.677 40.9887 128.808C40.8575 128.459 40.6486 128.144 40.3777 127.886C40.1124 127.636 39.7635 127.494 39.3987 127.486C38.8312 127.538 38.3316 127.879 38.0799 128.388C37.8184 128.908 37.6781 129.48 37.6694 130.062C37.5161 132.611 38.1129 135.15 40.0073 136.847" stroke="black" stroke-width="0.821721"/>
<path d="M85.5114 76.0731C83.9164 79.3256 82.644 82.726 81.7132 86.2249C80.9138 89.1825 80.3475 92.234 80.2744 95.3042C80.1683 99.8393 82.263 104.243 82.6592 108.796C83.6668 120.338 78.8472 134.731 66.9763 139.046C62.2978 140.747 57.2566 141.379 52.2931 141.261C47.5751 141.151 42.0971 140.677 37.7304 138.802C35.2699 137.741 33.6161 135.281 32.8164 132.661C32.2256 130.676 32.1069 128.581 32.4696 126.542C32.6725 125.368 33.2221 122.174 34.9419 122.669C35.5105 122.828 35.8125 123.359 35.9894 123.925C36.3409 125.098 36.1592 126.333 36.197 127.539C36.2442 129.23 36.4918 132.53 38.0489 133.659" stroke="black" stroke-width="0.821721"/>
<path d="M98.3997 29.4293C98.0214 29.8327 97.6744 30.2643 97.3618 30.7203C96.3698 32.1195 95.6348 33.6828 95.1917 35.3374C95.023 36.1638 94.8065 36.9796 94.5427 37.7809C94.505 37.8771 94.465 37.9687 94.4273 38.0649C94.0559 38.9184 93.5746 39.7201 92.995 40.4498C91.6978 42.0764 89.9423 43.2876 88.6709 44.9331C87.3994 46.5785 86.6612 48.7168 86.9982 50.7756C87.3241 52.7611 88.5813 54.5029 88.8713 56.4815C89.1379 58.2939 88.6355 60.3641 89.7465 61.8216C90.4286 62.7113 91.5608 63.1175 92.6507 63.4202C93.8113 63.7439 95.0097 63.9953 96.2034 63.8895C97.3972 63.7842 98.6006 63.2654 99.3057 62.296C99.7171 61.6833 99.9796 60.9846 100.072 60.2538C100.183 59.6631 100.167 59.0559 100.025 58.4721C99.7893 57.6272 99.1711 56.944 98.6098 56.254C96.8805 54.0272 95.6454 51.4606 94.9862 48.7237" stroke="black" stroke-width="0.821721"/>
<path d="M114.012 42.4877C114.012 41.8868 113.986 41.2929 113.934 40.6943" stroke="black" stroke-width="0.821721"/>
<path d="M94.672 37.4906C94.41 38.8652 94.2583 40.2585 94.2192 41.6571" stroke="black" stroke-width="0.821721"/>
<path d="M115.777 40.3846C115.525 40.4292 114.182 40.6498 113.935 40.6898C100.604 42.8023 100.016 33.2536 98.3999 29.4369C98.3999 29.4369 97.5104 26.0334 94.4932 27.646C91.4759 29.2585 92.6885 35.392 94.6724 37.974" stroke="black" stroke-width="0.821721"/>
<path d="M96.021 33.0687V33.0612" stroke="black" stroke-width="0.821721"/>
<path d="M117.733 42.1168L120.616 45.0626" stroke="black" stroke-width="0.821721"/>
<path d="M98.6187 56.2501C98.6517 56.2899 98.6779 56.3275 98.7156 56.3719C98.7483 56.4204 98.7855 56.4662 98.8264 56.5079C98.8922 56.599 98.9639 56.6851 99.0411 56.7662C99.048 56.7785 99.0567 56.7895 99.0673 56.7991C100.23 58.1138 101.873 58.9124 103.629 59.0172C105.753 59.1839 107.09 58.3459 107.876 57.508" stroke="black" stroke-width="0.821721"/>
<path d="M110.266 50.4702C112.967 50.4702 115.156 48.2916 115.156 45.6043C115.156 42.9169 112.967 40.7384 110.266 40.7384C107.565 40.7384 105.375 42.9169 105.375 45.6043C105.375 48.2916 107.565 50.4702 110.266 50.4702Z" stroke="black" stroke-width="0.821721"/>
<path d="M97.9138 49.7027C100.615 49.7027 102.804 47.5242 102.804 44.8368C102.804 42.1495 100.615 39.9709 97.9138 39.9709C95.2129 39.9709 93.0234 42.1495 93.0234 44.8368C93.0234 47.5242 95.2129 49.7027 97.9138 49.7027Z" stroke="black" stroke-width="0.821721"/>
<path d="M96.8513 43.6474C96.8513 43.6474 98.8449 42.9057 100.39 43.6709" stroke="black" stroke-width="0.821721"/>
<path d="M107.85 44.3211C107.85 44.3211 109.843 43.5794 111.389 44.3446" stroke="black" stroke-width="0.821721"/>
<path d="M104.307 53.0637C105.022 53.0637 105.602 52.4867 105.602 51.775C105.602 51.0633 105.022 50.4864 104.307 50.4864C103.591 50.4864 103.011 51.0633 103.011 51.775C103.011 52.4867 103.591 53.0637 104.307 53.0637Z" stroke="black" stroke-width="0.821721"/>
<path d="M94.4927 27.6454C98.9588 25.6807 104.45 25.5117 109.119 26.8121C115.052 28.4552 118.084 34.4431 119.605 39.9358C120.086 41.614 120.428 43.3285 120.627 45.0622C122.042 46.7497 122.908 48.8602 122.479 50.8974C122.097 52.7098 120.731 54.2965 120.342 56.1084C120.127 57.1391 120.231 58.2047 120.16 59.2492C120.089 60.2937 119.79 61.3899 118.929 62.1363C118.209 62.77 117.192 63.0754 116.199 63.3099C114.689 63.6973 113.113 64.0141 111.551 63.8708C109.756 63.7041 107.956 62.5754 107.305 60.8592C106.444 58.5967 108.206 57.1579 109.482 55.5662C110.291 54.5657 111.007 53.4947 111.622 52.3668C112.068 51.5339 112.456 50.6712 112.783 49.7847" stroke="black" stroke-width="0.821721"/>
<path d="M77.9082 129.863C84.1031 131.111 90.2604 132.715 96.5449 133.513C108.145 134.991 119.162 132.226 130.533 130.421" stroke="black" stroke-width="0.821721"/>
<path d="M15.2627 163.568H57.7098" stroke="black" stroke-width="0.821721"/>
<path d="M171.956 162.753H208.496" stroke="black" stroke-width="0.821721"/>
<path d="M197.578 107.234C199.746 109.093 201.682 111.205 203.344 113.523C206.396 117.676 208.122 122.647 208.298 127.789" stroke="#51A951" stroke-width="0.821721"/>
<path d="M121.951 22.1719C126.32 19.5546 130.868 17.2426 135.709 15.5995C147.778 11.4894 161.234 12.4072 170.796 21.409C179.085 29.209 183.004 40.7858 183.804 51.8836C183.804 52.0457 183.83 52.217 183.837 52.3882C184.205 58.1088 183.903 64.4206 183.86 70.7416" stroke="#51A951" stroke-width="0.821721"/>
<path d="M26.8082 70.3821C27.9028 63.4366 26.5558 56.9041 25.8362 49.7544C23.9678 31.1168 29.9198 8.83881 51.4846 6.05259C63.2019 4.53158 72.7161 8.88813 80.6357 17.2397C82.4169 19.1176 84.1954 21.317 86.0828 23.4459" stroke="#51A951" stroke-width="0.821721"/>
<path d="M18.395 131.903C18.395 131.903 2.06533 124.744 3.6884 111.298C4.16021 107.505 5.95078 104.109 8.22021 100.992" stroke="#51A951" stroke-width="0.821721"/>
</svg>
