<svg

        viewBox="0 0 24 28"
        fill="none"
        xmlns="http://www.w3.org/2000/svg"
>
    <path
            d="M3 8.16699H21V19.8337H3V8.16699ZM12 11.0837C12.7956 11.0837 13.5587 11.3909 14.1213 11.9379C14.6839 12.4849 15 13.2268 15 14.0003C15 14.7739 14.6839 15.5157 14.1213 16.0627C13.5587 16.6097 12.7956 16.917 12 16.917C11.2044 16.917 10.4413 16.6097 9.87868 16.0627C9.31607 15.5157 9 14.7739 9 14.0003C9 13.2268 9.31607 12.4849 9.87868 11.9379C10.4413 11.3909 11.2044 11.0837 12 11.0837ZM7 10.1114C7 10.6271 6.78929 11.1217 6.41421 11.4864C6.03914 11.851 5.53043 12.0559 5 12.0559V15.9448C5.53043 15.9448 6.03914 16.1496 6.41421 16.5143C6.78929 16.8789 7 17.3735 7 17.8892H17C17 17.3735 17.2107 16.8789 17.5858 16.5143C17.9609 16.1496 18.4696 15.9448 19 15.9448V12.0559C18.4696 12.0559 17.9609 11.851 17.5858 11.4864C17.2107 11.1217 17 10.6271 17 10.1114H7Z"
            fill="#585C7B"
    />
</svg>