<svg width="671" height="633" viewBox="0 0 671 633" fill="none" xmlns="http://www.w3.org/2000/svg">
    <path d="M659.848 0H454.27V290.739H659.848V0Z" fill="#D4ECFF"/>
    <path d="M592.912 47.6797H527.926V50.366H592.912V47.6797Z" fill="#9BB6CC"/>
    <path d="M572.013 52.5928H527.926V55.2791H572.013V52.5928Z" fill="#B2CDE0"/>
    <path d="M631.112 123.235H475.94V125.922H631.112V123.235Z" fill="#B2CDE0"/>
    <path d="M604.757 128.143H475.94V130.822H604.757V128.143Z" fill="#B2CDE0"/>
    <path d="M575.034 27.1963H475.94V31.5598H575.034V27.1963Z" fill="#9BB6CC"/>
    <path d="M542.389 245.219H489.547V247.898H542.389V245.219Z" fill="#B2CDE0"/>
    <path d="M529.104 250.125H489.547V252.804H529.104V250.125Z" fill="#B2CDE0"/>
    <path d="M532.806 255.031H489.547V257.711H532.806V255.031Z" fill="#B2CDE0"/>
    <path d="M525.144 259.937H489.547V262.616H525.144V259.937Z" fill="#B2CDE0"/>
    <path d="M542.911 264.843H489.547V267.529H542.911V264.843Z" fill="#B2CDE0"/>
    <path d="M480.005 245.219H475.829V247.898H480.005V245.219Z" fill="#B2CDE0"/>
    <path d="M480.005 250.125H475.829V252.804H480.005V250.125Z" fill="#B2CDE0"/>
    <path d="M480.005 255.031H475.829V257.711H480.005V255.031Z" fill="#B2CDE0"/>
    <path d="M480.005 259.937H475.829V262.616H480.005V259.937Z" fill="#B2CDE0"/>
    <path d="M480.005 264.843H475.829V267.529H480.005V264.843Z" fill="#B2CDE0"/>
    <path d="M566.308 138.839H489.547V141.518H566.308V138.839Z" fill="#9BB6CC"/>
    <path d="M484.89 138.839H475.94V141.518H484.89V138.839Z" fill="#9BB6CC"/>
    <path d="M609.477 143.738H489.547V146.418H609.477V143.738Z" fill="#B2CDE0"/>
    <path d="M537.601 148.65H489.547V151.33H537.601V148.65Z" fill="#B2CDE0"/>
    <path d="M544.31 153.558H489.547V156.237H544.31V153.558Z" fill="#B2CDE0"/>
    <path d="M534.727 158.464H489.547V161.143H534.727V158.464Z" fill="#B2CDE0"/>
    <path d="M542.389 169.027H489.547V171.707H542.389V169.027Z" fill="#9BB6CC"/>
    <path d="M484.89 169.027H475.94V171.707H484.89V169.027Z" fill="#9BB6CC"/>
    <path d="M557.727 173.928H489.547V176.614H557.727V173.928Z" fill="#B2CDE0"/>
    <path d="M537.601 178.841H489.547V181.527H537.601V178.841Z" fill="#B2CDE0"/>
    <path d="M544.31 183.746H489.547V186.425H544.31V183.746Z" fill="#B2CDE0"/>
    <path d="M594.145 194.902H489.547V197.582H594.145V194.902Z" fill="#9BB6CC"/>
    <path d="M484.89 194.902H475.94V197.582H484.89V194.902Z" fill="#9BB6CC"/>
    <path d="M609.477 199.809H489.547V202.488H609.477V199.809Z" fill="#B2CDE0"/>
    <path d="M602.295 204.715H489.547V207.394H602.295V204.715Z" fill="#B2CDE0"/>
    <path d="M594.145 215.029H489.547V217.709H594.145V215.029Z" fill="#9BB6CC"/>
    <path d="M484.89 215.029H475.94V217.709H484.89V215.029Z" fill="#9BB6CC"/>
    <path d="M609.477 219.937H489.547V222.623H609.477V219.937Z" fill="#B2CDE0"/>
    <path d="M602.295 224.842H489.547V227.521H602.295V224.842Z" fill="#B2CDE0"/>
    <path d="M509.394 114.891H475.829V119.247H509.394V114.891Z" fill="#9BB6CC"/>
    <path d="M509.394 237.09H475.829V241.446H509.394V237.09Z" fill="#9BB6CC"/>
    <path d="M604.689 61.2012H527.928V63.8805H604.689V61.2012Z" fill="#B2CDE0"/>
    <path d="M601.989 66.1133H527.928V68.7926H601.989V66.1133Z" fill="#B2CDE0"/>
    <path d="M587.444 75.9268H527.928V78.6061H587.444V75.9268Z" fill="#B2CDE0"/>
    <path d="M581.292 80.833H527.928V83.5123H581.292V80.833Z" fill="#B2CDE0"/>
    <path d="M581.292 86.1084H527.928V88.7877H581.292V86.1084Z" fill="#B2CDE0"/>
    <path d="M516.193 46.5576H475.94V104.055H516.193V46.5576Z" fill="#B2CDE0"/>
    <mask id="mask0_5124_5920" style="mask-type:luminance" maskUnits="userSpaceOnUse" x="475" y="46" width="42" height="59">
        <path d="M516.191 46.5576H475.938V104.055H516.191V46.5576Z" fill="white"/>
    </mask>
    <g mask="url(#mask0_5124_5920)">
        <path d="M495.954 108.887C504.125 108.887 511.836 107.565 518.67 105.227L517.02 90.821C516.818 89.0463 513.965 87.6336 510.395 87.397C500.812 85.6711 491.09 85.6711 481.507 87.397C477.944 87.6405 475.09 89.0463 474.889 90.821L473.239 105.227C480.073 107.565 487.777 108.887 495.954 108.887Z" fill="#3DC7C9"/>
        <path d="M495.663 85.9072C492.204 85.9211 488.745 86.2343 485.3 86.8328C485.3 86.979 485.328 87.1321 485.28 87.2713C480.833 98.9142 493.512 99.2274 495.663 102.248V85.9072Z" fill="#E5F3F0"/>
        <path d="M495.495 85.9072C498.954 85.9211 502.413 86.2343 505.851 86.8328C505.865 86.979 505.83 87.1321 505.879 87.2713C510.326 98.9142 497.639 99.2274 495.488 102.248V85.9072H495.495Z" fill="#E5F3F0"/>
        <path d="M482.461 74.4103C484.236 84.3342 484.236 82.2047 492.03 83.6244C497.034 84.5291 501.244 77.354 501.244 69.6222C501.244 61.8905 495.955 53.4488 491.146 55.0982C482.67 58.0072 481.111 66.7968 482.461 74.4103Z" fill="#8FA9AD"/>
        <path d="M501.244 69.4487C501.244 64.9808 499.296 59.9771 496.79 57.0959C495.579 56.3721 494.327 56.2121 493.164 56.8662C483.24 62.4615 483.122 68.4117 484.479 75.9209C485.078 79.2196 485.467 81.1612 486.031 82.3443C487.27 82.7062 489.1 82.734 492.037 83.256C497.041 84.1537 501.251 77.0761 501.251 69.4487H501.244Z" fill="#6A7683"/>
        <path d="M509.135 74.4099C507.36 84.3339 507.36 82.2044 499.566 83.6241C494.562 84.5288 490.358 77.3537 490.358 69.6219C490.358 61.8901 496.037 52.5716 500.456 55.0978C510.38 60.7697 510.499 66.7965 509.142 74.4099H509.135Z" fill="#8FA9AD"/>
        <path d="M507.492 76.1649C505.871 84.2169 505.871 82.491 498.758 83.6392C494.186 84.3769 490.352 78.559 490.352 72.2886C490.352 66.0183 495.536 58.4604 499.566 60.5065C508.62 65.1066 508.731 69.992 507.492 76.1649Z" fill="#6A7683"/>
        <path d="M498.557 58.3139C496.497 57.1308 494.151 58.6132 492.265 61.2925C491.103 63.8466 490.352 66.846 490.352 69.6298C490.352 77.2085 494.458 84.2443 499.343 83.3535C502.976 82.6924 504.869 82.8177 506.052 82.073C506.358 80.9178 506.657 79.3589 507.033 77.2433C508.362 69.7829 508.244 63.8675 498.557 58.307V58.3139Z" fill="#6A7683"/>
        <path d="M501.835 82.3707C501.835 82.1828 501.829 82.0019 501.822 81.8209C497.924 80.2203 493.985 80.2272 490.088 81.8209C490.088 82.0019 490.074 82.1898 490.074 82.3707C490.074 88.5019 492.712 93.4708 495.955 93.4708C499.198 93.4708 501.835 88.5019 501.835 82.3707Z" fill="#E5F3F0"/>
        <path d="M501.835 82.3725C501.835 82.1846 501.828 82.0036 501.821 81.8227C500.59 81.3147 499.358 80.9945 498.119 80.8066C496.783 81.0363 495.447 81.4956 494.117 82.2124C494.117 82.449 494.104 82.6926 494.104 82.9362C494.104 87.077 494.792 90.8002 495.899 93.4726C495.92 93.4726 495.934 93.4726 495.955 93.4726C499.205 93.4726 501.835 88.5036 501.835 82.3725Z" fill="#D6E7E4"/>
        <path d="M495.955 54.2708C489.051 53.8323 482.684 60.722 484.583 70.994C486.462 80.8901 491.021 85.4972 495.955 85.5042C500.896 85.5042 505.454 80.8971 507.333 70.994C509.233 60.722 502.866 53.8323 495.955 54.2708Z" fill="#D6E7E4"/>
        <path d="M486.74 74.1887C487.151 76.5758 486.886 78.1486 486.288 78.3504C485.682 78.5522 484.784 77.3483 484.13 75.0587C483.462 72.7551 483.567 70.4794 484.436 70.2219C485.299 69.9018 486.35 71.7947 486.747 74.1887H486.74Z" fill="#D6E7E4"/>
        <path d="M505.168 74.1887C504.764 76.5758 505.029 78.1486 505.627 78.3504C506.233 78.5522 507.124 77.3483 507.785 75.0587C508.453 72.7551 508.348 70.4794 507.478 70.2219C506.622 69.9018 505.572 71.7947 505.168 74.1887Z" fill="#D6E7E4"/>
        <path d="M505.544 72.4752C503.867 80.541 499.802 84.2921 495.39 84.2921C490.978 84.2921 486.921 80.541 485.244 72.4752C483.552 64.1101 489.238 58.5008 495.39 58.8558C501.549 58.5008 507.235 64.1101 505.544 72.4752Z" fill="#E5F3F0"/>
        <path d="M508.433 63.7978C506.965 57.9868 502.135 54.361 496.846 54.2705C496.443 55.5858 496.213 57.0612 496.213 58.6201C496.213 64.2432 505.622 63.7491 507.55 70.2282C507.55 70.2282 509.025 68.8085 508.433 63.8048V63.7978Z" fill="#6A7683"/>
        <path d="M495.963 58.5079C490.138 58.1738 484.758 63.2472 485.649 70.9789C487.73 71.5775 490.082 71.9254 492.573 71.9254C493.589 71.9254 494.578 71.8697 495.538 71.7584L495.796 71.32L498.05 67.5411L496.853 71.5705C497.097 71.5357 497.334 71.487 497.57 71.4383L498.176 70.3735L501.259 64.9731L503.374 69.1765C503.374 69.1765 505.399 68.07 506.2 67.2C505.281 61.6465 500.778 58.2156 495.963 58.5009V58.5079Z" fill="#8FA9AD"/>
        <path d="M483.469 71.1462C483.469 71.1462 483.476 71.1879 483.483 71.2088C484.645 71.4245 485.849 71.5568 487.095 71.5568C495.773 71.5568 502.816 65.9893 502.816 59.1274C502.816 57.8956 502.579 56.7125 502.161 55.5921C500.275 54.576 498.146 54.061 495.954 54.1933C488.375 53.7548 481.388 60.735 483.469 71.1531V71.1462Z" fill="#8FA9AD"/>
        <path d="M502.713 60.6865C502.309 62.1897 501.822 63.6234 501.272 64.9735L503.506 69.1839C503.506 69.1839 505.657 68.0704 506.513 67.1935C506.033 64.4376 504.627 62.2106 502.72 60.6865H502.713Z" fill="#6A7683"/>
        <path d="M503.756 62.3158C505.6 63.7425 507.131 66.4496 507.862 69.7623C508.258 69.0246 508.85 67.2778 508.432 63.7981C507.632 60.6247 505.823 57.7853 502.496 55.7949C502.747 56.4978 503.937 57.9106 504.02 58.6761C504.159 59.9218 504.055 61.1397 503.756 62.3228V62.3158Z" fill="#8FA9AD"/>
        <path d="M507.743 79.8724C507.924 78.9747 508.126 77.9447 508.342 76.7059C509.462 70.4217 509.56 65.2231 503.985 60.4072C503.839 60.616 503.693 60.8526 503.554 61.1101C509.01 65.8981 509.26 69.7745 508.049 77.1931C507.841 78.4736 507.562 80.1438 507.736 79.8724H507.743Z" fill="#6A7683"/>
    </g>
    <path d="M463.533 52.3154H232.149V379.556H463.533V52.3154Z" fill="#E4EFFF"/>
    <path d="M426.328 78.4766H314.791V83.3898H426.328V78.4766Z" fill="#9BB6CC"/>
    <path d="M384.385 333.229H315.418V336.771H384.385V333.229Z" fill="#B2CDE0"/>
    <path d="M384.385 339.331H315.418V342.873H384.385V339.331Z" fill="#B2CDE0"/>
    <path d="M384.385 345.442H315.418V348.985H384.385V345.442Z" fill="#B2CDE0"/>
    <path d="M382.442 333.229H315.41V336.771H382.442V333.229Z" fill="#9BB6CC"/>
    <path d="M358.572 339.338H315.396V342.88H358.572V339.338Z" fill="#9BB6CC"/>
    <path d="M377.724 345.442H315.41V348.985H377.724V345.442Z" fill="#9BB6CC"/>
    <path d="M325.405 287.867H265.924V290.888H325.405V287.867Z" fill="#B2CDE0"/>
    <path d="M310.443 293.386H265.924V296.406H310.443V293.386Z" fill="#B2CDE0"/>
    <path d="M314.625 298.912H265.924V301.932H314.625V298.912Z" fill="#B2CDE0"/>
    <path d="M293.461 333.716H256.751V336.729H293.461V333.716Z" fill="#B2CDE0"/>
    <path d="M301.277 339.233H256.751V342.254H301.277V339.233Z" fill="#B2CDE0"/>
    <path d="M287.24 344.753H256.751V347.773H287.24V344.753Z" fill="#B2CDE0"/>
    <path d="M305.989 304.437H265.924V307.45H305.989V304.437Z" fill="#B2CDE0"/>
    <path d="M325.99 309.963H265.924V312.983H325.99V309.963Z" fill="#B2CDE0"/>
    <path d="M261.114 287.867H256.416V290.888H261.114V287.867Z" fill="#B2CDE0"/>
    <path d="M261.114 293.386H256.416V296.406H261.114V293.386Z" fill="#B2CDE0"/>
    <path d="M261.114 298.912H256.416V301.932H261.114V298.912Z" fill="#B2CDE0"/>
    <path d="M261.114 304.437H256.416V307.45H261.114V304.437Z" fill="#B2CDE0"/>
    <path d="M261.114 309.963H256.416V312.983H261.114V309.963Z" fill="#B2CDE0"/>
    <path d="M380.481 161.117H284.686V164.138H380.481V161.117Z" fill="#9BB6CC"/>
    <path d="M266.619 161.117H256.542V164.138H266.619V161.117Z" fill="#9BB6CC"/>
    <path d="M434.36 166.643H284.686V169.663H434.36V166.643Z" fill="#B2CDE0"/>
    <path d="M344.654 172.162H284.686V175.182H344.654V172.162Z" fill="#B2CDE0"/>
    <path d="M353.026 177.688H284.686V180.709H353.026V177.688Z" fill="#B2CDE0"/>
    <path d="M341.07 183.213H284.686V186.233H341.07V183.213Z" fill="#B2CDE0"/>
    <path d="M350.632 195.1H284.686V198.113H350.632V195.1Z" fill="#9BB6CC"/>
    <path d="M266.619 195.1H256.542V198.113H266.619V195.1Z" fill="#9BB6CC"/>
    <path d="M369.77 200.618H284.686V203.639H369.77V200.618Z" fill="#B2CDE0"/>
    <path d="M344.654 206.145H284.686V209.165H344.654V206.145Z" fill="#B2CDE0"/>
    <path d="M353.026 211.669H284.686V214.689H353.026V211.669Z" fill="#B2CDE0"/>
    <path d="M415.221 224.224H284.686V227.244H415.221V224.224Z" fill="#9BB6CC"/>
    <path d="M266.619 224.224H256.542V227.244H266.619V224.224Z" fill="#9BB6CC"/>
    <path d="M434.36 229.743H284.686V232.764H434.36V229.743Z" fill="#B2CDE0"/>
    <path d="M425.389 235.269H284.686V238.289H425.389V235.269Z" fill="#B2CDE0"/>
    <path d="M415.221 246.877H284.686V249.897H415.221V246.877Z" fill="#9BB6CC"/>
    <path d="M266.619 246.877H256.542V249.897H266.619V246.877Z" fill="#9BB6CC"/>
    <path d="M278.477 161.117H268.407V164.138H278.477V161.117Z" fill="#9BB6CC"/>
    <path d="M278.477 195.1H268.407V198.113H278.477V195.1Z" fill="#9BB6CC"/>
    <path d="M278.477 224.224H268.407V227.244H278.477V224.224Z" fill="#9BB6CC"/>
    <path d="M278.477 246.877H268.407V249.897H278.477V246.877Z" fill="#9BB6CC"/>
    <path d="M434.36 252.403H284.686V255.424H434.36V252.403Z" fill="#B2CDE0"/>
    <path d="M425.389 257.921H284.686V260.941H425.389V257.921Z" fill="#B2CDE0"/>
    <path d="M306.794 149.266H256.416V154.179H306.794V149.266Z" fill="#9BB6CC"/>
    <path d="M294.191 278.715H256.416V283.628H294.191V278.715Z" fill="#9BB6CC"/>
    <path d="M294.191 324.021H256.416V328.928H294.191V324.021Z" fill="#9BB6CC"/>
    <path d="M431.388 287.867H359.77V290.888H431.388V287.867Z" fill="#B2CDE0"/>
    <path d="M404.295 293.386H359.77V296.406H404.295V293.386Z" fill="#B2CDE0"/>
    <path d="M408.471 298.912H359.77V301.932H408.471V298.912Z" fill="#B2CDE0"/>
    <path d="M399.834 304.437H359.77V307.45H399.834V304.437Z" fill="#B2CDE0"/>
    <path d="M354.967 287.867H350.263V290.888H354.967V287.867Z" fill="#B2CDE0"/>
    <path d="M354.967 293.386H350.263V296.406H354.967V293.386Z" fill="#B2CDE0"/>
    <path d="M354.967 298.912H350.263V301.932H354.967V298.912Z" fill="#B2CDE0"/>
    <path d="M354.967 304.437H350.263V307.45H354.967V304.437Z" fill="#B2CDE0"/>
    <path d="M388.045 278.715H350.263V283.628H388.045V278.715Z" fill="#9BB6CC"/>
    <path d="M362.894 92.0801H314.791V95.0935H362.894V92.0801Z" fill="#B2CDE0"/>
    <path d="M361.196 97.5996H314.791V100.62H361.196V97.5996Z" fill="#B2CDE0"/>
    <path d="M417.907 92.0801H369.805V95.0935H417.907V92.0801Z" fill="#B2CDE0"/>
    <path d="M416.209 97.5996H369.805V100.62H416.209V97.5996Z" fill="#B2CDE0"/>
    <path d="M423.294 118.896H314.791V121.916H423.294V118.896Z" fill="#B2CDE0"/>
    <path d="M392.262 124.422H314.791V127.442H392.262V124.422Z" fill="#B2CDE0"/>
    <path d="M373.674 130.356H314.791V133.377H373.674V130.356Z" fill="#B2CDE0"/>
    <mask id="mask1_5124_5920" style="mask-type:luminance" maskUnits="userSpaceOnUse" x="256" y="78" width="49" height="61">
        <path d="M304.366 78.4766H256.006V138.508H304.366V78.4766Z" fill="white"/>
    </mask>
    <g mask="url(#mask1_5124_5920)">
        <path d="M304.366 78.4766H256.006V138.508H304.366V78.4766Z" fill="#9CC9CC"/>
        <path d="M279.85 144.157C290.922 144.157 301.375 142.556 310.631 139.731L308.39 122.319C308.125 120.182 304.228 118.707 299.426 118.185C286.329 116.744 273.37 116.744 260.273 118.185C255.464 118.707 253.237 120.182 252.966 122.319L249.062 139.731C259.848 143.023 270.434 144.157 279.843 144.157H279.85Z" fill="#5177A0"/>
        <path d="M310.631 139.731L308.39 122.319C308.126 120.183 304.228 118.707 299.426 118.185C292.634 117.434 285.884 117.086 279.126 117.121L273.002 125.924L297.248 142.78C301.918 142.035 306.407 141.019 310.638 139.724L310.631 139.731Z" fill="#325B84"/>
        <path d="M288.333 121.247C288.04 125.2 284.004 127.984 279.299 127.991C274.595 127.977 270.552 125.179 270.273 121.226C270.148 119.215 270.03 117.197 269.904 115.179C269.619 111.24 273.829 107.565 279.313 107.572C284.804 107.572 289.001 111.254 288.708 115.2C288.583 117.211 288.458 119.229 288.333 121.247Z" fill="#D6E7E4"/>
        <path d="M282.397 107.996C280.101 109.089 278.486 112.965 278.521 117.551C278.535 120.356 278.542 123.16 278.556 125.972C278.556 126.661 278.598 127.322 278.66 127.969C278.869 127.983 279.085 127.997 279.3 127.997C284.005 127.997 288.041 125.206 288.334 121.254C288.396 120.168 288.473 119.082 288.536 117.99C288.682 115.686 288.41 113.522 287.805 111.775C286.747 110.056 284.812 108.65 282.397 107.996Z" fill="#C4D5D5"/>
        <path d="M279.376 86.8685H279.313C269.229 86.771 266.793 93.3476 267.378 104.865C267.608 109.326 268.679 112.715 269.668 115.256C270.002 116.105 274.991 122.034 276.522 122.034C277.218 122.034 278.381 122.298 279.383 122.222C280.385 122.291 281.484 122.034 282.173 122.034C283.698 122.034 288.687 116.098 289.021 115.256C290.01 112.715 291.109 109.326 291.311 104.865C291.819 93.6329 288.534 86.6249 279.383 86.8685H279.376Z" fill="#004F86"/>
        <path d="M270.302 107.996C270.35 109.2 269.717 110.265 268.882 110.376C268.054 110.487 267.33 109.624 267.267 108.413C267.17 106.472 267.066 104.53 266.961 102.588C266.899 101.384 267.546 100.292 268.416 100.174C269.286 100.055 270.023 100.953 270.072 102.157C270.149 104.099 270.225 106.047 270.302 107.989V107.996Z" fill="#D6E7E4"/>
        <path d="M291.124 108.413C291.061 109.617 290.337 110.487 289.509 110.376C288.688 110.258 288.048 109.2 288.096 107.996C288.166 106.047 288.249 104.106 288.319 102.164C288.368 100.953 289.105 100.055 289.975 100.181C290.845 100.306 291.493 101.392 291.43 102.596C291.325 104.537 291.228 106.479 291.124 108.42V108.413Z" fill="#D6E7E4"/>
        <path d="M288.855 102.651C288.611 97.4104 289.328 92.5946 289.328 92.5946C289.363 92.5737 284.408 90.0127 280.545 90.1797C280.142 90.1936 279.682 90.305 279.209 90.4929C278.729 90.305 278.276 90.2006 277.866 90.1797C274.01 90.0127 269.055 92.5737 269.076 92.5876C269.083 92.5876 269.8 97.4104 269.556 102.644C269.306 107.884 268.596 112.456 270.329 113.911C272.083 115.379 275.047 118.734 278.979 118.901C279.056 118.901 279.125 118.901 279.209 118.901C279.279 118.901 279.355 118.901 279.432 118.901C283.364 118.734 286.328 115.379 288.082 113.918C289.815 112.463 289.105 107.891 288.855 102.644V102.651Z" fill="#E5F3F0"/>
        <path d="M290.329 92.6023C290.329 92.6023 284.915 90.0204 280.677 90.1875C280.343 90.1944 279.974 90.2779 279.598 90.3893C279.57 99.8957 279.549 109.402 279.521 118.909C283.808 118.707 287.038 115.387 288.951 113.933C290.858 112.478 290.079 107.906 289.8 102.659C289.536 97.4182 290.322 92.6023 290.329 92.6023Z" fill="#D6E7E4"/>
        <path d="M267.984 102.372C267.984 102.372 266.975 91.3064 266.216 90.179C265.45 89.0028 275.841 86.755 278.917 86.7411C281.958 86.581 284.742 87.5066 286.537 87.8963C288.228 88.2373 279.78 94.9322 279.891 95.0018C280.086 94.4033 280.288 93.8048 280.483 93.2063C279.835 93.7004 279.188 94.2015 278.548 94.6956C275.917 94.0066 273.252 93.4011 270.552 92.8653C270.572 94.3198 270.586 95.7673 270.607 97.2079C270.085 97.9456 269.563 98.6763 269.062 99.4209C268.944 100.381 268.826 101.342 268.714 102.302C268.471 102.323 268.227 102.344 267.984 102.365V102.372Z" fill="#004F86"/>
        <path d="M290.449 102.372C290.449 102.372 291.764 91.3065 292.217 90.1861C292.746 88.8777 282.592 86.769 279.523 86.7412C276.475 86.5811 273.921 87.4998 272.132 87.8825C271.019 88.0356 281.144 87.5763 283.998 89.3649C284.993 89.9494 281.061 94.6957 281.096 94.7166C283.33 94.0485 285.591 93.4361 287.881 92.8793C287.853 94.3338 287.839 95.7744 287.818 97.2219C288.347 97.9526 288.862 98.6903 289.37 99.428C289.489 100.388 289.607 101.342 289.711 102.309C289.955 102.33 290.198 102.351 290.442 102.372H290.449Z" fill="#004F86"/>
        <path d="M276.327 101.49C273.808 100.87 271.163 100.961 268.699 101.768C268.658 101.977 268.623 102.193 268.616 102.394C268.602 102.701 268.595 103.007 268.581 103.313C268.498 105.241 270.182 106.883 272.339 106.918C272.875 106.918 273.418 106.904 273.954 106.897C276.118 106.807 277.802 105.185 277.712 103.355C277.698 103.063 277.684 102.77 277.677 102.478C277.663 101.928 276.334 101.476 276.334 101.497L276.327 101.49Z" stroke="#004F86" stroke-width="1.32"/>
        <path d="M289.381 101.489C286.862 100.87 284.224 100.96 281.754 101.761C281.712 101.97 281.677 102.185 281.67 102.387C281.656 102.693 281.649 102.999 281.635 103.306C281.545 105.233 283.229 106.876 285.393 106.911C285.936 106.911 286.472 106.897 287.015 106.89C289.172 106.799 290.856 105.178 290.766 103.347C290.759 103.055 290.745 102.763 290.731 102.471C290.717 101.921 289.388 101.468 289.388 101.489H289.381Z" stroke="#004F86" stroke-width="1.32"/>
        <path d="M281.742 102.199H277.386V104.106H281.742V102.199Z" fill="#004F86"/>
        <path d="M284.68 112.367C284.172 111.608 282.516 110.947 280.4 110.947C280.379 110.947 279.656 111.427 279.621 111.414C279.537 111.379 278.897 110.947 278.876 110.947C276.768 110.947 275.056 111.608 274.548 112.367C271.416 118.373 270.233 113.035 268.834 111.316C271.179 116.758 273.364 120.76 279.398 121.623C279.468 121.63 279.537 121.616 279.607 121.609C279.677 121.609 281.5 121.393 281.57 121.393C285.314 121.393 288.042 116.758 290.387 111.316C288.995 113.035 287.805 118.373 284.673 112.367H284.68Z" fill="#004F86"/>
        <path d="M277.094 113.522C277.066 113.627 277.045 113.731 277.045 113.843C277.045 114.643 277.783 115.29 278.701 115.29H280.532C281.443 115.29 282.181 114.643 282.181 113.843C282.181 113.731 282.167 113.627 282.139 113.522H277.094Z" fill="#E5F3F0"/>
    </g>
    <path d="M588.953 147.036H389.59V428.993H588.953V147.036Z" fill="#EDF4FC"/>
    <path d="M518.907 169.577H457.623V173.808H518.907V169.577Z" fill="#9BB6CC"/>
    <path d="M502.552 175.904H457.623V180.136H502.552V175.904Z" fill="#9BB6CC"/>
    <path d="M508.97 338.918H457.722V341.514H508.97V338.918Z" fill="#B2CDE0"/>
    <path d="M496.081 343.672H457.722V346.275H496.081V343.672Z" fill="#B2CDE0"/>
    <path d="M499.679 348.432H457.722V351.034H499.679V348.432Z" fill="#B2CDE0"/>
    <path d="M492.24 353.193H457.722V355.796H492.24V353.193Z" fill="#B2CDE0"/>
    <path d="M509.478 357.952H457.722V360.555H509.478V357.952Z" fill="#B2CDE0"/>
    <path d="M453.574 338.918H449.53V341.514H453.574V338.918Z" fill="#B2CDE0"/>
    <path d="M453.574 343.672H449.53V346.275H453.574V343.672Z" fill="#B2CDE0"/>
    <path d="M453.574 348.432H449.53V351.034H453.574V348.432Z" fill="#B2CDE0"/>
    <path d="M453.574 353.193H449.53V355.796H453.574V353.193Z" fill="#B2CDE0"/>
    <path d="M453.574 357.952H449.53V360.555H453.574V357.952Z" fill="#B2CDE0"/>
    <path d="M540.072 232.344H457.534V234.94H540.072V232.344Z" fill="#9BB6CC"/>
    <path d="M441.966 232.344H433.288V234.94H441.966V232.344Z" fill="#9BB6CC"/>
    <path d="M568.257 237.097H457.534V239.699H568.257V237.097Z" fill="#B2CDE0"/>
    <path d="M509.207 241.856H457.534V244.459H509.207V241.856Z" fill="#B2CDE0"/>
    <path d="M516.417 246.616H457.534V249.219H516.417V246.616Z" fill="#B2CDE0"/>
    <path d="M506.117 251.377H457.534V253.98H506.117V251.377Z" fill="#B2CDE0"/>
    <path d="M514.357 261.621H457.534V264.217H514.357V261.621Z" fill="#9BB6CC"/>
    <path d="M441.966 261.621H433.288V264.217H441.966V261.621Z" fill="#9BB6CC"/>
    <path d="M530.844 266.382H457.534V268.985H530.844V266.382Z" fill="#B2CDE0"/>
    <path d="M509.207 271.142H457.534V273.744H509.207V271.142Z" fill="#B2CDE0"/>
    <path d="M516.417 275.896H457.534V278.491H516.417V275.896Z" fill="#B2CDE0"/>
    <path d="M520.252 286.717H457.534V289.32H520.252V286.717Z" fill="#9BB6CC"/>
    <path d="M441.966 286.717H433.288V289.32H441.966V286.717Z" fill="#9BB6CC"/>
    <path d="M563.511 291.47H457.534V294.073H563.511V291.47Z" fill="#B2CDE0"/>
    <path d="M573.532 296.237H457.534V298.833H573.532V296.237Z" fill="#B2CDE0"/>
    <path d="M570.004 306.23H457.534V308.826H570.004V306.23Z" fill="#9BB6CC"/>
    <path d="M441.966 306.23H433.288V308.826H441.966V306.23Z" fill="#9BB6CC"/>
    <path d="M452.181 232.344H443.503V234.94H452.181V232.344Z" fill="#9BB6CC"/>
    <path d="M452.181 261.621H443.503V264.217H452.181V261.621Z" fill="#9BB6CC"/>
    <path d="M452.181 286.717H443.503V289.32H452.181V286.717Z" fill="#9BB6CC"/>
    <path d="M452.181 306.23H443.503V308.826H452.181V306.23Z" fill="#9BB6CC"/>
    <path d="M576.699 310.991H457.534V313.594H576.699V310.991Z" fill="#B2CDE0"/>
    <path d="M543.468 315.75H457.534V318.353H543.468V315.75Z" fill="#B2CDE0"/>
    <path d="M501.035 222.135H457.623V226.366H501.035V222.135Z" fill="#9BB6CC"/>
    <path d="M490.27 331.025H457.722V335.257H490.27V331.025Z" fill="#9BB6CC"/>
    <path d="M568.006 376.902H457.722V379.498H568.006V376.902Z" fill="#B2CDE0"/>
    <path d="M564.039 381.655H457.722V384.258H564.039V381.655Z" fill="#B2CDE0"/>
    <path d="M566.67 386.416H457.722V389.019H566.67V386.416Z" fill="#B2CDE0"/>
    <path d="M532.005 391.176H457.722V393.779H532.005V391.176Z" fill="#B2CDE0"/>
    <path d="M490.27 369.017H457.722V373.248H490.27V369.017Z" fill="#9BB6CC"/>
    <path d="M519.331 190.142H457.623V192.744H519.331V190.142Z" fill="#B2CDE0"/>
    <path d="M495.983 194.903H457.623V197.506H495.983V194.903Z" fill="#B2CDE0"/>
    <path d="M499.581 199.662H457.623V202.265H499.581V199.662Z" fill="#B2CDE0"/>
    <path d="M492.141 204.416H457.623V207.019H492.141V204.416Z" fill="#B2CDE0"/>
    <mask id="mask2_5124_5920" style="mask-type:luminance" maskUnits="userSpaceOnUse" x="410" y="169" width="41" height="41">
        <path d="M450.068 169.576H410.497V209.147H450.068V169.576Z" fill="white"/>
    </mask>
    <g mask="url(#mask2_5124_5920)">
        <path d="M450.067 169.577H410.496V209.148H450.067V169.577Z" fill="#B2CDE0"/>
        <mask id="mask3_5124_5920" style="mask-type:luminance" maskUnits="userSpaceOnUse" x="399" y="160" width="61" height="61">
            <path d="M459.657 190.294C459.657 206.878 446.211 220.324 429.627 220.324C413.043 220.324 399.598 206.878 399.598 190.294C399.598 173.71 413.043 160.258 429.627 160.258C446.211 160.258 459.657 173.71 459.657 190.294Z" fill="white"/>
        </mask>
        <g mask="url(#mask3_5124_5920)">
            <path d="M437.275 200.373C437.275 203.4 433.809 205.849 429.536 205.849C425.263 205.849 421.805 203.4 421.805 200.373V195.745C421.805 192.724 425.263 190.268 429.536 190.268C433.809 190.268 437.275 192.717 437.275 195.745V200.373Z" fill="#D6E7E4"/>
            <path d="M437.276 204.305C437.276 208.501 435.397 211.904 433.079 211.904C430.762 211.904 428.883 208.501 428.883 204.305V197.874C428.883 193.678 430.762 190.268 433.079 190.268C435.397 190.268 437.276 193.671 437.276 197.874V204.305Z" fill="#C4D5D5"/>
            <path d="M421.506 199.146L409.236 202.757L405.158 215.402L430.866 223.197L430.608 209.529L429.418 205.583L425.403 202.117L421.506 199.146Z" fill="#BDE9FF"/>
            <path d="M430.733 209.528L428.889 205.694L425.249 202.569L419.396 207.273L420.44 199.562L421.637 196.925L429.418 205.241L430.733 209.528Z" fill="#94DAFA"/>
            <path d="M437.693 199.146L449.956 202.757L454.041 215.402L428.333 223.197L428.591 209.529L429.781 205.583L435.32 202.423L437.693 199.146Z" fill="#BDE9FF"/>
            <path d="M422.508 189.417C422.508 190.071 421.972 190.6 421.325 190.6C420.671 190.6 420.135 190.064 420.135 189.417V186.257C420.135 185.603 420.671 185.074 421.325 185.074C421.979 185.074 422.508 185.603 422.508 186.257V189.417Z" fill="#D6E7E4"/>
            <path d="M438.766 189.417C438.766 190.071 438.237 190.6 437.576 190.6C436.921 190.6 436.393 190.064 436.393 189.417V186.257C436.393 185.603 436.921 185.074 437.576 185.074C438.23 185.074 438.766 185.603 438.766 186.257V189.417Z" fill="#D6E7E4"/>
            <path d="M437.471 185.416C436.984 180.704 437.304 178.108 437.304 178.108C437.304 178.108 433.407 176.153 430.477 176.32C430.171 176.334 429.823 176.438 429.454 176.612C429.092 176.445 428.744 176.341 428.438 176.32C425.508 176.153 421.611 178.108 421.611 178.108C421.611 178.108 421.938 180.704 421.444 185.416C420.957 190.127 419.982 194.184 421.444 195.646C422.912 197.107 425.508 200.357 429.245 200.524C429.315 200.524 429.384 200.524 429.454 200.524C429.524 200.524 429.593 200.524 429.67 200.524C433.407 200.364 436.003 197.114 437.471 195.646C438.932 194.184 437.958 190.12 437.471 185.416Z" fill="#E5F3F0"/>
            <path d="M437.303 178.108C437.303 178.108 433.406 176.153 430.476 176.32C430.247 176.334 429.989 176.403 429.725 176.508V200.524C433.427 200.329 436.009 197.107 437.463 195.653C438.925 194.191 437.951 190.127 437.463 185.422C436.976 180.711 437.296 178.115 437.296 178.115L437.303 178.108Z" fill="#D6E7E4"/>
            <path d="M437.436 185.993L437.93 180.322L436.775 174.149L430.505 173.146L430.839 176.647L434.966 179.987L437.436 185.993Z" fill="#004F86"/>
            <path d="M421.408 185.005L418.973 176.23L430.831 170.384V176.557L428.068 182.73V178.672L425.535 184.803L426.934 178.992L423.928 185.298L422.223 181.268L421.408 185.005Z" fill="#2277B0"/>
            <path d="M430.498 197.213L429.204 197.289L428.988 198.938C428.988 198.938 425.828 198.083 424.819 194.916L424.103 195.487C424.103 197.004 424.165 199.871 425.752 200.372C429.705 201.632 430.637 200.943 430.637 200.943L430.992 200.087L430.491 197.213H430.498Z" fill="#2277B0"/>
            <path d="M429.128 197.213L430.422 197.289L430.638 198.938C430.638 198.938 433.798 198.083 434.807 194.916L435.531 195.487C435.531 197.004 435.454 199.871 433.874 200.372C429.921 201.632 429.42 200.943 429.42 200.943L428.627 200.087L429.128 197.213Z" fill="#2277B0"/>
            <path d="M429.169 193.196L424.513 194.17L424.346 193.356L429.001 192.382L429.169 193.196Z" fill="#2277B0"/>
            <path d="M435.021 193.356L430.372 192.382L430.191 193.196L434.847 194.17L435.021 193.356Z" fill="#2277B0"/>
            <path d="M430.824 221.952V204.985L429.78 205.584L428.59 209.537L428.325 223.205L430.761 222.46C430.796 222.3 430.817 222.133 430.817 221.959L430.824 221.952Z" fill="#EBFCFF"/>
            <path d="M428.486 209.794L430.303 205.695L433.908 203.475L437.373 206.258L438.202 199.334L437.749 197.079L429.781 205.242L428.486 209.794Z" fill="#94DAFA"/>
        </g>
    </g>
    <path d="M121.586 237.502C155.791 238.386 228.815 237.481 253.702 230.508C278.853 223.381 281.233 134.413 269.367 120.891C257.251 107.53 214.256 103.549 192.648 102.442C138.776 99.6725 88.8078 103.298 86.379 144.038C83.8667 186.323 84.5696 236.548 121.586 237.509V237.502Z" fill="#3BB6D5"/>
    <path d="M218.321 226.569C218.321 226.569 216.978 245.38 191.444 256.132C191.444 256.132 204.674 229.986 192.788 217.16C185.654 209.463 218.321 226.569 218.321 226.569Z" fill="#3BB6D5"/>
    <path d="M232.309 142.097H129.75V149.989H232.309V142.097Z" fill="white"/>
    <path d="M232.309 161.818H129.75V169.703H232.309V161.818Z" fill="white"/>
    <path d="M232.309 181.534H129.75V189.426H232.309V181.534Z" fill="white"/>
    <path d="M149.891 593.602C196.977 596.894 342.838 607.882 431.005 620.945C594.493 645.163 730.047 628.03 643.459 594.841C619.262 585.564 692.919 542.319 519.583 521.81C367.425 503.813 210.68 515.087 134.872 519.443C59.0715 523.8 23.4607 537.12 6.94625 543.098C-7.58481 548.359 -14.7042 582.077 149.884 593.595L149.891 593.602Z" fill="#EDF4FC"/>
    <path d="M365.928 186.427L364.404 166.941C361.112 162.981 356.707 160.691 352.051 161.053C343.067 161.756 336.539 172.042 337.472 184.033C338.411 196.017 346.442 205.168 355.433 204.472C361.718 203.978 366.798 198.793 368.962 191.618C367.257 190.407 366.088 188.57 365.921 186.427H365.928Z" fill="#163F59"/>
    <path d="M329.845 195.231C329.302 198.293 332.357 201.397 336.679 202.155L346.519 203.902C350.841 204.667 354.78 202.802 355.323 199.74L360.271 171.819C360.821 168.757 357.758 165.653 353.444 164.888L343.596 163.148C339.282 162.376 335.343 164.241 334.8 167.303L329.845 195.231Z" fill="#163F59"/>
    <path d="M354.911 209.017C360.618 211.947 363.617 211.349 359.003 212.942C356.665 215.448 329.308 209.943 328.027 206.415C327.812 205.823 339.128 204.918 339.225 204.494C340.241 199.567 340.784 195.384 339.768 189.74C339.851 189.309 340.206 188.988 340.554 189.016C342.642 189.211 344.744 189.371 346.852 189.573C347.193 189.615 351.251 190.791 350.207 192.705C349.4 198.091 348.878 205.914 354.925 209.01L354.911 209.017Z" fill="#E9D6B8"/>
    <path d="M357.849 192.85C357.96 192.663 358.064 192.468 358.169 192.273C358.197 192.217 358.231 192.161 358.259 192.092C358.384 191.855 358.51 191.605 358.628 191.347C358.656 191.278 358.691 191.215 358.718 191.145C358.802 190.951 358.885 190.756 358.969 190.561C359.018 190.45 359.059 190.338 359.108 190.234C359.171 190.067 359.24 189.9 359.303 189.726C359.352 189.607 359.393 189.489 359.435 189.371C359.519 189.148 359.588 188.925 359.672 188.689C359.728 188.522 359.776 188.348 359.832 188.167C359.881 188.014 359.936 187.854 359.978 187.694C360.02 187.534 360.069 187.367 360.117 187.2C360.152 187.06 360.194 186.921 360.222 186.775C360.256 186.664 360.284 186.545 360.312 186.434V186.42C360.785 184.451 360.73 174.979 359.435 170.372C359.282 169.815 358.725 169.349 357.911 169.384C353.026 169.606 338.286 167.95 341.216 181.674V181.688C341.216 181.723 341.362 182.892 341.438 183.435C341.438 183.483 341.452 183.525 341.459 183.574C341.543 184.117 341.633 184.652 341.745 185.174C341.745 185.209 341.759 185.244 341.766 185.279C341.877 185.815 341.995 186.33 342.127 186.838C342.134 186.859 342.141 186.879 342.141 186.893C343.846 193.386 347.27 197.826 351.216 197.812C353.52 197.799 355.635 196.281 357.32 193.727C357.32 193.727 357.347 193.679 357.354 193.665C357.48 193.47 357.605 193.268 357.73 193.066C357.772 193.011 357.807 192.948 357.835 192.885L357.849 192.85Z" fill="#E9D6B8"/>
    <path d="M411.219 210.361C411.219 210.361 412.221 210.917 412.701 210.166C413.487 208.92 413.94 205.99 414.044 204.946C414.176 203.777 413.849 198.168 413.849 198.168C413.849 198.168 412.604 199.845 412.729 202.1C412.903 205.392 411.226 210.361 411.226 210.361H411.219Z" fill="#E2C59C"/>
    <path d="M411.373 209.608C412.424 207.77 412.097 205.342 411.018 202.572C409.988 199.948 410.955 198.41 410.955 198.41C410.955 198.41 411.797 200.032 412.959 204.277C413.28 205.46 413.572 206.782 413.44 208C413.064 211.675 408.645 214.34 411.373 209.615V209.608Z" fill="#E2C59C"/>
    <path d="M355.156 524.51C355.156 524.51 352.957 523.557 346.867 522.408C343.304 521.733 340.597 521.754 339.317 520.418C337.208 518.212 338.558 511.253 337.521 511.489C332.483 512.645 330.597 524.615 333.526 526.083C336.463 527.551 353.054 527.029 354.418 526.925C355.789 526.814 355.581 524.19 355.156 524.51Z" fill="#E9D6B8"/>
    <path d="M318.591 391.198C319.293 388.233 320.003 385.31 320.734 382.436C323.149 378.205 325.251 375.95 326.851 376.228C332.885 377.272 338.237 400.822 319.008 457.777C318.041 460.645 305.361 510.139 305.166 508.956C302.779 494.258 308.235 435.194 318.598 391.205L318.591 391.198Z" fill="#E9D6B8"/>
    <path d="M324.835 304.771C329.644 303.992 329.686 306.761 332.991 313.707C339.484 327.333 342.908 347.432 340.125 368.783C336.861 393.795 329.999 415.57 321.933 429.232C317.298 417.47 315.134 403.343 313.401 387.698C308.001 339.025 310.06 307.172 324.828 304.771H324.835Z" fill="#E9D6B8"/>
    <path d="M329.677 360.549C323.281 358.935 316.962 358.288 310.998 358.399C311.381 366.604 312.112 375.609 313.148 385.304C320.31 377.641 334.159 381.838 337.29 385.659C338.418 380.251 339.371 374.614 340.13 368.796C340.352 367.119 340.519 365.456 340.666 363.799C337.137 362.602 333.477 361.51 329.684 360.556L329.677 360.549Z" fill="#E2C59C"/>
    <path d="M296.996 239.985C304.123 246.492 310.567 276.132 310.567 276.132C310.567 276.132 309.725 287.879 293.9 250.772C289.146 239.623 295.236 238.384 296.996 239.985Z" fill="#E9D6B8"/>
    <path d="M370.326 230.375C375.448 234.683 379.31 248.942 382.435 258.01C384.196 263.126 383.194 266.835 383.194 266.835C383.194 266.835 380.626 278.394 368.746 245.685C365.768 237.501 368.405 228.76 370.326 230.375Z" fill="#E9D6B8"/>
    <path d="M378.81 266.035C379.631 254.28 402.652 224.641 402.652 224.641C402.652 224.641 414.302 216.011 391.218 260.245C384.287 273.523 378.608 268.93 378.803 266.035H378.81Z" fill="#E9D6B8"/>
    <path d="M411.476 207.284L412.339 207.91L412.715 211.55C412.715 211.55 410.683 217.82 409.068 219.915C407.454 222.003 404.6 231.704 403.925 232.762C403.257 233.82 397.446 233.388 397.446 233.388C397.446 233.388 402.714 224.341 404.496 220.583C406.278 216.825 406.974 210.583 407.614 209.079C408.72 206.518 409.131 205.154 409.131 205.154C409.131 205.154 410.418 205.934 408.922 210.054C408.532 211.139 409.952 211 409.952 211L411.469 207.291L411.476 207.284Z" fill="#E9D6B8"/>
    <path d="M354.244 323.978C348.245 336.219 344 354.703 344.299 374.774C344.654 398.282 347.974 419.014 352.887 432.271C357.341 421.631 359.47 408.492 362.748 394.176C372.853 350.068 357.306 317.721 354.244 323.978Z" fill="#E9D6B8"/>
    <path d="M364.197 371.392C365.658 363.528 364.733 349.679 360.028 345.691C358.866 344.264 358.198 345.058 356.11 345.775C352.081 347.166 348.016 351.245 345.177 357.807C344.94 362.282 344.822 366.896 344.864 371.601C344.905 376.806 345.059 377.599 345.274 382.478C346.889 380.766 353.667 372.985 364.19 371.392H364.197Z" fill="#E2C59C"/>
    <path d="M352.887 395.379C350.534 394.175 346.254 397.147 343.29 403.049C337.465 414.622 335.641 430.482 334.604 450.101C333.512 470.846 333.47 486.31 333.762 499.094C334.048 511.718 328.724 529.36 338.251 527.683C337.131 510.32 340.019 484.591 345.12 471.111C362.532 425.061 360.096 399.075 352.887 395.379Z" fill="#E9D6B8"/>
    <path d="M358.977 249.861L322.149 247.196L320.325 204.765L363.793 211.703L358.977 249.861Z" fill="#3BB6D5"/>
    <path d="M305.801 373.724C326.825 371.991 347.849 370.265 368.88 368.539C371.253 368.734 357.926 329.296 359.088 249.41C346.721 248.394 334.348 247.371 321.981 246.354C323.832 262.152 290.789 288.264 305.808 373.724H305.801Z" fill="#3BB6D5"/>
    <path d="M301.625 246.164L321.779 220.944L326.964 209.099C326.574 208.02 325.864 207.046 324.862 206.322L324.18 205.828C321.535 203.935 317.861 204.548 315.968 207.192L292.877 239.449L301.632 246.157L301.625 246.164Z" fill="#3BB6D5"/>
    <path d="M373.028 261.086L362.06 233.298L358.17 214.125C358.887 213.234 359.868 212.531 361.051 212.176L361.858 211.926C364.962 210.979 368.247 212.733 369.2 215.844L382.089 253.981L373.028 261.086Z" fill="#3BB6D5"/>
    <path d="M310.679 284.025C310.47 284.693 309.767 285.062 309.099 284.86L307.498 284.359C306.837 284.15 306.461 283.447 306.67 282.786L308.925 275.569C309.134 274.901 309.844 274.532 310.512 274.741L312.112 275.249C312.78 275.458 313.149 276.161 312.94 276.829L310.679 284.032V284.025Z" fill="#E9D6B8"/>
    <path d="M304.491 513.919C300.719 521.838 295.973 527.461 293.878 526.459C291.783 525.464 293.14 518.233 296.912 510.307C300.684 502.387 305.438 496.771 307.532 497.773C309.627 498.768 308.263 505.999 304.491 513.919Z" fill="#3BB6D5"/>
    <path d="M305.619 509.242C303.719 515.429 299.55 519.932 297.456 518.943C295.361 517.948 296.043 512.652 299.084 506.946C302.926 499.715 304.401 497.641 304.666 492.491C304.909 487.668 312.766 485.977 305.612 509.242H305.619Z" fill="#E9D6B8"/>
    <path d="M334.16 517.677C334.16 517.795 334.265 517.892 334.376 517.892H334.8C334.912 517.892 335.009 517.795 335.009 517.677C335.009 517.558 334.912 517.468 334.8 517.468H334.376C334.265 517.468 334.16 517.565 334.16 517.677Z" fill="#E9D6B8"/>
    <path d="M351.703 523.431C352.642 527.397 340.464 525.797 337.318 524.767C334.305 523.779 332.384 523.465 332.384 523.465C332.252 523.465 332.133 523.452 332.008 523.452C332.001 523.542 331.966 523.639 331.966 523.737C331.966 525.915 331.006 528.81 334.485 528.81H356.324C374.168 528.81 351.689 523.347 351.71 523.438L351.703 523.431Z" fill="#3BB6D5"/>
    <path d="M411.455 211.862C411.455 211.862 412.673 208.724 412.269 207.081C411.984 205.94 409.743 200.79 409.743 200.79C409.743 200.79 409.158 202.794 410.049 204.868C411.351 207.902 411.462 211.869 411.462 211.869L411.455 211.862Z" fill="#E9D6B8"/>
    <path d="M409.959 210.993C409.959 210.993 409.006 211.146 408.714 210.833C408.679 211.146 408.742 211.473 408.755 211.717C408.776 212.274 408.227 216.032 408.227 216.032C408.227 216.032 409.152 213.401 409.577 212.691C409.848 212.246 410.182 211.139 410.467 210.207C410.502 210.089 410.467 209.887 410.495 209.664L409.952 210.993H409.959Z" fill="#E2C59C"/>
    <path d="M408.929 210.047C409.932 207.277 409.681 206.017 409.403 205.488C409.173 206.142 408.783 207.193 408.157 208.641C407.934 209.163 407.698 210.255 407.419 211.626C407.364 211.884 408.345 212.197 408.588 214.494C408.63 214.911 409.549 212.489 409.772 211C409.396 210.993 408.63 210.889 408.929 210.054V210.047Z" fill="#E2C59C"/>
    <path d="M348.982 188.424C347.277 187.213 346.115 185.376 345.941 183.233L344.424 163.753C344.271 163.566 344.097 163.399 343.936 163.218L343.595 163.155C339.281 162.382 335.342 164.248 334.799 167.31L329.844 195.237C329.426 197.597 331.166 199.977 333.957 201.292C334.458 201.313 334.952 201.32 335.453 201.278C341.737 200.784 346.818 195.599 348.982 188.431V188.424Z" fill="#163F59"/>
    <path d="M95.7391 463.686C93.0319 463.686 88.7589 463.067 85.0148 459.803C79.6283 455.12 77.2899 446.782 78.0763 435.028C78.6052 427.094 81.73 419.063 85.0356 410.559C90.5961 396.258 96.9082 380.042 93.6095 358.601L99.7337 357.654C103.283 380.738 96.3724 398.519 90.8188 412.807C87.548 421.2 84.7294 428.458 84.2632 435.439C83.6299 444.966 85.2723 451.758 89.0303 455.078C92.5865 458.223 97.0335 457.409 97.2284 457.381L98.4671 463.457C98.3558 463.478 97.3119 463.686 95.753 463.686H95.7391Z" fill="#367082"/>
    <path d="M143.256 512.854L149.297 522.054L98.5985 538.29C98.5985 538.29 95.2163 535.054 107.653 528.547C122.135 520.968 143.249 512.847 143.249 512.847L143.256 512.854Z" fill="#88BDDA"/>
    <path d="M152.261 512.854L146.228 522.054L196.919 538.29C196.919 538.29 200.308 535.054 187.872 528.547C173.39 520.968 152.268 512.847 152.268 512.847L152.261 512.854Z" fill="#88BDDA"/>
    <path d="M153.055 485.476H142.463V523.188H153.055V485.476Z" fill="#88BDDA"/>
    <path d="M142.581 514.794L147.745 523.577L104.354 539.068C104.354 539.068 101.459 535.978 112.099 529.77C124.501 522.54 142.581 514.794 142.581 514.794Z" fill="#91E2F6"/>
    <path d="M152.936 514.794L147.772 523.577L191.171 539.068C191.171 539.068 194.066 535.978 183.425 529.77C171.024 522.54 152.936 514.794 152.936 514.794Z" fill="#91E2F6"/>
    <path d="M109.259 542.555C109.259 544.588 107.61 546.237 105.578 546.237C103.546 546.237 101.896 544.588 101.896 542.555C101.896 540.523 103.546 538.874 105.578 538.874C107.61 538.874 109.259 540.523 109.259 542.555Z" fill="#001F46"/>
    <path d="M193.342 542.555C193.342 544.588 191.693 546.237 189.661 546.237C187.629 546.237 185.979 544.588 185.979 542.555C185.979 540.523 187.622 538.874 189.661 538.874C191.7 538.874 193.342 540.523 193.342 542.555Z" fill="#001F46"/>
    <path d="M100.351 542.555C100.351 544.588 98.7019 546.237 96.6698 546.237C94.6376 546.237 92.9883 544.588 92.9883 542.555C92.9883 540.523 94.6376 538.874 96.6698 538.874C98.7019 538.874 100.351 540.523 100.351 542.555Z" fill="#367082"/>
    <path d="M202.251 542.555C202.251 544.588 200.601 546.237 198.569 546.237C196.537 546.237 194.888 544.588 194.888 542.555C194.888 540.523 196.537 538.874 198.569 538.874C200.601 538.874 202.251 540.523 202.251 542.555Z" fill="#367082"/>
    <path d="M151.49 471.653H143.744V485.217H151.49V471.653Z" fill="#367082"/>
    <path d="M157.308 464.485C157.308 468.661 153.926 472.043 149.757 472.043H145.498C141.323 472.043 137.94 468.661 137.94 464.485C137.94 460.31 141.323 456.935 145.498 456.935H149.757C153.933 456.935 157.308 460.31 157.308 464.485Z" fill="#367082"/>
    <path d="M205.209 457.575C205.397 456.684 205.501 451.109 205.501 450.149C205.501 444.046 201.556 439.104 196.691 439.104H98.5438C93.6792 439.104 89.7402 444.046 89.7402 450.149C89.7402 451.102 89.8446 456.684 90.0325 457.575H205.209Z" fill="#3DC7C9"/>
    <path d="M88.8359 460.567C88.8359 462.432 89.9286 463.949 91.2717 463.949H203.971C205.321 463.949 206.414 462.432 206.414 460.567C206.414 458.702 205.321 457.185 203.971 457.185H91.2717C89.9216 457.185 88.8359 458.702 88.8359 460.567Z" fill="#367082"/>
    <path d="M94.3335 400.905C96.7553 401.086 112.142 401.358 114.787 401.385C131.621 401.594 146.132 398.428 146.939 394.28C150.265 377.042 150.412 359.372 147.377 342.127C146.661 337.979 131.935 334.82 114.738 335.028C112.038 335.056 96.3377 335.335 93.8672 335.515C99.1423 357.006 99.2955 379.401 94.3265 400.898L94.3335 400.905Z" fill="#3DC7C9"/>
    <path d="M92.0156 335.514C90.1296 335.535 88.8143 336.433 89.0787 337.511C93.7693 357.728 93.9433 378.69 89.6007 398.914C89.3641 399.999 90.6724 400.89 92.5166 400.911C94.3609 400.932 96.0659 400.069 96.3025 398.983C100.694 378.718 100.562 357.7 95.8989 337.435C95.6414 336.349 93.9085 335.486 92.0156 335.507V335.514Z" fill="#367082"/>
    <path d="M91.2632 400.871C91.7642 401.031 95.0977 401.156 95.6823 401.163C99.3499 401.205 103.129 397.969 103.86 393.89C106.915 376.91 106.838 359.504 103.623 342.531C102.857 338.453 98.988 335.216 95.2439 335.265C94.6523 335.272 91.2562 335.397 90.7412 335.564C96.0303 357.027 96.2043 379.401 91.2632 400.878V400.871Z" fill="#33A8B5"/>
    <path d="M124.106 247.224H115.797V251.476C117.662 248.901 120.682 247.224 124.106 247.224Z" fill="#DCE5EA"/>
    <path d="M146.635 272.821C146.635 272.821 132.278 277.95 146.065 319.1C159.851 360.25 169.037 355.268 169.037 355.268L180.437 354.161L202.296 328.238L190.528 317.945L188.155 318.891C188.155 318.891 185.114 317.632 184.759 314.806C184.404 311.974 179.685 304.924 170.346 282.237C165.147 269.612 149.405 271.812 146.642 272.821H146.635Z" fill="#AEBDDC"/>
    <path d="M198.364 330.319C198.364 330.319 221.19 356.486 236.786 369.855C244.281 376.286 250.308 374.073 241.24 377.093C237.899 378.206 205.761 366.445 188.342 356.493C176.651 349.812 180.123 341.927 186.672 337.564C193.353 333.11 198.364 330.326 198.364 330.326V330.319Z" fill="#E2C59C"/>
    <path d="M174.834 322.155L182.016 317.499L184.994 315.801C185.822 317.937 188.14 318.898 188.14 318.898L182.141 321.361L175.606 325.565L168.855 333.672L174.827 322.155H174.834Z" fill="#CFD9E8"/>
    <path d="M173.136 391.039L119.487 389.876C119.487 389.876 98.3998 334.633 97.1819 315.189C96.479 303.901 103.216 279.049 114.719 273.482C117.28 272.243 125.277 269.07 129.174 268.812C151.771 267.295 166.991 273.712 166.991 273.712C166.991 273.712 188.808 285.083 173.136 391.046V391.039Z" fill="#CFD9E8"/>
    <path d="M261.477 549.641C261.477 549.641 256.265 557.686 253.592 552.751C245.596 537.949 238.379 491.224 237.934 472.058C237.328 446.49 236.159 430.894 236.159 430.894L261.881 421.568L261.47 549.634L261.477 549.641Z" fill="#163F59"/>
    <path d="M171.236 390.496L262.006 421.577L238.198 434.862C238.198 434.862 144.581 451.279 142.911 416.538C141.512 387.309 171.229 390.503 171.229 390.503L171.236 390.496Z" fill="#163F59"/>
    <path d="M229.228 550.372C229.228 550.372 224.523 554.68 221.858 549.745C213.861 534.943 200.743 495.616 200.291 476.443C199.685 450.874 203.91 433.093 203.91 433.093L230.195 423.97L229.228 550.372Z" fill="#194866"/>
    <path d="M143.099 391.497L229.645 424.15L205.942 437.053C205.942 437.053 118.108 453.47 116.41 418.729C114.712 383.988 143.106 391.49 143.106 391.49L143.099 391.497Z" fill="#194866"/>
    <path d="M114.866 420.684C114.643 423.078 116.042 431.068 118.7 434.276C126.892 444.172 146.301 440.859 161.779 440.859C162.628 440.859 166.942 428.785 166.942 428.785L173.401 389.298L119.139 390.223C119.139 390.223 116.738 400.753 114.866 420.684Z" fill="#194866"/>
    <path d="M203.02 366.304L222.888 362.734C222.888 362.734 225.978 362.4 226.124 364.536C226.312 367.362 225.804 376.569 225.804 376.569L222.234 374.363L217.112 377.488L211.176 369.631C211.176 369.631 208.1 370.215 205.553 369.575C204.704 369.359 203.02 366.304 203.02 366.304Z" fill="#E9D6B8"/>
    <path d="M154.27 360.668L206.869 366.5C206.869 366.5 178.655 380.913 165.732 381.01C152.809 381.107 140.692 378.136 140.692 378.136L154.27 360.668Z" fill="#E9D6B8"/>
    <path d="M128.333 306.142L154.611 355.873L153.101 359.909L157.144 360.661L144.868 380.196L125.618 375.804L102.089 320.262C102.089 320.262 93.7586 296.747 110.628 281.283C115.082 277.198 126.001 302.161 128.333 306.149V306.142Z" fill="#AEBDDC"/>
    <path d="M135.006 372.84C135.006 372.84 147.449 363.333 153.761 358.148L153.1 359.909L157.143 360.654L152.85 367.376L145.396 376.048L141.13 374.489L142.745 371.448L135.006 372.853V372.84Z" fill="#CFD9E8"/>
    <path d="M237.662 558.319C238.114 559.078 237.759 561.096 237.759 561.096C237.759 561.096 229.652 562.432 227.056 561.632C226.381 561.423 225.247 560.651 224.182 559.815C224.001 559.676 223.695 558.834 223.514 558.695C223.187 558.438 223.013 558.876 222.734 558.646C222.017 558.034 221.516 557.561 221.509 557.498C220.848 552.439 221.816 550.393 221.816 550.393C221.816 550.393 228.74 547.177 230.007 549.342C232.999 554.429 236.66 556.663 237.662 558.326V558.319Z" fill="#194866"/>
    <path d="M252.73 551.937L253.885 559.272H260.023C260.023 559.272 260.364 558.236 260.879 558.236C261.311 558.236 261.881 559.272 262.473 559.272H278.083C278.083 559.272 278.361 557.728 278.02 557.199C277.839 556.927 276.823 556.447 276.134 556.217C272.96 555.125 263.364 552.759 261.227 549.355C259.571 546.718 252.716 551.93 252.716 551.93L252.73 551.937Z" fill="#163F59"/>
    <path d="M129.062 261.713L125.255 270.378L137.488 275.753L141.295 267.088L129.062 261.713Z" fill="#AEBDDC"/>
    <path d="M150.449 232.686C151.005 236.228 148.583 239.562 145.034 240.126L120.774 243.953C117.225 244.51 113.898 242.081 113.335 238.539C112.778 234.997 115.2 231.663 118.749 231.106L143.009 227.286C146.558 226.729 149.885 229.151 150.442 232.693L150.449 232.686Z" fill="#163F59"/>
    <path d="M147.755 244.525C148.785 251.081 144.31 257.233 137.754 258.263L125.088 260.26C118.54 261.29 112.381 256.815 111.351 250.259C110.321 243.711 114.795 237.552 121.351 236.522L134.017 234.524C140.566 233.494 146.718 237.969 147.755 244.518V244.525Z" fill="#163F59"/>
    <path d="M160.275 262.026L154.429 224.919C153.497 219.004 149.641 225.671 143.733 226.603L138.026 227.501C132.118 228.434 128.074 233.98 129.007 239.889L133.168 266.292L160.282 262.019L160.275 262.026Z" fill="#E9D6B8"/>
    <path d="M135.033 247.433C135.444 250.029 133.669 252.465 131.074 252.875C128.471 253.286 126.042 251.511 125.631 248.915C125.221 246.319 126.995 243.884 129.591 243.473C132.187 243.063 134.63 244.837 135.033 247.433Z" fill="#E9D6B8"/>
    <path d="M155.348 250.884C155.585 252.387 156.956 253.424 158.41 253.195L160.61 252.847C162.064 252.617 163.045 251.211 162.809 249.701C162.809 249.701 155.78 236.374 154.318 236.604C154.318 236.604 153.323 238.016 153.56 239.519L155.348 250.877V250.884Z" fill="#E9D6B8"/>
    <path d="M144.971 262.361C134.268 264.052 132.639 260.942 131.734 257.239C131.734 257.239 130.363 267.087 130.837 270.114L131.366 273.489C132.389 280.01 139.932 284.248 148.207 282.94L163.191 280.581L160.567 263.934L159.947 259.995L144.964 262.354L144.971 262.361Z" fill="#163F59"/>
    <path d="M158.869 253.106L150.302 254.457C146.363 255.076 143.676 258.778 144.296 262.717C144.393 263.337 144.595 263.914 144.832 264.464L160.274 262.028L158.869 253.106Z" fill="#163F59"/>
    <path d="M148.987 262.341L149.363 264.714C149.467 265.368 150.08 265.82 150.741 265.716L157.679 264.623C158.341 264.519 158.793 263.9 158.689 263.245L158.313 260.865L148.994 262.334L148.987 262.341Z" fill="#E9D6B8"/>
    <path d="M149.697 218.906L127.747 222.365C125.381 222.734 123.766 224.961 124.142 227.32L125.492 235.88L151.722 231.746L149.697 218.899V218.906Z" fill="#163F59"/>
    <path d="M164.305 223.166C164.869 226.736 162.433 230.09 158.863 230.654L143.998 232.993C140.428 233.556 137.073 231.113 136.51 227.543C135.946 223.973 138.389 220.626 141.959 220.062L156.824 217.717C160.394 217.153 163.741 219.589 164.305 223.159V223.166Z" fill="#163F59"/>
    <path d="M133.499 231.455L127.566 232.39L130.026 248.009L135.959 247.074L133.499 231.455Z" fill="#163F59"/>
    <path d="M145.787 222.647L128.325 225.397L131.22 243.78L148.682 241.03L145.787 222.647Z" fill="#163F59"/>
    <path d="M135.367 243.368C134.602 238.49 137.928 233.911 142.807 233.145L147.365 232.421C152.237 231.649 155.48 235.198 156.245 240.076C157.011 244.955 153.684 249.534 148.799 250.3L145.584 250.808C140.705 251.573 136.133 248.247 135.36 243.361L135.367 243.368Z" fill="#E9D6B8"/>
    <path d="M203.776 377.105C203.776 377.105 203.741 377.049 203.728 377.021L203.776 374.446H310.365V377.021C310.365 377.021 310.379 377.077 310.365 377.105L310.094 377.585C308.723 379.812 306.266 380.216 303.455 380.216H210.701C207.882 380.216 205.433 379.812 204.055 377.585L203.783 377.105H203.776Z" fill="#B4C0C7"/>
    <path d="M229.463 377.536C229.463 377.536 229.484 377.578 229.463 377.606L229.198 377.988C228.781 378.566 228.245 378.991 227.639 379.304H211.431C208.724 379.304 206.358 378.977 205.043 377.174L204.785 376.784C204.785 376.784 204.75 376.743 204.736 376.722L204.764 375.448H229.463V377.536Z" fill="#D6E3EB"/>
    <path d="M297.108 375.037H243.849V376.853H297.108V375.037Z" fill="#8599A4"/>
    <path d="M230.054 374.348L243.875 321.972C244.244 320.587 245.656 319.467 247.034 319.467H321.819C323.197 319.467 324.025 320.587 323.657 321.972L309.835 374.348H230.054Z" fill="#D7DFE2"/>
    <path d="M272.339 346.907C271.636 349.58 273.23 351.751 275.902 351.751C278.574 351.751 281.316 349.58 282.026 346.907C282.729 344.235 281.142 342.063 278.463 342.063C275.784 342.063 273.049 344.235 272.346 346.907H272.339Z" fill="#B4C0C7"/>
    <path d="M444.765 563.098H433.672L451.968 385.948H468.044L444.765 563.098Z" fill="#ACD5F4"/>
    <path d="M466.965 394.112L445.454 448.784L451.55 389.943L451.968 385.948H466.019L466.965 394.112Z" fill="#86BBD8"/>
    <path d="M561.151 563.099H572.244L553.948 385.949H537.872L561.151 563.099Z" fill="#ACD5F4"/>
    <path d="M538.945 394.112L546.002 447.762L554.36 389.944L553.95 385.949H539.899L538.945 394.112Z" fill="#86BBD8"/>
    <path d="M174.158 563.099H185.244L166.948 385.949H150.879L174.158 563.099Z" fill="#ACD5F4"/>
    <path d="M151.951 394.112L159.001 447.762L167.366 389.944L166.948 385.949H152.898L151.951 394.112Z" fill="#86BBD8"/>
    <path d="M57.7631 563.099H46.6699L64.966 385.949H81.042L57.7631 563.099Z" fill="#ACD5F4"/>
    <path d="M79.9704 394.112L58.4521 448.785L64.5555 389.944L64.9661 385.949H79.0169L79.9704 394.112Z" fill="#86BBD8"/>
    <path d="M389.986 380.193H49.4463V390.549H389.986V380.193Z" fill="#367082"/>
    <path d="M567.171 380.193H176.928V390.549H567.171V380.193Z" fill="url(#paint0_radial_5124_5920)"/>
    <path d="M377.787 532.367L375.998 541.664H366.52C366.52 541.664 365.998 540.349 365.198 540.349C364.523 540.349 363.653 541.664 362.727 541.664H338.613C338.613 541.664 338.188 539.709 338.71 539.034C338.975 538.686 340.569 538.087 341.619 537.788C346.519 536.417 360.528 532.116 362.957 527.439C365.928 521.747 377.773 532.367 377.773 532.367H377.787Z" fill="#161711"/>
    <path d="M375.08 415.965C375.08 415.965 377.794 431.144 380.042 450.539C381.706 464.785 381.747 505.455 379.124 533.717C378.964 535.443 361.002 530.182 361.002 530.182C361.002 530.182 354.446 451.096 352.943 433.391C351.44 415.68 364.3 404.928 375.08 415.965Z" fill="#163F59"/>
    <path d="M405.36 515.616C404.643 514.753 405.165 512.477 405.165 512.477C405.165 512.477 417.643 511.085 421.652 512.032C422.695 512.275 424.456 513.173 426.112 514.127C426.391 514.287 426.885 515.24 427.163 515.4C427.664 515.699 427.922 515.198 428.353 515.463C429.467 516.166 430.246 516.716 430.26 516.785C431.36 522.506 429.898 524.816 429.898 524.816C429.898 524.816 419.626 528.01 417.288 525.888C411.331 520.508 406.919 517.509 405.36 515.609V515.616Z" fill="#161711"/>
    <path d="M406.251 429.229C406.251 429.229 396.313 423.425 398.839 439C404.949 476.587 410.572 504.139 413.203 516.617C414.219 521.468 415.792 520.696 415.792 520.696L427.219 522.554L432.981 518.622L422.313 433.669L406.251 429.229Z" fill="#163F59"/>
    <path d="M360.958 431.658C362.462 433.606 413.613 459.46 415.972 459.46H458.027C460.386 459.46 477.485 456.962 481.194 445.722C485.113 433.843 481.194 412.68 481.194 412.68C481.194 410.216 479.281 408.226 476.915 408.226H424.532C422.173 408.226 417.405 410.216 417.405 412.68L366.533 411.051C366.533 411.051 349.83 417.175 360.965 431.658H360.958Z" fill="#194866"/>
    <path d="M457.756 444.241H409.618C409.11 444.241 367.549 432.905 367.083 432.772L372.101 448.918C372.101 451.382 413.613 459.454 415.972 459.454H458.027C460.387 459.454 477.486 456.956 481.195 445.717C482.392 442.091 482.851 437.595 482.921 433.107C476.901 442.126 460.24 444.234 457.763 444.234L457.756 444.241Z" fill="#163F59"/>
    <path d="M439.892 292.549L437.623 282.284C437.623 282.284 429.62 282.847 428.075 278.915C424.929 271.044 427.56 258.455 429.453 254.934C434.853 244.891 437.136 227.312 462.363 241.293C471.953 246.61 457.144 272.394 456.037 277.976C454.945 283.55 458.216 289.981 458.216 289.981L452.314 294.017L439.906 292.549H439.892Z" fill="#E9D6B8"/>
    <path d="M398.288 363.039L441.547 378.392C441.547 378.392 390.535 382.059 390.34 379.088C389.269 362.796 398.288 363.032 398.288 363.032V363.039Z" fill="#E9D6B8"/>
    <path d="M484.98 302.557C484.98 302.557 493.589 306.635 499.776 339.761C505.97 372.881 502.024 371.621 502.024 371.621L500.896 379.165L484.813 380.508L476.121 351.912L484.98 302.557Z" fill="#FEC12F"/>
    <path d="M485.509 302.633L464.318 293.872L458.472 288.833L435.952 288.339L432.006 294.254L414.545 301.151C414.545 301.151 410.237 307.324 413.988 330.234C418.136 355.628 413.919 421.317 413.919 421.317L485.196 422.334C485.196 422.334 479.315 314.951 485.509 302.626V302.633Z" fill="#FECE40"/>
    <path d="M420.168 301.206C420.168 301.206 416.243 297.218 406.674 308.06C390.354 326.544 382.455 349.468 380.771 353.908C379.08 358.348 377.173 369.295 383.854 376.665C388.955 382.309 393.882 380.215 393.882 380.215L409.471 368.036L404.461 365.496L401.044 365.238C401.044 365.238 408.929 349.461 417.377 335.16C425.826 320.866 420.175 301.199 420.175 301.199L420.168 301.206Z" fill="#FECE40"/>
    <path d="M436.564 257.884C436.564 257.884 439.417 256.284 439.855 258.281C440.301 260.278 438.756 264.677 437.441 265.08C436.125 265.477 435.694 270.87 435.694 270.87L439.201 276.869H456.961C456.961 276.869 462.445 274.67 462.891 271.072C463.322 267.467 467.714 242.087 467.714 242.087L455.215 236.088C455.215 236.088 448.631 233.081 444.024 231.891C436.96 230.047 435.471 233.485 435.701 235.287C435.916 237.083 433.724 237.285 430.871 237.285C428.018 237.285 424.503 239.282 426.041 240.486C426.681 240.98 423.849 242.56 424.962 244.467C426.577 247.195 431.964 248.079 432.402 252.477C432.597 254.467 433.502 261.065 436.564 257.877V257.884Z" fill="#194866"/>
    <path d="M384.509 475.382C384.342 474.575 384.244 469.529 384.244 468.66C384.244 463.141 387.814 458.666 392.213 458.666H481.02C485.426 458.666 488.989 463.141 488.989 468.66C488.989 469.529 488.891 474.575 488.724 475.382H384.502H384.509Z" fill="#36AFB1"/>
    <path d="M489.818 478.088C489.818 479.78 488.83 481.144 487.612 481.144H385.63C384.412 481.144 383.424 479.773 383.424 478.088C383.424 476.397 384.412 475.026 385.63 475.026H487.612C488.83 475.026 489.818 476.397 489.818 478.088Z" fill="#2C5B6A"/>
    <path d="M448.366 525.4L442.903 533.723L488.772 548.414C488.772 548.414 491.834 545.484 480.581 539.597C467.477 532.742 448.359 525.393 448.359 525.393L448.366 525.4Z" fill="#88BDDA"/>
    <path d="M440.225 525.4L445.688 533.723L399.819 548.414C399.819 548.414 396.757 545.484 408.01 539.597C421.114 532.742 440.225 525.393 440.225 525.393V525.4Z" fill="#88BDDA"/>
    <path d="M449.092 500.623H439.509V534.752H449.092V500.623Z" fill="#88BDDA"/>
    <path d="M448.988 527.151L444.312 535.099L483.576 549.122C483.576 549.122 486.2 546.324 476.568 540.708C465.35 534.166 448.988 527.151 448.988 527.151Z" fill="#91E2F6"/>
    <path d="M439.613 527.151L444.283 535.099L405.019 549.122C405.019 549.122 402.395 546.324 412.027 540.708C423.245 534.166 439.613 527.151 439.613 527.151Z" fill="#91E2F6"/>
    <path d="M479.129 552.282C479.129 554.119 480.618 555.608 482.462 555.608C484.307 555.608 485.796 554.119 485.796 552.282C485.796 550.445 484.307 548.948 482.462 548.948C480.618 548.948 479.129 550.438 479.129 552.282Z" fill="#001F46"/>
    <path d="M403.049 552.282C403.049 554.119 404.538 555.608 406.382 555.608C408.227 555.608 409.716 554.119 409.716 552.282C409.716 550.445 408.227 548.948 406.382 548.948C404.538 548.948 403.049 550.438 403.049 552.282Z" fill="#001F46"/>
    <path d="M487.194 552.282C487.194 554.119 488.691 555.608 490.528 555.608C492.365 555.608 493.861 554.119 493.861 552.282C493.861 550.445 492.365 548.948 490.528 548.948C488.691 548.948 487.194 550.438 487.194 552.282Z" fill="#367082"/>
    <path d="M394.983 552.282C394.983 554.119 396.473 555.608 398.31 555.608C400.147 555.608 401.643 554.119 401.643 552.282C401.643 550.445 400.147 548.948 398.31 548.948C396.473 548.948 394.983 550.438 394.983 552.282Z" fill="#367082"/>
    <path d="M447.923 488.118H440.915V500.394H447.923V488.118Z" fill="#2C5B6A"/>
    <path d="M435.66 481.632C435.66 485.411 438.722 488.466 442.494 488.466H446.35C450.122 488.466 453.191 485.404 453.191 481.632C453.191 477.853 450.129 474.798 446.35 474.798H442.494C438.722 474.798 435.66 477.86 435.66 481.632Z" fill="#2C5B6A"/>
    <path d="M398.992 475.382C398.825 474.575 398.728 469.529 398.728 468.66C398.728 463.141 402.291 458.666 406.696 458.666H495.511C499.916 458.666 503.479 463.141 503.479 468.66C503.479 469.529 503.382 474.575 503.215 475.382H398.992Z" fill="#3DC7C9"/>
    <path d="M504.3 478.088C504.3 479.78 503.312 481.144 502.094 481.144H400.112C398.894 481.144 397.906 479.773 397.906 478.088C397.906 476.397 398.894 475.026 400.112 475.026H502.094C503.312 475.026 504.3 476.397 504.3 478.088Z" fill="#367082"/>
    <path d="M493.326 393.757C493.346 396.213 491.37 398.211 488.913 398.211H404.998C402.548 398.211 400.133 396.241 399.695 393.792C396.473 375.656 396.473 357.095 399.695 338.959C400.126 336.51 402.541 334.547 404.998 334.54H488.913C491.37 334.54 493.346 336.53 493.326 338.994C493.165 357.241 493.165 375.503 493.326 393.75V393.757Z" fill="#33A8B5"/>
    <path d="M498.204 393.75C498.204 396.213 496.207 398.211 493.75 398.204H409.835C407.385 398.204 404.991 396.227 404.574 393.785C401.518 375.642 401.518 357.102 404.574 338.959C404.991 336.516 407.385 334.54 409.835 334.54H493.75C496.207 334.54 498.197 336.53 498.204 338.994V393.743V393.75Z" fill="#3DC7C9"/>
    <path d="M421.722 481.37C434.639 434.902 410.003 388.442 420.595 341.974C421.158 339.511 419.725 337.521 417.268 337.521H415.758C413.301 337.521 410.733 339.518 410.177 341.974C399.584 388.442 424.22 434.902 411.304 481.37H421.722Z" fill="#367082"/>
    <path d="M495.226 481.37C508.142 434.902 483.506 388.442 494.099 341.974C494.655 339.511 493.229 337.521 490.765 337.521H489.262C486.805 337.521 484.244 339.518 483.68 341.974C473.088 388.442 497.724 434.902 484.808 481.37H495.219H495.226Z" fill="#367082"/>
    <defs>
        <radialGradient id="paint0_radial_5124_5920" cx="0" cy="0" r="1" gradientUnits="userSpaceOnUse" gradientTransform="translate(548.694 235.774) rotate(-180) scale(356.512 356.512)">
            <stop stop-color="#CDF7F1"/>
            <stop offset="1" stop-color="#5DCFCA"/>
        </radialGradient>
    </defs>
</svg>
