<svg width="190" height="187" viewBox="0 0 190 187" fill="none" xmlns="http://www.w3.org/2000/svg">
<g opacity="0.2">
<mask id="mask0_1_925" style="mask-type:luminance" maskUnits="userSpaceOnUse" x="22" y="0" width="168" height="169">
<g opacity="0.2">
<path d="M23.0669 168.011V0.535861H188.86V168.011H23.0669Z" fill="white" stroke="white" stroke-width="0.821721"/>
<mask id="path-2-inside-1_1_925" fill="white">
<path fill-rule="evenodd" clip-rule="evenodd" d="M24.837 58.3597C24.837 58.3597 12.0615 20.5065 56.6226 25.1265C101.183 29.7465 79.8924 12.992 96.7312 2.59464C113.569 -7.80266 163.183 24.5443 142.426 55.7431C121.67 86.9426 175.598 58.4024 186.848 105.32C193.789 134.273 176.566 155.583 162.358 167.664"/>
</mask>
<path fill-rule="evenodd" clip-rule="evenodd" d="M24.837 58.3597C24.837 58.3597 12.0615 20.5065 56.6226 25.1265C101.183 29.7465 79.8924 12.992 96.7312 2.59464C113.569 -7.80266 163.183 24.5443 142.426 55.7431C121.67 86.9426 175.598 58.4024 186.848 105.32C193.789 134.273 176.566 155.583 162.358 167.664" fill="black"/>
<path d="M56.6226 25.1265L56.7073 24.3092H56.7073L56.6226 25.1265ZM96.7312 2.59464L97.1629 3.29382L97.1629 3.29381L96.7312 2.59464ZM142.426 55.7431L141.742 55.288L141.742 55.288L142.426 55.7431ZM186.848 105.32L187.647 105.128L187.647 105.128L186.848 105.32ZM24.837 58.3597C25.6155 58.097 25.6156 58.0972 25.6156 58.0973C25.6156 58.0972 25.6156 58.0971 25.6155 58.0968C25.6153 58.0962 25.6149 58.095 25.6143 58.0932C25.6131 58.0897 25.6112 58.0839 25.6085 58.0759C25.6033 58.0599 25.5952 58.035 25.5845 58.0015C25.5631 57.9345 25.5314 57.8332 25.4915 57.7C25.4118 57.4336 25.2993 57.0401 25.1712 56.5387C24.9147 55.5356 24.5961 54.1041 24.3504 52.4001C23.8573 48.9813 23.6648 44.517 24.8132 40.2229C25.9558 35.9504 28.4207 31.8541 33.2648 29.0834C38.1317 26.2998 45.4965 24.7991 56.5378 25.9439L56.7073 24.3092C45.4681 23.1439 37.7195 24.6424 32.4489 27.6569C27.1557 30.6843 24.4592 35.185 23.2255 39.7983C21.9976 44.39 22.214 49.1003 22.7238 52.6347C22.9794 54.4071 23.3108 55.8969 23.5789 56.9458C23.7131 57.4705 23.8316 57.8856 23.9172 58.1715C23.96 58.3145 23.9946 58.4251 24.0188 58.5011C24.031 58.5391 24.0405 58.5684 24.0472 58.5888C24.0505 58.5989 24.0531 58.6068 24.055 58.6125C24.056 58.6153 24.0567 58.6175 24.0573 58.6192C24.0576 58.6201 24.0578 58.6209 24.058 58.6213C24.0582 58.622 24.0584 58.6225 24.837 58.3597ZM56.5378 25.9439C67.6984 27.101 74.8375 26.9334 79.5117 25.8163C81.8607 25.2549 83.6182 24.4467 84.9557 23.4211C86.2991 22.3908 87.1796 21.171 87.8137 19.847C88.4406 18.5383 88.8285 17.122 89.1865 15.7136C89.5498 14.2846 89.8827 12.863 90.3997 11.4302C91.4146 8.61718 93.1339 5.78156 97.1629 3.29382L96.2995 1.89547C91.9091 4.60638 89.9752 7.76407 88.8538 10.8724C88.3025 12.4003 87.9464 13.9213 87.5938 15.3087C87.2358 16.7167 86.8808 17.9904 86.3315 19.1371C85.7896 20.2686 85.0607 21.2695 83.9556 22.117C82.8444 22.9691 81.314 23.6958 79.1296 24.2179C74.7369 25.2677 67.8271 25.462 56.7073 24.3092L56.5378 25.9439ZM97.1629 3.29381C101.072 0.880103 107.041 0.878786 113.652 2.91084C120.225 4.93132 127.254 8.91234 133.128 14.182C139.005 19.4536 143.677 25.9688 145.619 33.0324C147.553 40.0668 146.796 47.6919 141.742 55.288L143.11 56.1983C148.435 48.195 149.26 40.0771 147.204 32.5967C145.155 25.1455 140.263 18.374 134.226 12.9586C128.187 7.54138 120.952 3.43523 114.135 1.33994C107.356 -0.743775 100.81 -0.88947 96.2995 1.89547L97.1629 3.29381ZM141.742 55.288C139.13 59.2136 137.633 62.2842 137.111 64.7353C136.577 67.2372 137.051 69.1594 138.431 70.6187C139.748 72.011 141.799 72.8764 144.166 73.559C146.547 74.2454 149.42 74.79 152.463 75.4408C158.599 76.7533 165.604 78.5333 171.771 82.8413C177.91 87.1287 183.28 93.9651 186.048 105.512L187.647 105.128C184.79 93.216 179.201 86.0258 172.712 81.494C166.254 76.9827 158.964 75.1508 152.807 73.8337C149.702 73.1697 146.929 72.6451 144.621 71.9799C142.3 71.3107 140.621 70.5419 139.625 69.4893C138.693 68.5038 138.272 67.1704 138.718 65.0781C139.175 62.9349 140.533 60.0725 143.11 56.1983L141.742 55.288ZM186.048 105.512C192.879 134.003 175.959 155.021 161.825 167.037L162.89 168.29C177.174 156.146 194.699 134.544 187.647 105.128L186.048 105.512Z" fill="white" mask="url(#path-2-inside-1_1_925)"/>
</g>
</mask>
<g mask="url(#mask0_1_925)">
<path d="M88.8595 15.6304C88.9076 15.4409 88.9553 15.251 89.0031 15.0608C89.3138 13.825 89.6282 12.5742 90.0819 11.3157L88.8595 15.6304ZM88.8595 15.6304C88.5015 17.0387 88.1203 18.4259 87.5091 19.7014L88.8595 15.6304ZM24.6441 57.9908L24.7052 57.9701L24.7834 57.9437C24.7805 57.934 24.7775 57.9241 24.7745 57.914C24.6921 57.6386 24.5769 57.2356 24.4461 56.7233C24.4461 56.7233 24.4461 56.7233 24.446 56.7233L24.6441 57.9908ZM24.6441 57.9908C24.6408 57.9797 24.6374 57.9685 24.6339 57.957L24.6339 57.9567C24.5509 57.6799 24.4352 57.2745 24.3038 56.7604L23.9058 56.8621L24.3038 56.7603C24.0409 55.7324 23.7154 54.2692 23.4642 52.5277L23.0577 52.5863L23.4642 52.5277C22.962 49.0461 22.7565 44.4475 23.9483 39.991C25.1406 35.5325 27.7317 31.2158 32.8203 28.3053C32.8203 28.3053 32.8203 28.3052 32.8203 28.3052L24.6441 57.9908ZM57.0235 25.2418L57.0387 25.0943C67.9405 26.2025 74.838 26.0118 79.3034 24.9445C81.5629 24.4045 83.1967 23.6407 84.4109 22.7096C85.6246 21.7789 86.4224 20.6784 87.0064 19.4594C87.591 18.239 87.9611 16.9005 88.319 15.4923L88.319 15.4922C88.3666 15.3047 88.4141 15.1159 88.4618 14.926C88.7718 13.6923 89.0934 12.4122 89.5574 11.1256C90.6007 8.23435 92.3651 5.30824 96.3446 2.75025L96.4222 2.87624C92.4744 5.41405 90.7293 8.31167 89.6955 11.1762L89.6954 11.1763C89.2342 12.4556 88.9144 13.728 88.6041 14.9626C88.5564 15.1524 88.509 15.3413 88.4613 15.5292C88.1034 16.9373 87.7304 18.2888 87.1386 19.5239L87.1385 19.524C86.5465 20.7603 85.7349 21.8806 84.4998 22.8277L84.4997 22.8277C83.2655 23.7743 81.6116 24.5453 79.3376 25.0888C74.8475 26.162 67.9291 26.3505 57.0235 25.2418ZM97.1235 2.44795L97.0458 2.32182C101.274 -0.079014 107.396 0.0503691 113.915 2.05405C120.62 4.11526 127.761 8.16442 133.726 13.5145C139.69 18.8645 144.482 25.5194 146.482 32.7944C148.453 39.9655 147.712 47.7348 142.713 55.4405L142.591 55.3586C147.565 47.6898 148.301 39.9648 146.34 32.834C144.35 25.5942 139.578 18.9624 133.628 13.6254L133.354 13.9312L133.628 13.6254C127.679 8.28847 120.556 4.25046 113.872 2.19591C107.371 0.197506 101.3 0.0798832 97.1235 2.44795ZM142.138 56.0447L142.261 56.1266C139.811 59.8554 138.459 62.7062 137.986 64.9221C137.5 67.2006 137.946 68.8017 139.082 70.0024L139.38 69.7201C140.442 70.8424 142.197 71.631 144.528 72.3028L144.414 72.6975C144.414 72.6975 144.414 72.6976 144.414 72.6976C146.223 73.2194 148.318 73.6568 150.597 74.1324C151.266 74.2721 151.951 74.4151 152.649 74.5645L152.735 74.1628L152.649 74.5645C158.798 75.8792 165.957 77.6879 172.284 82.1064C178.54 86.4765 183.977 93.3967 186.821 104.903L186.678 104.938C183.842 93.465 178.426 86.5769 172.2 82.2282C165.899 77.8278 158.765 76.0242 152.619 74.7097C151.922 74.5605 151.237 74.4175 150.568 74.2778C148.289 73.8021 146.188 73.3635 144.373 72.8402L144.373 72.8402C142.028 72.164 140.146 71.3424 138.975 70.1047L138.975 70.1046C137.799 68.8613 137.349 67.2069 137.842 64.8907C138.321 62.6477 139.685 59.7787 142.138 56.0447ZM186.87 105.737L187.013 105.702C193.663 134.282 176.806 155.378 162.717 167.453L162.622 167.34C176.697 155.276 193.5 134.233 186.87 105.737ZM24.5679 58.4175L24.5679 58.4175L24.5679 58.4175ZM24.7566 58.3553C24.7566 58.3554 24.7567 58.3555 24.7567 58.3556L24.7585 58.3599L24.7591 58.3615L24.6044 58.4234L24.468 58.4779L24.4097 58.5012L24.5844 58.443L24.7566 58.3553ZM56.2213 25.011L56.206 25.1585C45.2981 24.0828 37.8816 25.581 32.8928 28.4343L33.0968 28.7909L56.2213 25.011Z" fill="#51A951" stroke="black" stroke-width="0.821721"/>
</g>
</g>
<path d="M156.178 168.766C156.192 164.726 152.943 161.433 148.908 161.399M156.178 168.766C156.176 169.701 155.991 170.625 155.636 171.486C155.796 171.46 155.955 171.43 156.112 171.396M156.178 168.766L156.589 168.768M156.178 168.766L156.589 168.767C156.589 168.767 156.589 168.768 156.589 168.768M148.908 161.399L166.442 156.244M148.908 161.399L144.271 161.373L137.329 161.337M148.908 161.399L128.078 161.294M156.112 171.396C156.055 171.55 155.993 171.702 155.925 171.853C157.727 171.519 159.386 170.634 160.671 169.315C164.01 165.9 165.448 160.788 166.442 156.244M156.112 171.396C156.425 170.557 156.587 169.667 156.589 168.768M156.112 171.396L101.479 185.112C100.429 184.061 99.8385 182.635 99.8359 181.149V181.148C99.8359 178.202 102.121 175.83 105.72 175.57M166.442 156.244L166.041 156.157C166.041 156.157 166.041 156.157 166.041 156.157L166.442 156.244ZM156.589 168.768C156.604 164.502 153.174 161.024 148.912 160.988H148.911L144.274 160.962L144.273 160.962L137.355 160.926M137.355 160.926C137.131 160.9 136.9 160.9 136.7 160.9H136.688H132.017L132.015 161.311M137.355 160.926C137.364 160.927 137.372 160.928 137.381 160.929L137.329 161.337M137.355 160.926L137.331 160.926L137.329 161.337M132.015 161.311V160.9L128.08 160.884L128.078 161.294M132.015 161.311L128.078 161.294M132.015 161.311H136.688C136.904 161.311 137.123 161.311 137.329 161.337M128.078 161.294L128.08 160.884L106.678 160.77H106.676C106.383 160.77 106.082 160.79 105.791 160.816L105.788 160.942M105.788 160.942C105.787 160.942 105.786 160.942 105.785 160.942L105.783 160.942L105.756 160.945L105.743 161.762C109.162 162.182 111.758 165.05 111.84 168.5M105.788 160.942C105.792 160.942 105.797 160.941 105.802 160.941C105.825 160.939 105.847 160.937 105.87 160.935M105.788 160.942L105.787 160.965L105.786 160.985L105.781 161.217L105.773 161.515L105.77 161.632L105.814 161.638M111.84 168.5V168.633V168.644L111.84 168.655C111.845 168.73 111.845 168.804 111.841 168.878M111.84 168.5V168.495H112.251M111.84 168.5C111.84 168.502 111.84 168.503 111.84 168.505L112.251 168.495M111.841 168.878C111.638 172.239 109.06 174.972 105.721 175.367L105.72 175.57M111.841 168.878C111.841 168.878 111.841 168.877 111.841 168.877L112.251 168.902L111.84 168.879C111.841 168.879 111.841 168.878 111.841 168.878ZM105.72 175.57C105.728 175.57 105.737 175.569 105.745 175.569C105.75 175.568 105.754 175.568 105.759 175.568M105.72 175.57L105.717 175.982C105.726 175.982 105.734 175.981 105.742 175.98C105.748 175.98 105.754 175.98 105.76 175.979L105.76 175.849L105.759 175.69L105.759 175.568M105.759 175.568L105.759 175.497C105.775 175.495 105.79 175.493 105.806 175.491M105.759 175.568C105.761 175.567 105.764 175.567 105.766 175.567C105.776 175.566 105.786 175.566 105.797 175.565L105.806 175.491M105.806 175.491L105.822 175.367C105.994 175.39 106.167 175.403 106.341 175.407L106.354 175.538M105.806 175.491C105.952 175.474 106.097 175.449 106.241 175.417L106.267 175.532C106.291 175.534 106.315 175.535 106.338 175.537C106.343 175.537 106.349 175.537 106.354 175.538M106.354 175.538C106.454 175.543 106.552 175.547 106.652 175.547H106.384C106.374 175.547 106.365 175.547 106.355 175.547L106.354 175.538ZM106.39 161.598L106.408 161.456C106.497 161.475 106.586 161.495 106.674 161.517L106.674 161.591H106.674C106.581 161.591 106.487 161.594 106.39 161.598ZM106.39 161.598C106.385 161.598 106.38 161.598 106.374 161.598C106.351 161.6 106.328 161.601 106.305 161.602L106.276 161.719C106.149 161.688 106.005 161.666 105.846 161.643L105.857 161.761L105.855 161.761C106.047 161.745 106.211 161.731 106.374 161.731L106.39 161.598ZM105.819 161.639C105.827 161.64 105.836 161.642 105.844 161.643L105.854 161.761L105.83 161.763L105.819 161.639ZM105.819 161.639L105.817 161.619L105.814 161.639L105.814 161.638M105.819 161.639C105.817 161.639 105.815 161.639 105.814 161.638M105.814 161.638L105.817 161.617L105.8 161.427L105.793 161.354L105.808 161.228L105.809 161.225L105.82 161.135L105.843 160.946C105.851 160.947 105.86 160.948 105.868 160.949L105.87 160.935M105.87 160.935C105.885 160.934 105.9 160.933 105.915 160.931C105.916 160.931 105.916 160.931 105.916 160.931C106.064 160.92 106.217 160.91 106.374 160.91V161.03C106.397 161.035 106.42 161.039 106.443 161.044C106.448 161.045 106.453 161.046 106.458 161.047M105.87 160.935L105.886 160.819L105.931 160.825L105.931 160.825L105.944 160.827C106.105 160.85 106.295 160.878 106.473 160.922L106.458 161.047M106.458 161.047L106.441 161.185C106.52 161.182 106.598 161.18 106.676 161.18L107.014 161.182C106.903 161.151 106.79 161.121 106.676 161.095C106.676 161.095 106.676 161.095 106.676 161.095C106.604 161.078 106.531 161.062 106.458 161.047ZM112.251 168.495V168.633V168.495ZM81.2989 110.452C81.2198 110.436 81.1542 110.4 81.1304 110.387L81.1303 110.387C81.0938 110.367 81.0554 110.342 81.0175 110.317C80.9411 110.265 80.8484 110.196 80.7451 110.113C80.5376 109.948 80.2736 109.717 79.9901 109.44C79.4268 108.889 78.7637 108.133 78.3193 107.316C77.8815 106.512 77.6073 105.557 77.9931 104.676C78.3811 103.789 79.3641 103.141 81.0396 102.775C84.4238 102.037 88.6906 103.136 92.2974 104.514C95.9252 105.901 98.976 107.605 99.9632 108.167C100.487 108.465 101.6 109.305 102.942 110.365C104.296 111.436 105.917 112.757 107.474 114.042C109.031 115.327 110.528 116.577 111.634 117.506C112.187 117.97 112.643 118.354 112.961 118.622L113.329 118.933L113.425 119.014L113.45 119.035L113.456 119.041L113.458 119.042L113.458 119.042C113.458 119.042 113.458 119.042 113.193 119.356M81.2989 110.452L101.732 137.693C102.019 137.987 102.019 137.987 102.018 137.988L102.017 137.989L102.015 137.991L102.011 137.995L102.001 138.004C101.994 138.01 101.987 138.016 101.978 138.023C101.96 138.037 101.938 138.052 101.912 138.067C101.887 138.082 101.858 138.097 101.825 138.11M81.2989 110.452C81.4575 110.484 83.3268 110.96 85.1839 111.435C86.1063 111.672 87.018 111.906 87.699 112.081L87.8015 112.107L86.249 112.928L86.2489 112.928L86.2384 112.933L86.441 113.291C86.2384 112.933 86.2382 112.934 86.238 112.934L86.2375 112.934L86.2364 112.935L86.2335 112.936L86.2256 112.941C86.2194 112.945 86.2111 112.95 86.201 112.956C86.1808 112.968 86.1532 112.986 86.119 113.009C86.0507 113.055 85.9562 113.123 85.843 113.216C85.6166 113.401 85.3149 113.684 84.9978 114.084C84.3617 114.887 83.671 116.154 83.3953 118.032L83.3952 118.032C83.3466 118.366 83.2858 118.728 83.2198 119.12L83.2198 119.121L83.2138 119.156C82.5847 122.91 81.5407 129.14 87.3513 133.532C88.9169 134.715 90.1623 135.399 91.1634 135.702C92.1726 136.007 92.9739 135.935 93.5892 135.544C94.1894 135.163 94.5301 134.529 94.7406 133.891C94.8889 133.441 94.982 132.958 95.0503 132.506C95.0813 132.521 95.1134 132.537 95.1467 132.554C95.5137 132.738 96.0164 133.008 96.5589 133.349C97.6583 134.042 98.8631 134.993 99.4753 136.083C100.148 137.281 100.672 137.827 101.095 138.042C101.32 138.156 101.527 138.182 101.705 138.145C101.749 138.136 101.789 138.124 101.825 138.11M81.2989 110.452L101.825 138.11M113.193 119.356C113.554 119.161 113.555 119.161 113.555 119.161L113.555 119.162L113.556 119.163L113.558 119.168L113.567 119.185C113.574 119.199 113.585 119.219 113.598 119.246C113.625 119.298 113.662 119.375 113.708 119.474C113.799 119.671 113.924 119.958 114.06 120.32C114.331 121.045 114.65 122.076 114.838 123.307C115.214 125.77 115.072 129.05 112.975 132.261M113.193 119.356L113.554 119.161L113.518 119.093L113.458 119.042L113.193 119.356ZM112.975 132.261C112.975 132.261 112.975 132.261 112.974 132.262L112.63 132.037L112.975 132.26C112.975 132.261 112.975 132.261 112.975 132.261ZM112.975 132.261C110.893 135.47 108.074 136.933 105.783 137.59C104.638 137.919 103.624 138.047 102.894 138.093C102.529 138.116 102.234 138.119 102.029 138.116C101.946 138.114 101.877 138.112 101.825 138.11M166.298 131.56C166.298 131.56 166.298 131.56 166.298 131.56L166.703 131.49L166.298 131.56ZM117.495 85.3229C117.52 85.1972 117.543 85.071 117.564 84.9443L117.568 84.9186C117.485 84.9047 117.402 84.891 117.319 84.8773C117.266 84.8686 117.212 84.8598 117.159 84.8512V84.8773C117.144 84.9675 117.128 85.0573 117.111 85.1469L117.093 85.2567C117.227 85.2785 117.361 85.3005 117.495 85.3229ZM132.234 88.4751L132.108 88.8661C132.108 88.8662 132.108 88.8662 132.108 88.8663L132.234 88.4751ZM10.9193 84.1805L10.9194 84.1807L11.3122 84.0601L10.9193 84.1805ZM106.676 161.517C106.77 161.541 106.863 161.566 106.955 161.593L106.676 161.591V161.517Z" fill="#353642" stroke="black" stroke-width="0.821721"/>
<path d="M24.8335 91.869C24.9603 91.845 25.1093 91.8145 25.2766 91.7766C25.8336 91.6504 26.5981 91.4405 27.4294 91.1051C28.6207 90.6244 29.9776 89.8742 31.0476 88.7189L29.5942 96.8839L29.4722 97.5694L30.1313 97.3447L29.9987 96.9559C30.1313 97.3447 30.1314 97.3447 30.1315 97.3447L30.1322 97.3444L30.1352 97.3434L30.1469 97.3394L30.1933 97.3236L30.3747 97.2619L31.0672 97.0265C31.6657 96.8232 32.5251 96.5318 33.5689 96.1791C35.6565 95.4737 38.4811 94.5233 41.4294 93.5433C46.9669 91.7026 52.9104 89.7676 55.2486 89.1447C55.2946 89.3752 55.3616 89.6869 55.4534 90.0591C55.6559 90.8803 55.98 91.9999 56.4669 93.192C57.4319 95.555 59.0752 98.2987 61.7699 99.4715L62.0609 99.5981L62.2569 99.3485L67.3257 92.8948C67.488 92.953 67.7197 93.046 67.9935 93.1838C68.5488 93.4634 69.2714 93.9243 69.9402 94.6489C71.2608 96.0798 72.4296 98.6015 71.553 102.974L71.9449 103.052L71.553 102.974C71.1346 105.061 69.3495 107.134 66.7179 109.081C64.1021 111.017 60.7235 112.776 57.2525 114.257C53.7842 115.737 50.2395 116.932 47.3014 117.747C45.8324 118.154 44.5187 118.465 43.4448 118.669C42.3614 118.874 41.5501 118.964 41.0725 118.944C39.0634 118.862 36.9777 118.21 34.812 115.877C32.6268 113.523 30.3518 109.446 28.0337 102.485L24.8335 91.869Z" fill="#353642" stroke="black" stroke-width="0.821721"/>
<path d="M33.1551 69.3533C34.5316 71.5964 35.9154 73.8352 37.3442 76.0454C38.2247 77.4073 39.8289 79.3488 38.1225 80.7722C37.5675 81.1986 36.8967 81.4469 36.1978 81.4852C35.1012 81.5827 33.9504 81.3188 33.2835 80.3755L29.9609 74.862C28.5876 72.5815 25.6957 71.74 23.3157 72.9273" stroke="black" stroke-width="0.821721"/>
<path d="M45.7224 76.6163C46.5909 78.6839 46.0024 80.0171 44.9867 80.6874C43.3254 81.7782 41.1018 81.2554 39.9243 79.6631L33.1677 69.3654" stroke="black" stroke-width="0.821721"/>
<path d="M38.8753 66.3589C41.3344 69.3533 44.4361 74.9144 46.1521 77.2361C47.8682 79.5578 50.5214 78.1581 50.5214 78.1581C52.6763 76.996 52.3106 75.0686 51.3685 72.728C49.0476 66.9816 45.7341 63.1598 42.0391 60.6552C30.5882 52.8981 18.8402 58.6206 15.3443 72.0102L1.51991 110.389C0.498474 114.308 1.34889 118.479 3.82239 121.684C6.29594 124.888 10.1131 126.763 14.1577 126.761H53.939L77.1377 186.35" stroke="black" stroke-width="0.821721"/>
<path d="M53.0788 70.0924C55.9267 69.1035 55.7959 64.5551 51.7546 63.0196C47.2904 61.323 39.3636 58.9227 37.3724 58.3237C37.3598 58.314 37.3453 58.3082 37.3298 58.3068C37.1893 58.2641 37.0925 58.2287 37.0164 58.2117L36.9045 58.1763" stroke="black" stroke-width="0.821721"/>
<path d="M95.1571 115.572C92.6652 112.573 85.8441 110.874 81.392 110.051C79.8547 109.762 78.6938 108.49 78.5441 106.931C78.4923 106.419 78.5514 105.902 78.7175 105.414C79.2633 103.875 80.7895 102.909 82.4126 103.076C90.0071 103.846 97.8389 106.239 103.632 111.394C103.632 111.394 131.716 132.854 135.069 134.943C136.452 135.784 137.744 134.791 136.806 133.47L136.512 132.966C134.861 130.129 132.907 127.48 130.685 125.066" stroke="black" stroke-width="0.821721"/>
<path d="M95.678 83.2699C60.3586 83.5647 29.9995 96.9538 29.9995 96.9538L33.0304 79.9427" stroke="black" stroke-width="0.821721"/>
<path d="M153.134 182.88L153.134 182.88C153.259 183.578 153.661 184.181 154.016 184.654C154.101 184.767 154.186 184.876 154.265 184.978L154.279 184.996C154.363 185.104 154.439 185.202 154.508 185.296C154.652 185.49 154.731 185.623 154.762 185.714C154.764 185.72 154.766 185.725 154.767 185.73C154.755 185.738 154.736 185.749 154.708 185.762C154.645 185.79 154.55 185.822 154.413 185.851C153.847 185.971 152.787 186.011 150.944 185.938C149.147 185.867 147.909 185.515 147.07 185.013C146.241 184.517 145.779 183.863 145.546 183.131C145.067 181.624 145.54 179.745 146.054 178.195C146.5 176.851 147.545 176.363 148.545 176.209C149.048 176.132 149.526 176.143 149.881 176.175C150.04 176.189 150.173 176.207 150.269 176.222C150.275 176.232 150.28 176.242 150.286 176.253C150.357 176.381 150.458 176.567 150.581 176.798C150.828 177.261 151.161 177.901 151.507 178.616C152.207 180.06 152.933 181.751 153.134 182.88Z" fill="#353642" stroke="black" stroke-width="0.821721"/>
<path d="M91.7638 119.487C91.7638 119.487 87.6129 116.336 83.8747 119.529C83.7173 119.668 83.5803 119.828 83.4669 120.005" stroke="black" stroke-width="0.821721"/>
<g opacity="0.77">
<mask id="path-15-inside-2_1_925" fill="white">
<path d="M39.9096 79.6507C41.0963 81.2454 43.3175 81.7658 44.972 80.6726C45.9756 80.0072 46.5645 78.6812 45.7169 76.6325C45.8714 76.8585 46.0114 77.0579 46.149 77.2412C47.8626 79.5726 50.5182 78.1681 50.5182 78.1681C52.6731 77.006 52.3098 75.0786 51.3678 72.735C50.4461 70.4143 49.2362 68.2186 47.7677 66.1996C48.7286 65.2989 49.8702 64.389 51.0738 64.7882C52.3718 65.2208 52.7351 66.8509 52.8818 68.2104C52.9506 68.8424 53.0199 69.4675 53.0887 70.0995L54.1281 79.4063C54.4744 82.4958 54.8212 85.6304 55.5734 88.6461C55.9623 90.2767 56.5009 91.868 57.1824 93.3992C58.136 95.5342 59.484 97.4693 61.1554 99.1028C63.2396 97.0348 65.0646 94.7208 66.5903 92.2109C69.5729 93.1887 71.6851 95.8552 71.9563 98.9864V99.0645C72.5448 104.628 67.1952 108.808 62.7005 111.38C57.5073 114.369 51.7189 116.608 46.0327 118.469C43.688 119.239 40.6405 119.895 38.165 119.092C37.8986 119.007 37.6385 118.903 37.3867 118.78C34.9185 117.568 33.2668 115.028 31.978 112.706C25.8075 101.596 23.2443 88.8387 21.8939 76.2048C24.5947 75.8318 27.286 75.4161 29.9441 74.8433C29.9441 74.8433 29.9441 74.8623 29.9607 74.8695L33.0247 79.9572L33.276 80.3807C33.9406 81.3313 35.0918 81.5854 36.1908 81.4903C36.8893 81.4559 37.5606 81.2066 38.1132 80.7774C39.8171 79.3515 38.2173 77.4168 37.3344 76.0554"/>
</mask>
<path d="M39.9096 79.6507C41.0963 81.2454 43.3175 81.7658 44.972 80.6726C45.9756 80.0072 46.5645 78.6812 45.7169 76.6325C45.8714 76.8585 46.0114 77.0579 46.149 77.2412C47.8626 79.5726 50.5182 78.1681 50.5182 78.1681C52.6731 77.006 52.3098 75.0786 51.3678 72.735C50.4461 70.4143 49.2362 68.2186 47.7677 66.1996C48.7286 65.2989 49.8702 64.389 51.0738 64.7882C52.3718 65.2208 52.7351 66.8509 52.8818 68.2104C52.9506 68.8424 53.0199 69.4675 53.0887 70.0995L54.1281 79.4063C54.4744 82.4958 54.8212 85.6304 55.5734 88.6461C55.9623 90.2767 56.5009 91.868 57.1824 93.3992C58.136 95.5342 59.484 97.4693 61.1554 99.1028C63.2396 97.0348 65.0646 94.7208 66.5903 92.2109C69.5729 93.1887 71.6851 95.8552 71.9563 98.9864V99.0645C72.5448 104.628 67.1952 108.808 62.7005 111.38C57.5073 114.369 51.7189 116.608 46.0327 118.469C43.688 119.239 40.6405 119.895 38.165 119.092C37.8986 119.007 37.6385 118.903 37.3867 118.78C34.9185 117.568 33.2668 115.028 31.978 112.706C25.8075 101.596 23.2443 88.8387 21.8939 76.2048C24.5947 75.8318 27.286 75.4161 29.9441 74.8433C29.9441 74.8433 29.9441 74.8623 29.9607 74.8695L33.0247 79.9572L33.276 80.3807C33.9406 81.3313 35.0918 81.5854 36.1908 81.4903C36.8893 81.4559 37.5606 81.2066 38.1132 80.7774C39.8171 79.3515 38.2173 77.4168 37.3344 76.0554" fill="white"/>
<path d="M44.972 80.6726L45.425 81.3582L45.4261 81.3575L44.972 80.6726ZM45.7169 76.6325L46.3953 76.1688L44.9576 76.9467L45.7169 76.6325ZM46.149 77.2412L46.8111 76.7545L46.8062 76.7481L46.149 77.2412ZM50.5182 78.1681L50.9024 78.8945L50.9083 78.8913L50.5182 78.1681ZM51.3678 72.735L50.6041 73.0383L50.6054 73.0415L51.3678 72.735ZM47.7677 66.1996L47.2057 65.6L46.6764 66.0962L47.1031 66.6829L47.7677 66.1996ZM51.0738 64.7882L51.3336 64.0086L51.3324 64.0083L51.0738 64.7882ZM52.8818 68.2104L52.0649 68.2986L52.065 68.2993L52.8818 68.2104ZM53.0887 70.0995L52.2718 70.1884L52.272 70.1907L53.0887 70.0995ZM54.1281 79.4063L53.3114 79.4975L53.3115 79.4978L54.1281 79.4063ZM55.5734 88.6461L56.3727 88.4555L56.3707 88.4473L55.5734 88.6461ZM57.1824 93.3992L56.4316 93.7333L56.4321 93.7343L57.1824 93.3992ZM61.1554 99.1028L60.5811 99.6905L61.1598 100.256L61.7342 99.6861L61.1554 99.1028ZM66.5903 92.2109L66.8463 91.4301L66.2267 91.227L65.8881 91.7841L66.5903 92.2109ZM71.9563 98.9864H72.7781V98.9509L72.775 98.9155L71.9563 98.9864ZM71.9563 99.0645H71.1346V99.1079L71.1392 99.151L71.9563 99.0645ZM62.7005 111.38L62.2924 110.667L62.2905 110.668L62.7005 111.38ZM46.0327 118.469L45.7771 117.688L45.7763 117.688L46.0327 118.469ZM38.165 119.092L38.4186 118.31L38.4145 118.309L38.165 119.092ZM37.3867 118.78L37.0245 119.518L37.0279 119.52L37.3867 118.78ZM31.978 112.706L32.6965 112.307L32.6964 112.307L31.978 112.706ZM21.8939 76.2048L21.7815 75.3908L20.9922 75.4998L21.0769 76.2921L21.8939 76.2048ZM29.9441 74.8433L30.7658 74.8433L30.7658 73.8257L29.771 74.0401L29.9441 74.8433ZM29.9607 74.8695L30.6647 74.4456L30.5298 74.2217L30.2904 74.1168L29.9607 74.8695ZM33.0247 79.9572L33.7313 79.5377L33.7286 79.5333L33.0247 79.9572ZM33.276 80.3807L32.5695 80.8001L32.5851 80.8264L32.6026 80.8514L33.276 80.3807ZM36.1908 81.4903L36.1504 80.6696L36.1352 80.6704L36.12 80.6717L36.1908 81.4903ZM38.1132 80.7774L38.6172 81.4264L38.6291 81.4172L38.6405 81.4076L38.1132 80.7774ZM39.2504 80.1413C40.6652 82.0425 43.3634 82.7204 45.425 81.3582L44.519 79.987C43.2716 80.8113 41.5274 80.4483 40.5689 79.1602L39.2504 80.1413ZM45.4261 81.3575C46.0813 80.9231 46.6149 80.2596 46.8361 79.3695C47.0555 78.4868 46.9488 77.4605 46.4762 76.3184L44.9576 76.9467C45.3327 77.8532 45.3553 78.5142 45.2412 78.9731C45.129 79.4245 44.8663 79.7568 44.5179 79.9878L45.4261 81.3575ZM45.0386 77.0963C45.1959 77.3265 45.3436 77.5371 45.4917 77.7344L46.8062 76.7481C46.6792 76.5787 46.5469 76.3906 46.3953 76.1688L45.0386 77.0963ZM45.4869 77.7279C46.548 79.1715 47.9435 79.4728 49.032 79.3987C49.5626 79.3627 50.0213 79.2395 50.3448 79.1278C50.508 79.0714 50.6406 79.0166 50.7353 78.9744C50.7827 78.9533 50.821 78.9352 50.849 78.9214C50.8631 78.9145 50.8747 78.9088 50.8836 78.9042C50.888 78.9019 50.8919 78.9 50.895 78.8983C50.8966 78.8975 50.898 78.8968 50.8992 78.8961C50.8998 78.8958 50.9004 78.8955 50.901 78.8952C50.9012 78.8951 50.9016 78.8949 50.9017 78.8948C50.9021 78.8946 50.9024 78.8944 50.5182 78.1681C50.1341 77.4417 50.1344 77.4415 50.1347 77.4413C50.1348 77.4413 50.1351 77.4411 50.1353 77.441C50.1357 77.4408 50.136 77.4407 50.1363 77.4405C50.1369 77.4402 50.1373 77.44 50.1376 77.4398C50.1382 77.4395 50.1382 77.4395 50.1376 77.4398C50.1363 77.4405 50.1328 77.4423 50.127 77.4451C50.1153 77.4508 50.0948 77.4606 50.0663 77.4733C50.0091 77.4988 49.9208 77.5355 49.8082 77.5744C49.5803 77.6532 49.268 77.7355 48.9205 77.7591C48.2527 77.8045 47.4636 77.6423 46.8111 76.7546L45.4869 77.7279ZM50.9083 78.8913C51.5398 78.5508 52.0326 78.1288 52.3759 77.6148C52.7212 77.0978 52.8858 76.5313 52.9243 75.9488C52.9985 74.826 52.6031 73.6051 52.1302 72.4285L50.6054 73.0415C51.0745 74.2085 51.3318 75.123 51.2844 75.8404C51.2621 76.178 51.1724 76.4577 51.0092 76.7021C50.8439 76.9496 50.5741 77.2043 50.1282 77.4448L50.9083 78.8913ZM52.1315 72.4317C51.1843 70.0469 49.9411 67.7908 48.4322 65.7162L47.1031 66.6829C48.5313 68.6465 49.7078 70.7816 50.6041 73.0383L52.1315 72.4317ZM48.3296 66.7991C48.8039 66.3545 49.2605 65.9695 49.7099 65.7349C50.1449 65.5079 50.4941 65.4617 50.8151 65.5682L51.3324 64.0083C50.4499 63.7156 49.6265 63.9247 48.9495 64.278C48.287 64.6237 47.6923 65.1439 47.2057 65.6L48.3296 66.7991ZM50.814 65.5678C51.1601 65.6831 51.4359 65.9674 51.6546 66.4762C51.8766 66.9928 51.994 67.6417 52.0649 68.2986L53.6988 68.1222C53.623 67.4197 53.4853 66.5738 53.1645 65.8273C52.8403 65.073 52.2855 64.3259 51.3336 64.0086L50.814 65.5678ZM52.065 68.2993C52.0994 68.6157 52.1339 68.9304 52.1684 69.2446C52.203 69.559 52.2374 69.8729 52.2718 70.1884L53.9056 70.0106C53.8711 69.6942 53.8366 69.3795 53.8021 69.0653C53.7676 68.7509 53.7331 68.437 53.6987 68.1215L52.065 68.2993ZM52.272 70.1907L53.3114 79.4975L54.9447 79.3151L53.9053 70.0083L52.272 70.1907ZM53.3115 79.4978C53.6566 82.5765 54.0083 85.7668 54.7761 88.845L56.3707 88.4473C55.634 85.4939 55.2922 82.415 54.9447 79.3147L53.3115 79.4978ZM54.7741 88.8368C55.1747 90.5165 55.7296 92.1559 56.4316 93.7333L57.9331 93.0651C57.2722 91.5802 56.7499 90.0369 56.3727 88.4555L54.7741 88.8368ZM56.4321 93.7343C57.4279 95.9637 58.8355 97.9846 60.5811 99.6905L61.7298 98.5152C60.1324 96.9541 58.8441 95.1046 57.9326 93.064L56.4321 93.7343ZM61.7342 99.6861C63.8657 97.5711 65.7321 95.2046 67.2924 92.6377L65.8881 91.7841C64.3971 94.237 62.6135 96.4984 60.5766 98.5196L61.7342 99.6861ZM66.3343 92.9917C69.0036 93.8668 70.8948 96.2537 71.1377 99.0574L72.775 98.9155C72.4754 95.4568 70.1421 92.5106 66.8463 91.4301L66.3343 92.9917ZM71.1346 98.9864V99.0645H72.7781V98.9864H71.1346ZM71.1392 99.151C71.4007 101.624 70.355 103.839 68.6194 105.799C66.8795 107.764 64.5065 109.4 62.2924 110.667L63.1086 112.093C65.3893 110.788 67.9383 109.048 69.8498 106.889C71.7656 104.725 73.1004 102.069 72.7735 98.9781L71.1392 99.151ZM62.2905 110.668C57.1678 113.617 51.4398 115.835 45.7771 117.688L46.2883 119.25C51.9981 117.381 57.8469 115.122 63.1105 112.092L62.2905 110.668ZM45.7763 117.688C43.4497 118.453 40.6248 119.026 38.4186 118.31L37.9114 119.873C40.6562 120.764 43.9263 120.026 46.2892 119.25L45.7763 117.688ZM38.4145 118.309C38.1861 118.236 37.9625 118.147 37.7454 118.041L37.0279 119.52C37.3145 119.659 37.6111 119.778 37.9156 119.875L38.4145 118.309ZM37.7489 118.043C35.5334 116.955 33.9865 114.631 32.6965 112.307L31.2595 113.105C32.5472 115.425 34.3035 118.182 37.0245 119.518L37.7489 118.043ZM32.6964 112.307C26.6052 101.34 24.0572 88.7119 22.711 76.1174L21.0769 76.2921C22.4315 88.9655 25.0097 101.852 31.2596 113.105L32.6964 112.307ZM22.0063 77.0187C24.7141 76.6448 27.4292 76.2259 30.1172 75.6466L29.771 74.0401C27.1429 74.6064 24.4754 75.0187 21.7815 75.3908L22.0063 77.0187ZM29.9441 74.8433C29.1224 74.8434 29.1224 74.8437 29.1224 74.8441C29.1224 74.8442 29.1224 74.8446 29.1224 74.8448C29.1224 74.8453 29.1224 74.8457 29.1224 74.8462C29.1224 74.8472 29.1224 74.8481 29.1224 74.8491C29.1224 74.851 29.1225 74.853 29.1225 74.855C29.1225 74.859 29.1226 74.8631 29.1228 74.8673C29.123 74.8758 29.1234 74.8848 29.124 74.8943C29.1251 74.9131 29.1271 74.9347 29.1303 74.9584C29.1366 75.0042 29.149 75.0668 29.1751 75.1377C29.2283 75.2821 29.3577 75.5025 29.6311 75.6222L30.2904 74.1168C30.5472 74.2293 30.6683 74.4366 30.7173 74.5697C30.7413 74.635 30.7527 74.6924 30.7584 74.7344C30.7614 74.7562 30.7633 74.7763 30.7643 74.7941C30.7649 74.803 30.7653 74.8116 30.7655 74.8198C30.7656 74.8239 30.7657 74.8279 30.7658 74.8318C30.7658 74.8338 30.7658 74.8357 30.7658 74.8376C30.7658 74.8386 30.7658 74.8395 30.7658 74.8405C30.7658 74.841 30.7658 74.8414 30.7658 74.8419C30.7658 74.8421 30.7658 74.8425 30.7658 74.8426C30.7658 74.843 30.7658 74.8433 29.9441 74.8433ZM29.2568 75.2935L32.3207 80.3812L33.7286 79.5333L30.6647 74.4456L29.2568 75.2935ZM32.3181 80.3767L32.5695 80.8001L33.9826 79.9612L33.7312 79.5378L32.3181 80.3767ZM32.6026 80.8514C33.5093 82.1486 35.0272 82.4158 36.2616 82.309L36.12 80.6717C35.1565 80.755 34.3718 80.514 33.9495 79.9099L32.6026 80.8514ZM36.2313 82.3111C37.0987 82.2683 37.9318 81.9588 38.6172 81.4264L37.6091 80.1284C37.1893 80.4545 36.6798 80.6435 36.1504 80.6696L36.2313 82.3111ZM38.6405 81.4076C39.1946 80.9439 39.527 80.3934 39.6421 79.7814C39.7538 79.1874 39.646 78.6149 39.4677 78.1157C39.1277 77.1644 38.4138 76.2097 38.0238 75.6082L36.6449 76.5025C37.1378 77.2625 37.6653 77.9558 37.9201 78.6687C38.039 79.0016 38.0669 79.2652 38.027 79.4776C37.9904 79.6719 37.8838 79.8979 37.5858 80.1472L38.6405 81.4076Z" fill="black" mask="url(#path-15-inside-2_1_925)"/>
<mask id="path-17-inside-3_1_925" fill="white">
<path d="M39.9096 79.6507C41.0963 81.2454 43.3175 81.7658 44.972 80.6726C45.9756 80.0072 46.5645 78.6812 45.7169 76.6325C45.8714 76.8585 46.0114 77.0579 46.149 77.2412C47.8626 79.5726 50.5182 78.1681 50.5182 78.1681C52.6731 77.006 52.3098 75.0786 51.3678 72.735C50.4461 70.4143 49.2362 68.2186 47.7677 66.1996C48.7286 65.2989 49.8702 64.389 51.0738 64.7882C52.3718 65.2208 52.7351 66.8509 52.8818 68.2104C52.9506 68.8424 53.0199 69.4675 53.0887 70.0995L54.1281 79.4063C54.4744 82.4958 54.8212 85.6304 55.5734 88.6461C55.9623 90.2767 56.5009 91.868 57.1824 93.3992C58.136 95.5342 59.484 97.4693 61.1554 99.1028C63.2396 97.0348 65.0646 94.7208 66.5903 92.2109C69.5729 93.1887 71.6851 95.8552 71.9563 98.9864V99.0645C72.5448 104.628 67.1952 108.808 62.7005 111.38C57.5073 114.369 51.7189 116.608 46.0327 118.469C43.688 119.239 40.6405 119.895 38.165 119.092C37.8986 119.007 37.6385 118.903 37.3867 118.78C34.9185 117.568 33.2668 115.028 31.978 112.706C25.8075 101.596 23.2443 88.8387 21.8939 76.2048C24.5947 75.8318 27.286 75.4161 29.9441 74.8433C29.9441 74.8433 29.9441 74.8623 29.9607 74.8695L33.0247 79.9572L33.276 80.3807C33.9406 81.3313 35.0918 81.5854 36.1908 81.4903C36.8893 81.4559 37.5606 81.2066 38.1132 80.7774C39.8171 79.3515 38.2173 77.4168 37.3344 76.0554"/>
</mask>
<path d="M39.9096 79.6507C41.0963 81.2454 43.3175 81.7658 44.972 80.6726C45.9756 80.0072 46.5645 78.6812 45.7169 76.6325C45.8714 76.8585 46.0114 77.0579 46.149 77.2412C47.8626 79.5726 50.5182 78.1681 50.5182 78.1681C52.6731 77.006 52.3098 75.0786 51.3678 72.735C50.4461 70.4143 49.2362 68.2186 47.7677 66.1996C48.7286 65.2989 49.8702 64.389 51.0738 64.7882C52.3718 65.2208 52.7351 66.8509 52.8818 68.2104C52.9506 68.8424 53.0199 69.4675 53.0887 70.0995L54.1281 79.4063C54.4744 82.4958 54.8212 85.6304 55.5734 88.6461C55.9623 90.2767 56.5009 91.868 57.1824 93.3992C58.136 95.5342 59.484 97.4693 61.1554 99.1028C63.2396 97.0348 65.0646 94.7208 66.5903 92.2109C69.5729 93.1887 71.6851 95.8552 71.9563 98.9864V99.0645C72.5448 104.628 67.1952 108.808 62.7005 111.38C57.5073 114.369 51.7189 116.608 46.0327 118.469C43.688 119.239 40.6405 119.895 38.165 119.092C37.8986 119.007 37.6385 118.903 37.3867 118.78C34.9185 117.568 33.2668 115.028 31.978 112.706C25.8075 101.596 23.2443 88.8387 21.8939 76.2048C24.5947 75.8318 27.286 75.4161 29.9441 74.8433C29.9441 74.8433 29.9441 74.8623 29.9607 74.8695L33.0247 79.9572L33.276 80.3807C33.9406 81.3313 35.0918 81.5854 36.1908 81.4903C36.8893 81.4559 37.5606 81.2066 38.1132 80.7774C39.8171 79.3515 38.2173 77.4168 37.3344 76.0554" fill="#51A951"/>
<path d="M44.972 80.6726L45.425 81.3582L45.4261 81.3575L44.972 80.6726ZM45.7169 76.6325L46.3953 76.1688L44.9576 76.9467L45.7169 76.6325ZM46.149 77.2412L46.8111 76.7545L46.8062 76.7481L46.149 77.2412ZM50.5182 78.1681L50.9024 78.8945L50.9083 78.8913L50.5182 78.1681ZM51.3678 72.735L50.6041 73.0383L50.6054 73.0415L51.3678 72.735ZM47.7677 66.1996L47.2057 65.6L46.6764 66.0962L47.1031 66.6829L47.7677 66.1996ZM51.0738 64.7882L51.3336 64.0086L51.3324 64.0083L51.0738 64.7882ZM52.8818 68.2104L52.0649 68.2986L52.065 68.2993L52.8818 68.2104ZM53.0887 70.0995L52.2718 70.1884L52.272 70.1907L53.0887 70.0995ZM54.1281 79.4063L53.3114 79.4975L53.3115 79.4978L54.1281 79.4063ZM55.5734 88.6461L56.3727 88.4555L56.3707 88.4473L55.5734 88.6461ZM57.1824 93.3992L56.4316 93.7333L56.4321 93.7343L57.1824 93.3992ZM61.1554 99.1028L60.5811 99.6905L61.1598 100.256L61.7342 99.6861L61.1554 99.1028ZM66.5903 92.2109L66.8463 91.4301L66.2267 91.227L65.8881 91.7841L66.5903 92.2109ZM71.9563 98.9864H72.7781V98.9509L72.775 98.9155L71.9563 98.9864ZM71.9563 99.0645H71.1346V99.1079L71.1392 99.151L71.9563 99.0645ZM62.7005 111.38L62.2924 110.667L62.2905 110.668L62.7005 111.38ZM46.0327 118.469L45.7771 117.688L45.7763 117.688L46.0327 118.469ZM38.165 119.092L38.4186 118.31L38.4145 118.309L38.165 119.092ZM37.3867 118.78L37.0245 119.518L37.0279 119.52L37.3867 118.78ZM31.978 112.706L32.6965 112.307L32.6964 112.307L31.978 112.706ZM21.8939 76.2048L21.7815 75.3908L20.9922 75.4998L21.0769 76.2921L21.8939 76.2048ZM29.9441 74.8433L30.7658 74.8433L30.7658 73.8257L29.771 74.0401L29.9441 74.8433ZM29.9607 74.8695L30.6647 74.4456L30.5298 74.2217L30.2904 74.1168L29.9607 74.8695ZM33.0247 79.9572L33.7313 79.5377L33.7286 79.5333L33.0247 79.9572ZM33.276 80.3807L32.5695 80.8001L32.5851 80.8264L32.6026 80.8514L33.276 80.3807ZM36.1908 81.4903L36.1504 80.6696L36.1352 80.6704L36.12 80.6717L36.1908 81.4903ZM38.1132 80.7774L38.6172 81.4264L38.6291 81.4172L38.6405 81.4076L38.1132 80.7774ZM39.2504 80.1413C40.6652 82.0425 43.3634 82.7204 45.425 81.3582L44.519 79.987C43.2716 80.8113 41.5274 80.4483 40.5689 79.1602L39.2504 80.1413ZM45.4261 81.3575C46.0813 80.9231 46.6149 80.2596 46.8361 79.3695C47.0555 78.4868 46.9488 77.4605 46.4762 76.3184L44.9576 76.9467C45.3327 77.8532 45.3553 78.5142 45.2412 78.9731C45.129 79.4245 44.8663 79.7568 44.5179 79.9878L45.4261 81.3575ZM45.0386 77.0963C45.1959 77.3265 45.3436 77.5371 45.4917 77.7344L46.8062 76.7481C46.6792 76.5787 46.5469 76.3906 46.3953 76.1688L45.0386 77.0963ZM45.4869 77.7279C46.548 79.1715 47.9435 79.4728 49.032 79.3987C49.5626 79.3627 50.0213 79.2395 50.3448 79.1278C50.508 79.0714 50.6406 79.0166 50.7353 78.9744C50.7827 78.9533 50.821 78.9352 50.849 78.9214C50.8631 78.9145 50.8747 78.9088 50.8836 78.9042C50.888 78.9019 50.8919 78.9 50.895 78.8983C50.8966 78.8975 50.898 78.8968 50.8992 78.8961C50.8998 78.8958 50.9004 78.8955 50.901 78.8952C50.9012 78.8951 50.9016 78.8949 50.9017 78.8948C50.9021 78.8946 50.9024 78.8944 50.5182 78.1681C50.1341 77.4417 50.1344 77.4415 50.1347 77.4413C50.1348 77.4413 50.1351 77.4411 50.1353 77.441C50.1357 77.4408 50.136 77.4407 50.1363 77.4405C50.1369 77.4402 50.1373 77.44 50.1376 77.4398C50.1382 77.4395 50.1382 77.4395 50.1376 77.4398C50.1363 77.4405 50.1328 77.4423 50.127 77.4451C50.1153 77.4508 50.0948 77.4606 50.0663 77.4733C50.0091 77.4988 49.9208 77.5355 49.8082 77.5744C49.5803 77.6532 49.268 77.7355 48.9205 77.7591C48.2527 77.8045 47.4636 77.6423 46.8111 76.7546L45.4869 77.7279ZM50.9083 78.8913C51.5398 78.5508 52.0326 78.1288 52.3759 77.6148C52.7212 77.0978 52.8858 76.5313 52.9243 75.9488C52.9985 74.826 52.6031 73.6051 52.1302 72.4285L50.6054 73.0415C51.0745 74.2085 51.3318 75.123 51.2844 75.8404C51.2621 76.178 51.1724 76.4577 51.0092 76.7021C50.8439 76.9496 50.5741 77.2043 50.1282 77.4448L50.9083 78.8913ZM52.1315 72.4317C51.1843 70.0469 49.9411 67.7908 48.4322 65.7162L47.1031 66.6829C48.5313 68.6465 49.7078 70.7816 50.6041 73.0383L52.1315 72.4317ZM48.3296 66.7991C48.8039 66.3545 49.2605 65.9695 49.7099 65.7349C50.1449 65.5079 50.4941 65.4617 50.8151 65.5682L51.3324 64.0083C50.4499 63.7156 49.6265 63.9247 48.9495 64.278C48.287 64.6237 47.6923 65.1439 47.2057 65.6L48.3296 66.7991ZM50.814 65.5678C51.1601 65.6831 51.4359 65.9674 51.6546 66.4762C51.8766 66.9928 51.994 67.6417 52.0649 68.2986L53.6988 68.1222C53.623 67.4197 53.4853 66.5738 53.1645 65.8273C52.8403 65.073 52.2855 64.3259 51.3336 64.0086L50.814 65.5678ZM52.065 68.2993C52.0994 68.6157 52.1339 68.9304 52.1684 69.2446C52.203 69.559 52.2374 69.8729 52.2718 70.1884L53.9056 70.0106C53.8711 69.6942 53.8366 69.3795 53.8021 69.0653C53.7676 68.7509 53.7331 68.437 53.6987 68.1215L52.065 68.2993ZM52.272 70.1907L53.3114 79.4975L54.9447 79.3151L53.9053 70.0083L52.272 70.1907ZM53.3115 79.4978C53.6566 82.5765 54.0083 85.7668 54.7761 88.845L56.3707 88.4473C55.634 85.4939 55.2922 82.415 54.9447 79.3147L53.3115 79.4978ZM54.7741 88.8368C55.1747 90.5165 55.7296 92.1559 56.4316 93.7333L57.9331 93.0651C57.2722 91.5802 56.7499 90.0369 56.3727 88.4555L54.7741 88.8368ZM56.4321 93.7343C57.4279 95.9637 58.8355 97.9846 60.5811 99.6905L61.7298 98.5152C60.1324 96.9541 58.8441 95.1046 57.9326 93.064L56.4321 93.7343ZM61.7342 99.6861C63.8657 97.5711 65.7321 95.2046 67.2924 92.6377L65.8881 91.7841C64.3971 94.237 62.6135 96.4984 60.5766 98.5196L61.7342 99.6861ZM66.3343 92.9917C69.0036 93.8668 70.8948 96.2537 71.1377 99.0574L72.775 98.9155C72.4754 95.4568 70.1421 92.5106 66.8463 91.4301L66.3343 92.9917ZM71.1346 98.9864V99.0645H72.7781V98.9864H71.1346ZM71.1392 99.151C71.4007 101.624 70.355 103.839 68.6194 105.799C66.8795 107.764 64.5065 109.4 62.2924 110.667L63.1086 112.093C65.3893 110.788 67.9383 109.048 69.8498 106.889C71.7656 104.725 73.1004 102.069 72.7735 98.9781L71.1392 99.151ZM62.2905 110.668C57.1678 113.617 51.4398 115.835 45.7771 117.688L46.2883 119.25C51.9981 117.381 57.8469 115.122 63.1105 112.092L62.2905 110.668ZM45.7763 117.688C43.4497 118.453 40.6248 119.026 38.4186 118.31L37.9114 119.873C40.6562 120.764 43.9263 120.026 46.2892 119.25L45.7763 117.688ZM38.4145 118.309C38.1861 118.236 37.9625 118.147 37.7454 118.041L37.0279 119.52C37.3145 119.659 37.6111 119.778 37.9156 119.875L38.4145 118.309ZM37.7489 118.043C35.5334 116.955 33.9865 114.631 32.6965 112.307L31.2595 113.105C32.5472 115.425 34.3035 118.182 37.0245 119.518L37.7489 118.043ZM32.6964 112.307C26.6052 101.34 24.0572 88.7119 22.711 76.1174L21.0769 76.2921C22.4315 88.9655 25.0097 101.852 31.2596 113.105L32.6964 112.307ZM22.0063 77.0187C24.7141 76.6448 27.4292 76.2259 30.1172 75.6466L29.771 74.0401C27.1429 74.6064 24.4754 75.0187 21.7815 75.3908L22.0063 77.0187ZM29.9441 74.8433C29.1224 74.8434 29.1224 74.8437 29.1224 74.8441C29.1224 74.8442 29.1224 74.8446 29.1224 74.8448C29.1224 74.8453 29.1224 74.8457 29.1224 74.8462C29.1224 74.8472 29.1224 74.8481 29.1224 74.8491C29.1224 74.851 29.1225 74.853 29.1225 74.855C29.1225 74.859 29.1226 74.8631 29.1228 74.8673C29.123 74.8758 29.1234 74.8848 29.124 74.8943C29.1251 74.9131 29.1271 74.9347 29.1303 74.9584C29.1366 75.0042 29.149 75.0668 29.1751 75.1377C29.2283 75.2821 29.3577 75.5025 29.6311 75.6222L30.2904 74.1168C30.5472 74.2293 30.6683 74.4366 30.7173 74.5697C30.7413 74.635 30.7527 74.6924 30.7584 74.7344C30.7614 74.7562 30.7633 74.7763 30.7643 74.7941C30.7649 74.803 30.7653 74.8116 30.7655 74.8198C30.7656 74.8239 30.7657 74.8279 30.7658 74.8318C30.7658 74.8338 30.7658 74.8357 30.7658 74.8376C30.7658 74.8386 30.7658 74.8395 30.7658 74.8405C30.7658 74.841 30.7658 74.8414 30.7658 74.8419C30.7658 74.8421 30.7658 74.8425 30.7658 74.8426C30.7658 74.843 30.7658 74.8433 29.9441 74.8433ZM29.2568 75.2935L32.3207 80.3812L33.7286 79.5333L30.6647 74.4456L29.2568 75.2935ZM32.3181 80.3767L32.5695 80.8001L33.9826 79.9612L33.7312 79.5378L32.3181 80.3767ZM32.6026 80.8514C33.5093 82.1486 35.0272 82.4158 36.2616 82.309L36.12 80.6717C35.1565 80.755 34.3718 80.514 33.9495 79.9099L32.6026 80.8514ZM36.2313 82.3111C37.0987 82.2683 37.9318 81.9588 38.6172 81.4264L37.6091 80.1284C37.1893 80.4545 36.6798 80.6435 36.1504 80.6696L36.2313 82.3111ZM38.6405 81.4076C39.1946 80.9439 39.527 80.3934 39.6421 79.7814C39.7538 79.1874 39.646 78.6149 39.4677 78.1157C39.1277 77.1644 38.4138 76.2097 38.0238 75.6082L36.6449 76.5025C37.1378 77.2625 37.6653 77.9558 37.9201 78.6687C38.039 79.0016 38.0669 79.2652 38.027 79.4776C37.9904 79.6719 37.8838 79.8979 37.5858 80.1472L38.6405 81.4076Z" fill="black" mask="url(#path-17-inside-3_1_925)"/>
<mask id="path-19-inside-4_1_925" fill="white">
<path d="M40.6381 80.404C41.6896 81.8299 43.4861 81.649 44.9721 80.6722C45.8691 80.0781 46.6048 80.2517 45.8478 78.4193C45.9877 78.6192 46.0066 77.944 46.1301 78.0939C47.6607 80.1755 46.149 77.2335 46.149 77.2335C48.285 79.9355 52.9342 77.3902 52.0822 75.3012C51.1804 73.0508 50.2311 69.7237 49.028 68.0601C49.9773 67.1619 49.7942 67.2948 51.0026 68.0101C51.6604 68.4336 52.0813 69.1422 52.1394 69.9235C52.2368 70.8285 52.3336 71.6962 52.431 72.5804L53.3566 80.8982C53.6675 83.6618 53.976 86.4544 54.6478 89.1448C54.9951 90.5993 55.4765 92.0189 56.0858 93.3842C56.9359 95.2641 59.6652 98.3943 61.1555 99.827C63.0091 97.9854 65.2303 94.5986 66.5903 92.3482C69.201 93.1514 69.0871 95.6516 69.2721 98.3822V98.4535C69.7991 103.418 65.024 107.147 61.0223 109.445C56.3852 112.114 51.2182 114.11 46.1417 115.774C44.0489 116.463 41.3288 117.057 39.1192 116.33C38.8809 116.255 38.6484 116.162 38.4242 116.052C36.2214 114.968 34.7456 112.703 33.5943 110.629C28.5558 101.567 26.2181 91.2788 24.9318 80.9647C24.7356 79.3607 25.8439 77.8892 27.438 77.6375C28.8833 77.3999 30.324 77.1622 31.7552 76.8436L31.7954 76.863L34.5296 81.4041C35.1253 82.248 35.2222 81.5874 36.2025 81.5016C36.822 81.4472 38.0227 81.326 38.5022 80.9244C40.0235 79.6551 39.1643 79.1299 38.3767 77.9154"/>
</mask>
<path d="M40.6381 80.404C41.6896 81.8299 43.4861 81.649 44.9721 80.6722C45.8691 80.0781 46.6048 80.2517 45.8478 78.4193C45.9877 78.6192 46.0066 77.944 46.1301 78.0939C47.6607 80.1755 46.149 77.2335 46.149 77.2335C48.285 79.9355 52.9342 77.3902 52.0822 75.3012C51.1804 73.0508 50.2311 69.7237 49.028 68.0601C49.9773 67.1619 49.7942 67.2948 51.0026 68.0101C51.6604 68.4336 52.0813 69.1422 52.1394 69.9235C52.2368 70.8285 52.3336 71.6962 52.431 72.5804L53.3566 80.8982C53.6675 83.6618 53.976 86.4544 54.6478 89.1448C54.9951 90.5993 55.4765 92.0189 56.0858 93.3842C56.9359 95.2641 59.6652 98.3943 61.1555 99.827C63.0091 97.9854 65.2303 94.5986 66.5903 92.3482C69.201 93.1514 69.0871 95.6516 69.2721 98.3822V98.4535C69.7991 103.418 65.024 107.147 61.0223 109.445C56.3852 112.114 51.2182 114.11 46.1417 115.774C44.0489 116.463 41.3288 117.057 39.1192 116.33C38.8809 116.255 38.6484 116.162 38.4242 116.052C36.2214 114.968 34.7456 112.703 33.5943 110.629C28.5558 101.567 26.2181 91.2788 24.9318 80.9647C24.7356 79.3607 25.8439 77.8892 27.438 77.6375C28.8833 77.3999 30.324 77.1622 31.7552 76.8436L31.7954 76.863L34.5296 81.4041C35.1253 82.248 35.2222 81.5874 36.2025 81.5016C36.822 81.4472 38.0227 81.326 38.5022 80.9244C40.0235 79.6551 39.1643 79.1299 38.3767 77.9154" fill="#51A951"/>
<path d="M44.9721 80.6722L45.4234 81.3589L45.4258 81.3573L44.9721 80.6722ZM45.8478 78.4193L46.5208 77.9479L45.0883 78.7331L45.8478 78.4193ZM46.1301 78.0939L46.7922 77.6071L46.7787 77.5888L46.7642 77.5713L46.1301 78.0939ZM46.149 77.2335L46.7936 76.7239L45.4181 77.609L46.149 77.2335ZM52.0822 75.3012L51.3195 75.6069L51.3214 75.6116L52.0822 75.3012ZM49.028 68.0601L48.4632 67.4632L47.9401 67.9582L48.3621 68.5417L49.028 68.0601ZM51.0026 68.0101L51.4474 67.3192L51.4345 67.3109L51.4212 67.303L51.0026 68.0101ZM52.1394 69.9235L51.3199 69.9845L51.3209 69.9979L51.3224 70.0114L52.1394 69.9235ZM52.431 72.5804L51.6142 72.6703L51.6143 72.6712L52.431 72.5804ZM53.3566 80.8982L52.5399 80.9891L52.54 80.9901L53.3566 80.8982ZM54.6478 89.1448L55.4471 88.9539L55.4451 88.9457L54.6478 89.1448ZM56.0858 93.3842L55.3355 93.7191L55.3371 93.7228L56.0858 93.3842ZM61.1555 99.827L60.586 100.419L61.1649 100.976L61.7346 100.41L61.1555 99.827ZM66.5903 92.3482L66.832 91.5628L66.2188 91.3742L65.8871 91.9232L66.5903 92.3482ZM69.2721 98.3822H70.0939V98.3544L70.092 98.3266L69.2721 98.3822ZM69.2721 98.4535H68.4504V98.497L68.455 98.5402L69.2721 98.4535ZM61.0223 109.445L60.613 108.733L60.6124 108.733L61.0223 109.445ZM46.1417 115.774L45.8859 114.993L45.8847 114.993L46.1417 115.774ZM39.1192 116.33L39.3761 115.549L39.3664 115.546L39.1192 116.33ZM38.4242 116.052L38.0614 116.789L38.0633 116.79L38.4242 116.052ZM33.5943 110.629L34.3128 110.23L34.3125 110.229L33.5943 110.629ZM24.9318 80.9647L24.1161 81.0644L24.1164 81.0663L24.9318 80.9647ZM27.438 77.6375L27.5662 78.4492L27.5713 78.4483L27.438 77.6375ZM31.7552 76.8436L32.1123 76.1035L31.8553 75.9795L31.5767 76.0415L31.7552 76.8436ZM31.7954 76.863L32.4994 76.4391L32.3731 76.2293L32.1525 76.1229L31.7954 76.863ZM34.5296 81.4041L33.8256 81.8279L33.841 81.8535L33.8583 81.878L34.5296 81.4041ZM36.2025 81.5016L36.2742 82.3201L36.2743 82.3201L36.2025 81.5016ZM38.5022 80.9244L37.9758 80.2934L37.9746 80.2944L38.5022 80.9244ZM39.9768 80.8917C40.6654 81.8255 41.6255 82.2464 42.6305 82.2608C43.6039 82.2746 44.5837 81.9108 45.4234 81.3589L44.5207 79.9855C43.8744 80.4104 43.2131 80.6254 42.6539 80.6175C42.1263 80.61 41.6623 80.4084 41.2995 79.9163L39.9768 80.8917ZM45.4258 81.3573C45.6035 81.2396 45.7557 81.1699 45.9747 81.0553C46.1543 80.9613 46.4575 80.8002 46.6797 80.5135C46.9378 80.1804 47.0125 79.7888 46.9746 79.3842C46.9396 79.0107 46.8065 78.588 46.6072 78.1056L45.0883 78.7331C45.2675 79.1669 45.3263 79.4095 45.3383 79.5374C45.3474 79.6342 45.3239 79.58 45.3807 79.5067C45.4014 79.4799 45.3998 79.5013 45.2128 79.5991C45.0653 79.6763 44.7891 79.8078 44.5183 79.9871L45.4258 81.3573ZM45.1747 78.8908C45.2121 78.9441 45.275 79.0237 45.3704 79.0973C45.469 79.1735 45.6279 79.2621 45.8396 79.2764C46.0597 79.2913 46.2435 79.2196 46.3719 79.1338C46.4896 79.0551 46.5632 78.9641 46.603 78.9082C46.6452 78.849 46.6739 78.794 46.6921 78.756C46.711 78.7163 46.7255 78.6798 46.7361 78.6513C46.7564 78.5968 46.7727 78.5431 46.7819 78.5123C46.7941 78.472 46.7983 78.4576 46.8028 78.4441C46.8089 78.4258 46.8004 78.4565 46.775 78.5031C46.7617 78.5274 46.7299 78.5823 46.6736 78.6432C46.6189 78.7023 46.5044 78.8069 46.3212 78.8611C46.2267 78.889 46.1244 78.9001 46.0198 78.8901C45.9163 78.8802 45.8263 78.8512 45.7528 78.816C45.6137 78.7493 45.5315 78.6596 45.496 78.6165L46.7642 77.5713C46.7133 77.5095 46.6165 77.4075 46.4635 77.3341C46.383 77.2955 46.2862 77.2646 46.1762 77.2541C46.0649 77.2435 45.9561 77.2552 45.8553 77.285C45.6595 77.3429 45.533 77.456 45.4668 77.5276C45.3989 77.601 45.3561 77.6723 45.3322 77.7161C45.2854 77.8018 45.2571 77.8841 45.244 77.9233C45.2294 77.9672 45.215 78.0162 45.2083 78.0385C45.1987 78.0702 45.1959 78.0782 45.1959 78.078C45.1964 78.0767 45.2006 78.0656 45.2087 78.0485C45.2161 78.0331 45.2336 77.9981 45.2641 77.9552C45.2922 77.9158 45.3536 77.8377 45.4585 77.7675C45.5741 77.6903 45.7444 77.6228 45.9504 77.6367C46.148 77.6501 46.292 77.7326 46.3749 77.7966C46.4545 77.8581 46.5009 77.9196 46.5208 77.9479L45.1747 78.8908ZM45.4681 78.5807C45.6647 78.848 45.8255 79.0529 45.9551 79.1993C46.0188 79.2713 46.0885 79.3446 46.1612 79.4077C46.2013 79.4426 46.3606 79.5846 46.5945 79.6385C46.7388 79.6717 46.9915 79.6878 47.2416 79.5289C47.484 79.3749 47.5745 79.1504 47.6073 79.0262C47.6634 78.8134 47.6241 78.6243 47.6151 78.5787C47.5859 78.4293 47.5268 78.2674 47.4784 78.144C47.3729 77.8753 47.2201 77.5488 47.1009 77.3026C47.0399 77.1766 46.985 77.0662 46.9454 76.9872C46.9255 76.9476 46.9094 76.9158 46.8981 76.8936C46.8925 76.8825 46.888 76.8738 46.885 76.8678C46.8834 76.8648 46.8822 76.8625 46.8814 76.8608C46.8809 76.86 46.8806 76.8593 46.8804 76.8589C46.8802 76.8586 46.8801 76.8584 46.8801 76.8583C46.88 76.8582 46.88 76.8581 46.88 76.8581C46.8799 76.858 46.8799 76.858 46.149 77.2335C45.4181 77.609 45.4181 77.609 45.4181 77.609C45.4181 77.609 45.4181 77.609 45.4181 77.609C45.4181 77.609 45.4182 77.6091 45.4182 77.6092C45.4183 77.6095 45.4185 77.6099 45.4188 77.6104C45.4194 77.6116 45.4204 77.6134 45.4217 77.6159C45.4242 77.6209 45.4281 77.6285 45.4331 77.6385C45.4433 77.6584 45.4581 77.6877 45.4766 77.7245C45.5136 77.7983 45.5649 77.9015 45.6217 78.0188C45.7381 78.2592 45.8676 78.5381 45.9486 78.7446C45.9935 78.8589 46.0038 78.9021 46.0023 78.8942C46.001 78.888 45.9964 78.8636 45.9945 78.8268C45.9929 78.7972 45.9901 78.7137 46.0181 78.6073C46.0463 78.5006 46.129 78.2887 46.3602 78.1418C46.5991 77.99 46.8371 78.0079 46.963 78.0369C47.0813 78.0641 47.1599 78.112 47.1858 78.1284C47.2184 78.1491 47.237 78.1654 47.2392 78.1673C47.2432 78.1707 47.227 78.1567 47.1856 78.1099C47.1049 78.0187 46.9782 77.8602 46.7922 77.6071L45.4681 78.5807ZM45.5044 77.7431C46.8825 79.4864 49.0301 79.4665 50.5563 78.8207C51.3283 78.4941 52.0296 77.9789 52.4841 77.3414C52.9429 76.6978 53.1935 75.8499 52.8431 74.9909L51.3214 75.6116C51.397 75.797 51.3859 76.0507 51.1459 76.3874C50.9015 76.7302 50.4667 77.0741 49.9159 77.3072C48.7965 77.7808 47.5515 77.6826 46.7936 76.7239L45.5044 77.7431ZM52.845 74.9956C52.3911 73.863 51.961 72.5541 51.4365 71.1695C50.9369 69.8507 50.3664 68.5085 49.6938 67.5786L48.3621 68.5417C48.8927 69.2753 49.3984 70.4285 49.8996 71.7517C50.376 73.0092 50.8715 74.4891 51.3195 75.6069L52.845 74.9956ZM49.5927 68.657C49.8505 68.4131 49.9742 68.2954 50.064 68.2272C50.1399 68.1695 50.0523 68.2588 49.8801 68.2509C49.7662 68.2456 49.7271 68.1953 49.8998 68.2973C49.9722 68.3401 50.0558 68.3928 50.1741 68.4668C50.2883 68.5382 50.4243 68.6227 50.584 68.7173L51.4212 67.303C51.2789 67.2188 51.1563 67.1426 51.0454 67.0733C50.9388 67.0066 50.831 66.9386 50.7358 66.8824C50.5733 66.7864 50.294 66.6248 49.9561 66.6092C49.56 66.5908 49.2646 66.7706 49.0701 66.9183C48.8895 67.0555 48.6801 67.258 48.4632 67.4632L49.5927 68.657ZM50.5579 68.7011C50.9983 68.9846 51.2809 69.4597 51.3199 69.9845L52.9589 69.8625C52.8817 68.8246 52.3225 67.8825 51.4474 67.3192L50.5579 68.7011ZM51.3224 70.0114C51.4199 70.9178 51.517 71.7877 51.6142 72.6703L53.2478 72.4904C53.1502 71.6047 53.0536 70.7393 52.9564 69.8356L51.3224 70.0114ZM51.6143 72.6712L52.5399 80.9891L54.1732 80.8073L53.2477 72.4895L51.6143 72.6712ZM52.54 80.9901C52.8497 83.7424 53.1632 86.5911 53.8506 89.3438L55.4451 88.9457C54.7889 86.3178 54.4853 83.5811 54.1731 80.8063L52.54 80.9901ZM53.8486 89.3356C54.2076 90.8395 54.7054 92.3073 55.3355 93.7191L56.8362 93.0493C56.2477 91.7305 55.7826 90.3591 55.4471 88.9539L53.8486 89.3356ZM55.3371 93.7228C55.8092 94.7668 56.7633 96.0892 57.7435 97.2923C58.7362 98.5109 59.8135 99.6768 60.586 100.419L61.725 99.2346C61.0071 98.5446 59.9746 97.429 59.0176 96.2543C58.048 95.0642 57.2125 93.8815 56.8346 93.0456L55.3371 93.7228ZM61.7346 100.41C63.6681 98.489 65.935 95.0213 67.2936 92.7732L65.8871 91.9232C64.5256 94.176 62.35 97.4819 60.5763 99.2441L61.7346 100.41ZM66.3487 93.1336C66.8792 93.2968 67.2309 93.5319 67.4804 93.8027C67.7338 94.0777 67.9188 94.43 68.054 94.8792C68.34 95.8297 68.3544 96.9931 68.4523 98.4377L70.092 98.3266C70.0048 97.0407 69.9837 95.5887 69.6277 94.4056C69.4419 93.788 69.1543 93.194 68.689 92.6891C68.2198 92.1799 67.6067 91.8012 66.832 91.5628L66.3487 93.1336ZM68.4504 98.3822V98.4535H70.0939V98.3822H68.4504ZM68.455 98.5402C68.6857 100.713 67.7682 102.666 66.2301 104.405C64.6876 106.148 62.5811 107.602 60.613 108.733L61.4316 110.158C63.4651 108.99 65.7471 107.43 67.4609 105.494C69.1789 103.552 70.3856 101.158 70.0893 98.3667L68.455 98.5402ZM60.6124 108.733C56.0457 111.361 50.9392 113.337 45.8859 114.993L46.3976 116.554C51.4972 114.883 56.7246 112.866 61.4321 110.157L60.6124 108.733ZM45.8847 114.993C43.8075 115.677 41.3133 116.187 39.3761 115.549L38.8624 117.11C41.3443 117.927 44.2903 117.248 46.3988 116.554L45.8847 114.993ZM39.3664 115.546C39.1675 115.483 38.973 115.406 38.785 115.314L38.0633 116.79C38.3239 116.918 38.5943 117.026 38.872 117.113L39.3664 115.546ZM38.787 115.315C36.8361 114.355 35.4647 112.305 34.3128 110.23L32.8758 111.027C34.0265 113.101 35.6067 115.581 38.0614 116.789L38.787 115.315ZM34.3125 110.229C29.3476 101.3 27.0278 91.131 25.7472 80.863L24.1164 81.0663C25.4085 91.4266 27.764 101.834 32.8761 111.028L34.3125 110.229ZM25.7474 80.8649C25.6049 79.6993 26.4103 78.6317 27.5661 78.4492L27.3098 76.8259C25.2775 77.1468 23.8664 79.0221 24.1161 81.0644L25.7474 80.8649ZM27.5713 78.4483C29.0133 78.2112 30.4765 77.9701 31.9338 77.6456L31.5767 76.0415C30.1715 76.3543 28.7533 76.5885 27.3047 76.8267L27.5713 78.4483ZM31.3982 77.5836L31.4384 77.603L32.1525 76.1229L32.1123 76.1035L31.3982 77.5836ZM31.0915 77.2868L33.8256 81.8279L35.2335 80.9802L32.4994 76.4391L31.0915 77.2868ZM33.8583 81.878C34.0248 82.1138 34.2373 82.3689 34.5299 82.5188C34.8928 82.7047 35.231 82.6608 35.471 82.5845C35.5728 82.5521 35.668 82.5104 35.7294 82.4835C35.8011 82.4521 35.8514 82.4295 35.9094 82.407C36.0126 82.3668 36.1251 82.3332 36.2742 82.3201L36.1308 80.683C35.7897 80.7128 35.5225 80.794 35.3133 80.8755C35.215 80.9137 35.1258 80.9537 35.0695 80.9784C35.0029 81.0076 34.9814 81.0156 34.9727 81.0184C34.9688 81.0197 35.0102 81.0055 35.0779 81.0068C35.1543 81.0083 35.225 81.0284 35.279 81.056C35.3552 81.0951 35.3323 81.1163 35.2009 80.9302L33.8583 81.878ZM36.2743 82.3201C36.5869 82.2927 37.0805 82.2458 37.5656 82.149C38.0064 82.0611 38.615 81.9017 39.0298 81.5544L37.9746 80.2944C37.9098 80.3487 37.6783 80.4507 37.244 80.5374C36.854 80.6152 36.4376 80.6561 36.1307 80.683L36.2743 82.3201ZM39.0286 81.5554C39.4478 81.2056 39.7786 80.8472 39.9728 80.4516C40.1848 80.0197 40.2112 79.5894 40.0968 79.1788C39.9949 78.813 39.7887 78.4959 39.6162 78.2489C39.4154 77.9614 39.2566 77.762 39.0662 77.4683L37.6873 78.3625C37.8906 78.6761 38.1346 78.9977 38.2688 79.19C38.4314 79.4227 38.4925 79.5439 38.5137 79.6199C38.5224 79.6511 38.5276 79.666 38.4975 79.7275C38.4495 79.8253 38.3172 80.0086 37.9758 80.2934L39.0286 81.5554Z" fill="black" mask="url(#path-19-inside-4_1_925)"/>
</g>
<path d="M91.264 124.073C91.264 124.073 83.3822 121.478 83.2635 125.841" stroke="black" stroke-width="0.821721"/>
<path opacity="0.54" d="M77.664 127.11C77.0014 124.347 74.5332 122.399 71.6954 122.4L77.664 127.11ZM77.664 127.11L94.5856 166.755L77.664 127.11ZM21.1107 168.421L21.1044 168.396L21.0949 168.372L5.64736 128.742C5.29976 127.317 5.62279 125.81 6.52489 124.654L6.52494 124.654C7.4323 123.49 8.8242 122.81 10.298 122.811H10.2981L71.6954 122.811L71.6956 122.811C74.3429 122.81 76.6461 124.627 77.2645 127.206L77.2725 127.239L77.2861 127.271L94.1938 166.884C94.5222 168.301 94.1901 169.792 93.2898 170.936C92.3824 172.088 90.9979 172.76 89.5329 172.761C89.5329 172.761 89.5328 172.761 89.5328 172.761H26.6667H26.6664C24.04 172.763 21.749 170.974 21.1107 168.421Z" fill="white" stroke="black" stroke-width="0.821721"/>
<path d="M93.8281 130.764C93.8281 130.764 95.1072 131.937 94.621 133.616C94.2601 134.858 93.026 135.642 91.8035 135.217C87.9113 133.87 84.4061 131.581 83.5517 127.691C83.1478 125.721 83.0606 123.699 83.2931 121.702C83.4805 119.851 83.7532 117.852 84.3751 116.091C85.3244 113.386 88.232 111.502 91.0538 112.804" stroke="black" stroke-width="0.821721"/>
<path d="M77.664 127.11C77.0014 124.347 74.5332 122.399 71.6954 122.4L77.664 127.11ZM77.664 127.11L94.5856 166.755L77.664 127.11ZM21.1107 168.421L21.1044 168.396L21.0949 168.372L5.64736 128.742C5.29976 127.317 5.62279 125.81 6.52489 124.654L6.52494 124.654C7.4323 123.49 8.8242 122.81 10.298 122.811H10.2981L71.6954 122.811L71.6956 122.811C74.3429 122.81 76.6461 124.627 77.2645 127.206L77.2725 127.239L77.2861 127.271L94.1938 166.884C94.5222 168.301 94.1901 169.792 93.2898 170.936C92.3824 172.088 90.9979 172.76 89.5329 172.761C89.5329 172.761 89.5328 172.761 89.5328 172.761H26.6667H26.6664C24.04 172.763 21.749 170.974 21.1107 168.421Z" fill="#51A951" stroke="black" stroke-width="0.821721"/>
<path fill-rule="evenodd" clip-rule="evenodd" d="M20.7121 168.521L5.25486 128.866C4.8668 127.311 5.21578 125.664 6.20093 124.401C7.18609 123.138 8.69754 122.399 10.2981 122.4H71.6954C74.5332 122.399 77.0014 124.347 77.664 127.11L94.5856 166.755C94.9561 168.305 94.5977 169.939 93.6125 171.19C92.6274 172.441 91.124 173.171 89.5329 173.172H26.6667C23.8513 173.174 21.3961 171.256 20.7121 168.521Z" stroke="black" stroke-width="0.821721" stroke-linecap="square" stroke-linejoin="round"/>
<path d="M23.3662 166.798L23.3725 166.823C23.9625 169.158 26.0612 170.792 28.4656 170.791H28.4659H86.4642C86.4642 170.791 86.4643 170.791 86.4643 170.791C87.8064 170.79 89.0746 170.174 89.9059 169.119L89.906 169.119C90.7307 168.073 91.0356 166.708 90.7362 165.41L75.1364 128.866L75.1228 128.834L75.1147 128.8C74.5473 126.436 72.4353 124.77 70.0084 124.771L70.0082 124.771L13.367 124.771C12.0173 124.771 10.7425 125.393 9.91121 126.459L23.3662 166.798ZM23.3662 166.798L23.3569 166.775M23.3662 166.798L23.3569 166.775M23.3569 166.775L9.10556 130.201M23.3569 166.775L9.10556 130.201M9.10556 130.201C8.78871 128.896 9.08513 127.518 9.91115 126.459L9.10556 130.201Z" fill="#51A951" stroke="black" stroke-width="0.821721"/>
<path d="M144.194 161.182L155.054 186.347" stroke="black" stroke-width="0.821721"/>
<path d="M94.699 72.7688C92.9384 74.5109 90.3084 74.5085 88.8108 72.8973" stroke="black" stroke-width="0.821721"/>
<path d="M47.7677 66.1924C48.7286 65.2918 49.8702 64.3814 51.0734 64.7806C52.3719 65.2132 52.7347 66.8433 52.8819 68.2028C53.2979 71.9388 53.7135 75.6709 54.1281 79.3987C54.6551 84.1517 55.2101 89.0187 57.1824 93.3867C58.1361 95.5217 59.484 97.4569 61.1555 99.0904" stroke="black" stroke-width="0.821721"/>
<path d="M71.9567 99.0626V98.984C71.6855 95.8529 69.5733 93.1863 66.5907 92.2085C65.065 94.7184 63.24 97.0329 61.1558 99.1005C55.691 104.542 48.6704 108.146 41.0681 109.412C41.4338 110.869 42.186 112.195 42.7057 113.597C43.2254 114.999 43.484 116.623 42.8529 117.975C42.0557 119.7 39.7676 119.475 38.1775 119.092C38.161 119.092 38.1514 119.092 38.1349 119.092" stroke="black" stroke-width="0.821721"/>
<path d="M29.95 74.8415C27.2919 75.4143 24.6006 75.8299 21.8998 76.2034C23.2502 88.8368 25.8038 101.594 31.984 112.704C33.2728 115.026 34.9244 117.567 37.3926 118.779C37.6445 118.901 37.9046 119.005 38.171 119.09C40.6465 119.905 43.6935 119.237 46.0387 118.467C51.7346 116.604 57.5133 114.368 62.706 111.378C67.1891 108.805 72.5387 104.627 71.9618 99.0632C71.9061 98.4501 71.7812 97.8458 71.5894 97.2614" stroke="black" stroke-width="0.821721"/>
<path d="M76.3823 46.4368C77.5115 46.7279 78.7067 46.664 79.8035 46.2479L79.8035 46.2479L79.8082 46.2461C80.1963 46.0934 80.6028 45.8588 81.0305 45.588C81.2718 45.4352 81.5342 45.2615 81.8099 45.0789C82.0162 44.9423 82.2301 44.8007 82.4482 44.6591C83.4865 43.9856 84.7394 43.2355 86.3277 42.6261C89.4937 41.4114 94.0458 40.736 100.917 42.4598L100.957 42.4698L100.998 42.4717L101.017 42.0613C100.998 42.4717 100.999 42.4717 100.999 42.4717L100.999 42.4717L101 42.4718L101.003 42.4719L101.013 42.4723L101.05 42.4736C101.082 42.4746 101.128 42.4757 101.187 42.4764C101.305 42.4779 101.473 42.4779 101.68 42.4718C102.092 42.4597 102.661 42.4236 103.283 42.3271C104.449 42.1461 105.904 41.7387 106.824 40.7847C106.829 40.9711 106.824 41.1516 106.819 41.3358C106.818 41.3598 106.817 41.3838 106.817 41.408C106.809 41.6749 106.804 41.9595 106.843 42.2401C106.928 42.8446 107.212 43.3869 107.937 43.9008C112.947 47.4538 115.512 54.7213 115.435 61.0155C115.409 62.505 115.135 63.9792 114.626 65.3785C114.585 65.4386 114.495 65.5569 114.351 65.7342C114.188 65.9357 113.973 66.1933 113.722 66.487C113.222 67.0741 112.585 67.7997 111.954 68.4982C111.323 69.1976 110.702 69.8658 110.233 70.34C110.084 70.49 109.953 70.6176 109.844 70.7193C109.84 70.7118 109.837 70.7043 109.833 70.6966C109.699 70.4243 109.516 70.0547 109.323 69.6639C109.023 69.0568 108.698 68.3997 108.49 67.9734C109.025 67.5637 109.521 67.1057 109.973 66.6044C111.015 65.6651 111.95 64.5296 112.362 63.2632C112.785 61.9623 112.644 60.5558 111.584 59.1595C111.144 58.5766 110.573 58.1063 109.917 57.7861L109.917 57.786L109.911 57.7831C109.104 57.4055 108.365 57.3249 107.698 57.5039C107.036 57.6813 106.497 58.1002 106.057 58.6278C105.366 59.4583 104.874 60.6163 104.509 61.7417C104.428 61.0303 104.345 60.3178 104.262 59.6024L104.262 59.602C104.15 58.6512 104.041 57.688 103.933 56.7235C103.815 55.6804 103.698 54.6356 103.575 53.6031L103.576 53.6031L103.575 53.5965C103.566 53.5357 103.56 53.378 103.553 53.1311L103.551 53.0774C103.545 52.8557 103.537 52.5913 103.523 52.3303C103.507 52.0501 103.484 51.7599 103.444 51.521C103.424 51.4024 103.398 51.2826 103.361 51.1777C103.331 51.0918 103.268 50.9364 103.129 50.8322L76.3823 46.4368ZM76.3823 46.4368C76.1517 47.058 75.6869 47.5676 75.0857 47.8528L75.1222 48.1832C75.1862 48.7087 75.0852 49.2394 74.8356 49.7026C75.6317 52.7472 78.1857 55.0023 81.2873 55.4228C81.4656 54.8094 81.7668 54.2373 82.1745 53.742L82.1782 53.7375L82.1782 53.7375C82.4393 53.4294 82.7025 53.2069 82.9847 53.0691C83.2731 52.9282 83.558 52.8871 83.8405 52.9076C84.1134 52.9275 84.3804 53.0048 84.6353 53.0914C84.7635 53.135 84.8745 53.1754 84.9859 53.216C85.1267 53.2672 85.2679 53.3187 85.445 53.3769C86.0124 53.5632 86.6873 53.7219 87.5778 53.6613C88.4724 53.6004 89.609 53.3163 91.09 52.5803C95.3433 50.4615 98.3147 49.9911 100.251 50.0719C101.219 50.1123 101.923 50.2904 102.395 50.4655C102.631 50.5529 102.807 50.6392 102.928 50.7065C102.989 50.7402 103.036 50.769 103.069 50.7908C103.086 50.8017 103.099 50.8108 103.109 50.8179L103.122 50.827L103.126 50.8303L103.128 50.8316M76.3823 46.4368L103.128 50.8316M103.128 50.8316L103.128 50.8316L103.129 50.8322L103.128 50.8316Z" fill="#51A951" stroke="black" stroke-width="0.821721"/>
<path d="M81.6096 55.8814C78.1218 55.5676 75.223 53.0601 74.4064 49.65C74.2509 49.0117 74.1521 48.3613 74.1124 47.7059L74.2214 47.694C74.3706 47.6828 74.5178 47.6508 74.6583 47.5989C75.4139 47.3579 75.9742 46.7174 76.1133 45.9353C76.1564 45.7227 76.1651 45.5044 76.1389 45.2889L75.7829 42.1424C75.7829 42.1424 78.2943 44.0127 81.0802 42.9195C83.8667 41.8263 88.5445 35.6426 102.44 39.1171C102.44 39.1171 105.577 39.3025 107.186 37.4393C107.269 37.3306 107.411 37.2843 107.541 37.3228C107.673 37.3612 107.766 37.4765 107.777 37.6127C107.861 38.8462 108.316 39.7183 109.598 40.6214C114.755 44.2813 117.347 51.7006 117.266 58.077C117.242 60.7222 116.364 63.334 115.009 65.5752C114.651 66.1693 109.84 71.6208 109.697 71.3404C109.697 71.3404 108.321 68.5575 107.984 67.8591L107.903 67.7043L108.058 67.602C108.63 67.2126 109.178 66.7862 109.695 66.326C111.741 64.4844 113.227 61.9958 111.268 59.42C110.868 58.8884 110.347 58.4592 109.75 58.1672C106.788 56.7864 105.428 59.9947 104.662 62.7112C104.512 63.2307 104.421 63.7642 104.388 64.3035C104.353 63.9708 104.317 63.6502 104.282 63.3175C104.149 62.1054 104.009 60.8934 103.866 59.6717C103.629 57.6705 103.406 55.6767 103.18 53.6731C103.145 53.3312 103.18 51.3917 102.896 51.1826C102.896 51.1826 99.6989 48.7775 91.2854 52.9699C85.2122 55.9881 84.4028 51.7816 82.5042 54.0252C82.0596 54.5655 81.753 55.2067 81.612 55.893C81.5684 56.1132 81.5408 56.3363 81.5287 56.5609C81.5244 56.59 81.5244 56.6195 81.5287 56.6486C81.5006 57.1409 81.4909 57.6303 81.4788 58.1104C81.4338 62.7422 81.9419 67.5807 83.7572 71.8822C85.9644 77.0965 91.8051 82.239 97.8783 79.8081C99.7769 79.0452 101.479 77.8167 103.036 76.5116" stroke="black" stroke-width="0.821721"/>
<path d="M86.0264 65.6157C86.2235 66.2056 85.9572 66.6792 85.6347 66.7872C85.3123 66.8952 84.815 66.6775 84.6179 66.0876C84.4208 65.4978 84.6871 65.0242 85.0096 64.9162C85.332 64.8081 85.8293 65.0259 86.0264 65.6157Z" fill="black" stroke="black" stroke-width="0.821721"/>
<path d="M95.0641 65.3271C95.2612 65.917 94.9949 66.3906 94.6724 66.4986C94.35 66.6066 93.8527 66.3889 93.6556 65.799C93.4585 65.2092 93.7248 64.7356 94.0473 64.6276C94.3697 64.5195 94.867 64.7373 95.0641 65.3271Z" fill="black" stroke="black" stroke-width="0.821721"/>
<path d="M91.3463 68.4553C91.3463 68.4553 88.3395 70.164 88.1569 68.3913C88.0998 67.8447 87.3641 62.4902 87.3641 62.4902C87.3641 62.4902 84.9341 59.9119 81.2104 61.818" stroke="black" stroke-width="0.821721"/>
<path d="M90.6699 60.9908C90.6699 60.9908 95.5255 58.5619 98.7391 62.0622" stroke="black" stroke-width="0.821721"/>
<path d="M95.1213 80.4047L95.6793 83.2706C93.9206 84.8939 92.6768 87.2205 93.0401 89.6707C93.3626 91.8426 95.1382 93.865 96.9584 95.0033C100.001 96.9046 104.047 96.7552 107.322 95.5451C110.524 94.3568 113.294 92.1015 115.302 89.3496C116.247 88.0193 116.877 86.4905 117.143 84.8793V84.8507" stroke="black" stroke-width="0.821721"/>
<path d="M95.6793 83.2701L96.7662 88.4461" stroke="black" stroke-width="0.821721"/>
<path d="M111.051 70.0926L112.694 81.0125C113.028 83.2217 114.927 84.8537 117.158 84.8508C122.269 85.6802 127.311 86.8908 132.242 88.4724C151.507 94.694 163.363 112.071 166.712 131.488C168.105 139.618 168.21 148.145 166.461 156.23C165.466 160.781 164.028 165.892 160.689 169.301C156.353 173.745 149.698 171.915 144.574 169.907C128.666 163.711 115.435 152.689 104.01 140.069C97.9008 133.32 90.0074 127.911 90.0074 127.911" stroke="black" stroke-width="0.821721"/>
<path d="M28.2358 158.321L28.236 158.321L42.9561 158.464C42.9567 158.464 42.9573 158.464 42.9579 158.464C43.6209 158.463 44.1789 158.049 44.4831 157.419C44.7877 156.787 44.8129 155.977 44.4236 155.27L44.4231 155.269C43.0694 152.794 41.0249 149.625 38.4412 147.285C35.8581 144.946 32.795 143.485 29.3662 144.274L28.2358 158.321ZM28.2358 158.321C26.6839 158.307 25.2657 157.042 24.8946 155.184L24.8945 155.184M28.2358 158.321L24.8945 155.184M24.8945 155.184C24.5024 153.23 24.2661 150.789 24.8142 148.692M24.8945 155.184L24.8142 148.692M24.8142 148.692C25.0867 147.649 25.5498 146.704 26.273 145.944M24.8142 148.692L26.273 145.944M26.273 145.944C26.9937 145.186 27.9912 144.591 29.3661 144.274L26.273 145.944Z" fill="white" stroke="black" stroke-width="0.821721"/>
<path d="M30.3277 134.796C31.0409 135.87 31.3812 137.023 31.3725 138.007C31.3638 138.995 31.0095 139.766 30.3896 140.179C29.7697 140.592 28.9227 140.621 28.0098 140.248C27.0995 139.876 26.1686 139.116 25.4554 138.043C24.7422 136.969 24.4019 135.816 24.4106 134.832C24.4193 133.844 24.7736 133.073 25.3935 132.66C26.0134 132.247 26.8605 132.218 27.7733 132.591C28.6836 132.963 29.6145 133.723 30.3277 134.796Z" fill="white" stroke="black" stroke-width="0.821721"/>
<path d="M136.854 175.543L136.854 175.568L132.112 175.543L108.551 175.421C110.975 174.206 112.658 171.764 112.821 168.924L112.821 168.923C112.827 168.822 112.827 168.722 112.822 168.621L112.822 168.494L112.822 168.492C112.81 165.524 111.12 162.891 108.576 161.599L128.236 161.704L128.237 161.704L132.176 161.72L132.176 161.72L137.472 161.747C141.022 162.08 143.742 165.059 143.752 168.632C143.753 168.956 143.728 169.28 143.679 169.601L143.678 169.604C143.185 173.003 140.283 175.527 136.854 175.543Z" fill="white" stroke="black" stroke-width="0.821721"/>
<path d="M113.644 179.003C112.896 180.811 113.151 182.855 114.266 184.411H114.152L114.848 185.111C115.164 185.43 115.515 185.706 115.891 185.937H106.389C104.093 185.937 102.914 185.38 102.066 184.532C101.172 183.632 100.668 182.416 100.665 181.147C100.665 178.567 102.77 176.368 106.389 176.368H115.895C114.906 176.973 114.108 177.884 113.644 179.003L113.644 179.003Z" fill="white" stroke="black" stroke-width="0.821721"/>
<path d="M155.784 168.761L155.784 168.761C155.781 169.796 155.54 170.816 155.082 171.743L155.081 171.743L155.078 171.752C154.751 172.45 154.301 173.085 153.752 173.627L153.75 173.628C152.841 174.53 151.698 175.162 150.451 175.451C150.159 175.519 149.864 175.567 149.566 175.597V175.545H140.149C142.352 174.438 143.971 172.306 144.346 169.724C144.401 169.362 144.429 168.997 144.428 168.631L144.428 168.63C144.419 165.66 142.736 163.056 140.242 161.761L144.283 161.782L144.283 161.782L148.92 161.809C148.92 161.809 148.92 161.809 148.92 161.809C152.728 161.841 155.795 164.947 155.784 168.761ZM144.017 168.632C144.008 165.496 142.03 162.793 139.214 161.756L144.017 168.632Z" fill="#51A951" stroke="black" stroke-width="0.821721"/>
<path fill-rule="evenodd" clip-rule="evenodd" d="M156.194 168.761C156.164 172.803 152.875 176.061 148.837 176.045L106.611 175.826C106.329 175.826 106.047 175.804 105.762 175.776C109.446 175.358 112.236 172.247 112.255 168.534C112.274 164.821 109.517 161.681 105.838 161.225C106.12 161.195 106.404 161.181 106.687 161.182L148.913 161.4C152.95 161.428 156.205 164.718 156.194 168.761Z" stroke="black" stroke-width="0.821721" stroke-linecap="square" stroke-linejoin="round"/>
<path fill-rule="evenodd" clip-rule="evenodd" d="M144.013 168.63C144.005 172.672 140.734 175.947 136.698 175.955H106.655C106.371 175.953 106.087 175.937 105.805 175.907C109.486 175.47 112.259 172.344 112.259 168.631C112.259 164.919 109.486 161.793 105.805 161.355C106.088 161.329 106.373 161.31 106.655 161.31H136.698C140.733 161.32 144.001 164.59 144.013 168.63Z" stroke="black" stroke-width="0.821721" stroke-linecap="square" stroke-linejoin="round"/>
<path fill-rule="evenodd" clip-rule="evenodd" d="M100.254 181.15C100.253 182.527 100.8 183.847 101.773 184.819C102.722 185.77 104.011 186.348 106.387 186.348H149.564C148.821 186.348 149.023 186.333 149.225 186.314C146.61 186.006 144.639 183.787 144.639 181.15C144.639 178.513 146.61 176.294 149.225 175.986C149.023 175.967 148.821 175.952 149.564 175.952H106.387C102.585 175.955 100.254 178.294 100.254 181.15Z" stroke="black" stroke-width="0.821721" stroke-linecap="square" stroke-linejoin="round"/>
<path fill-rule="evenodd" clip-rule="evenodd" d="M113.615 181.15C113.622 184.018 115.942 186.341 118.805 186.348H148.621C148.821 186.348 149.022 186.333 149.224 186.314C146.609 186.006 144.638 183.787 144.638 181.15C144.638 178.513 146.609 176.294 149.224 175.986C149.022 175.967 148.821 175.952 148.621 175.952H118.805C115.942 175.96 113.623 178.283 113.615 181.15Z" stroke="black" stroke-width="0.821721" stroke-linecap="square" stroke-linejoin="round"/>
<path d="M49.4687 139.448L49.4687 139.448L49.4664 139.442C49.3324 139.148 49.3587 138.805 49.5359 138.534C49.7133 138.263 50.0161 138.103 50.3385 138.108L50.3385 138.108H50.3454H63.8783C63.5863 139.072 63.8136 140.164 64.4209 141.084H51.9644C50.8824 141.082 49.9037 140.44 49.4687 139.448Z" fill="white" stroke="black" stroke-width="0.821721"/>
<path d="M73.3974 139.727C73.4516 139.853 73.481 139.987 73.4839 140.124C73.4808 140.653 73.0524 141.08 72.5251 141.081H65.4578C64.6075 140.152 64.3679 138.975 64.7541 138.1L70.8995 138.1C70.8995 138.1 70.8996 138.1 70.8996 138.1C71.98 138.101 72.9585 138.738 73.3974 139.727Z" fill="#51A951" stroke="black" stroke-width="0.821721"/>
<path d="M70.2068 141.291L70.2016 141.3L70.1969 141.309C70.1709 141.36 70.1403 141.408 70.1051 141.454L70.1051 141.454L70.1004 141.461C69.3275 142.52 67.5446 142.71 66.062 141.624C65.8888 141.496 65.7251 141.356 65.572 141.205C64.5578 140.187 64.3127 138.827 64.8578 137.903L64.8636 137.893L64.869 137.882C64.8956 137.831 64.9265 137.782 64.9612 137.736L64.9613 137.736L64.9668 137.729C65.7389 136.663 67.5105 136.479 68.9943 137.557C69.1698 137.688 69.335 137.833 69.4886 137.989L69.4886 137.989L69.4901 137.991C70.4959 139.004 70.7462 140.357 70.2068 141.291Z" fill="white" stroke="black" stroke-width="0.821721"/>
<path d="M75.8683 149.452H62.52C62.8175 148.483 62.592 147.393 61.9827 146.471H74.2496C75.3319 146.471 76.312 147.112 76.7475 148.105L76.7474 148.105L76.7492 148.109C76.8037 148.23 76.8325 148.361 76.8339 148.493C76.8286 149.025 76.3974 149.452 75.8683 149.452Z" fill="#51A951" stroke="black" stroke-width="0.821721"/>
<path d="M55.314 149.863H61.8905C62.5715 148.727 62.2271 147.177 61.1189 146.068L55.314 149.863ZM55.314 149.863C54.0702 149.864 52.9427 149.129 52.4399 147.99L55.314 149.863ZM53.6857 146.478H60.9436C61.7977 147.409 62.0385 148.576 61.6426 149.452L55.314 149.452L55.3137 149.452C54.2329 149.453 53.2529 148.815 52.8158 147.824L52.8158 147.824L52.8155 147.823C52.7609 147.7 52.7317 147.568 52.7297 147.433C52.73 147.18 52.8305 146.937 53.0093 146.758C53.1889 146.578 53.4317 146.478 53.6846 146.478V146.478H53.6857Z" fill="white" stroke="black" stroke-width="0.821721"/>
<path d="M61.5388 149.651L61.5232 149.677L61.5117 149.705C61.4945 149.746 61.472 149.785 61.4448 149.82L61.4447 149.82L61.4376 149.83C60.6652 150.893 58.8905 151.079 57.4098 150C57.233 149.867 57.0668 149.723 56.9128 149.567L56.912 149.566C55.9044 148.548 55.6572 147.197 56.1978 146.257L56.2022 146.25L56.2063 146.242C56.2341 146.188 56.2663 146.137 56.3028 146.087L56.3028 146.087L56.3038 146.086C57.0769 145.027 58.8601 144.837 60.34 145.925L60.342 145.927C60.514 146.051 60.6765 146.191 60.8282 146.342C61.8484 147.377 62.0943 148.724 61.5388 149.651Z" fill="white" stroke="black" stroke-width="0.821721"/>
<path d="M55.6822 156.134L55.6822 156.134L55.6812 156.132C55.5476 155.836 55.5743 155.491 55.752 155.219C55.9297 154.947 56.2336 154.785 56.557 154.789L56.557 154.789H56.5622H65.1483C64.8583 155.757 65.0841 156.844 65.6888 157.763H58.1809C57.1004 157.761 56.1216 157.123 55.6822 156.134Z" fill="#51A951" stroke="black" stroke-width="0.821721"/>
<path d="M78.7429 157.763H78.7421H66.7242C65.8809 156.835 65.6394 155.666 66.022 154.782L77.1136 154.782C77.1137 154.782 77.1137 154.782 77.1138 154.782C78.1962 154.783 79.1762 155.424 79.6116 156.416L79.6121 156.418C79.6674 156.543 79.6967 156.678 79.6981 156.815C79.694 157.341 79.2669 157.764 78.7429 157.763Z" fill="white" stroke="black" stroke-width="0.821721"/>
<path d="M71.4751 157.965L71.4697 157.974L71.4648 157.983C71.4362 158.038 71.404 158.089 71.3682 158.138L71.3682 158.138L71.3658 158.141C70.5936 159.204 68.8223 159.39 67.3387 158.311C67.1631 158.179 66.9975 158.034 66.843 157.877L66.8426 157.877C65.8349 156.859 65.5863 155.508 66.1281 154.569L66.1346 154.558L66.1403 154.546C66.1653 154.496 66.1955 154.447 66.2306 154.399L66.2306 154.399L66.2324 154.397C67.004 153.34 68.787 153.16 70.2725 154.238C70.4453 154.363 70.6078 154.502 70.759 154.653C71.7754 155.687 72.0173 157.046 71.4751 157.965Z" fill="white" stroke="black" stroke-width="0.821721"/>
<mask id="path-59-inside-5_1_925" fill="white">
<path d="M8.60608 82.4071L8.81522 82.4669L8.7368 82.7714C8.68713 82.6524 8.64352 82.531 8.60608 82.4071Z"/>
</mask>
<path d="M8.60608 82.4071L8.81522 82.4669L8.7368 82.7714C8.68713 82.6524 8.64352 82.531 8.60608 82.4071Z" fill="#353642"/>
<path d="M8.60608 82.4071L8.83177 81.617L7.38369 81.2034L7.81952 82.6449L8.60608 82.4071ZM8.81522 82.4669L9.61098 82.6718L9.81062 81.8966L9.04092 81.6767L8.81522 82.4669ZM8.7368 82.7714L7.97848 83.0879L8.92178 85.3479L9.53255 82.9763L8.7368 82.7714ZM8.38039 83.1972L8.58953 83.257L9.04092 81.6767L8.83177 81.617L8.38039 83.1972ZM8.01947 82.2619L7.94104 82.5665L9.53255 82.9763L9.61098 82.6718L8.01947 82.2619ZM9.49511 82.4549C9.45615 82.3615 9.42198 82.2664 9.39264 82.1693L7.81952 82.6449C7.86507 82.7956 7.91811 82.9433 7.97848 83.0879L9.49511 82.4549Z" fill="black" mask="url(#path-59-inside-5_1_925)"/>
<path d="M49.02 93.0849C50.0759 96.6866 48.4743 100.191 45.6321 101.026C42.79 101.861 39.5511 99.7804 38.4952 96.1787C37.4394 92.577 39.041 89.073 41.8831 88.2376C44.7252 87.4021 47.9641 89.4831 49.02 93.0849Z" fill="white" stroke="black" stroke-width="0.821721"/>
</svg>
