<svg

        viewBox="0 0 24 24"
        fill="none"
        xmlns="http://www.w3.org/2000/svg"
>
    <path
            d="M12.7356 2.99028C12.7655 2.99028 12.7953 2.99029 12.8261 2.9903C13.3077 2.99118 13.7694 3.01781 14.2437 3.10441C14.2862 3.11174 14.2862 3.11174 14.3296 3.11921C15.6957 3.35671 16.9934 3.91968 18.1046 4.74789C18.1186 4.7583 18.1327 4.7687 18.1471 4.77943C18.4463 5.00233 18.7368 5.23876 18.995 5.50859C19.0431 5.55835 19.0431 5.55835 19.1022 5.59887C19.1174 5.61074 19.1325 5.62261 19.1481 5.63484C19.1481 5.65206 19.1481 5.66928 19.1481 5.68702C19.1636 5.69374 19.1791 5.70047 19.1951 5.7074C19.2575 5.74198 19.2902 5.77581 19.3356 5.8305C19.4028 5.91019 19.4716 5.98738 19.5427 6.06365C19.7105 6.25004 19.8599 6.45077 20.009 6.65224C20.0224 6.67038 20.0358 6.68852 20.0497 6.70721C20.2643 6.99918 20.4551 7.30305 20.635 7.61745C20.6456 7.63572 20.6561 7.65399 20.6669 7.67281C20.8613 8.014 21.0103 8.37542 21.1568 8.73919C21.1704 8.77301 21.1704 8.77301 21.1843 8.8075C21.5857 9.81628 21.7631 10.9047 21.7617 11.987C21.7617 12.0198 21.7617 12.0198 21.7616 12.0532C21.761 12.3945 21.7511 12.7311 21.7046 13.0696C21.6996 13.1072 21.6996 13.1072 21.6944 13.1455C21.5881 13.9158 21.4051 14.6733 21.1046 15.3914C21.0942 15.4163 21.0838 15.4412 21.0731 15.4669C20.7924 16.1348 20.4494 16.7706 20.009 17.3479C19.9896 17.3739 19.9702 17.3999 19.9502 17.4268C19.792 17.6375 19.622 17.8368 19.4477 18.0343C19.4125 18.0743 19.3776 18.1148 19.3428 18.1553C19.3243 18.1767 19.3058 18.1981 19.2867 18.2202C19.271 18.2384 19.2553 18.2567 19.2391 18.2755C19.2003 18.3131 19.2003 18.3131 19.1481 18.3131C19.1481 18.3303 19.1481 18.3475 19.1481 18.3653C19.1309 18.3653 19.1137 18.3653 19.0959 18.3653C19.0892 18.3808 19.0824 18.3964 19.0754 18.4124C19.0412 18.4742 19.0083 18.5063 18.9541 18.5511C18.8677 18.6241 18.7841 18.6991 18.7014 18.7761C18.3186 19.1246 17.8934 19.4213 17.452 19.6902C17.4017 19.7209 17.3516 19.752 17.3015 19.783C16.0373 20.5622 14.4892 20.9939 13.0078 21.0124C12.9703 21.0129 12.9329 21.0135 12.8954 21.0144C12.6239 21.0201 12.4303 20.9884 12.2188 20.8129C12.0351 20.5967 11.9831 20.4382 11.9893 20.1517C12.0058 20.015 12.0559 19.914 12.1307 19.8001C12.1458 19.7759 12.1608 19.7516 12.1764 19.7267C12.389 19.52 12.6501 19.4813 12.9345 19.4756C13.7517 19.4482 14.5741 19.3125 15.3394 19.0175C15.3638 19.0081 15.3883 18.9987 15.4135 18.989C16.348 18.6256 17.2699 18.0962 17.9614 17.3574C18.0003 17.3218 18.0003 17.3218 18.0524 17.3218C18.0586 17.307 18.0647 17.2923 18.0711 17.2771C18.1123 17.2038 18.1627 17.1563 18.2236 17.0984C18.3608 16.9635 18.4828 16.8218 18.6003 16.6696C18.6133 16.6529 18.6263 16.6362 18.6398 16.619C19.4621 15.5601 19.9757 14.3164 20.1655 12.9914C20.1686 12.97 20.1717 12.9486 20.1749 12.9265C20.4225 11.117 19.9289 9.21166 18.8872 7.7218C18.8698 7.69668 18.8525 7.67156 18.8345 7.64568C18.7091 7.46859 18.5713 7.30297 18.4292 7.13914C18.4029 7.10875 18.3767 7.07824 18.3505 7.04765C18.0727 6.72486 17.767 6.41313 17.4264 6.15658C17.3955 6.13249 17.3646 6.10837 17.3337 6.08423C16.3529 5.32458 15.1834 4.81131 13.9568 4.61745C13.9333 4.61359 13.9098 4.60973 13.8855 4.60575C12.3107 4.35685 10.637 4.64433 9.23505 5.40006C9.20658 5.41519 9.20658 5.41519 9.17753 5.43062C8.91494 5.57052 8.66643 5.71939 8.42635 5.89571C8.38661 5.92472 8.38661 5.92472 8.34606 5.95431C8.04449 6.17383 8.04449 6.17383 7.76929 6.42428C7.72201 6.46963 7.72201 6.46963 7.66983 6.46963C7.66983 6.48684 7.66983 6.50406 7.66983 6.5218C7.6306 6.56042 7.6306 6.56042 7.5769 6.60495C7.40076 6.75504 7.24505 6.91901 7.09592 7.09571C7.07889 7.11549 7.07889 7.11549 7.06151 7.13567C6.54835 7.73382 6.15076 8.40685 5.84375 9.1305C5.83551 9.14957 5.82728 9.16865 5.81879 9.1883C5.62295 9.64564 5.5052 10.1296 5.40516 10.6158C5.40008 10.6401 5.39499 10.6645 5.38976 10.6895C5.30639 11.1149 5.28596 11.5415 5.28777 11.974C5.28782 11.9984 5.28788 12.0228 5.28794 12.0479C5.29184 13.1093 5.49296 14.2011 5.97418 15.1566C5.97422 15.134 5.97426 15.1113 5.97429 15.088C5.97476 14.8739 5.97585 14.6598 5.97763 14.4456C5.97852 14.3356 5.97917 14.2255 5.97928 14.1154C5.97939 14.009 5.98014 13.9026 5.98131 13.7962C5.98165 13.7558 5.98177 13.7154 5.98165 13.675C5.98099 13.3848 6.01701 13.1669 6.21548 12.9425C6.38413 12.788 6.58259 12.7283 6.80896 12.7305C7.00773 12.7434 7.15792 12.834 7.30462 12.9653C7.45492 13.141 7.51968 13.3223 7.52011 13.5546C7.5203 13.5881 7.52048 13.6216 7.52067 13.6561C7.52061 13.6927 7.52055 13.7294 7.52048 13.7661C7.52059 13.805 7.52072 13.844 7.52088 13.883C7.52123 13.9885 7.52124 14.0939 7.52118 14.1994C7.52115 14.2876 7.52128 14.3759 7.5214 14.4641C7.52169 14.6723 7.5217 14.8806 7.52155 15.0888C7.52139 15.3033 7.52171 15.5177 7.52226 15.7321C7.52273 15.9166 7.52288 16.1011 7.5228 16.2855C7.52275 16.3955 7.52282 16.5055 7.52318 16.6156C7.52351 16.7191 7.52346 16.8226 7.52312 16.9261C7.52306 16.9639 7.52313 17.0018 7.52334 17.0396C7.52481 17.3172 7.50443 17.5469 7.32765 17.7689C7.1713 17.9233 6.99237 18.0031 6.77509 18.0039C6.75836 18.004 6.74162 18.0041 6.72438 18.0042C6.66821 18.0045 6.61205 18.0046 6.55588 18.0047C6.51564 18.0048 6.4754 18.005 6.43516 18.0052C6.3029 18.0057 6.17064 18.006 6.03838 18.0063C5.99281 18.0064 5.94725 18.0065 5.90169 18.0066C5.68756 18.0071 5.47343 18.0075 5.25931 18.0077C5.01235 18.0079 4.7654 18.0086 4.51844 18.0097C4.32745 18.0105 4.13645 18.0109 3.94545 18.0109C3.83144 18.011 3.71743 18.0112 3.60342 18.0119C3.49606 18.0125 3.38871 18.0126 3.28134 18.0123C3.24207 18.0123 3.20279 18.0125 3.16351 18.0129C2.86116 18.0155 2.64534 17.973 2.41922 17.7635C2.26955 17.5959 2.23478 17.4062 2.23855 17.1879C2.25578 16.9398 2.37422 16.782 2.55679 16.6175C2.72609 16.5028 2.89371 16.4833 3.09512 16.4817C3.11473 16.4814 3.13434 16.4811 3.15455 16.4809C3.21905 16.4801 3.28355 16.4794 3.34806 16.4788C3.39291 16.4782 3.43776 16.4777 3.48261 16.4771C3.60041 16.4757 3.71822 16.4744 3.83603 16.4731C3.95634 16.4718 4.07665 16.4704 4.19696 16.4689C4.43284 16.4661 4.66873 16.4635 4.90462 16.4609C4.89029 16.4338 4.89029 16.4338 4.87568 16.4061C4.83158 16.3223 4.78765 16.2384 4.74371 16.1545C4.7287 16.126 4.71368 16.0976 4.69822 16.0682C4.23537 15.183 3.95484 14.2121 3.80896 13.2261C3.80605 13.2069 3.80313 13.1877 3.80012 13.1679C3.73058 12.6979 3.7196 12.2137 3.7307 11.7392C3.73103 11.7213 3.73136 11.7034 3.7317 11.6849C3.77214 9.8113 4.47318 8.01431 5.58288 6.5218C5.60252 6.49522 5.60252 6.49522 5.62255 6.46811C5.65856 6.41953 5.69483 6.37116 5.73125 6.32289C5.75179 6.29565 5.77234 6.26841 5.79351 6.24035C5.81009 6.22131 5.82666 6.20228 5.84375 6.18267C5.86096 6.18267 5.87818 6.18267 5.89592 6.18267C5.9047 6.16148 5.9047 6.16148 5.91365 6.13987C5.95891 6.059 6.01868 5.99536 6.08179 5.92832C6.09539 5.91377 6.10899 5.89922 6.123 5.88422C6.36844 5.6235 6.61507 5.36217 6.89721 5.14072C6.97069 5.08292 7.04127 5.02234 7.11222 4.96147C8.38057 3.90342 9.98604 3.27928 11.609 3.05224C11.6346 3.04856 11.6346 3.04856 11.6609 3.04481C12.0186 2.99486 12.3748 2.98966 12.7356 2.99028Z"
            fill="#585C7B"
    />
    <path
            d="M13.1479 7.59151C13.3391 7.72062 13.4478 7.86951 13.501 8.09354C13.5145 8.17324 13.5166 8.24804 13.5168 8.3289C13.517 8.36185 13.5171 8.39479 13.5173 8.42874C13.5173 8.46506 13.5173 8.50138 13.5174 8.53769C13.5175 8.5761 13.5176 8.6145 13.5178 8.65291C13.5181 8.7571 13.5183 8.86129 13.5184 8.96549C13.5185 9.03066 13.5186 9.09584 13.5187 9.16102C13.519 9.36519 13.5193 9.56936 13.5194 9.77353C13.5195 10.0088 13.52 10.244 13.5207 10.4792C13.5213 10.6613 13.5216 10.8434 13.5216 11.0256C13.5216 11.1342 13.5218 11.2428 13.5222 11.3515C13.5227 11.4537 13.5227 11.556 13.5225 11.6583C13.5225 11.6957 13.5226 11.7331 13.5228 11.7704C13.5256 12.1899 13.4354 12.4101 13.1479 12.7116C13.1095 12.7505 13.0709 12.7893 13.0322 12.8279C13.0109 12.8493 12.9897 12.8707 12.9678 12.8928C12.8982 12.9629 12.8284 13.0328 12.7586 13.1027C12.7221 13.1393 12.6856 13.1759 12.6492 13.2125C12.5347 13.3273 12.4201 13.4421 12.3055 13.5567C12.1877 13.6744 12.0703 13.7924 11.953 13.9105C11.8517 14.0125 11.7502 14.1143 11.6486 14.2159C11.5881 14.2763 11.5278 14.3369 11.4676 14.3976C11.4003 14.4653 11.3328 14.5327 11.2652 14.6C11.2457 14.6198 11.2262 14.6396 11.2061 14.66C10.9834 14.8801 10.7758 15.0087 10.4585 15.0103C10.2448 15.0055 10.0972 14.9257 9.94251 14.7834C9.77385 14.598 9.72819 14.4148 9.73055 14.1654C9.74602 13.9776 9.84907 13.8058 9.98597 13.6785C10.0374 13.6392 10.0898 13.6024 10.1434 13.5661C10.1845 13.5367 10.2256 13.5073 10.2665 13.4777C10.2881 13.4622 10.3096 13.4467 10.3318 13.4307C11.0517 12.9007 11.918 12.2344 12.0621 11.2989C12.1841 10.4111 12.1175 9.4805 12.0333 8.59149C12.0288 8.54064 12.0288 8.54064 12.0241 8.48876C12.0184 8.42612 12.012 8.36353 12.0049 8.30104C11.9829 8.06033 12.0515 7.9188 12.1827 7.72195C12.1999 7.72195 12.2172 7.72195 12.2349 7.72195C12.2349 7.70473 12.2349 7.68751 12.2349 7.66977C12.5487 7.48334 12.8121 7.42214 13.1479 7.59151Z"
            fill="#585C7B"
    />
</svg>