<svg width="178" height="192" viewBox="0 0 178 192" fill="none" xmlns="http://www.w3.org/2000/svg">
<path d="M50.8431 73.1745H35.32C34.4474 73.1745 33.6105 72.8273 32.9939 72.2098C32.3772 71.5918 32.0313 70.7542 32.0325 69.8814V32.5402C32.0325 31.668 32.3789 30.8316 32.9955 30.2151C33.6121 29.5986 34.4483 29.2525 35.32 29.2531H60.9477C61.8209 29.2502 62.6595 29.5952 63.2784 30.2119C63.8969 30.8286 64.2452 31.6663 64.2456 32.5402V42.6117" stroke="#51A951" stroke-width="0.821721"/>
<path d="M58.4556 33.7799H38.1451C36.2912 33.7799 34.7883 35.2835 34.7883 37.1384V38.1465C34.7883 40.0013 36.2912 41.505 38.1451 41.505H58.4556C60.3095 41.505 61.8124 40.0013 61.8124 38.1465V37.1384C61.8124 35.2835 60.3095 33.7799 58.4556 33.7799Z" stroke="#51A951" stroke-width="0.821721"/>
<path d="M48.1342 37.0315C48.5749 37.0315 48.9322 36.674 48.9322 36.2331C48.9322 35.7921 48.5749 35.4347 48.1342 35.4347C47.6935 35.4347 47.3362 35.7921 47.3362 36.2331C47.3362 36.674 47.6935 37.0315 48.1342 37.0315Z" fill="#51A951"/>
<path d="M45.9039 39.849C45.8528 39.0196 46.266 38.2302 46.9763 37.8C47.6871 37.3699 48.5777 37.3699 49.2884 37.8C49.9988 38.2302 50.412 39.0196 50.3609 39.849H45.9039Z" fill="#51A951"/>
<path fill-rule="evenodd" clip-rule="evenodd" d="M48.2986 49.7826C46.5587 49.7826 44.9899 50.8313 44.3242 52.4395C43.6584 54.0481 44.0262 55.8994 45.2567 57.1302C46.4872 58.3613 48.3376 58.7297 49.945 58.0636C51.5528 57.3971 52.601 55.8279 52.601 54.0867C52.6014 52.9452 52.1483 51.8501 51.3414 51.0428C50.5345 50.2354 49.4399 49.7821 48.2986 49.7826ZM48.2986 57.3507C47.9911 57.2996 47.7659 57.034 47.7659 56.7219C47.7659 56.4103 47.9911 56.1443 48.2986 56.0936C48.5477 56.0524 48.7976 56.1625 48.9358 56.3739C49.0735 56.5854 49.0735 56.8584 48.9358 57.0699C48.7976 57.2818 48.5477 57.3915 48.2986 57.3507ZM48.5702 55.3313C48.8171 54.4061 48.9921 53.4631 49.0947 52.5114C49.1034 52.4412 49.1155 52.3684 49.1281 52.2934C49.1974 51.8709 49.2758 51.396 48.8483 51.1524C48.439 50.9206 47.7299 50.9739 47.4796 51.4176C47.2561 51.8085 47.3921 52.4039 47.5025 52.8884C47.5324 53.0202 47.5606 53.1433 47.5792 53.2525C47.6827 53.9545 47.833 54.6492 48.0292 55.3313C48.082 55.4318 48.186 55.4947 48.2999 55.4947C48.4134 55.4947 48.5178 55.4318 48.5702 55.3313Z" fill="#51A951"/>
<path d="M37.4907 44.9521H58.5045" stroke="#51A951" stroke-width="0.821721"/>
<path d="M37.4907 47.023H58.5045" stroke="#51A951" stroke-width="0.821721"/>
<path d="M37.4907 60.3467H58.5045" stroke="#51A951" stroke-width="0.821721"/>
<path d="M42.3728 62.3051H53.6237" stroke="#51A951" stroke-width="0.821721"/>
<path d="M162.256 65.1949H140.154C134.68 65.1949 130.243 69.6342 130.243 75.1102V120.039C130.243 125.515 134.68 129.954 140.154 129.954H162.256C167.73 129.954 172.167 125.515 172.167 120.039V75.1102C172.167 69.6342 167.73 65.1949 162.256 65.1949Z" fill="#51A951"/>
<path d="M118.226 65.1949H105.905C100.432 65.1949 95.9946 69.6342 95.9946 75.1102V120.039C95.9946 125.515 100.432 129.954 105.905 129.954H118.226C123.699 129.954 128.136 125.515 128.136 120.039V75.1102C128.136 69.6342 123.699 65.1949 118.226 65.1949Z" fill="#51A951"/>
<path d="M97.8508 162.885H171.934C174.599 162.884 176.76 160.723 176.763 158.056V66.0488C176.763 64.7674 176.255 63.5384 175.349 62.6322C174.444 61.7261 173.215 61.2173 171.934 61.2182H121.588L108.429 61.2966H108.391L101.737 61.5558H101.716L99.9649 61.6234H99.8099L99.6804 62.666L99.4257 64.6049C99.4313 64.6122 99.4313 64.6226 99.4257 64.6304L97.3544 67.7008L96.9299 68.3231L95.7605 75.8102V75.8466C95.7349 75.8358 95.7094 75.8211 95.6777 75.8042C95.6522 75.789 95.6279 75.7721 95.6054 75.753C95.2121 75.4566 94.9163 75.0493 94.7565 74.583C94.3684 73.5979 94.2748 72.2918 94.2705 71.2556L94.0158 76.9443V76.9656L93.6615 84.5654L93.5744 86.6061C93.7399 86.3109 93.9777 85.8863 94.2536 85.3788L93.3726 91.0103L93.1902 95.0678L92.7359 105.322L92.719 105.705V105.851L92.6003 108.348V108.405C92.6003 108.405 92.2607 115.733 92.2607 115.744L92.2287 116.424L91.8363 119.39L90.6902 127.691V158.056C90.6906 159.819 91.6526 161.44 93.1989 162.284C94.6356 163.063 96.2252 162.959 97.8044 162.906C98.2289 162.893 98.6534 162.874 99.0779 162.851" fill="#51A951"/>
<path d="M95.0393 161.301C95.0094 161.301 94.9778 161.274 94.9419 161.263C94.5382 161.118 94.1566 160.919 93.8083 160.668C92.5678 159.787 91.8324 158.356 91.8367 156.834V116.309L90.6906 116.859L90.6183 116.895L90.4637 116.511L89.6975 114.6L89.4852 114.071L87.5474 109.232C87.5474 109.232 91.2277 94.3338 93.6619 84.5659C94.5533 80.9794 95.2793 78.0829 95.5846 76.8664C95.6782 76.5033 95.7332 76.2909 95.744 76.2545C95.7449 76.2463 95.7449 76.2376 95.744 76.2294C95.7501 76.157 95.7393 76.0842 95.712 76.0171C95.6821 75.9386 95.6457 75.8624 95.6037 75.7895C95.5989 75.7744 95.592 75.7601 95.5825 75.7471C95.3304 75.3176 95.0467 74.9077 94.7335 74.5198L94.3303 69.5232L94.3961 69.4725L94.7019 69.2281L96.7905 67.5718L97.2765 66.2851L98.2294 63.7838L98.6538 62.6688H99.6639H99.9229H101.75L108.504 62.6475H109.083L121.896 62.5712H170.92C172.167 62.5712 173.363 63.067 174.244 63.9498C175.125 64.8325 175.619 66.0294 175.617 67.2767V156.834C175.619 158.081 175.125 159.278 174.244 160.161C173.363 161.043 172.167 161.539 170.92 161.539H97.9405" fill="#51A951"/>
<path d="M99.9436 61.3434L101.68 61.3326H101.716L108.38 61.2966H108.427L121.585 61.2182H171.934C174.6 61.219 176.762 63.3815 176.762 66.0488V158.056C176.76 160.723 174.599 162.884 171.934 162.885H95.387C92.7895 162.885 90.6836 160.778 90.6836 158.179V148.133" stroke="black" stroke-width="0.821721"/>
<path d="M162.256 134.712H105.905C100.432 134.712 95.9946 139.151 95.9946 144.627V148.021C95.9946 153.497 100.432 157.936 105.905 157.936H162.256C167.729 157.936 172.166 153.497 172.166 148.021V144.627C172.166 139.151 167.729 134.712 162.256 134.712Z" fill="white"/>
<path d="M143.625 139.884H104.117C102.263 139.884 100.76 141.388 100.76 143.243V149.738C100.76 151.593 102.263 153.096 104.117 153.096H143.625C145.478 153.096 146.981 151.593 146.981 149.738V143.243C146.981 141.388 145.478 139.884 143.625 139.884Z" fill="#51A951"/>
<path d="M137.635 145.449C138.39 145.449 139.002 144.837 139.002 144.082C139.002 143.326 138.39 142.714 137.635 142.714C136.88 142.714 136.269 143.326 136.269 144.082C136.269 144.837 136.88 145.449 137.635 145.449Z" fill="white"/>
<path d="M133.819 150.266C133.819 148.155 135.53 146.444 137.639 146.444C139.749 146.444 141.46 148.155 141.46 150.266H133.819Z" fill="white"/>
<path fill-rule="evenodd" clip-rule="evenodd" d="M158.642 139.885C155.92 139.883 153.465 141.521 152.422 144.037C151.379 146.552 151.953 149.449 153.877 151.375C155.801 153.301 158.696 153.877 161.21 152.835C163.725 151.793 165.364 149.338 165.364 146.614C165.364 144.83 164.656 143.119 163.396 141.857C162.135 140.595 160.425 139.886 158.642 139.885ZM158.642 151.719C158.28 151.736 157.938 151.552 157.751 151.241C157.565 150.929 157.565 150.541 157.751 150.229C157.938 149.918 158.28 149.734 158.642 149.751C159.168 149.775 159.581 150.209 159.581 150.735C159.581 151.261 159.168 151.695 158.642 151.719ZM159.784 144.823C159.816 144.597 159.847 144.372 159.88 144.149C159.893 144.032 159.913 143.91 159.933 143.785C160.038 143.13 160.156 142.397 159.489 142.019C158.852 141.667 157.744 141.75 157.352 142.444C157.002 143.052 157.214 143.982 157.387 144.74C157.434 144.945 157.478 145.138 157.507 145.308C157.668 146.406 157.903 147.492 158.211 148.557C158.32 148.899 158.963 148.899 159.06 148.557C159.429 147.359 159.609 146.075 159.784 144.823Z" fill="#51A951"/>
<path d="M165.787 112.008C165.12 117.766 161.004 122.531 155.407 124.026C149.811 125.522 143.869 123.445 140.421 118.787C136.973 114.129 136.72 107.837 139.782 102.917C142.844 97.9966 148.599 95.4476 154.298 96.4876C154.546 96.5353 154.762 96.6835 154.897 96.8967C155.032 97.1099 155.073 97.3691 155.009 97.613L154.731 98.6982L152.239 108.432C152.158 108.748 152.252 109.083 152.485 109.312C152.718 109.54 153.055 109.626 153.369 109.539L163.04 106.833L164.363 106.464C164.6 106.397 164.855 106.429 165.069 106.554C165.282 106.678 165.437 106.884 165.496 107.124C165.877 108.723 165.975 110.376 165.787 112.008Z" fill="white"/>
<path d="M166.119 101.979C166.212 102.219 166.199 102.487 166.083 102.717C165.966 102.946 165.759 103.116 165.51 103.183L164.6 103.438L156.724 105.64C156.41 105.728 156.073 105.641 155.84 105.413C155.607 105.185 155.514 104.85 155.595 104.534L157.63 96.6089L157.825 95.8488C157.887 95.6043 158.048 95.3968 158.269 95.2759C158.49 95.1554 158.751 95.132 158.99 95.2117C162.232 96.3311 164.832 98.7986 166.119 101.979Z" fill="white"/>
<path d="M151.569 77.8609C153.711 77.8609 155.448 76.123 155.448 73.9792C155.448 71.8354 153.711 70.0975 151.569 70.0975C149.426 70.0975 147.689 71.8354 147.689 73.9792C147.689 76.123 149.426 77.8609 151.569 77.8609Z" fill="#51A951"/>
<path d="M137.638 82.5564H165.881V83.3334H137.638V82.5564Z" fill="#51A951"/>
<path d="M137.638 85.4331H165.881V86.2105H137.638V85.4331Z" fill="#51A951"/>
<path d="M137.638 88.0521H165.881V88.8291H137.638V88.0521Z" fill="#51A951"/>
<path d="M101.067 98.7915H123.191V99.5685H101.067V98.7915Z" fill="#51A951"/>
<path d="M101.067 101.927H123.191V102.704H101.067V101.927Z" fill="#51A951"/>
<path d="M101.067 105.063H123.191V105.84H101.067V105.063Z" fill="#51A951"/>
<path d="M101.067 108.199H123.191V108.976H101.067V108.199Z" fill="#51A951"/>
<path d="M101.067 111.336H123.191V112.113H101.067V111.336Z" fill="#51A951"/>
<path d="M98.0317 76.7095C98.0317 76.7095 104.755 87.3034 112.417 90.6329C120.079 93.9624 122.473 95.4341 125.404 94.2428C128.335 93.0515 133.961 91.3826 137.926 79.5909C141.891 67.7997 143.78 61.5927 143.919 58.7364C144.059 55.8806 136.177 58.2268 136.177 58.2268C136.177 58.2268 131.932 70.7448 122.632 76.3317L109.386 62.3337L98.0317 76.7095Z" fill="white"/>
<path d="M90.175 92.9893L95.5871 94.4589C95.5871 94.4589 89.3027 103.129 94.8906 112.207C100.479 121.285 111.986 139.599 111.986 139.599L134.012 174.636L113.413 171.764L98.0317 154.907L90.1789 147.074L80.3376 116.337L90.175 92.9893Z" fill="white"/>
<path d="M1.80773 137.794C2.81168 138.338 4.05992 138.089 4.77903 137.202L12.7888 127.377L19.2515 119.261L13.9604 116.288C12.8192 115.643 11.3717 116.045 10.7259 117.186L0.865402 134.514C0.548078 135.072 0.469171 135.735 0.646513 136.352C0.823856 136.97 1.24248 137.49 1.80773 137.794Z" fill="#2E2E2E"/>
<path d="M123.729 184.138L130.395 190.699C130.971 191.266 131.746 191.585 132.554 191.587H149.225C150.282 191.591 151.241 190.97 151.67 190.004C152.099 189.038 151.917 187.909 151.205 187.127C150.767 186.637 150.162 186.328 149.508 186.261L140.26 185.312L123.729 184.138Z" fill="#2E2E2E"/>
<path d="M62.8522 102.072C62.8522 102.072 75.7454 105.661 84.3409 106.73C92.9365 107.801 92.334 104.233 92.334 104.233L93.3844 99.7274C96.1435 95.23 97.7461 85.6614 97.7461 85.6614L98.854 78.1765L100.471 81.0241L105.698 86.2924L105.762 86.3431C105.603 83.827 105.724 80.2913 106.31 75.4753C107.66 64.3272 112.129 65.6203 112.129 65.6203L111.473 64.9005C108.386 59.7596 98.527 54.3257 95.3773 53.0261C92.2279 51.7264 93.5754 53.5678 93.9765 54.9372C94.378 56.307 93.2319 60.1609 88.6411 58.1991C84.0503 56.2368 83.819 51.9687 83.819 51.9687H81.6862C68.6016 53.5422 61.9482 60.524 61.9482 60.524C75.8476 63.805 72.6575 75.6006 72.6575 75.6006L71.3967 76.7538C66.4624 81.0345 66.1185 85.1626 66.5451 86.8826C66.9718 88.6026 70.015 90.9172 75.5102 92.2593C81.0049 93.6014 82.0046 93.6032 83.246 91.2271C84.4878 88.851 85.9349 88.558 87.9152 88.2014C89.8955 87.8447 92.321 89.2523 91.7675 90.3608C91.2135 91.4693 90.8124 90.5012 92.192 93.4953C93.5715 96.4893 92.9305 98.0117 89.2207 100.77C85.5104 103.528 69.0157 101.98 69.0157 101.98C61.1266 99.7976 62.8522 102.072 62.8522 102.072Z" fill="#2E2E2E"/>
<path d="M93.0085 52.0384V52.4903V52.6052C96.6962 53.5274 100.17 55.1585 103.234 57.4085C103.731 57.7717 104.215 58.1409 104.692 58.5296C104.705 56.9691 104.571 55.4016 104.068 53.9239C103.661 52.6555 102.893 51.5335 101.859 50.6941C100.948 49.9678 99.8724 49.5028 98.79 49.0824C97.7076 48.6621 96.6443 48.2924 95.6506 47.7256C94.8138 47.2675 94.0827 46.6378 93.5053 45.8782C93.093 45.3187 93.012 44.5811 93.2931 43.9458C93.1952 43.9389 93.099 43.9198 93.0063 43.8886L93.0085 52.0384Z" fill="#51A951"/>
<path d="M93.0085 52.0384V52.4903V52.6052C96.6962 53.5274 100.17 55.1585 103.234 57.4085C103.731 57.7717 104.215 58.1409 104.692 58.5296C104.705 56.9691 104.571 55.4016 104.068 53.9239C103.661 52.6555 102.893 51.5335 101.859 50.6941C100.948 49.9678 99.8724 49.5028 98.79 49.0824C97.7076 48.6621 96.6443 48.2924 95.6506 47.7256C94.8138 47.2675 94.0827 46.6378 93.5053 45.8782C93.093 45.3187 93.012 44.5811 93.2931 43.9458C93.1952 43.9389 93.099 43.9198 93.0063 43.8886L93.0085 52.0384Z" fill="#51A951"/>
<path d="M42.0561 87.2921C43.4419 88.2841 44.9821 89.0399 46.615 89.5278C47.3171 89.7445 48.0305 89.923 48.7521 90.063C45.9017 83.3425 48.0348 74.5003 57.0293 65.0721C58.5696 63.4552 60.209 61.9359 61.9385 60.5236C64.7335 58.2493 67.2167 56.5549 70.1456 55.1915C71.4567 54.5861 72.8033 54.0609 74.1781 53.618C76.6158 52.8063 79.1318 52.2534 81.6848 51.9682C82.2643 51.898 82.8373 51.8473 83.4169 51.8152C83.2752 50.8198 83.3034 49.8075 83.4996 48.8212C84.0345 46.114 84.9662 44.5573 86.6597 42.4233C87.7209 41.0792 89.3785 37.8685 87.1691 36.7601C85.7749 36.0657 85.6475 34.6366 86.3033 33.7872C86.8573 33.0482 87.9778 32.7106 89.3595 33.5749C90.3146 34.1864 91.4476 34.2246 92.543 33.9252C93.3933 33.4295 94.1309 32.7612 94.7079 31.9632C96.3122 29.6635 96.3694 26.1789 93.8589 24.4907C92.4898 23.567 90.7451 23.344 89.1087 23.5224C88.3763 23.6029 87.6542 23.7609 86.9547 23.9938C86.9487 23.9911 86.9417 23.9911 86.9357 23.9938C83.9643 25.5928 81.8524 28.5486 80.8336 31.8803C80.2355 33.8488 79.5602 35.7981 78.771 37.7092C78.1213 39.2763 77.6691 41.1811 76.2242 42.2513C75.62 42.6984 74.9343 43.023 74.2058 43.2069C71.474 44.9396 67.6858 43.9394 64.6998 43.57C62.3123 43.2434 59.8811 43.4879 57.6067 44.2835C55.0599 45.5723 52.8695 47.6299 51.0932 50.3054C48.1579 54.733 51.2652 61.116 46.356 64.6071C44.8704 65.658 43.1724 66.295 41.5488 67.1106C39.2312 68.2894 37.3593 69.9647 36.6674 72.5445C35.3006 77.7491 37.7328 84.1516 42.0561 87.2921Z" fill="#51A951"/>
<path d="M162.087 191.587H45.9429" stroke="black" stroke-width="0.821721"/>
<path d="M97.2671 29.8672C97.5655 30.4859 97.8206 31.1244 98.0311 31.7783C98.3369 32.84 98.006 33.4983 98.4708 34.5112C98.6297 34.8615 98.8589 35.454 99.1075 36.0528C99.1772 35.9126 99.2409 35.798 99.2794 35.7088C101.1 31.6509 98.7064 29.6952 97.5538 29.0263C97.4806 29.3136 97.3845 29.5948 97.2671 29.8672Z" fill="#51A951"/>
<path d="M97.2671 29.8672C97.5655 30.4859 97.8206 31.1244 98.0311 31.7783C98.3369 32.84 98.006 33.4983 98.4708 34.5112C98.6297 34.8615 98.8589 35.454 99.1075 36.0528C99.1772 35.9126 99.2409 35.798 99.2794 35.7088C101.1 31.6509 98.7064 29.6952 97.5538 29.0263C97.4806 29.3136 97.3845 29.5948 97.2671 29.8672Z" fill="#51A951"/>
<path d="M56.9166 98.325C55.8048 107.099 56.7044 122.32 74.6639 133.965C77.8964 136.061 80.8062 139.021 83.6567 141.58C91.4306 148.609 98.826 156.046 105.812 163.859C110.088 168.603 114.454 173.589 118.79 178.392C121.013 180.847 123.26 183.279 125.531 185.688C127.203 187.453 129.856 191.585 132.545 191.585H149.07C150.555 191.585 151.906 190.368 151.884 188.876C151.872 188.23 151.628 187.612 151.196 187.132C150.758 186.642 150.153 186.333 149.499 186.266L140.252 185.317L95.5736 114.228C93.2689 110.558 91.2249 104.519 93.0077 100.563C99.7993 85.5163 99.2154 70.9324 99.2154 70.9324" stroke="black" stroke-width="0.821721"/>
<path d="M80.0484 138.539C78.0997 145.388 74.9547 152.342 72.3568 156.72C71.4156 158.319 70.1746 159.72 68.702 160.849C63.3792 164.927 55.8552 164.492 50.7511 160.146L25.3654 138.527L12.7904 127.376L4.78057 137.201C3.99547 138.157 2.61031 138.353 1.59082 137.653C0.571323 136.954 0.256055 135.59 0.864816 134.513L10.7274 117.19C11.3732 116.049 12.8207 115.647 13.9619 116.292L19.253 119.265L49.569 136.252C50.5921 136.825 51.8279 136.872 52.8908 136.377C53.9541 135.882 54.7147 134.907 54.9365 133.755L58.5276 114.916" stroke="black" stroke-width="0.821721"/>
<path d="M93.0092 42.6273V51.9705V52.4229V52.5373C93.9708 53.9388 94.4546 55.9348 93.5376 57.4213C92.3088 59.4152 89.5965 59.0841 87.8774 57.969C87.3711 57.6419 86.8881 57.28 86.432 56.8865C84.9018 55.5561 83.9112 53.7117 83.6474 51.7009C83.5062 50.7051 83.5339 49.6928 83.7301 48.7069C84.2694 46.0014 85.1989 44.4469 86.8946 42.3066C87.9558 40.9689 89.6113 37.7539 87.3997 36.6455C84.8082 35.3523 86.604 31.5683 89.59 33.4603C91.9077 34.9319 95.2377 33.0972 96.6129 31.1245C98.2172 28.8248 98.2748 25.3402 95.764 23.6521C94.3952 22.7284 92.6506 22.5054 91.0142 22.6838C86.0288 23.2316 82.4801 27.1303 81.0603 31.7679C80.4617 33.7364 79.7869 35.6857 78.9973 37.5968C78.348 39.1639 77.8958 41.0687 76.4504 42.1389C73.6913 44.1965 69.7138 43.1199 66.6005 42.7377C60.119 41.9414 54.8915 44.8144 51.3194 50.1933C48.3841 54.6205 51.4914 61.0038 46.5822 64.4946C45.0966 65.5459 43.3987 66.1829 41.7752 66.9981C39.4576 68.1768 37.5856 69.8522 36.9044 72.4319C35.5291 77.6305 37.9655 84.0325 42.2846 87.1731C44.2649 88.6127 46.5822 89.4729 48.9892 89.9444" stroke="black" stroke-width="0.821721"/>
<path d="M105.803 59.7395C105.816 59.6207 105.82 59.5059 105.827 59.3932C105.935 57.34 105.922 55.2122 105.254 53.2352C104.843 51.9685 104.075 50.8474 103.042 50.0075C102.129 49.2838 101.053 48.8145 99.9749 48.3937C98.8968 47.9734 97.8274 47.608 96.836 47.039C95.997 46.5831 95.2654 45.9522 94.6907 45.1895C94.2805 44.6317 94.1995 43.8972 94.4784 43.2636" stroke="black" stroke-width="0.821721"/>
<path d="M90.9983 40.5205C91.7493 41.595 92.7681 42.7544 94.0523 43.1727C95.7143 43.7143 96.8326 42.3021 97.4291 40.9282C97.7855 40.1107 98.0316 39.2401 98.3205 38.3949C98.4136 38.1167 98.4712 37.983 98.7895 37.9702C99.1079 37.9575 99.4431 38.0212 99.7702 38.0212C99.8174 38.0201 99.8603 37.9936 99.8828 37.9519C99.9053 37.9101 99.9036 37.8596 99.878 37.8195C99.4388 37.1506 98.783 35.3265 98.4521 34.5961C97.9913 33.5832 98.3248 32.927 98.0147 31.8632C97.8037 31.2101 97.5499 30.5716 97.2549 29.9521" stroke="black" stroke-width="0.821721"/>
<path d="M97.7458 27.988C97.7458 27.988 102.277 29.7271 99.9362 34.953C99.792 35.2694 99.4372 35.9298 99.2696 36.227" stroke="black" stroke-width="0.821721"/>
<path d="M146.621 13.0882C146.621 13.0882 146.647 13.1014 146.7 13.121L146.621 13.0882Z" fill="#51A951"/>
<path d="M97.4948 40.7775C96.7441 40.8806 96.0342 40.4094 95.8372 39.6776" stroke="black" stroke-width="0.821721"/>
<path d="M98.2621 33.7791C97.3244 33.0146 96.2948 33.9914 95.6667 34.7007" stroke="black" stroke-width="0.821721"/>
<path d="M83.6534 51.7026C80.5071 51.9015 77.3998 52.506 74.4081 53.501C69.5267 55.1018 66.1651 57.1681 62.1772 60.4066C60.4481 61.8215 58.8083 63.3426 57.268 64.9612C48.2649 74.3893 46.1364 83.2359 48.9908 89.9543C51.3107 95.4284 56.6591 98.8238 62.1391 100.555C65.7237 101.684 69.4591 102.171 73.207 102.279C77.6748 102.406 82.1803 102.237 86.5779 101.387C88.4309 101.03 90.5658 100.737 91.6716 99.0149C92.7774 97.2932 92.871 94.97 92.0493 93.1247C91.2792 91.4069 89.1993 89.5595 87.3186 90.9076C86.8963 91.2127 86.6373 91.6951 86.616 92.216" stroke="black" stroke-width="0.821721"/>
<path d="M80.2548 63.0641C80.4883 70.1053 74.5245 74.0316 74.5245 74.0316C72.5463 75.635 70.6236 77.3571 69.0063 79.3298C67.9728 80.5887 67.0134 81.9989 66.5379 83.5767C66.1827 84.6523 66.1883 85.815 66.5547 86.8871C66.9602 87.8782 67.6298 88.7393 68.4904 89.3759C70.0991 90.6348 72.056 91.287 73.996 91.8517C76.1336 92.4636 78.3105 92.9277 80.5117 93.2406C81.7851 93.4231 82.3218 93.0283 82.9035 91.9258C83.4297 90.9278 83.8607 89.7729 84.8348 89.1211C86.1845 88.2141 87.9972 88.0039 89.559 88.3779C91.9681 88.9512 92.5836 90.8623 90.6202 91.2485" stroke="black" stroke-width="0.821721"/>
<path d="M78.7829 110.834L42.1828 101.986L33.4727 138.05L69.0586 146.901L70.2003 146.376L78.7829 110.834Z" fill="white"/>
<path d="M61.8962 105.764C63.6322 93.6047 67.3953 90.5981 69.8443 89.997L69.6831 89.9078C62.2886 87.0285 57.1612 101.275 56.0723 104.606L61.8962 105.764Z" fill="#51A951"/>
<path d="M61.794 106.727C63.53 94.5687 67.3949 90.5891 69.8438 89.9967L69.6827 89.9075C62.2882 87.0282 56.9485 101.96 55.8557 105.29L61.794 106.727Z" fill="#51A951"/>
<path fill-rule="evenodd" clip-rule="evenodd" d="M69.6827 89.9081C61.3206 86.6554 55.8557 105.291 55.8557 105.291L61.7983 106.728C65.2513 88.0417 72.6605 91.4392 72.6605 91.4392C72.3993 91.3608 69.6827 89.9081 69.6827 89.9081Z" stroke="black" stroke-width="0.821721"/>
<path d="M33.4736 138.063L41.7749 103.705L70.6498 110.689L62.3488 145.046L33.4736 138.063Z" fill="#51A951"/>
<path d="M33.4746 138.063L42.2158 101.886L72.6197 109.239L63.8781 145.417L33.4746 138.063Z" fill="white"/>
<path d="M37.7085 138.184C35.9065 137.748 34.7988 135.933 35.2344 134.13L41.9582 106.302C42.3938 104.499 44.2077 103.391 46.01 103.826L68.3594 109.232C70.1612 109.668 71.2688 111.483 70.8335 113.286L64.1095 141.114C63.6737 142.917 61.8597 144.025 60.0579 143.589L37.7085 138.184Z" fill="#51A951"/>
<path fill-rule="evenodd" clip-rule="evenodd" d="M33.4746 138.063L42.1884 101.998L72.592 109.352L63.8781 145.416L33.4746 138.063Z" stroke="black" stroke-width="0.821721"/>
<path d="M64.0071 145.445L72.7209 109.381L78.79 110.849L70.0766 146.913L64.0071 145.445Z" fill="white"/>
<path fill-rule="evenodd" clip-rule="evenodd" d="M64.0071 145.445L72.7209 109.381L78.79 110.849L70.0766 146.913L64.0071 145.445Z" stroke="black" stroke-width="0.821721"/>
<path d="M70.0741 146.901L68.1194 141.871L64.0042 145.434" stroke="black" stroke-width="0.821721"/>
<path d="M75.7515 110.102L68.1196 141.871" stroke="black" stroke-width="0.821721"/>
<path d="M142.703 51.5985C142.589 51.618 142.491 51.6371 142.366 51.6622C141.217 51.8629 140.129 52.3201 139.182 53C138.144 53.803 137.202 55.198 136.744 56.3976C136.051 58.2198 135.288 60.0118 134.458 61.7742C133.204 64.4914 131.712 67.092 130.001 69.5461C128.225 72.0435 126.091 74.5743 123.405 76.1288C123.067 76.3329 122.712 76.5054 122.344 76.6449C121.891 76.836 115.531 69.5145 114.83 68.6989C112.022 65.4309 109.119 62.1946 105.827 59.3981C104.993 58.6848 104.129 57.9966 103.242 57.3531C100.175 55.1018 96.7001 53.4681 93.0103 52.5437" stroke="black" stroke-width="0.821721"/>
<path d="M154.147 51.3306C154.16 51.3336 154.173 51.3336 154.185 51.3306C157.127 51.6746 155.975 54.8468 153.906 54.745C151.619 54.6306 149.34 54.745 147.061 54.7831C146.432 54.7628 145.807 54.8776 145.227 55.1211C144.081 55.6689 143.973 56.8918 143.801 58.0004C143.572 59.453 143.311 60.9052 143.003 62.3448C142.404 65.1989 141.666 68.0144 140.819 70.8048C140.271 72.6141 139.667 74.4147 139.03 76.1962C137.17 81.4455 134.828 87.0133 130.886 91.0604C128.709 93.3026 125.856 94.9589 122.641 94.7171C118.114 94.3795 113.759 92.1053 109.919 89.519C109.903 89.5077 109.888 89.4947 109.875 89.4804C108.442 88.5153 107.068 87.4644 105.762 86.3338C105.762 86.3338 100.47 81.6197 98.8535 78.1667" stroke="black" stroke-width="0.821721"/>
<path fill-rule="evenodd" clip-rule="evenodd" d="M162.511 48.4769V48.7742C162.511 50.8253 160.86 51.1776 159.434 51.2118L131.828 51.8489C130.618 51.8805 129.602 50.821 129.576 49.4979V49.4429C129.576 48.1454 130.527 47.0668 131.722 47.0369C131.722 47.0369 147.164 46.6018 159.124 46.2724C159.351 46.9966 159.907 47.5573 160.597 47.9946C161.173 48.3413 161.839 48.5094 162.511 48.4769Z" stroke="black" stroke-width="0.821721"/>
<path fill-rule="evenodd" clip-rule="evenodd" d="M177.178 19.2527C177.178 19.5907 177.098 19.9239 176.944 20.2252L164.607 45.5477C164.314 46.1396 163.776 46.5738 163.136 46.7364C162.626 46.8655 162.087 46.81 161.614 46.5795C160.843 46.2003 160.355 45.4155 160.356 44.5557C160.358 44.219 160.435 43.8866 160.581 43.5832L172.925 18.2589C173.386 17.3279 174.428 16.837 175.439 17.0733C176.451 17.3097 177.167 18.2111 177.169 19.2505L177.178 19.2527Z" stroke="black" stroke-width="0.821721"/>
<path d="M143.606 14.0432C147.35 14.0432 150.385 11.0066 150.385 7.26084C150.385 3.51506 147.35 0.478516 143.606 0.478516C139.862 0.478516 136.827 3.51506 136.827 7.26084C136.827 11.0066 139.862 14.0432 143.606 14.0432Z" fill="#51A951"/>
<path d="M141.452 9.59516C141.228 9.511 141.017 9.39282 140.828 9.24479C140.14 8.72524 139.95 7.7718 140.387 7.0279C140.666 6.5548 141.151 6.24027 141.696 6.17852C141.39 5.45815 141.597 4.62172 142.206 4.12879C142.814 3.63586 143.674 3.60577 144.315 4.05506C144.971 4.5116 145.425 5.31639 145.703 6.05111C145.847 6.43693 145.952 6.83592 146.018 7.24237C146.049 7.45472 146.266 8.62262 146.096 8.74153C144.976 9.51872 142.889 10.143 141.452 9.59516Z" fill="white"/>
<g opacity="0.72">
<path d="M137.886 28.1921C139.946 28.1921 141.617 26.5207 141.617 24.459C141.617 22.3973 139.946 20.726 137.886 20.726C135.825 20.726 134.155 22.3973 134.155 24.459C134.155 26.5207 135.825 28.1921 137.886 28.1921Z" fill="#51A951"/>
<path d="M138.624 26.0428C138.534 26.1404 138.429 26.2234 138.314 26.2891C137.905 26.5282 137.382 26.4253 137.093 26.0491C136.908 25.8076 136.848 25.4928 136.93 25.1998C136.501 25.2024 136.122 24.9215 135.999 24.5101C135.876 24.0988 136.039 23.6557 136.399 23.4224C136.798 23.202 137.251 23.1016 137.705 23.1336C137.931 23.1399 138.157 23.1698 138.378 23.2228C138.49 23.2483 139.131 23.3842 139.156 23.4946C139.32 24.2315 139.203 25.427 138.624 26.0428Z" fill="white"/>
</g>
<path d="M155.082 23.7841C153.835 21.4437 154.72 18.535 157.059 17.2875C159.399 16.0399 162.305 16.9258 163.552 19.2663C164.799 21.6067 163.914 24.5153 161.575 25.7629C159.235 27.0105 156.329 26.1246 155.082 23.7841Z" fill="#51A951"/>
<path d="M160.357 25.6997L163.008 24.2854C164.159 23.6675 164.595 22.2361 163.984 21.0811L162.287 17.8959C161.67 16.7438 160.238 16.3072 159.084 16.9192L158.906 17.0147C158.244 17.9342 157.363 19.5077 158.694 20.0024C160.604 20.718 160.046 21.7904 159.33 23.1642C158.723 24.3173 158.569 25.6657 160.357 25.6997Z" fill="white"/>
<path d="M156.229 21.8432C156.783 21.8432 157.231 21.3944 157.231 20.8409C157.231 20.2874 156.783 19.8386 156.229 19.8386C155.676 19.8386 155.228 20.2874 155.228 20.8409C155.228 21.3944 155.676 21.8432 156.229 21.8432Z" fill="white"/>
<path d="M143.889 38.5712C144.26 38.7517 144.655 38.8776 145.062 38.9449C146.583 39.1781 148.114 38.5943 149.095 37.4076C149.466 36.9447 149.744 36.3649 150.135 35.8978C150.402 35.5569 150.759 35.2979 151.166 35.1503C151.306 35.1204 151.436 35.057 151.546 34.9656C151.813 34.6895 151.359 34.456 151.268 34.233C151.131 33.8733 151.131 33.4758 151.268 33.1161C151.987 31.1659 151.228 28.9796 149.456 27.8947C147.684 26.81 145.393 27.129 143.984 28.6568C143.309 29.3851 142.904 30.3152 142.484 31.2049C142.11 31.997 141.713 32.7848 141.507 33.6363C141.03 35.6536 142.108 37.7027 143.889 38.5712Z" fill="#51A951"/>
<path d="M147.68 31.4043C148.201 31.4043 148.624 30.9813 148.624 30.4594C148.624 29.9375 148.201 29.5145 147.68 29.5145C147.158 29.5145 146.735 29.9375 146.735 30.4594C146.735 30.9813 147.158 31.4043 147.68 31.4043Z" fill="white"/>
<path d="M146.443 34.014C146.964 34.014 147.387 33.5909 147.387 33.0691C147.387 32.5472 146.964 32.1241 146.443 32.1241C145.921 32.1241 145.498 32.5472 145.498 33.0691C145.498 33.5909 145.921 34.014 146.443 34.014Z" fill="white"/>
<path d="M145.283 36.4587C145.804 36.4587 146.227 36.0357 146.227 35.5138C146.227 34.9919 145.804 34.5688 145.283 34.5688C144.761 34.5688 144.338 34.9919 144.338 35.5138C144.338 36.0357 144.761 36.4587 145.283 36.4587Z" fill="white"/>
<g opacity="0.54">
<path d="M122.613 42.4199C122.9 42.3818 123.183 42.3229 123.462 42.2436L126.658 41.3433C127.636 41.0672 128.666 40.7615 129.36 40.0161C130.646 38.6338 130.23 36.4381 129.731 34.6162C129.325 33.1255 128.918 31.6348 128.511 30.1442C128.231 29.1164 127.942 28.0717 127.384 27.1713C126.825 26.271 125.943 25.4981 124.89 25.3324C124.115 25.2114 123.33 25.4195 122.572 25.6255L119.505 26.4748C118.5 26.7488 117.439 27.0567 116.734 27.8275C115.482 29.1971 115.885 31.3461 116.364 33.1361L117.589 37.7122C118.34 40.4621 119.748 42.7809 122.613 42.4199Z" fill="#51A951"/>
<path d="M122.401 36.1794C122.787 36.5557 123.343 36.6977 123.862 36.5518C124.38 36.4059 124.781 35.9944 124.914 35.4723L125.271 34.075L125.625 32.6757C125.758 32.1536 125.602 31.6005 125.216 31.2247C124.83 30.8489 124.274 30.7074 123.755 30.8537L122.37 31.2445L120.981 31.6352C120.464 31.7828 120.065 32.1951 119.933 32.717C119.802 33.239 119.959 33.7913 120.345 34.1663L121.378 35.1729L122.401 36.1794Z" fill="white"/>
</g>
</svg>
