<svg width="828" height="541" viewBox="0 0 828 541" fill="none" xmlns="http://www.w3.org/2000/svg">
    <path d="M641.41 446.323C583.317 444.779 403.305 439.193 294.16 429.142C91.779 410.504 -74.083 433.749 34.1865 464.802C64.443 473.484 -23.8994 521.423 190.411 535.804C378.532 548.425 570.759 530.424 663.781 522.856C756.802 515.28 799.895 500 819.91 493.117C837.505 487.061 844.484 451.703 641.418 446.315L641.41 446.323Z" fill="#E4EFFF"/>
    <path d="M336.155 385.643C336.386 384.807 336.426 383.852 336.274 382.842C334.93 377.176 336.171 377.223 332.463 366.48C328.826 356.055 321.902 340.648 309.48 322.91C308.262 321.095 306.877 319.543 305.381 318.286C296.635 317.864 288.263 320.737 279.478 322.05C276.653 324.939 274.329 328.385 272.984 332.523C266.22 351.201 263.068 361.984 261.938 371.008C260.729 379.754 261.548 386.749 260.967 391.413C288.836 410.186 308.66 385.834 336.147 385.635L336.155 385.643Z" fill="#163F59"/>
    <path d="M186.616 328.344C185.167 327.453 180.201 332.976 178.1 337.862C173.97 347.444 172.912 352.744 171.304 363.312C168.766 380.072 164.468 406.692 163.044 418.024C161.763 428.234 157.656 440.314 163.792 438.611C163.696 424.597 170.142 403.453 173.883 392.359C186.647 354.455 191.08 331.082 186.616 328.352V328.344Z" fill="#E9D6B8"/>
    <path d="M157.448 337.345C157.99 334.655 158.547 332.013 159.112 329.403C161.014 325.607 162.669 323.609 163.942 323.912C168.733 325.034 173.07 346.696 158.021 398.153C157.265 400.739 147.167 445.591 147.238 444.484C148.981 415.684 149.395 377.215 157.456 337.345H157.448Z" fill="#E9D6B8"/>
    <path d="M146.729 447.803C144.135 453.055 140.896 456.764 139.511 456.071C138.119 455.387 139.097 450.572 141.7 445.312C144.294 440.052 147.533 436.351 148.918 437.036C150.31 437.728 149.324 442.543 146.729 447.795V447.803Z" fill="#FEC12F"/>
    <path d="M147.525 444.683C146.188 448.798 143.363 451.774 141.978 451.09C140.594 450.405 141.103 446.88 143.188 443.092C145.83 438.301 146.833 436.924 147.063 433.494C147.27 430.271 152.539 429.221 147.533 444.691L147.525 444.683Z" fill="#E9D6B8"/>
    <path d="M174.448 436.695C174.448 436.695 173.055 436.098 169.211 435.373C166.967 434.944 165.264 434.96 164.452 434.116C163.123 432.723 163.856 429.349 163.211 429.508C160.028 430.233 158.929 437.665 160.792 438.596C162.646 439.528 173.127 438.286 173.986 438.222C174.846 438.159 174.71 436.496 174.448 436.702V436.695Z" fill="#E9D6B8"/>
    <path d="M172.259 436.016C172.856 438.523 165.169 437.513 163.187 436.86C161.285 436.239 160.075 436.04 160.075 436.04C159.996 436.04 159.916 436.024 159.837 436.024C159.829 436.088 159.805 436.144 159.805 436.207C159.805 437.576 159.2 439.407 161.396 439.407H175.164C186.425 439.407 172.235 435.953 172.251 436.016H172.259Z" fill="#FEC12F"/>
    <path d="M263.132 492.916C263.132 492.916 264.747 492.328 269.148 491.755C271.726 491.42 273.652 491.548 274.623 490.64C276.223 489.144 276.135 483.574 276.477 483.661C280.058 484.592 280.225 495.988 278.491 495.956C276.135 495.917 264.532 494.81 263.561 494.675C262.59 494.548 262.845 492.678 263.132 492.924V492.916Z" fill="#E9D6B8"/>
    <path d="M280.377 397.419C281.571 398.892 286.099 402.934 287.014 407.582C288.812 416.686 289.242 421.381 287.985 430.676C285.995 445.415 282.342 468.915 280.671 478.807C279.159 487.72 280.226 498.917 273.979 495.932C278.077 484.162 276.573 464.792 276.103 454.479C272.864 384.106 278.276 394.817 280.385 397.427L280.377 397.419Z" fill="#E9D6B8"/>
    <path d="M265.654 492.296C264.819 495.097 273.588 494.453 275.88 493.84C278.069 493.259 279.462 493.116 279.462 493.116C279.557 493.116 279.637 493.116 279.732 493.116C279.732 493.187 279.756 493.259 279.748 493.322C279.66 494.874 280.225 496.983 277.743 496.848L262.137 495.957C249.38 495.224 265.678 492.232 265.662 492.304L265.654 492.296Z" fill="#194866"/>
    <path d="M282.207 302.313C285.199 301.525 285.263 304.135 287.419 310.661C291.645 323.45 294.04 342.39 292.576 362.563C290.849 386.207 287.236 409.914 282.366 422.893C278.355 413.535 275.124 405.083 272.888 384.408C267.93 338.618 273.007 304.74 282.207 302.321V302.313Z" fill="#E9D6B8"/>
    <path d="M281.22 305.632C283.95 305.051 283.942 307.239 285.725 312.754C289.226 323.561 290.913 339.469 289.075 356.309C286.918 376.045 282.629 397.898 277.369 398.096C275.347 398.168 274.504 383.414 273.724 371.039C271.281 332.554 272.84 307.414 281.22 305.624V305.632Z" fill="#E9D6B8"/>
    <path d="M316.864 497.628C316.864 497.628 318.599 497.142 322.514 496.251C325.26 495.622 326.629 495.209 327.273 494.102C328.332 492.28 327.846 487.028 328.578 487.02C332.151 486.972 333.186 496.41 332.327 497.914C331.204 499.888 319.594 500.755 317.811 499.824C316.975 499.387 316.53 497.492 316.864 497.636V497.628Z" fill="#E9D6B8"/>
    <path d="M313.936 403.706C315.599 402.966 313.936 396.13 317.079 400.634C322.196 407.972 326.509 424.628 327.242 433.644C328.411 447.937 330.552 470.641 331.014 480.302C331.435 489.017 334.746 499.338 328.244 497.818C328.563 485.563 324.687 467.824 321.679 458.33C311.413 425.925 308.819 405.982 313.928 403.706H313.936Z" fill="#E9D6B8"/>
    <path d="M316.873 497.596C320.342 501.224 327.059 498.598 329.24 497.739C332.964 496.251 332.733 495.057 332.749 495.121C333.107 496.585 333.672 498.718 331.531 499.808C329.59 500.803 327.425 500.739 325.022 501.081C322.865 501.384 310.267 502.545 309.854 500.954C309.273 498.718 316.825 497.548 316.873 497.596Z" fill="#194866"/>
    <path d="M307.537 309.5C310.394 308.648 310.538 311.163 312.806 317.386C317.27 329.586 320.151 347.762 319.339 367.259C318.392 390.099 315.137 410.098 310.84 422.743C306.686 413.846 303.805 408.753 301.02 388.897C294.86 344.913 298.736 312.11 307.529 309.5H307.537Z" fill="#E9D6B8"/>
    <path d="M310.649 393.807C312.169 392.924 315.042 396.784 317.175 400.556C321.361 407.957 322.992 417.188 325.149 429.929C327.68 444.85 328.507 458.204 327.751 466.91C324.465 460.432 321.751 452.044 317.947 443.37C294.98 390.974 305.97 396.513 310.642 393.807H310.649Z" fill="#E9D6B8"/>
    <path d="M306.837 306.722C309.686 306.021 309.749 308.321 311.81 314.051C315.845 325.296 318.145 341.96 316.76 359.722C315.471 376.339 312.789 391.26 309.407 402.417C308.556 405.234 305.404 405.322 304.847 402.767C303.112 394.69 302.038 385.57 301.107 375.718C297.271 335.347 298.083 308.87 306.837 306.722Z" fill="#E9D6B8"/>
    <path d="M246.412 149.096C212.733 154.349 156.7 157.763 133.137 152.431C109.326 146.94 98.1849 85.3523 111.491 67.6456C125.019 50.1061 167.707 40.0551 189.058 36.076C242.274 26.1523 290.881 24.3936 288.279 73.0571C285.573 123.567 282.868 143.414 246.42 149.096H246.412Z" fill="#3BB6D5"/>
    <path d="M143.283 146.288C143.283 146.288 144.636 165.228 170.349 176.051C170.349 176.051 157.027 149.726 168.996 136.81C176.182 129.059 143.283 146.28 143.283 146.28V146.288Z" fill="#3BB6D5"/>
    <path d="M60.6385 7.62621C91.5237 1.85662 149.506 -4.52574 168.685 5.00005C188.031 14.7248 178.848 74.9275 161.618 89.077C144.246 103.027 76.1169 105.805 56.0149 105.479C5.91887 104.667 24.684 14.3349 60.6385 7.62621Z" fill="#B0BFDE"/>
    <path d="M53.938 100.259C53.938 100.259 55.2909 119.2 81.0034 130.03C81.0034 130.03 67.6816 103.705 79.6505 90.7893C86.8366 83.0381 53.938 100.259 53.938 100.259Z" fill="#B0BFDE"/>
    <path d="M217.659 168.022L214.707 147.601C210.966 143.662 206.16 141.553 201.282 142.262C191.867 143.63 185.708 154.915 187.522 167.473C189.344 180.031 198.448 189.111 207.863 187.75C214.452 186.795 219.442 180.978 221.224 173.274C219.338 172.112 217.986 170.258 217.659 168.014V168.022Z" fill="#163F59"/>
    <path d="M180.265 179.807C179.907 183.07 183.345 186.118 187.944 186.627L198.433 187.789C203.033 188.291 207.052 186.062 207.41 182.8L210.689 153.044C211.047 149.782 207.609 146.726 203.017 146.216L192.528 145.063C187.928 144.553 183.91 146.789 183.552 150.052L180.273 179.807H180.265Z" fill="#163F59"/>
    <path d="M207.616 192.581C213.84 195.271 216.951 194.435 212.2 196.44C209.916 199.242 180.71 195.342 179.119 191.721C178.856 191.109 190.713 189.374 190.777 188.92C191.509 183.668 191.788 179.219 190.324 173.346C190.379 172.885 190.737 172.519 191.103 172.526C193.316 172.59 195.544 172.606 197.772 172.67C198.138 172.686 202.491 173.649 201.52 175.734C201.043 181.455 201.035 189.732 207.616 192.581Z" fill="#E9D6B8"/>
    <path d="M209.598 175.351C209.693 175.144 209.797 174.929 209.892 174.722C209.916 174.658 209.948 174.595 209.98 174.523C210.099 174.26 210.211 173.99 210.314 173.711C210.346 173.64 210.37 173.568 210.394 173.489C210.473 173.282 210.545 173.067 210.616 172.852C210.656 172.741 210.696 172.613 210.736 172.502C210.792 172.319 210.847 172.144 210.911 171.953C210.951 171.825 210.99 171.698 211.022 171.571C211.094 171.332 211.15 171.085 211.221 170.831C211.269 170.648 211.309 170.465 211.357 170.266C211.396 170.098 211.436 169.923 211.476 169.756C211.516 169.581 211.548 169.406 211.579 169.231C211.611 169.08 211.643 168.929 211.667 168.769C211.691 168.65 211.715 168.531 211.746 168.403C212.105 166.287 211.388 156.315 209.709 151.556C209.502 150.983 208.89 150.53 208.03 150.625C202.897 151.198 187.26 150.474 191.302 164.727V164.743C191.302 164.743 191.541 166.008 191.66 166.565C191.668 166.621 191.684 166.661 191.692 166.708C191.82 167.273 191.955 167.838 192.106 168.372C192.114 168.411 192.122 168.443 192.138 168.475C192.289 169.024 192.456 169.565 192.631 170.09C192.631 170.106 192.639 170.13 192.647 170.146C194.883 176.863 198.807 181.295 202.961 181.009C205.38 180.842 207.505 179.091 209.104 176.282C209.104 176.282 209.128 176.234 209.136 176.218C209.256 176.003 209.375 175.788 209.494 175.566C209.526 175.502 209.558 175.43 209.59 175.367L209.598 175.351Z" fill="#E9D6B8"/>
    <path d="M124.081 187.28C124.081 187.28 122.99 187.797 122.537 186.978C121.789 185.609 121.518 182.497 121.47 181.383C121.415 180.142 122.139 174.261 122.139 174.261C122.139 174.261 123.34 176.115 123.054 178.471C122.64 181.924 124.081 187.28 124.081 187.28Z" fill="#E9D6B8"/>
    <path d="M123.969 186.476C122.983 184.471 123.492 181.932 124.821 179.091C126.078 176.401 125.163 174.706 125.163 174.706C125.163 174.706 124.168 176.353 122.656 180.746C122.235 181.98 121.845 183.349 121.9 184.638C122.052 188.529 126.524 191.633 123.969 186.476Z" fill="#E9D6B8"/>
    <path d="M241.279 240.305C251.839 248.923 297.439 260.789 297.439 260.789C297.439 260.789 307.267 258.314 249.507 234.177C246.618 232.967 238.668 238.18 241.279 240.305Z" fill="#E9D6B8"/>
    <path d="M300.185 263.056C300.185 263.056 303.829 264.417 304.928 266.024C305.692 267.146 308.421 273.011 308.421 273.011C308.421 273.011 306.249 271.993 305.142 269.637C303.535 266.191 300.185 263.056 300.185 263.056Z" fill="#E9D6B8"/>
    <path d="M303.264 266.24C305.628 266.86 307.355 269.097 308.747 272.224C310.076 275.184 312.122 275.646 312.122 275.646C312.122 275.646 311.469 273.641 308.93 269.256C308.214 268.022 307.434 266.805 306.638 265.643C304.02 261.799 297.184 264.648 303.264 266.232V266.24Z" fill="#E9D6B8"/>
    <path d="M296.579 261.544C296.977 263.208 299.603 265.11 299.524 266.176C299.301 269.264 298.243 270.871 298.29 270.863C301.863 270.433 301.792 265.324 303.153 263.582C304.506 261.847 295.553 257.223 296.579 261.536V261.544Z" fill="#E9D6B8"/>
    <path d="M278.308 253.062C284.523 254.653 291.693 256.348 294.669 258.593C298.911 261.792 299.699 265.309 303.264 266.232C303.654 266.336 304.012 266.519 304.394 266.67C305.397 267.076 306.59 267.346 306.988 267.569C307.434 267.816 308.604 268.668 308.278 268.142C305.333 263.447 301.585 258.497 300.399 257.86C297.988 256.547 284.284 249.887 278.69 248.462C272.379 246.862 269.912 250.905 278.308 253.062Z" fill="#E9D6B8"/>
    <path d="M303.36 265.715C303.36 265.715 303.71 264.433 304.721 264.648C306.368 265.006 309.137 267.012 310.092 267.768C311.151 268.611 315.496 273.418 315.496 273.418C315.496 273.418 313.108 273.092 311.358 271.166C308.803 268.349 303.368 265.715 303.368 265.715H303.36Z" fill="#E9D6B8"/>
    <path d="M270.039 244.029C265.949 245.676 254.044 242.469 254.012 244.785C264.938 251.318 298.115 256.722 298.115 256.722L270.031 244.029H270.039Z" fill="#E9D6B8"/>
    <path d="M165.813 211.114C160.131 215.308 155.101 230.062 151.202 239.413C148.997 244.681 149.809 248.652 149.809 248.652C149.809 248.652 151.735 261.003 166.449 227.341C170.134 218.921 167.946 209.53 165.813 211.106V211.114Z" fill="#E9D6B8"/>
    <path d="M154.48 248.104C154.409 235.665 132.142 202.902 132.142 202.902C132.142 202.902 120.452 193.026 141.795 241.172C148.202 255.632 154.504 251.176 154.48 248.104Z" fill="#E9D6B8"/>
    <path d="M124.009 184.025L123.062 184.63L122.425 188.442C122.425 188.442 124.144 195.183 125.704 197.498C127.264 199.806 129.627 210.215 130.256 211.369C130.893 212.531 137.036 212.468 137.036 212.468C137.036 212.468 132.094 202.584 130.471 198.501C128.847 194.419 128.537 187.798 127.956 186.174C126.969 183.405 126.627 181.94 126.627 181.94C126.627 181.94 125.219 182.673 126.516 187.113C126.858 188.283 125.362 188.036 125.362 188.036L124.009 184.025Z" fill="#E9D6B8"/>
    <path d="M176.46 232.394L215.439 232.067L220.206 187.486L173.954 191.879L176.46 232.394Z" fill="#FEC12F"/>
    <path d="M217.66 365.199C198.497 368.199 195.027 365.652 173.007 362.509C170.922 362.541 162.001 341.102 168.28 284.552C169.577 272.901 178.379 263.543 176.365 231.909C189.464 231.655 202.563 231.408 215.67 231.153C210.45 259.906 241.598 264.37 217.66 365.199Z" fill="#FEC12F"/>
    <path d="M240.682 239.381L218.686 206.602L213.036 191.824C213.465 190.598 214.237 189.548 215.336 188.832L216.084 188.354C218.972 186.5 222.983 187.75 225.052 191.148L250.248 232.689L240.682 239.373V239.381Z" fill="#FEC12F"/>
    <path d="M160.903 243.281L174.32 214.744L179.708 194.809C179.016 193.822 178.029 193.018 176.803 192.557L175.976 192.238C172.761 191.029 169.187 192.66 167.978 195.867L151.839 235.18L160.903 243.273V243.281Z" fill="#FEC12F"/>
    <path d="M123.731 188.848C123.731 188.848 122.657 185.458 123.198 183.755C123.58 182.569 126.278 177.293 126.278 177.293C126.278 177.293 126.763 179.442 125.689 181.566C124.113 184.67 123.731 188.848 123.731 188.848Z" fill="#E9D6B8"/>
    <path d="M125.362 188.029C125.362 188.029 126.349 188.26 126.683 187.949C126.699 188.284 126.611 188.626 126.587 188.88C126.524 189.469 126.85 193.456 126.85 193.456C126.85 193.456 126.062 190.623 125.648 189.851C125.394 189.366 125.115 188.172 124.876 187.177C124.845 187.058 124.892 186.835 124.876 186.604L125.362 188.037V188.029Z" fill="#E9D6B8"/>
    <path d="M126.516 187.105C125.648 184.121 125.999 182.816 126.325 182.267C126.524 182.975 126.866 184.105 127.423 185.673C127.622 186.23 127.797 187.408 127.996 188.864C128.036 189.142 126.985 189.405 126.572 191.808C126.5 192.246 125.704 189.636 125.569 188.052C125.959 188.068 126.778 188.004 126.516 187.105Z" fill="#E9D6B8"/>
    <path d="M199.945 171.309C198.067 170.155 196.714 168.293 196.388 166.049L193.435 145.636C193.26 145.445 193.069 145.286 192.886 145.111L192.528 145.071C187.928 144.562 183.909 146.798 183.551 150.061L180.272 179.816C179.994 182.331 181.991 184.71 185.031 185.904C185.557 185.888 186.074 185.864 186.607 185.785C193.196 184.83 198.186 179.012 199.969 171.309H199.945Z" fill="#163F59"/>
    <path d="M485.758 62.9347C527.029 41.0501 568.323 38.9571 605.082 48.6182C641.848 58.2793 655.918 67.3037 650.705 111.176C645.501 155.057 630.929 180.03 610.103 179.21C550.656 176.854 535.592 175.509 504.38 178.12L514.352 200.856L489.196 179.337C457.937 180.507 453.194 166.183 451.228 154.89C451.228 154.89 444.488 84.8194 485.758 62.9268V62.9347Z" fill="#7DCCD0"/>
    <path d="M346.413 6.84661C312.655 11.5817 283.321 25.4605 264.198 40.2466C244.932 55.2714 235.875 71.1955 239.082 85.6632C242.321 100.266 256.988 111.837 276.525 122.278C296.189 132.465 320.708 141.521 346.667 145.396C397.281 154.222 443.883 129.727 454.252 82.106C464.733 34.7476 415.377 -4.2151 346.413 6.85457V6.84661Z" fill="#FEC12F"/>
    <path d="M365.011 137.072C365.011 137.072 365.862 156.044 341.582 169.771C341.582 169.771 351.769 142.085 338.383 130.641C330.354 123.774 365.019 137.072 365.019 137.072H365.011Z" fill="#FEC12F"/>
    <path d="M278.793 191.785C278.793 200.865 286.154 208.21 295.226 208.21L299.333 200.411C308.405 200.411 315.758 186.739 315.758 177.667V171.508C315.758 162.435 308.405 155.074 299.333 155.074H295.226C286.146 155.074 278.793 162.435 278.793 171.508V191.793V191.785Z" fill="#AD5C49"/>
    <path d="M276.294 204.326C264.612 219.311 263.474 252.878 263.474 252.878C263.474 252.878 268.957 259.197 271.44 256.873C274.591 253.921 281.467 236.342 288.136 211.632C292.274 196.336 278.244 201.812 276.294 204.326Z" fill="#163F59"/>
    <path d="M270.947 248.207C279.478 257.55 275.546 273.713 275.546 273.713C275.546 273.713 272.387 274.325 270.469 272.726C268.042 270.697 266.466 265.293 263.522 252.751C261.691 244.992 269.522 246.647 270.947 248.207Z" fill="#163F59"/>
    <path d="M270.987 262.38C270.987 262.38 273.438 261.934 276.796 272.041C280.154 282.148 279.414 294.419 279.414 294.419L271.878 274.81C271.878 274.81 268.432 265.953 270.995 262.38H270.987Z" fill="#E9D6B8"/>
    <path d="M312.479 171.007C313.625 170.84 314.755 170.776 315.877 170.744C315.853 172.153 315.909 173.577 316.108 175.018C318.098 188.896 330.377 198.796 344.327 198.454C344.113 211.736 334.093 223.323 320.254 225.305C304.943 227.501 290.786 217.124 288.637 202.139C286.488 187.146 297.16 173.211 312.471 171.015L312.479 171.007Z" fill="#AD5C49"/>
    <path d="M285.359 161.306C285.375 162.818 285.51 164.362 285.757 165.937C287.42 176.49 293.826 184.503 300.837 185.49C301.052 190.273 302.747 194.411 303.169 198.215C304.084 206.492 313.26 207.383 313.26 207.383C314.446 214.752 285.47 224.962 286.059 223.768C286.648 222.583 292.831 213.908 294.853 205.942C296.261 200.396 294.447 195.82 292.33 192.66C288.415 188.045 282.725 188.116 282.725 188.116C282.176 188.116 281.69 187.886 281.34 187.512C281.006 186.429 280.823 185.275 280.823 184.074V170.521C280.823 166.765 282.605 163.438 285.359 161.306Z" fill="#E9D6B8"/>
    <path d="M320.891 248.931L333.186 225.017C336.839 217.911 334.197 211.027 327.313 209.722L288.359 202.329C284.053 201.923 277.496 209.173 279.39 217.338L288.741 243.862L320.899 248.939L320.891 248.931Z" fill="#E9D6B8"/>
    <path d="M326.494 211.632C318.823 235.546 343.779 268.349 343.779 268.349C343.779 268.349 351.602 268.468 352.342 264.879C353.289 260.327 346.485 250.833 337.819 223.466C332.455 206.523 327.553 208.321 326.486 211.632H326.494Z" fill="#163F59"/>
    <path d="M288.144 277.286C288.152 282.689 288.438 289.223 290.81 289.103L307.1 286.756C309.471 286.644 317.262 287.432 317.254 282.021L321.83 259.619C321.814 254.215 319.889 249.918 317.517 250.037L287.889 238.18C285.518 238.299 283.608 242.771 283.624 248.183L288.16 277.286H288.144Z" fill="#7DCCD0"/>
    <path d="M281.817 213.017C282.167 211.498 282.676 210.105 283.265 208.911C302.635 224.023 316.251 217.729 326.08 215.238C326.175 215.874 326.247 216.535 326.286 217.219C326.684 224.684 326.239 232.149 326.565 239.613C326.859 245.55 319.267 250.699 315.615 250.842C301.99 251.415 298.887 250.508 285.756 246.553C282.239 245.486 275.681 239.168 277.01 233.724C278.649 226.841 280.241 219.941 281.809 213.017H281.817Z" fill="#7DCCD0"/>
    <path d="M314.851 206.809C314.851 206.809 330.497 206.323 333.234 213.82C335.98 221.316 329.319 232.227 329.319 232.227C329.319 232.227 325.348 246.122 324.249 253.658C323.159 261.194 327.95 268.348 326.47 266.876C326.175 266.574 322.634 266.916 316.992 264.274C311.349 261.632 314.477 251.358 315.034 248.039C315.583 244.721 318.345 228.431 317.732 225.733C317.111 223.027 314.851 206.801 314.851 206.801V206.809Z" fill="#194866"/>
    <path d="M277.504 213.263C279.087 208.234 283.751 200.323 286.719 201.191C289.68 202.058 293.109 202.83 293.109 202.83C293.109 202.83 282.788 207.334 283.186 228.773C283.257 232.434 282.748 239.763 283.989 245.469C285.239 251.175 285.661 262.309 285.661 262.309C285.661 262.309 279.477 263.582 279.191 264.489C278.904 265.396 280.018 258.56 277.313 249.082C271.296 228.033 274.607 222.463 277.504 213.263Z" fill="#194866"/>
    <path d="M353.368 208.465H350.948V206.77H334.841V221.03C334.841 222.972 336.218 224.548 337.905 224.548H347.885C349.572 224.548 350.948 222.964 350.948 221.03V219.94H353.368C354.553 219.94 355.524 218.826 355.524 217.465V210.948C355.524 209.579 354.561 208.473 353.368 208.473V208.465ZM353.702 217.465C353.702 217.68 353.551 217.855 353.368 217.855H350.948V210.558H353.368C353.551 210.558 353.702 210.733 353.702 210.948V217.465Z" fill="#FFC40E"/>
    <path d="M352.445 241.841C353.877 236.39 356.313 230.763 355.867 227.516C355.23 222.893 352.867 220.792 353.679 217.656C353.766 217.314 353.782 216.956 353.83 216.606C353.949 215.667 354.252 214.632 354.252 214.242C354.252 213.797 354.1 212.523 354.363 213.001C356.703 217.266 358.899 222.256 358.883 223.434C358.851 225.853 358.103 239.199 356.798 244.101C355.334 249.632 350.511 249.194 352.445 241.841Z" fill="#E9D6B8"/>
    <path d="M356.759 226.569C356.759 226.569 357.817 227.039 358.231 226.227C358.907 224.898 359.067 221.906 359.075 220.839C359.083 219.646 358.207 214.035 358.207 214.035C358.207 214.035 357.117 215.842 357.459 218.102C357.968 221.396 356.759 226.569 356.759 226.569Z" fill="#E9D6B8"/>
    <path d="M356.026 252.903C354.188 252.179 352.365 251.328 350.575 250.357C354.45 236.096 358.39 224.183 358.39 224.183L356.026 252.895V252.903Z" fill="#E9D6B8"/>
    <path d="M357.801 219.615L356.409 211.688L353.313 210.94L352.246 211.474L352.119 212.325C352.119 212.325 352.517 212.85 352.437 212.85C352 212.85 352.135 214.211 352.517 214.211C352.557 214.211 352.151 215.819 352.246 216.065C352.509 216.71 353.743 216.599 354.276 217.991C354.809 219.384 354.061 220.984 354.809 221.087C355.557 221.19 357.801 219.615 357.801 219.615Z" fill="#E9D6B8"/>
    <path d="M356.727 249.298C356.536 248.121 349.875 247.715 349.111 249.816L348.339 251.36C348.339 251.36 342.235 264.896 349.501 267.379C349.501 267.379 357.347 266.814 356.734 249.298H356.727Z" fill="#163F59"/>
    <path d="M385.049 493.275C385.701 492.487 385.232 490.426 385.232 490.426C385.232 490.426 373.892 489.16 370.247 490.02C369.3 490.243 367.7 491.054 366.196 491.922C365.942 492.065 365.496 492.941 365.241 493.084C364.788 493.354 364.549 492.901 364.159 493.14C363.148 493.776 362.44 494.278 362.424 494.341C361.429 499.538 362.75 501.639 362.75 501.639C362.75 501.639 372.085 504.535 374.21 502.61C379.614 497.723 383.632 494.994 385.049 493.275Z" fill="#161711"/>
    <path d="M420.908 497.564L422.532 506.008H431.142C431.142 506.008 431.62 504.814 432.344 504.814C432.965 504.814 433.753 506.008 434.588 506.008H456.497C456.497 506.008 456.887 504.233 456.409 503.62C456.17 503.302 454.722 502.761 453.767 502.49C449.319 501.241 436.586 497.333 434.373 493.084C431.675 487.911 420.908 497.564 420.908 497.564Z" fill="#161711"/>
    <path d="M427.76 212.897L429.821 202.663C429.821 202.663 437.095 203.22 438.503 199.305C441.352 191.458 438.973 178.916 437.246 175.399C432.344 165.387 430.267 147.872 407.348 161.798C398.634 167.098 412.091 192.803 413.093 198.366C414.088 203.92 411.12 210.335 411.12 210.335L416.483 214.353L427.76 212.897Z" fill="#E9D6B8"/>
    <path d="M386.999 309.754L386.243 342.024C386.243 342.024 374.091 328.614 372.905 313.359C371.728 298.103 386.235 308.56 386.999 309.754Z" fill="#E2C59C"/>
    <path d="M400.663 376.244C400.663 376.244 404.021 377.709 394.137 424.621C387.007 458.403 380.927 483.113 378.078 494.302C376.972 498.647 375.738 497.859 375.738 497.859L366.316 498.91L361.835 495.018L375.293 418.47L400.663 376.236V376.244Z" fill="#163F59"/>
    <path d="M462.306 288.729L443.023 325.71C443.023 325.71 479.821 299.09 477.514 284.448C475.206 269.797 462.306 288.729 462.306 288.729Z" fill="#E9D6B8"/>
    <path d="M386.792 222.876C386.792 222.876 378.977 227.651 373.343 266.478C367.717 305.298 371.306 303.825 371.306 303.825L372.332 312.675L386.943 314.242L394.838 280.723L386.792 222.876Z" fill="#F8C44F"/>
    <path d="M422.699 323.712C422.699 323.712 401.125 413.033 384.198 453.078C374.274 476.531 374.187 431.512 374.187 431.512L389.601 301.804L434.62 299.623C434.62 299.623 429.519 301.199 422.699 323.712Z" fill="#163F59"/>
    <path d="M406.99 299.87C406.99 299.87 423.296 415.509 424.999 420.729C430.8 438.388 439.729 415.238 441.782 409.357C443.828 403.468 447.242 359.906 446.557 328.121L445.881 296.337L406.99 299.87Z" fill="#163F59"/>
    <path d="M423.367 391.81C423.367 391.81 420.9 405.601 418.855 423.221C417.343 436.16 417.311 473.118 419.698 498.79C419.842 500.358 436.164 495.575 436.164 495.575C436.164 495.575 442.124 423.73 443.485 407.639C444.846 391.548 433.601 380.311 423.367 391.81Z" fill="#163F59"/>
    <path d="M386.314 222.948L405.565 214.218L410.873 209.197L431.333 208.703L434.914 214.6L450.774 221.476C450.774 221.476 454.682 227.627 451.284 250.467C447.512 275.782 446.716 314.036 446.716 314.036L386.736 316.933C386.736 316.933 391.933 235.235 386.306 222.948H386.314Z" fill="#F4DA80"/>
    <path d="M445.673 221.523C445.673 221.523 449.246 217.544 457.936 228.351C472.762 246.782 479.941 269.63 481.476 274.054C483.012 278.479 484.986 284.734 478.914 292.087C474.282 297.714 472.778 299.608 472.778 299.608L459.464 291.315L461.557 287.336L463.054 285.363C463.054 285.363 455.891 269.63 448.212 255.377C440.532 241.132 445.665 221.523 445.665 221.523H445.673Z" fill="#F4DA80"/>
    <path d="M430.784 178.344C430.784 178.344 428.19 176.752 427.792 178.741C427.386 180.731 428.787 185.116 429.98 185.522C431.174 185.92 431.572 191.299 431.572 191.299L428.389 197.276H412.25C412.25 197.276 407.268 195.087 406.862 191.498C406.464 187.909 402.485 162.603 402.485 162.603L413.842 156.626C413.842 156.626 419.818 153.634 424.004 152.44C430.426 150.602 431.771 154.032 431.572 155.83C431.373 157.621 433.371 157.82 435.957 157.82C438.543 157.82 441.742 159.809 440.342 161.011C439.761 161.504 442.339 163.08 441.321 164.982C439.856 167.704 434.962 168.579 434.564 172.972C434.389 174.953 433.57 181.535 430.784 178.352V178.344Z" fill="#194866"/>
    <path d="M589.15 471.136C588.681 471.765 589.031 473.42 589.031 473.42C589.031 473.42 597.283 474.455 599.933 473.786C600.626 473.611 601.788 472.959 602.878 472.274C603.061 472.155 603.387 471.463 603.57 471.351C603.904 471.136 604.079 471.494 604.358 471.303C605.09 470.802 605.607 470.404 605.615 470.356C606.324 466.21 605.361 464.531 605.361 464.531C605.361 464.531 598.326 461.945 597.013 463.727C593.933 467.921 590.177 469.783 589.142 471.152L589.15 471.136Z" fill="#163F59"/>
    <path d="M545.682 465.749L544.457 472.458H541.234C541.234 472.458 540.868 471.503 540.319 471.503C539.849 471.503 539.252 472.458 538.616 472.458H522.023C522.023 472.458 521.729 471.049 522.087 470.556C522.27 470.309 523.368 469.871 524.092 469.656C527.466 468.662 537.104 465.558 538.783 462.184C540.828 458.069 545.674 465.749 545.674 465.749H545.682Z" fill="#163F59"/>
    <path d="M590.591 317.942L597.474 314.115L598.286 313.255L597.331 311.727L595.827 311.91L596.09 307.438L588.88 306.157L585.187 304.43L588.601 316.574" fill="#E9D6B8"/>
    <path d="M558.71 208.679C558.71 208.679 566.421 217.17 542.683 239.588C518.944 262.006 514.622 255.448 514.622 255.448L507.452 250.673L502.136 225.725L513.596 223.067L514.837 224.539C514.837 224.539 517.304 224.786 518.538 223.027C519.771 221.268 527.634 215.371 538.966 200.808C544.195 194.092 557.23 207.039 558.71 208.679Z" fill="#D1DBEA"/>
    <path d="M504.03 227.148C504.03 227.148 480.093 226.711 478.183 201.794C477.618 194.385 475.716 201.555 474.411 208.63C473.105 215.705 477.474 235.64 490.271 243.653C503.06 251.667 508.519 253.633 513.461 250.362C518.403 247.099 504.022 227.148 504.022 227.148H504.03Z" fill="#E9D6B8"/>
    <path d="M539.34 465.78C539.34 465.78 543.057 471.167 545.787 466.13C552.089 454.511 561.448 425.822 561.766 412.763C562.22 394.038 559.045 381.018 559.045 381.018L539.094 374.509L539.34 465.78Z" fill="#163F59"/>
    <path d="M540.001 288.705L539.094 374.509L557.23 384.528C557.23 384.528 568.117 364.06 569.478 337.926C570.059 326.824 570.337 301.947 564.138 293.48C555.726 282.012 540.009 288.705 540.009 288.705H540.001Z" fill="#163F59"/>
    <path d="M546.614 288.706L549.583 318.413L557.644 350.627L566.223 380.741L596.861 464.316L605.775 465.041C605.775 465.041 604.652 402.299 593.766 384.012C588.004 374.327 588.012 352.848 585.354 329.706C584.877 325.536 587.24 316.121 586.858 312.325C585.362 297.332 577.635 286.104 577.635 286.104L546.614 288.714V288.706Z" fill="#194866"/>
    <path d="M539.706 290.01L579.003 289.143L595.779 232.959C595.779 232.959 606.658 198.986 585.807 198.548C564.949 198.11 540.908 198.11 540.908 198.11C540.908 198.11 523.679 229.799 539.706 290.01Z" fill="#D1DBEA"/>
    <path d="M610.215 273.593L585.33 303.881C585.33 303.881 586.221 308.29 588.219 305.95C588.466 305.672 587.256 304.78 588.776 303.953C594.888 300.618 609.244 295.477 614.56 290.344C621.555 283.588 626.521 275.646 626.521 275.646L610.207 273.593H610.215Z" fill="#E9D6B8"/>
    <path d="M561.05 205.997C561.05 205.997 542.762 237.527 547.959 272.415C548.365 275.169 551.643 277.126 551.643 277.126L556.148 273.195C556.148 273.195 555.79 233.707 561.058 205.997H561.05Z" fill="#3BB6D5"/>
    <path d="M561.703 205.161L562.705 212.132L574.65 200.816V199.073L561.703 205.161Z" fill="#B0BFDE"/>
    <path d="M557.946 200.673L555.853 209.729L561.153 205.161L557.946 200.673Z" fill="#B0BFDE"/>
    <path d="M522.509 231.414L519.39 225.78L518.013 223.6C516.716 224.722 514.83 224.539 514.83 224.539L517.933 228.295L520.782 233.396L522.39 241.171L522.509 231.406V231.414Z" fill="#B0BFDE"/>
    <path d="M593.885 231.956L607.549 271.317L610.51 272.494L608.862 275.113L625.718 278.041L633.127 265.181L613.438 211.759C613.438 211.759 605.83 200.538 588.88 198.668C576.592 197.315 592.899 228.685 593.885 231.956Z" fill="#D1DBEA"/>
    <path d="M626.744 268.912C626.744 268.912 615.253 271.069 609.22 271.984L610.51 272.501L608.862 275.119L614.696 276.082L623.195 276.273L624.524 273.13L622.041 272.509L626.744 268.92V268.912Z" fill="#B0BFDE"/>
    <path d="M576.123 190.653C575.669 192.81 574.881 196.16 574.006 198.11C572.645 201.158 560.859 205.081 559.045 205.511C557.23 205.949 559.498 196.367 559.498 194.187C559.498 192.524 560.573 193.041 559.284 190.646H576.123V190.653Z" fill="#E9D6B8"/>
    <path d="M555.98 185.8C555.686 187.663 556.951 189.421 558.821 189.724L574.029 192.159C575.891 192.461 577.65 191.188 577.952 189.318L581.565 166.789C581.86 164.926 580.594 163.168 578.724 162.873L563.516 160.43C561.654 160.128 559.895 161.401 559.593 163.271L555.98 185.8Z" fill="#E9D6B8"/>
    <path d="M558.821 167.919C558.821 167.919 557.126 165.404 556.967 164.011C556.887 163.303 557.954 160.852 559.8 160.136C561.646 159.419 562.76 161.48 562.76 161.48C562.76 161.48 559.824 162.547 559.593 163.088C559.362 163.629 558.821 167.919 558.821 167.919Z" fill="#163F59"/>
    <path d="M581.478 177.181C581.478 177.181 585.17 168.889 585.154 166.287C585.138 163.685 585.138 161.878 582.091 161.098C577.515 159.936 577.308 160.907 575.278 159.14C573.249 157.374 569.748 153.331 568.403 152.766C566.166 151.827 562.41 152.018 561.567 156.363C560.946 159.57 558.789 160.032 558.821 160.159C558.941 160.581 559.728 161.09 561.081 162.061C564.965 164.854 567.432 165.682 570.806 165.356C574.18 165.029 580.507 164.17 580.825 166.677C581.143 169.184 579.687 176.457 579.878 177.07C580.069 177.683 580.841 177.516 581.47 177.181H581.478Z" fill="#194866"/>
    <path d="M575.605 183.175C575.509 183.795 575.931 184.384 576.552 184.488L579.838 185.013C580.459 185.116 581.048 184.687 581.144 184.066L582.107 178.058C582.202 177.437 581.78 176.848 581.16 176.753L577.873 176.227C577.252 176.124 576.663 176.554 576.568 177.174L575.605 183.183V183.175Z" fill="#E9D6B8"/>
    <path d="M556.012 180.03C555.908 180.651 556.33 181.24 556.959 181.335L560.245 181.861C560.866 181.964 561.455 181.534 561.551 180.914L562.513 174.905C562.617 174.285 562.195 173.696 561.566 173.6L558.28 173.075C557.659 172.971 557.07 173.401 556.975 174.022L556.012 180.03Z" fill="#E9D6B8"/>
    <path d="M579.712 178.924C579.712 178.924 578.287 187.789 577.81 190.75C577.38 193.424 575.374 199.122 560.27 196.694C551.325 195.262 552.71 188.744 553.06 186.58C553.323 184.94 555.973 180.309 557.071 179.521C557.103 179.497 556.482 183.182 556.482 183.182C556.482 183.182 558.909 179.911 563.159 180.595C570.019 181.693 570.926 185.959 573.966 186.373C576.298 186.691 578.653 183.174 579.712 178.916V178.924Z" fill="#194866"/>
    <path d="M565.053 186.874L560.357 186.118C559.737 186.022 559.315 185.433 559.41 184.813L559.514 184.16L566.461 185.274L566.358 185.927C566.254 186.548 565.673 186.977 565.053 186.874Z" fill="#E9D6B8"/>
    <path d="M478.548 205.99C478.548 205.99 480.816 198.334 479.639 196.416C478.469 194.506 473.75 187.821 473.75 187.821L472.397 186.23C472.397 186.23 469.946 186.866 473.161 191.323C476.376 195.78 473.702 194.53 473.702 194.53L469.365 191.681L463.786 188.641L461.478 186.954C461.478 186.954 460.229 185.888 459.735 185.912C458.303 185.967 458.876 187.129 458.876 187.129L467.343 194.506L457.81 189.978C457.81 189.978 456.497 189.62 456.091 190.241C455.709 190.83 456.091 191.044 456.091 191.044L465.76 198.891L460.595 197.148C460.595 197.148 459.306 196.83 458.876 197.419C458.406 198.063 458.263 198.223 458.263 198.223L477.299 207.876L478.548 205.982V205.99Z" fill="#E9D6B8"/>
    <path d="M466.007 196.043L459.123 193.274C459.123 193.274 457.651 192.478 456.751 192.565C455.717 192.669 455.765 193.632 455.765 193.632L465.76 198.892L466.007 196.035V196.043Z" fill="#E9D6B8"/>
    <path d="M648.111 467.276L643.336 493.219L626.879 497.46L618.117 497.731C618.117 497.731 634.153 490.839 637.32 487.298C642.111 481.934 640.774 460.646 640.774 460.646L648.111 467.276Z" fill="#E9D6B8"/>
    <path d="M643.599 497.461L640.145 497.731L638.291 495.336L623.696 499.649L614.409 500.381C614.409 500.381 615.101 498.917 615.666 498.456C617.361 497.079 624.094 494.54 624.094 494.54C624.094 494.54 623.966 496.665 625.017 496.928C626.083 497.198 636.166 494.405 638.553 493.474C642.668 491.874 643.615 490.593 643.861 490.824C644.522 491.421 643.599 497.453 643.599 497.453V497.461Z" fill="#161711"/>
    <path d="M656.156 300.412L647.737 387.353L638.163 470.539L650.864 472.115C650.864 472.115 666.589 388.579 668.332 381.369C670.083 374.159 687.813 316.511 681.447 301.303C675.088 286.095 656.156 300.412 656.156 300.412Z" fill="#163F59"/>
    <path d="M693.957 464.953L692.628 492.559L676.171 496.801L667.417 497.064C667.417 497.064 682.999 490.594 685.45 486.527C688.705 481.132 685.45 462.939 685.45 462.939L693.957 464.945V464.953Z" fill="#E9D6B8"/>
    <path d="M692.891 496.801L689.445 497.064L687.591 494.676L674.388 498.393L663.175 498.918C663.175 498.918 663.199 498.05 663.637 497.66C665.3 496.196 673.529 493.745 673.529 493.745C673.529 493.745 673.194 496.268 674.253 496.538C675.319 496.801 685.466 493.745 687.861 492.822C691.968 491.222 692.915 489.941 693.169 490.164C693.838 490.761 692.907 496.801 692.907 496.801H692.891Z" fill="#161711"/>
    <path d="M695.819 301.597L693.424 377.636C693.424 377.636 696.583 398.256 696.838 405.132C697.419 420.61 696.751 467.053 696.751 467.053L683.007 467.61C683.007 467.61 673.322 383.661 672.073 376.387C670.823 369.113 656.761 310.63 664.886 296.082C673.004 281.535 695.811 301.597 695.811 301.597H695.819Z" fill="#194866"/>
    <path d="M676.896 225.065C676.896 236.143 686.072 245.127 697.388 245.127C708.704 245.127 717.88 236.143 717.88 225.065C717.88 213.988 708.704 205.003 697.388 205.003C686.072 205.003 676.896 213.988 676.896 225.065Z" fill="#AD5C49"/>
    <path d="M661.832 184.049C661.832 192.198 668.437 198.803 676.594 198.803L680.278 191.792C688.427 191.792 695.033 185.187 695.033 177.038V171.507C695.033 163.358 688.427 156.753 680.278 156.753H676.594C668.445 156.753 661.832 163.358 661.832 171.507V184.049Z" fill="#AD5C49"/>
    <path d="M695.032 177.038V171.507C695.032 163.358 688.427 156.753 680.278 156.753H676.593C673.219 156.753 670.124 157.899 667.641 159.801C667.378 163.016 667.609 166.422 668.405 169.868C670.88 180.619 678.082 188.617 686.087 190.607C691.348 188.346 695.032 183.126 695.032 177.038Z" fill="#AD5C49"/>
    <path d="M677.135 198.382C677.135 208.99 685.92 217.592 696.759 217.592C707.598 217.592 716.384 208.99 716.384 198.382C716.384 187.774 707.598 179.171 696.759 179.171C685.92 179.171 677.135 187.774 677.135 198.382Z" fill="#AD5C49"/>
    <path d="M673.554 223.999C673.554 234.933 682.61 243.799 693.775 243.799C704.94 243.799 713.997 234.933 713.997 223.999C713.997 213.065 704.948 204.199 693.775 204.199C682.602 204.199 673.554 213.065 673.554 223.999Z" fill="#954F3F"/>
    <path d="M697.093 187.407C689.796 182.465 681.32 182.25 678.153 186.922C674.986 191.601 678.328 199.392 685.626 204.334C692.915 209.276 701.406 209.499 704.566 204.819C707.733 200.148 704.391 192.349 697.093 187.407Z" fill="#954F3F"/>
    <path d="M667.736 162.355C667.752 163.708 667.863 165.101 668.086 166.51C669.574 175.988 675.336 183.174 681.631 184.065C681.822 188.354 682.689 192.214 683.716 195.493C684.894 199.233 689.271 203.18 689.271 203.18C690.337 209.793 667.816 219.51 668.349 218.444C668.882 217.377 674.429 209.587 676.251 202.432C677.517 197.458 675.885 193.344 673.991 190.511C670.474 186.373 665.365 186.429 665.365 186.429C664.871 186.429 664.434 186.214 664.123 185.887C663.821 184.909 663.662 183.874 663.662 182.8V170.632C663.662 167.266 665.261 164.265 667.736 162.355Z" fill="#E9D6B8"/>
    <path d="M663.073 297.865L652.504 300.579C652.504 300.579 659.388 270.53 661.314 258.791C663.232 247.053 663.025 243.209 662.38 239.581C661.744 235.952 660.041 231.686 662.38 227.628C664.728 223.577 668.389 216.844 669.853 216.311C672.201 215.46 674.763 214.393 676.681 212.475C677.739 211.417 663.073 297.873 663.073 297.873V297.865Z" fill="#FFC40E"/>
    <path d="M659.388 300.277C659.388 300.277 664.513 272.098 666.789 257.861C669.065 243.632 675.328 216.59 675.893 213.176C676.458 209.762 678.456 205.202 678.456 205.202C678.456 205.202 683.859 201.223 688.706 202.075C693.544 202.926 697.531 213.741 699.521 224.278C701.51 234.806 686.995 264.124 686.995 266.686C686.995 269.249 697.237 290.879 697.237 297.142V304.256C697.237 304.256 671.906 292.017 659.38 300.269L659.388 300.277Z" fill="#D1DBEA"/>
    <path d="M687.989 197.951L683.859 200.53L677.954 204.572L679.084 210.835L690.13 200.943L687.989 197.951Z" fill="#B0BFDE"/>
    <path d="M712.954 267.219C712.954 267.219 703.699 279.554 698.844 279.068C697.324 278.917 697.42 278.893 694.117 278.249C690.806 277.612 690.17 277.644 687.536 277.294C684.894 276.936 684.583 276.967 684.583 276.967C684.583 276.967 684.583 278.463 685.578 278.853C686.469 279.204 688.706 279.49 689.454 279.808C690.202 280.135 687.568 279.594 683.62 279.92C679.665 280.238 675.829 281.058 674.19 281.527C673.156 281.814 673.012 281.877 673.012 281.933C673.012 282.419 673.044 282.856 673.53 282.952C673.951 283.031 675.447 282.912 675.36 282.984C675.018 283.262 672.67 284.042 672.264 284.146C671.835 284.249 671.246 284.376 670.895 284.496C670.171 284.742 670.506 285.634 671.771 285.992C671.787 286 672.065 286.613 672.447 286.74C672.646 286.804 672.781 286.859 672.98 286.915C673.203 286.979 673.474 286.979 673.697 287.034C674.548 287.233 675.4 287.337 676.219 287.392C676.554 287.416 679.506 287.186 679.506 287.377C679.506 287.392 677.182 287.902 677.23 288.077C677.326 288.475 677.763 288.96 678.177 288.928C678.925 288.857 680.063 288.785 683.159 288.387C686.573 287.957 687.289 287.607 691.666 288.14C695.478 288.602 695.112 289.398 697.818 288.347C701.446 286.955 714.649 276.713 717.1 275.113C719.559 273.514 712.962 267.219 712.962 267.219H712.954Z" fill="#E9D6B8"/>
    <path d="M717.88 257.51L688.204 225.272C688.204 225.272 684.607 216.789 684.79 212.468C685.005 207.351 691.125 203.499 691.125 203.499C691.125 203.499 704.646 215.667 720.657 233.175C736.669 250.674 745.423 258.362 736.669 265.198C727.915 272.034 714.044 280.78 714.044 280.78L708.704 267.116L717.88 257.51Z" fill="#B0BFDE"/>
    <path d="M110.99 285.903L114.03 325.168C114.03 325.168 124.622 304.119 125.76 289.381C126.898 274.642 110.719 285.338 110.99 285.895V285.903Z" fill="#E9D6B8"/>
    <path d="M40.7919 263.549L60.0743 294.888C60.0743 294.888 31.4014 281.113 32.8816 268.292C34.3618 255.472 40.7919 263.541 40.7919 263.541V263.549Z" fill="#E9D6B8"/>
    <path d="M89.5987 189.157C89.2247 193.637 86.8134 197.521 84.2827 197.704H77.0727C74.5421 197.521 72.1308 193.637 71.7567 189.157C71.1679 181.764 70.579 174.379 69.9821 166.994C69.5922 162.561 71.3191 153.672 75.1548 151.046C78.6643 148.714 82.6832 148.714 86.1927 151.046C90.0285 153.672 91.7554 162.561 91.3654 166.994C90.7686 174.379 90.1797 181.772 89.5908 189.157H89.5987Z" fill="#E9D6B8"/>
    <path d="M110.505 200.395C110.505 200.395 119.895 206.57 125.338 244.084C130.774 281.599 127.312 280.174 127.312 280.174L126.325 288.721L112.478 290.146L104.568 257.852L110.505 200.387V200.395Z" fill="#B0BFDE"/>
    <path d="M113.966 200.864L92.1609 191.02L80.9082 194.386L66.9975 192.794L51.6623 199.439C51.6623 199.439 44.7388 206.084 51.1689 227.459C57.599 248.827 56.644 284.113 56.644 284.113L112.303 287.638C112.303 287.638 108.531 212.729 113.966 200.864Z" fill="#D1DBEA"/>
    <path d="M61.5545 200.394C61.5545 200.394 53.1508 195.643 44.7471 206.092C30.4226 223.902 23.4911 245.986 22.003 250.259C20.5228 254.533 18.5412 267.353 24.47 271.149L30.4067 274.945L42.7655 267.345L40.7919 263.549L39.8051 261.178C39.8051 261.178 46.7287 245.978 54.1456 232.202C61.5625 218.435 61.5625 200.386 61.5625 200.386L61.5545 200.394Z" fill="#D1DBEA"/>
    <path d="M78.1548 193.9L72.6558 199.908L67.1567 191.982L70.4593 187.096L78.1548 193.9Z" fill="#B0BFDE"/>
    <path d="M90.2354 187.566L79.6592 194.386L84.6568 200.387L92.9094 191.02L90.2354 187.566Z" fill="#B0BFDE"/>
    <path d="M81.7363 145.817V140.692H92.806C96.5304 140.692 99.5465 143.716 99.5465 147.441V152.566H88.4768C84.7524 152.566 81.7363 149.55 81.7363 145.825V145.817Z" fill="#163F59"/>
    <path d="M71.1279 176.925C71.1279 180.235 73.8178 182.917 77.1204 182.917H90.7207C94.0312 182.917 96.7131 180.235 96.7131 176.925V149.724C96.7131 146.413 94.0312 143.724 90.7207 143.724H77.1204C73.8098 143.724 71.1279 146.406 71.1279 149.724V176.925Z" fill="#E9D6B8"/>
    <path d="M81.3063 140.692C78.9507 140.692 76.8737 141.91 75.672 143.74H73.3562C70.4754 143.74 68.1357 146.08 68.1357 148.961V161.869H71.8124V156.624C71.8124 154.595 73.4597 152.948 75.489 152.948H86.5825C90.3069 152.948 93.323 149.924 93.323 146.207V140.692H81.3063Z" fill="#163F59"/>
    <path d="M72.9661 165.219C72.9661 163.452 71.5336 162.027 69.7669 162.027H69.5043C67.7376 162.027 66.3052 163.46 66.3052 165.219V169.102C66.3052 170.869 67.7376 172.301 69.5043 172.301H69.7669C71.0721 172.301 72.1941 171.513 72.6955 170.391" fill="#E9D6B8"/>
    <path d="M76.6278 307.755C76.6278 307.755 93.3954 367.146 106.829 388.402C120.262 409.674 124.949 382.012 124.949 382.012L108.269 283.253L69.2427 283.006C69.2427 283.006 70.2295 285.027 76.6278 307.755Z" fill="#163F59"/>
    <path d="M95.1539 283.237C95.1539 283.237 83.9251 380.667 82.3096 385.561C76.8743 402.122 64.4438 391.434 62.5259 385.912C60.6 380.389 57.4089 339.548 58.0455 309.737C58.6822 279.926 58.6822 281.884 58.6822 281.884L95.1539 283.245V283.237Z" fill="#194866"/>
    <path d="M60.9263 474.523C60.3453 475.224 60.7751 477.07 60.7751 477.07C60.7751 477.07 70.8739 478.192 74.1287 477.428C74.9723 477.229 76.3967 476.505 77.7417 475.733C77.9724 475.598 78.3703 474.826 78.5932 474.691C78.999 474.452 79.2139 474.858 79.5561 474.635C80.4633 474.07 81.092 473.632 81.1 473.569C81.9833 468.937 80.8055 467.075 80.8055 467.075C80.8055 467.075 72.2028 464.218 70.5874 466.207C66.7993 470.903 62.1916 472.988 60.9263 474.523Z" fill="#161711"/>
    <path d="M123.747 470.371L125.187 477.899H132.867C132.867 477.899 133.289 476.833 133.941 476.833C134.482 476.833 135.191 477.899 135.939 477.899H155.468C155.468 477.899 155.818 476.315 155.396 475.766C155.181 475.48 153.892 475.002 153.041 474.756C149.078 473.641 137.721 470.164 135.756 466.384C133.36 461.768 123.763 470.371 123.763 470.371H123.747Z" fill="#161711"/>
    <path d="M85.1506 343.997C85.1506 343.997 82.6597 380.946 83.0178 400.483C83.2804 415.213 83.3123 443.464 81.0761 467.53C80.9408 469.002 68.9161 467.888 68.9161 467.888C68.9161 467.888 60.8467 375.781 59.5734 360.685C58.2921 345.596 75.5532 333.205 85.1506 343.989V343.997Z" fill="#194866"/>
    <path d="M120.795 384.893C120.795 384.893 117.397 385.633 106.717 386.556C101.847 386.978 120.954 471.803 120.954 471.803L136.082 465.277L124.686 379.815L120.795 384.885V384.893Z" fill="#163F59"/>
    <path d="M261.461 385.085C261.19 383.7 261.103 382.133 261.214 380.47C262.304 371.206 262.472 361.744 265.71 344.236C268.878 327.238 275.642 302.011 287.285 273.37C288.423 270.441 310.14 272.081 319.022 274.651C320.613 279.179 322.284 284.185 323.82 291.053C331.468 322.105 335.121 339.995 336.665 354.908C338.28 369.36 337.779 380.836 338.567 388.539C328.436 410.225 291.256 371.087 261.453 385.069L261.461 385.085Z" fill="#194866"/>
    <path d="M280.083 291.714C280.123 292.685 279.422 293.99 279.08 295.335C278.491 297.642 277.091 301.041 276.152 303.134C275.045 305.577 274.281 308.354 274.273 308.322C273.462 305.593 274.838 304.057 274.974 302.76C275.109 301.462 275.212 301.932 273.525 303.468C272.57 304.335 272.491 307.399 272.188 309.365C271.926 311.068 271.369 311.76 271.369 311.76C271.369 311.76 270.995 309.134 271.241 306.452C271.536 303.221 272.475 299.783 272.801 299.059C273.39 297.746 274.862 295.231 276.414 292.892C276.892 292.175 278.491 288.65 277.218 284.727C276.518 282.554 279.932 287.313 280.091 291.714H280.083Z" fill="#E9D6B8"/>
    <path d="M273.111 298.907C273.111 298.907 270.541 303.205 270.366 304.215C270.247 304.932 270.247 308.362 270.247 308.362C270.247 308.362 271.321 306.857 271.393 305.481C271.472 304.104 273.104 298.899 273.104 298.899L273.111 298.907Z" fill="#E9D6B8"/>
    <path d="M82.4205 53.1868C82.4205 57.142 79.2134 60.357 75.2503 60.357C71.2872 60.357 68.0801 57.142 68.0801 53.1868C68.0801 49.2317 71.2951 46.0166 75.2503 46.0166C79.2054 46.0166 82.4205 49.2317 82.4205 53.1868Z" fill="white"/>
    <path d="M108.714 53.1868C108.714 57.142 105.507 60.357 101.544 60.357C97.5806 60.357 94.3735 57.142 94.3735 53.1868C94.3735 49.2317 97.5886 46.0166 101.544 46.0166C105.499 46.0166 108.714 49.2317 108.714 53.1868Z" fill="white"/>
    <path d="M134.999 53.1868C134.999 57.142 131.792 60.357 127.829 60.357C123.866 60.357 120.659 57.142 120.659 53.1868C120.659 49.2317 123.874 46.0166 127.829 46.0166C131.784 46.0166 134.999 49.2317 134.999 53.1868Z" fill="white"/>
    <path d="M335.414 53.1299H299.914V58.6607H335.414V53.1299Z" fill="white"/>
    <path d="M375.165 53.1299H341.089V58.6607H375.165V53.1299Z" fill="white"/>
    <path d="M391.853 53.1299H362.034V58.6607H391.853V53.1299Z" fill="white"/>
    <path d="M315.177 70.1123H299.914V75.6432H315.177V70.1123Z" fill="white"/>
    <path d="M373.748 70.1123H321.567V75.6432H373.748V70.1123Z" fill="white"/>
    <path d="M397.177 70.1123H379.43V75.6432H397.177V70.1123Z" fill="white"/>
    <path d="M335.414 87.0869H299.914V92.6178H335.414V87.0869Z" fill="white"/>
    <path d="M364.868 87.0869H341.089V92.6178H364.868V87.0869Z" fill="white"/>
    <path d="M190.96 115.809H184.617C186.909 109.196 189.074 101.779 189.074 94.7598H183.137V79.918H196.499V88.1466C196.499 97.7281 194.883 107.039 190.968 115.809H190.96ZM212.55 111.893C212.009 113.238 211.468 114.456 210.927 115.809H204.719C207.417 107.851 208.229 103.259 209.041 94.7598H203.239V79.918H216.601V88.9583C216.601 96.7891 215.248 104.477 212.55 111.893Z" fill="white"/>
    <path d="M643.265 140.741C677.699 141.632 751.232 140.717 776.284 133.698C801.606 126.52 804.01 36.9441 792.057 23.3279C779.857 9.87873 736.573 5.86787 714.808 4.75374C660.574 1.96842 610.255 5.61321 607.812 46.637C605.281 89.2126 605.989 139.786 643.257 140.749L643.265 140.741Z" fill="#3BB6D5"/>
    <path d="M740.663 129.727C740.663 129.727 739.31 148.667 713.598 159.498C713.598 159.498 726.919 133.173 714.951 120.257C707.764 112.506 740.663 129.727 740.663 129.727Z" fill="#3BB6D5"/>
    <path d="M748.407 49.041H661.393V55.7337H748.407V49.041Z" fill="white"/>
    <path d="M748.407 65.7764H661.393V72.4691H748.407V65.7764Z" fill="white"/>
    <path d="M748.407 82.5117H661.393V89.2045H748.407V82.5117Z" fill="white"/>
    <path d="M523.609 138.314C523.631 138.01 523.679 137.753 523.75 137.542C523.831 137.323 523.95 137.12 524.109 136.931C524.275 136.743 524.494 136.551 524.766 136.354C525.097 136.114 525.352 135.913 525.533 135.75C525.721 135.587 525.858 135.425 525.942 135.263C526.027 135.101 526.078 134.9 526.096 134.661C526.124 134.278 526.022 133.973 525.791 133.747C525.559 133.521 525.208 133.391 524.737 133.356C524.346 133.327 523.995 133.353 523.684 133.434C523.374 133.507 523.074 133.601 522.785 133.715L522.476 132.85C522.808 132.706 523.169 132.593 523.561 132.51C523.96 132.427 524.399 132.404 524.877 132.44C525.635 132.496 526.208 132.728 526.595 133.134C526.981 133.539 527.151 134.066 527.102 134.712C527.076 135.071 526.993 135.373 526.854 135.62C526.724 135.859 526.543 136.078 526.312 136.277C526.089 136.469 525.825 136.674 525.52 136.892C525.24 137.096 525.022 137.276 524.866 137.433C524.718 137.59 524.613 137.751 524.553 137.915C524.493 138.071 524.455 138.264 524.437 138.496L524.422 138.699L523.584 138.637L523.609 138.314ZM523.178 140.375C523.2 140.08 523.283 139.878 523.428 139.768C523.58 139.659 523.764 139.613 523.98 139.629C524.179 139.644 524.346 139.716 524.481 139.847C524.616 139.977 524.672 140.19 524.65 140.485C524.628 140.772 524.541 140.974 524.388 141.091C524.235 141.208 524.059 141.259 523.859 141.244C523.644 141.228 523.469 141.151 523.335 141.013C523.209 140.875 523.156 140.662 523.178 140.375Z" fill="white"/>
</svg>
