<svg width="34" height="34" viewBox="0 0 34 34" fill="none" xmlns="http://www.w3.org/2000/svg">
<path fill-rule="evenodd" clip-rule="evenodd" d="M17 0C7.64985 0 0 7.54415 0 17C0 26.4559 7.64985 34 17 34C26.3502 34 34 26.3502 34 17C34 7.64985 26.4528 0 17 0Z" fill="#59E269"/>
<path fill-rule="evenodd" clip-rule="evenodd" d="M10.5194 7.86328C10.0936 7.86328 9.88218 8.07469 9.88218 8.50052V9.13775H9.13925C8.07618 9.13775 7.22754 10.0951 7.22754 11.1552V23.5858C7.22754 24.6489 8.07618 25.4975 9.13925 25.4975H15.6203C16.7891 27.0921 18.7008 28.1521 20.9326 28.1521C24.5446 28.1521 27.5194 25.2831 27.5194 21.5654V11.1552C27.5194 10.0921 26.6708 9.13775 25.502 9.13775H24.9705V8.50052C24.9705 8.07469 24.5446 7.86328 24.2275 7.86328C23.9104 7.86328 23.5903 8.07469 23.5903 8.50052V9.13775H17.9609V8.50052C17.9609 8.07469 17.6408 7.86328 17.4294 7.86328C17.0035 7.86328 16.6864 8.07469 16.6864 8.50052V9.13775H11.1627V8.50052C11.1627 8.07469 10.8426 7.86328 10.5255 7.86328H10.5194ZM20.9296 16.2561C23.7987 16.2561 26.2419 18.6993 26.2419 21.5684C26.2419 24.4375 23.7987 26.8807 20.9296 26.8807C18.0605 26.8807 15.6173 24.5432 15.6173 21.5684C15.6173 18.5936 18.0605 16.2561 20.9296 16.2561ZM26.2419 14.5558V17.6362C25.0732 15.9359 23.0558 14.9816 20.9296 14.9816C17.2119 14.9816 14.3428 17.9564 14.3428 21.5684C14.3428 22.5257 14.4485 23.4801 14.8744 24.3317H9.24495C8.81912 24.3317 8.60771 24.0116 8.60771 23.5888V14.5588H26.2449L26.2419 14.5558ZM25.499 10.5209C25.9248 10.5209 26.2419 10.8411 26.2419 11.2639V13.1756H8.49899V11.2639C8.49899 10.8381 8.81912 10.5209 9.13623 10.5209H9.87916V11.2639C9.87916 11.584 10.0906 11.9011 10.5164 11.9011C10.8365 11.9011 11.1536 11.581 11.1536 11.2639V10.5209H16.6774V11.2639C16.6774 11.584 16.9975 11.9011 17.4203 11.9011C17.7404 11.9011 18.0575 11.581 18.0575 11.2639V10.5209H23.5812V11.2639C23.5812 11.584 23.9014 11.9011 24.2185 11.9011C24.6443 11.9011 24.9614 11.581 24.9614 11.2639V10.5209H25.493H25.499Z" fill="white"/>
<path fill-rule="evenodd" clip-rule="evenodd" d="M20.9295 17.001C20.5037 17.001 20.1866 17.3211 20.1866 17.6382V18.064C19.4436 18.2754 18.9121 19.0214 18.9121 19.9757C18.9121 21.0388 19.7608 21.6761 20.5067 22.2076C20.9325 22.5277 21.5698 22.9505 21.5698 23.2707C21.5698 23.6965 21.2496 24.0136 20.9325 24.0136C20.5067 24.0136 20.1896 23.6935 20.1896 23.2707C20.1896 22.9505 19.8695 22.6334 19.6581 22.6334C19.2322 22.6334 18.9151 22.9535 18.9151 23.2707C18.9151 24.228 19.4467 24.8653 20.1896 25.2881V25.6082C20.1896 26.034 20.5097 26.3511 20.9325 26.3511C21.2527 26.3511 21.5698 26.031 21.5698 25.6082V25.2881C22.3127 24.9679 22.9499 24.225 22.9499 23.2707C22.9499 22.2076 21.9926 21.5704 21.2496 21.0388C20.8238 20.7187 20.1866 20.2959 20.1866 19.9757C20.1866 19.5499 20.5067 19.2328 20.9295 19.2328C21.3523 19.2328 21.5668 19.5529 21.5668 19.9757C21.5668 20.2959 21.8869 20.613 22.204 20.613C22.6298 20.613 22.9469 20.2929 22.9469 19.9757C22.9469 19.0184 22.3097 18.3812 21.5668 18.064V17.6382C21.5668 17.2124 21.2466 17.001 20.9295 17.001Z" fill="white"/>
<path fill-rule="evenodd" clip-rule="evenodd" d="M10.5191 15.834C10.0932 15.834 9.88184 16.1541 9.88184 16.4712C9.88184 16.8971 10.0932 17.2142 10.5191 17.2142H11.7935C12.2194 17.2142 12.4308 16.894 12.4308 16.4712C12.4308 16.1511 12.1107 15.834 11.7935 15.834H10.5191Z" fill="white"/>
<path fill-rule="evenodd" clip-rule="evenodd" d="M10.5191 18.4883C10.0932 18.4883 9.88184 18.8084 9.88184 19.2312C9.88184 19.5513 10.0932 19.8685 10.5191 19.8685H11.7935C12.2194 19.8685 12.4308 19.5483 12.4308 19.2312C12.4308 18.8054 12.1107 18.4883 11.7935 18.4883H10.5191Z" fill="white"/>
</svg>
