<svg width="34" height="34" viewBox="0 0 34 34" fill="none" xmlns="http://www.w3.org/2000/svg">
<path fill-rule="evenodd" clip-rule="evenodd" d="M17 0C7.65191 0 0 7.65191 0 17C0 26.3481 7.65191 34 17 34C26.3481 34 34 26.4569 34 17C34 7.54314 26.4569 0 17 0Z" fill="#59E269"/>
<path fill-rule="evenodd" clip-rule="evenodd" d="M25.9287 24.863H18.2768V19.5511C19.0206 19.3394 19.7643 19.019 20.4022 18.4899H23.3771C24.8646 18.4899 25.9287 19.5511 25.9287 20.9327V24.863ZM8.07624 24.863V20.9327C8.07624 19.5511 9.13746 18.4899 10.6279 18.4899H13.7086C14.7698 19.2336 16.0456 19.7657 17.1098 19.7657V24.866H8.07918L8.07624 24.863ZM12.0095 12.6429C12.0095 12.3254 12.1153 12.005 12.1153 11.5817C13.1765 11.0496 13.9203 10.2001 14.4523 8.92424C15.5136 10.2001 17.9593 11.0496 20.6139 11.0496C21.1459 11.0496 21.4634 10.9438 21.8897 10.9438C21.9955 11.4759 22.2071 12.005 22.2071 12.6429C22.2071 15.8295 19.0206 18.4869 17.1068 18.4869C15.1931 18.4869 12.0066 15.8295 12.0066 12.6429H12.0095ZM23.3771 17.2141H21.678C22.7392 16.0441 23.3771 14.4508 23.3771 12.6458C23.3771 7.86303 20.2964 5.63184 17.1068 5.63184C14.664 5.63184 12.324 7.01347 11.2628 9.67092C10.9453 10.4146 10.7307 12.0079 10.7307 12.0079V12.6458C10.7307 14.4508 11.4745 16.047 12.5357 17.2141H10.622C8.49661 17.2141 6.90332 18.8073 6.90332 20.9327V26.033H27.3045V20.9327C27.3045 18.8073 25.4995 17.2141 23.3742 17.2141H23.3771Z" fill="white"/>
<path fill-rule="evenodd" clip-rule="evenodd" d="M14.4531 12.7508C14.4531 12.4333 14.7706 12.2188 15.091 12.2188C15.4115 12.2188 15.7289 12.4304 15.7289 12.7508C15.7289 13.0712 15.4115 13.3887 15.091 13.3887C14.7706 13.3887 14.4531 13.0712 14.4531 12.7508Z" fill="white"/>
<path fill-rule="evenodd" clip-rule="evenodd" d="M13.176 19.7637H12.009V20.9337H10.5186V22.4211H12.009V23.5882H13.176V22.4211H14.4518V20.9337H13.176V19.7637Z" fill="white"/>
</svg>
