<svg width="34" height="34" viewBox="0 0 34 34" fill="none" xmlns="http://www.w3.org/2000/svg">
<path fill-rule="evenodd" clip-rule="evenodd" d="M17 0C7.65191 0 0 7.65191 0 17C0 26.3481 7.65191 34 17 34C26.3481 34 34 26.4569 34 17C34 7.54314 26.4569 0 17 0Z" fill="#59E269"/>
<path fill-rule="evenodd" clip-rule="evenodd" d="M22.8448 13.2822V14.4522H25.1848V24.8645H19.3408V21.2516H14.6638V24.8645H8.92558V14.4522H11.1568V13.2822H7.54395V25.9286H26.3518V13.2822H22.8448Z" fill="white"/>
<path fill-rule="evenodd" clip-rule="evenodd" d="M15.7273 8.71367V10.9449H18.1702V8.71367H19.3402V14.4519H18.1702V12.009H15.7273V14.4519H14.6661V8.71367H15.7273ZM12.3262 14.4519V15.5131H21.6772V7.33203H12.3262V14.4519Z" fill="white"/>
<path fill-rule="evenodd" clip-rule="evenodd" d="M14.6623 17.96H19.3364V20.1912H14.6623V17.96ZM20.5064 21.2524H23.9075V23.6952H20.5064V21.2524ZM20.5064 17.96H23.9075V20.1912H20.5064V17.96ZM9.98828 21.2524H13.4953V23.6952H9.98828V21.2524ZM9.98828 17.96H13.4953V20.1912H9.98828V17.96Z" fill="white"/>
</svg>
