<svg width="34" height="34" viewBox="0 0 34 34" fill="none" xmlns="http://www.w3.org/2000/svg">
<path fill-rule="evenodd" clip-rule="evenodd" d="M17 0C7.65191 0 0 7.54314 0 17C0 26.4569 7.65191 34 17 34C26.3481 34 34 26.3481 34 17C34 7.65191 26.4569 0 17 0Z" fill="#59E269"/>
<path fill-rule="evenodd" clip-rule="evenodd" d="M13.3884 6.69238C9.88135 6.69238 6.90642 8.17985 6.90642 10.411V23.5866C6.8006 24.5419 7.54433 25.5003 8.92596 26.244C10.0959 26.8819 11.6892 27.0936 13.3884 27.0936C15.1933 27.0936 16.8954 26.6673 18.0624 26.1382C19.2324 26.7761 20.614 27.0936 21.9927 27.0936C25.923 27.0936 29.2184 23.907 29.2184 19.7621C29.2184 15.6172 25.923 12.5364 21.9927 12.5364C21.249 12.5364 20.6111 12.5364 19.9732 12.7481V10.3052C19.9732 9.34983 19.2294 8.28567 17.8478 7.64777C16.6778 7.00987 15.0845 6.69238 13.3854 6.69238H13.3884ZM21.8898 14.0239C25.0764 14.0239 27.7338 16.6813 27.7338 19.8679C27.7338 23.0545 25.0764 25.7119 21.8898 25.7119C18.7032 25.7119 16.0458 23.0545 16.0458 19.8679C16.0458 16.6813 18.7032 14.0239 21.8898 14.0239ZM8.28806 21.4641C9.66969 22.4195 11.6892 22.8458 13.3884 22.8458C14.0263 22.8458 14.5583 22.7399 15.0875 22.7399C15.5137 23.5895 16.1487 24.4391 16.7866 25.077C15.8312 25.5032 14.6612 25.7149 13.3854 25.7149C10.5163 25.7149 8.28512 24.5449 8.28512 23.5895V21.4641H8.28806ZM8.28806 17.1076C9.24345 17.7455 10.9455 18.3834 13.3884 18.3834H14.77C14.6642 18.8096 14.6642 19.4446 14.6642 19.8708C14.6642 20.4029 14.6642 20.8262 14.77 21.2525C14.3437 21.3583 13.9204 21.3583 13.3884 21.3583C10.7309 21.3583 8.28806 20.1883 8.28806 19.1271V17.1076ZM18.4886 12.751V13.3889C17.0012 14.1326 15.937 15.3026 15.3021 16.6843C14.6642 16.8959 14.0263 16.8959 13.3884 16.8959C10.6251 16.8959 8.28806 15.8347 8.28806 14.6647V12.751C9.66969 13.7064 11.5834 14.0268 13.3884 14.0268C15.0875 14.0268 17.0012 13.7093 18.4886 12.751ZM13.3884 8.17985C16.3633 8.17985 18.4886 9.34983 18.4886 10.411C18.4886 11.4723 16.3633 12.5364 13.3884 12.5364C10.6251 12.5364 8.28806 11.4752 8.28806 10.411C8.28806 9.34689 10.5193 8.17985 13.3884 8.17985Z" fill="white"/>
<path fill-rule="evenodd" clip-rule="evenodd" d="M21.8894 14.5557C21.4631 14.5557 21.1457 14.9819 21.1457 15.2994V15.8315C20.2961 16.149 19.6582 17.0015 19.6582 17.9568C19.6582 19.1268 20.6136 19.7618 21.3573 20.3997C21.9952 20.8259 22.5273 21.1434 22.5273 21.6755C22.6331 22.1017 22.3156 22.4192 21.8894 22.4192C21.4631 22.4192 21.1457 21.993 21.1457 21.6755C21.1457 21.1434 20.8282 20.8259 20.4019 20.8259C19.9757 20.8259 19.6582 21.1434 19.6582 21.6755C19.6582 22.5251 20.2961 23.3746 21.1457 23.695V24.2271C21.1457 24.6534 21.4631 24.9708 21.8894 24.9708C22.3156 24.9708 22.5273 24.6534 22.5273 24.2271V23.695C23.3769 23.3776 24.0148 22.5251 24.0148 21.6755C24.0148 20.5055 23.0594 19.7618 22.3156 19.2326C21.7836 18.8064 21.1457 18.3831 21.1457 17.9568C21.1457 17.5306 21.4631 17.2131 21.8894 17.2131C22.3156 17.2131 22.5273 17.5306 22.5273 17.9568C22.5273 18.3831 22.9536 18.7006 23.271 18.7006C23.6973 18.7006 24.1206 18.3831 24.1206 17.9568C24.1206 17.0015 23.3769 16.1519 22.5273 15.8315V15.2994C22.5273 14.9819 22.2098 14.5557 21.8894 14.5557Z" fill="white"/>
</svg>
