<svg width="220" height="219" viewBox="0 0 220 219" fill="none" xmlns="http://www.w3.org/2000/svg">
<path d="M164.408 163.935C194.675 133.756 194.675 84.8246 164.408 54.6449C134.141 24.4652 85.0693 24.4652 54.8026 54.6449C24.536 84.8246 24.536 133.756 54.8026 163.935C85.0693 194.115 134.141 194.115 164.408 163.935Z" fill="#F3F7FF"/>
<path d="M111.099 74.0016C132.859 74.0016 150.499 68.2492 150.499 61.1532C150.499 54.0571 132.859 48.3047 111.099 48.3047C89.3398 48.3047 71.7002 54.0571 71.7002 61.1532C71.7002 68.2492 89.3398 74.0016 111.099 74.0016Z" fill="#81C9E2"/>
<path d="M154.07 145.593L143.898 78.8347C148.797 75.3679 151.447 71.2024 151.447 66.79V59.084C151.447 51.3466 133.72 45.29 111.094 45.29C88.4682 45.29 70.7415 51.3518 70.7415 59.084V66.79C70.7415 70.614 72.7275 74.249 76.4414 77.4112L66.0108 145.593C65.9634 145.903 66.074 146.218 66.3006 146.428L72.2481 151.97C72.2481 151.97 72.2692 151.986 72.285 151.996C72.2903 152.002 72.2955 152.012 72.3061 152.017C72.3113 152.023 72.3219 152.028 72.3324 152.033C72.4114 152.091 72.4904 152.138 72.58 152.17C72.5905 152.17 72.6011 152.175 72.6116 152.18C72.7064 152.212 72.8013 152.228 72.9013 152.228C72.9962 152.228 73.0857 152.212 73.1805 152.18C73.1911 152.18 73.2016 152.18 73.2069 152.18C73.2122 152.18 73.2174 152.175 73.2227 152.17C73.2332 152.17 73.2438 152.165 73.2543 152.159L81.4987 148.845C81.8042 148.724 82.0255 148.451 82.0834 148.125L83.5058 139.81L99.61 152.517L99.4415 168.196C99.4415 168.522 99.5995 168.827 99.8734 169L107.955 174.253C107.955 174.253 107.965 174.253 107.965 174.258C107.965 174.258 107.97 174.263 107.976 174.269C108.023 174.3 108.076 174.316 108.128 174.337C108.155 174.347 108.181 174.363 108.207 174.374C108.292 174.4 108.381 174.41 108.471 174.41C108.545 174.41 108.624 174.4 108.697 174.384C108.724 174.379 108.745 174.363 108.771 174.358C108.818 174.342 108.861 174.332 108.908 174.305L119.692 168.79C120.008 168.627 120.208 168.301 120.208 167.944V152.527L136.56 139.757L138.077 148.629C138.135 148.971 138.377 149.254 138.704 149.365L146.864 152.186C146.864 152.186 146.864 152.186 146.869 152.186C146.969 152.217 147.069 152.233 147.169 152.233C147.227 152.233 147.285 152.228 147.338 152.217C147.354 152.217 147.375 152.207 147.391 152.201C147.428 152.191 147.464 152.186 147.501 152.17C147.522 152.159 147.543 152.149 147.565 152.138C147.596 152.123 147.628 152.112 147.654 152.091C147.675 152.081 147.696 152.065 147.717 152.049C147.738 152.033 147.759 152.023 147.781 152.007C147.781 152.007 147.791 151.996 147.796 151.991C147.802 151.986 147.812 151.981 147.817 151.975L153.765 146.434C153.997 146.218 154.102 145.908 154.055 145.599L154.07 145.593ZM111.1 47.1916C134.1 47.1916 149.551 53.3427 149.551 59.0893C149.551 64.8359 134.1 70.987 111.1 70.987C88.0995 70.987 72.6485 64.8359 72.6485 59.0893C72.6485 53.3427 88.0995 47.1916 111.1 47.1916ZM72.6485 66.7952V63.3651C72.8012 63.5279 72.9593 63.6908 73.1279 63.8536C73.1384 63.8641 73.1437 63.8746 73.1542 63.8799C73.3597 64.0742 73.5756 64.2633 73.8022 64.4524C73.8759 64.5155 73.9549 64.5733 74.0287 64.6363C74.192 64.7676 74.3553 64.8937 74.5291 65.0197C74.624 65.088 74.7188 65.1563 74.8136 65.2246C74.9875 65.3454 75.1666 65.4662 75.351 65.5871C75.4458 65.6501 75.5406 65.7131 75.6407 65.7762C75.8725 65.9232 76.1201 66.0703 76.3677 66.2121C76.4204 66.2437 76.473 66.2752 76.5257 66.3067C76.826 66.48 77.1421 66.6481 77.4634 66.811C77.5688 66.8635 77.6794 66.916 77.7848 66.9686C78.0113 67.0841 78.2483 67.1944 78.4854 67.31C78.6171 67.373 78.7488 67.4308 78.8805 67.4938C79.1123 67.5989 79.3494 67.704 79.5917 67.8038C79.7234 67.8615 79.8604 67.9193 79.9921 67.9719C80.2765 68.0874 80.5715 68.203 80.8665 68.3185C80.9614 68.3553 81.0509 68.3921 81.151 68.4289C81.5408 68.5759 81.9412 68.7178 82.3468 68.8596C82.4733 68.9016 82.605 68.9436 82.7314 68.9857C83.0264 69.0855 83.3214 69.18 83.6217 69.2746C83.785 69.3271 83.9483 69.3744 84.1116 69.4269C84.3961 69.5109 84.6806 69.6002 84.9756 69.679C85.1441 69.7263 85.3127 69.7736 85.4813 69.8209C85.8079 69.9102 86.1451 69.9995 86.4822 70.0888C86.6139 70.1255 86.7456 70.157 86.8773 70.1938C87.3462 70.3094 87.8203 70.4249 88.2997 70.5352C88.4314 70.5668 88.5631 70.593 88.6948 70.6245C89.0583 70.7033 89.4217 70.7874 89.7958 70.8609C89.9802 70.8977 90.1698 70.9345 90.3542 70.9765C90.6861 71.0448 91.0232 71.1078 91.3656 71.1708C91.5553 71.2076 91.7502 71.2444 91.9451 71.2759C92.3191 71.3442 92.6932 71.4072 93.0725 71.4703C93.2305 71.4965 93.3885 71.5228 93.5518 71.549C94.0892 71.6331 94.6265 71.7171 95.1797 71.7959C95.2956 71.8117 95.4167 71.8274 95.5326 71.8432C95.9751 71.9062 96.4176 71.964 96.8654 72.0218C97.0603 72.0481 97.2605 72.0691 97.4607 72.0953C97.8453 72.1426 98.2298 72.1846 98.6197 72.2267C98.8304 72.2477 99.0358 72.2687 99.2465 72.2949C99.6575 72.337 100.074 72.3737 100.49 72.4105C100.669 72.4263 100.848 72.442 101.032 72.4578C101.628 72.5103 102.228 72.5523 102.834 72.5944C102.908 72.5944 102.982 72.6049 103.055 72.6101C103.593 72.6469 104.13 72.6784 104.673 72.7047C104.873 72.7152 105.078 72.7257 105.284 72.7362C105.71 72.7572 106.137 72.773 106.564 72.7887C106.785 72.7992 107.012 72.8045 107.238 72.8097C107.675 72.8255 108.118 72.836 108.56 72.8412C108.761 72.8412 108.961 72.8517 109.166 72.8517C109.804 72.8623 110.446 72.8675 111.094 72.8675C111.742 72.8675 112.385 72.8623 113.022 72.8517C113.223 72.8517 113.428 72.8412 113.628 72.8412C114.071 72.8307 114.513 72.8202 114.95 72.8097C115.177 72.8045 115.398 72.794 115.625 72.7887C116.057 72.773 116.483 72.7572 116.905 72.7362C117.11 72.7257 117.31 72.7152 117.516 72.7047C118.059 72.6784 118.601 72.6416 119.133 72.6101C119.207 72.6101 119.281 72.5996 119.354 72.5944C119.96 72.5523 120.561 72.5051 121.156 72.4578C121.335 72.442 121.514 72.4263 121.693 72.4105C122.11 72.3737 122.526 72.3317 122.937 72.2949C123.147 72.2739 123.358 72.2529 123.564 72.2267C123.953 72.1846 124.338 72.1426 124.723 72.0953C124.923 72.0691 125.123 72.0481 125.318 72.0218C125.766 71.964 126.208 71.9062 126.651 71.8432C126.767 71.8274 126.888 71.8117 127.004 71.7959C127.551 71.7171 128.094 71.6331 128.631 71.549C128.795 71.5228 128.947 71.4965 129.111 71.4703C129.49 71.4072 129.869 71.3442 130.238 71.2759C130.433 71.2391 130.623 71.2076 130.812 71.1708C131.155 71.1078 131.492 71.0395 131.824 70.9765C132.008 70.9397 132.198 70.9029 132.382 70.8609C132.756 70.7821 133.12 70.7033 133.483 70.6193C133.615 70.5878 133.747 70.5615 133.878 70.53C134.363 70.4197 134.837 70.3041 135.306 70.1833C135.438 70.1518 135.569 70.115 135.701 70.0782C136.038 69.9889 136.375 69.8997 136.702 69.8104C136.871 69.7631 137.039 69.7158 137.208 69.6685C137.497 69.5845 137.787 69.5004 138.072 69.4111C138.235 69.3639 138.398 69.3113 138.562 69.2588C138.867 69.1642 139.162 69.0644 139.457 68.9699C139.584 68.9279 139.715 68.8858 139.842 68.8438C140.247 68.702 140.648 68.5602 141.037 68.4131C141.132 68.3763 141.222 68.3396 141.317 68.3028C141.617 68.1872 141.907 68.0717 142.196 67.9561C142.333 67.8983 142.465 67.8458 142.597 67.788C142.839 67.6829 143.076 67.5831 143.308 67.4781C143.44 67.4203 143.571 67.3573 143.703 67.2995C143.94 67.1892 144.177 67.0736 144.404 66.9581C144.509 66.9055 144.62 66.853 144.72 66.8005C145.041 66.6324 145.357 66.4643 145.663 66.2962C145.715 66.2647 145.763 66.2384 145.816 66.2069C146.068 66.0598 146.311 65.918 146.548 65.7657C146.643 65.7026 146.737 65.6448 146.832 65.5818C147.017 65.461 147.196 65.3402 147.375 65.2141C147.47 65.1458 147.565 65.0775 147.654 65.0145C147.828 64.8884 147.996 64.7571 148.16 64.6258C148.234 64.568 148.313 64.505 148.386 64.4472C148.613 64.2581 148.834 64.069 149.04 63.8746C149.05 63.8641 149.055 63.8589 149.066 63.8484C149.234 63.6855 149.398 63.5227 149.551 63.3598V66.79C149.551 70.7716 146.964 74.4644 142.576 77.4953C142.497 77.5215 142.423 77.5531 142.354 77.6003C141.385 78.2307 140.374 78.861 139.31 79.4598C136.512 80.9306 133.236 82.1808 129.601 83.1526C129.042 83.2944 128.479 83.4362 127.91 83.5676C127.852 83.5781 127.799 83.5991 127.746 83.6201C122.705 84.802 117.063 85.4639 111.105 85.4639C104.372 85.4639 98.0402 84.6181 92.5299 83.1316C92.4772 83.1053 92.4192 83.0843 92.356 83.0686C91.8398 82.932 91.334 82.7901 90.8336 82.6483C86.5086 81.3404 82.7577 79.6227 79.8024 77.6161C79.2124 77.1749 78.6382 76.7284 78.0903 76.2976L78.0534 76.2714C77.9902 76.2241 77.9217 76.1821 77.848 76.1505C74.545 73.398 72.6432 70.1991 72.6432 66.79L72.6485 66.7952ZM99.8734 113.719V118.531L90.3436 123.81L86.7035 121.204L95.2481 116.351L99.8734 113.719ZM99.963 120.653L99.8524 130.612L92.0505 125.034L99.9577 120.653H99.963ZM85.4918 122.675L89.722 125.701L99.826 132.929L99.7523 139.831L79.4336 124.708L85.4918 122.67V122.675ZM99.8734 111.534L87.1038 118.793L88.2575 112.064L99.8734 106.06V111.534ZM86.4717 111.213C86.4717 111.213 86.4559 111.261 86.4506 111.282L84.8807 120.453L84.8017 120.9L78.6013 122.98L85.3338 82.7902C87.0775 83.4835 88.9845 84.1191 91.018 84.6812L86.4611 111.208L86.4717 111.213ZM100.142 103.781L88.6579 109.716L92.8723 85.1802C95.2534 85.7895 97.7504 86.278 100.326 86.6352L100.142 103.786V103.781ZM127.346 85.6477L131.444 109.727L120.213 103.922V86.8453C122.668 86.5617 125.054 86.1625 127.346 85.653V85.6477ZM120.213 113.719L124.838 116.351L133.383 121.204L129.743 123.81L120.213 118.531V113.719ZM132.988 118.793L120.213 111.534V106.06L131.834 112.064L132.983 118.793H132.988ZM120.213 120.7L128.031 125.034L120.213 130.628V120.7ZM135.28 120.9L129.206 85.2117C131.186 84.7337 133.093 84.1716 134.895 83.5361L141.491 122.985L135.28 120.9ZM120.213 132.965L130.365 125.701L134.595 122.675L140.653 124.713L120.213 139.925V132.971V132.965ZM78.1641 78.7665C79.697 79.9379 81.4724 81.1933 83.49 82.1598L72.2534 149.381L67.9705 145.388L78.1588 78.7717L78.1641 78.7665ZM80.2976 147.279L74.1182 149.764L76.689 134.426L81.8042 138.46L80.2976 147.279ZM77.0472 132.288L77.6899 128.464L78.0903 126.079L99.7259 142.179L99.6416 150.111L77.0525 132.288H77.0472ZM101.522 152.075L101.775 141.837V141.827C101.775 141.827 101.775 141.822 101.775 141.816V132.477C101.775 132.393 101.759 132.309 101.738 132.225L102.228 86.9504C103.851 87.108 106.237 87.2761 107.528 87.3654V171.71L101.354 167.697L101.522 152.081V152.075ZM118.311 167.361L109.435 171.905V87.4127C111.368 87.3916 115.783 87.3234 118.311 87.171V167.356V167.361ZM120.213 142.289L141.996 126.079L143.034 132.283L120.213 150.105V142.284V142.289ZM139.868 147.747L138.272 138.418L143.398 134.415L145.979 149.864L139.863 147.752L139.868 147.747ZM147.833 149.381L136.712 82.8584C138.551 82.102 140.231 81.167 141.796 80.2057C141.912 80.1375 142.038 80.0692 142.154 80.0009L152.116 145.394L147.833 149.386V149.381Z" fill="#2B4161"/>
</svg>
