<svg width="212" height="212" viewBox="0 0 212 212" fill="none" xmlns="http://www.w3.org/2000/svg">
    <path d="M53.0004 159C23.7294 129.729 23.7294 82.2711 53.0004 53.0001C82.2714 23.7291 129.729 23.7291 159 53.0001C188.271 82.2712 188.271 129.729 159 159C129.729 188.271 82.2714 188.271 53.0004 159Z" fill="#F3F7FF"/>
    <path d="M129.054 97.3584C129.597 93.4469 132.192 90.8154 135.244 89.4531C135.208 94.3336 135.212 102.493 135.593 106.179L125.064 111.714C125.082 111.285 125.154 110.784 125.291 110.187C126.455 105.106 128.335 102.525 129.054 97.3548V97.3584Z" fill="#81C9E2"/>
    <path d="M76.1984 106.973C78.8633 105.861 85.456 102.595 95.3256 100.646V81.3954L94.9058 81.2058C94.9058 81.2058 96.9373 71.0385 97.8944 66.5253C98.8515 62.0121 98.7518 55.8359 98.3071 53.6722C97.8624 51.5086 97.5991 45.1178 102.52 43.6551C107.44 42.1889 122.522 42.3748 128.442 42.9614C134.363 43.5479 140.247 45.3539 141.012 48.7763C141.777 52.1988 140.884 66.9831 140.272 71.6823C139.66 76.3815 138.643 84.8393 138.557 85.1898L137.622 84.9609C137.622 84.9609 136.647 85.2184 135.192 85.7155C131.886 86.8456 126.101 89.2202 123.7 92.6248C121.156 96.2333 121.252 106.207 122.575 113.213C122.028 113.546 121.537 113.857 121.131 114.136C117.406 116.686 115.677 119.672 100.118 119.182C84.5559 118.692 72.5196 114.261 72.4199 109.591C72.4199 109.591 72.5623 108.486 76.2055 106.969L76.1984 106.973Z" fill="#81C9E2"/>
    <path d="M124.995 109.154C125.497 106.899 126.133 105.137 126.748 103.431C127.534 101.249 128.275 99.1881 128.665 96.3126C129.441 90.5509 134.211 87.7256 138.06 87.0543C138.193 87.0292 138.33 87.0687 138.436 87.1584C138.541 87.2482 138.601 87.381 138.601 87.5174V107.825C138.601 108.009 138.499 108.174 138.337 108.253L128.008 113.264C128.008 113.264 127.998 113.271 127.991 113.271C127.952 113.286 127.408 113.519 126.769 113.519C126.347 113.519 125.884 113.418 125.501 113.088C124.732 112.431 124.563 111.107 124.999 109.15L124.995 109.154ZM125.898 109.362C125.862 109.516 125.834 109.663 125.806 109.811C128.985 108.041 132.613 106.178 134.319 105.309C133.083 104.885 130.793 104.142 127.766 103.342C127.717 103.482 127.668 103.618 127.615 103.758C127.011 105.435 126.386 107.172 125.898 109.365V109.362ZM134.734 100.244C133.817 100.236 131.963 100.078 129.058 99.2097C128.777 100.373 128.44 101.421 128.079 102.451C131.418 103.338 133.863 104.153 134.983 104.544C134.867 103.227 134.783 101.787 134.734 100.244ZM129.578 96.4419C129.49 97.0952 129.382 97.7091 129.262 98.2907C132.072 99.1343 133.856 99.2887 134.706 99.2994C134.632 96.2049 134.681 92.7479 134.853 89.1257C132.332 90.436 130.07 92.7946 129.578 96.4419ZM126.087 112.367C126.526 112.744 127.334 112.528 127.622 112.406L137.677 107.527V88.0882C137.062 88.2282 136.43 88.4257 135.802 88.6841C135.482 95.0239 135.542 100.872 135.974 105.183C135.995 105.381 135.893 105.567 135.717 105.654C135.661 105.682 130.08 108.479 125.687 110.952C125.676 111.634 125.81 112.119 126.094 112.359L126.087 112.367Z" fill="#373535"/>
    <path d="M69.5486 92.3319C70.1405 86.7073 75.6174 82.0059 84.2035 79.7567C89.5306 78.363 92.8717 78.912 94.437 79.3896C94.6117 78.224 95.0574 76.1923 95.6386 73.544C96.0451 71.6905 96.5051 69.591 96.9936 67.2564C98.4484 60.2701 98.1738 55.6685 97.9848 54.0146C97.9741 53.9148 97.9492 53.7651 97.9171 53.5726C96.8082 46.7004 98.6195 42.776 103.298 41.9099C110.778 40.5233 124.571 41.0865 128.482 41.4358C131.335 41.6925 140.694 42.8901 141.497 47.6201C142.167 51.5623 141.507 65.1462 140.898 69.5483C140.374 73.3301 139.329 81.6886 139.086 83.6384L142.456 84.4653C142.666 84.5152 142.812 84.7041 142.812 84.9215V86.7857C142.812 86.996 142.673 87.1814 142.47 87.2384L141.212 87.5877L141.122 110.15C141.122 110.332 141.019 110.493 140.855 110.571L124.653 118.27C124.014 118.83 118.195 123.777 111.103 124.383C110.483 124.437 109.866 124.483 109.252 124.529V127.356C109.252 127.356 109.259 127.356 109.263 127.352C109.409 127.292 109.573 127.306 109.705 127.391C109.837 127.477 109.916 127.623 109.916 127.783V132.98C110.005 132.977 110.094 132.995 110.172 133.041C110.319 133.123 110.408 133.28 110.408 133.447V140.594C111.656 140.255 113.438 139.87 115.603 139.667C120.324 139.222 122.955 141.243 123.647 141.874C123.758 141.973 123.815 142.123 123.797 142.273C123.779 142.422 123.693 142.554 123.561 142.629C123.515 142.654 123.333 142.758 123.08 142.864C123.615 143.321 123.954 143.998 123.954 144.754V145.869C130.49 147.705 134.833 149.993 136.872 152.688C137.018 152.884 136.993 153.158 136.811 153.319C136.779 153.347 136.33 153.739 135.553 154C135.642 154.463 135.899 154.759 136.038 154.891C137.76 154.983 139.133 156.413 139.133 158.156C139.133 159.899 137.664 161.428 135.859 161.428C134.055 161.428 132.707 160.073 132.597 158.366C132.219 157.931 131.659 156.691 131.677 153.205C129.149 151.833 122.912 149.145 110.725 147.505C110.368 147.712 109.438 148.2 108.404 148.339C108.657 150.168 109.495 156.416 109.495 158.655V163.452C109.495 163.62 109.406 163.773 109.263 163.855C109.238 163.869 109.056 163.973 108.757 164.09C108.814 164.65 109.067 164.971 109.113 165.024C109.363 165.253 111.089 166.978 109.937 170.328C109.905 170.421 109.848 170.499 109.766 170.556C109.712 170.596 108.739 171.276 107.27 171.276C106.739 171.276 106.14 171.187 105.498 170.945C105.173 170.881 104.036 170.514 103.915 168.4C103.793 166.304 104.367 165.377 104.581 165.11C104.631 164.992 104.77 164.618 104.82 164.076C104.667 164.012 104.517 163.944 104.364 163.859C104.218 163.78 104.125 163.631 104.118 163.463C104.111 163.306 103.986 159.628 104.118 158.288C104.082 157.767 103.736 152.314 104.022 148.347C103.433 148.293 102.438 148.115 101.515 147.552C99.9531 147.844 88.518 150.057 79.6965 154.028C81.1655 157.407 79.8534 159.902 79.6038 160.33C79.2365 161.734 77.9564 162.775 76.441 162.775C74.6368 162.775 73.1677 161.307 73.1677 159.503C73.1677 157.7 74.5049 156.37 76.1914 156.242C76.2521 156.131 76.3341 155.949 76.3911 155.682C76.3911 155.682 76.3875 155.682 76.384 155.686C76.3091 155.728 76.2235 155.75 76.1379 155.746C75.5603 155.725 74.5156 155.408 74.2767 154.36C74.2303 154.164 74.3195 153.96 74.4906 153.854C74.5762 153.804 79.6501 150.77 86.5248 147.837C86.2466 147.43 86.0933 146.949 86.0933 146.443V144.754C86.0933 143.937 86.4927 143.21 87.1024 142.758C86.974 142.693 86.8849 142.647 86.8528 142.629C86.7209 142.554 86.6353 142.422 86.6175 142.273C86.5996 142.123 86.6567 141.973 86.7672 141.874C87.4625 141.243 90.094 139.222 94.8114 139.667C98.2951 139.995 100.777 140.776 101.896 141.186V133.447C101.896 133.273 101.993 133.112 102.15 133.034C102.224 132.995 102.31 132.977 102.392 132.98V127.783C102.392 127.605 102.492 127.441 102.652 127.363C102.781 127.299 102.927 127.302 103.055 127.363V124.775C102.963 124.775 102.873 124.775 102.781 124.775C97.3537 124.775 91.6058 124.208 84.4923 122.597C76.5123 120.79 71.9625 117.771 71.3386 113.864C71.121 112.51 70.9499 108.839 72.5152 107.153C70.5862 104.319 68.8961 98.6338 69.5593 92.3319H69.5486ZM135.161 84.034C135.503 79.7211 135.991 75.6612 136.576 72.2715C137.132 69.0493 137.371 65.7486 137.446 62.6797C136.658 62.7866 135.357 62.9185 133.777 62.9185C132.575 62.9185 131.213 62.8401 129.798 62.6119C129.259 63.9914 127.316 69.5625 128.104 76.4276C128.115 76.5238 128.097 76.62 128.051 76.7056C128.022 76.7555 125.444 81.5853 125.501 88.878C128.425 86.5398 132.579 84.9002 135.161 84.034ZM129.958 61.6923C133.203 62.2056 136.209 61.9026 137.464 61.728C137.514 58.3347 137.375 55.2764 137.275 52.9916C137.214 51.6657 137.168 50.6142 137.168 49.8336C137.168 47.2422 138.309 46.0446 139.079 45.5313C137.71 44.4406 135.553 43.6386 133.153 43.1004C132.586 43.4355 129.327 46.0589 129.958 61.6923ZM109.263 61.0008C108.849 62.3446 107.209 68.2294 107.926 74.7416C114.326 75.7361 124.688 75.9642 127.12 76.0034C126.482 69.4093 128.193 64.1767 128.842 62.4765C125.997 62.1272 113.859 60.6836 109.263 60.9973V61.0008ZM126.899 76.9373C124.111 76.8874 114.059 76.645 107.769 75.6648C107.081 77.1405 104.171 84.0518 104.628 94.0785C111.16 94.246 116.769 94.8805 121.611 95.989C121.925 94.0999 122.449 92.3391 123.305 91.1343C123.665 90.6246 124.096 90.1398 124.581 89.68C124.371 83.257 126.139 78.6161 126.899 76.9373ZM95.7135 98.8976C103.551 98.3415 112.119 98.9724 121.194 100.772C121.226 99.5463 121.304 98.2168 121.476 96.9158C114.608 95.3332 106.161 94.7236 95.6778 95.0551C95.6921 96.7981 95.7064 98.1918 95.7135 98.894V98.8976ZM121.24 104.629C121.205 103.888 121.169 102.875 121.176 101.724C111.937 99.8742 103.234 99.2469 95.2999 99.8635C90.1404 100.644 85.0058 102.391 81.0015 104.03C84.5565 104.633 88.6321 106.557 89.9656 107.22C91.1173 107.794 105.901 110.261 109.908 110.015C113.602 109.79 120.63 111.459 121.903 111.772C121.946 111.744 121.996 111.715 122.039 111.69C121.643 109.53 121.361 107.096 121.237 104.629H121.24ZM93.2318 82.5476C91.2029 82.5869 83.3656 83.1108 78.9085 88.6784C76.2378 92.0183 75.489 96.5486 75.3321 99.7637C75.2073 102.287 75.4212 104.419 75.5532 105.431C77.7603 104.333 85.7938 100.512 92.9537 99.3146C92.9465 97.1011 92.9323 86.718 93.2318 82.5441V82.5476ZM109.969 110.952C106.022 111.195 90.9997 108.785 89.5485 108.062C88.0295 107.306 82.8557 104.868 79.2116 104.786C75.9347 106.215 73.7204 107.416 73.3924 107.598C73.1428 107.801 72.936 108.083 72.7648 108.418C73.0536 112.375 83.9896 116.901 100.06 117.404C113.585 117.828 116.466 115.682 119.518 113.412C119.932 113.105 120.359 112.784 120.812 112.474C118.502 111.943 112.968 110.763 109.969 110.949V110.952ZM84.4388 80.6656C76.2449 82.8114 71.0283 87.2099 70.4792 92.4317C70.0121 96.8587 70.8287 103.057 73.264 106.607C73.5635 106.447 74.0413 106.197 74.6689 105.88C74.5441 105.025 74.2553 102.665 74.3979 99.7388C74.5584 96.3775 75.3464 91.6297 78.1775 88.0903C83.5938 81.3215 93.3423 81.5924 93.7559 81.6066C93.8843 81.6102 94.0055 81.6672 94.0911 81.7635C94.1767 81.8597 94.2195 81.988 94.2052 82.1164C93.8772 85.7021 93.8843 96.5522 93.8879 99.1471C94.1838 99.0936 94.4798 99.0437 94.7757 98.9974C94.7508 96.6484 94.626 84.7932 94.7686 80.5052C93.8629 80.1345 90.4969 79.0759 84.4353 80.6621L84.4388 80.6656ZM97.9064 67.4488C97.4179 69.7907 96.9579 71.8936 96.5514 73.7471C95.9346 76.5595 95.471 78.6696 95.332 79.7282C95.414 79.7674 95.4639 79.7959 95.4782 79.8031C95.6315 79.8886 95.7242 80.0526 95.7171 80.2308C95.6101 82.9112 95.6351 89.4305 95.6671 94.1213C98.4805 94.0322 101.151 94.0108 103.686 94.0571C103.205 83.232 106.482 76.1389 107.017 75.0624C106.261 68.6322 107.719 62.9007 108.272 61.0365C106.592 61.0507 102.075 61.0008 98.9511 60.2167C98.8014 62.2341 98.4912 64.6579 97.91 67.4524L97.9064 67.4488ZM98.8406 53.4229C98.8763 53.6368 98.9012 53.8007 98.9119 53.9112C99.0153 54.8344 99.1472 56.6558 99.0082 59.265C101.996 60.0563 106.603 60.1097 108.272 60.099C104.849 49.3738 105.53 44.2446 106.018 42.4588C105.109 42.5622 104.25 42.6869 103.465 42.8331C97.3181 43.9701 98.4626 51.0882 98.8406 53.4229ZM128.396 42.3697C125.084 42.0739 114.619 41.6212 107.035 42.3483C106.671 43.3998 105.466 48.3401 109.245 60.0598C114.052 59.7462 126.193 61.204 129.013 61.5533C128.511 48.6252 130.625 44.2909 131.973 42.8509C130.796 42.6335 129.584 42.4695 128.396 42.3661V42.3697ZM139.971 69.42C140.573 65.0607 141.229 51.6514 140.573 47.7769C140.477 47.1995 140.199 46.6755 139.782 46.1943C139.254 46.4795 138.102 47.3848 138.102 49.83C138.102 50.5928 138.152 51.6835 138.209 52.9488C138.412 57.5113 138.755 65.1462 137.496 72.4283C136.933 75.6862 136.462 79.5785 136.123 83.7168C136.911 83.4708 137.425 83.3318 137.514 83.3104C137.589 83.289 137.667 83.289 137.746 83.3104L138.17 83.4138C138.437 81.2787 139.454 73.1448 139.967 69.42H139.971ZM140.277 87.2277C140.277 87.0174 140.42 86.8356 140.62 86.7786L141.875 86.4293V85.2887L137.639 84.2514C136.505 84.5651 127.202 87.2527 124.064 91.6796C122.584 93.7684 121.875 98.5946 122.174 104.586C122.431 109.765 123.394 114.752 124.603 117.261L140.188 109.855L140.277 87.2313V87.2277ZM102.827 134.242V141.043C105.883 142.989 108.714 141.514 109.473 141.043V134.224C108.675 134.606 107.908 134.816 107.188 134.919C106.842 134.973 106.471 135.009 106.079 135.009C105.544 135.009 104.97 134.944 104.375 134.788C103.74 134.638 103.212 134.428 102.827 134.242ZM107.138 133.978C107.997 133.829 108.657 133.536 108.981 133.369V128.468C106.275 129.441 104.357 128.999 103.358 128.582C103.355 128.582 103.348 128.582 103.344 128.578C103.344 128.578 103.344 128.578 103.34 128.578C103.333 128.578 103.326 128.571 103.319 128.571V133.376C103.779 133.622 104.232 133.79 104.67 133.9C105.366 134.057 106.204 134.128 107.134 133.982L107.138 133.978ZM115.696 140.594C113.446 140.808 111.627 141.218 110.411 141.56V143.217C110.8 143.264 111.445 143.346 112.28 143.463C117.389 141.189 121.272 142.116 121.739 142.241C121.928 142.255 122.189 142.194 122.445 142.102C121.386 141.36 119.176 140.262 115.696 140.59V140.594ZM118.983 144.647C119.012 143.962 119.315 143.349 119.789 142.918C118.466 142.847 116.476 142.95 114.13 143.745C115.532 143.969 117.197 144.269 118.983 144.647ZM123.023 144.75C123.023 143.895 122.328 143.196 121.468 143.196C120.609 143.196 119.914 143.891 119.914 144.75V144.85C120.374 144.953 120.837 145.06 121.308 145.174C121.896 145.317 122.463 145.459 123.023 145.609V144.75ZM135.859 160.487C137.15 160.487 138.199 159.439 138.199 158.149C138.199 156.858 137.15 155.81 135.859 155.81C134.569 155.81 133.52 156.858 133.52 158.149C133.52 159.439 134.569 160.487 135.859 160.487ZM132.903 156.748C133.303 155.91 134.045 155.269 134.95 155.008C134.818 154.791 134.704 154.52 134.64 154.199C134.237 154.246 133.788 154.246 133.292 154.16C133.214 154.146 133.139 154.114 133.078 154.064C133.071 154.057 132.925 153.943 132.615 153.75C132.632 155.201 132.761 156.145 132.903 156.751V156.748ZM104.849 168.343C104.892 169.063 105.063 169.473 105.237 169.708C105.305 168.924 105.337 167.616 104.981 166.489C104.877 166.91 104.802 167.509 104.849 168.346V168.343ZM105.501 165.32C106.396 166.971 106.243 169.255 106.132 170.171C107.616 170.61 108.739 170.075 109.095 169.868C109.987 167.077 108.536 165.769 108.475 165.716C108.464 165.705 108.454 165.694 108.443 165.684C108.422 165.659 107.979 165.195 107.844 164.358C107.523 164.426 107.159 164.472 106.764 164.472C106.439 164.472 106.09 164.44 105.729 164.361C105.672 164.782 105.576 165.113 105.505 165.32H105.501ZM74.0948 159.496C74.0948 160.786 75.1431 161.834 76.4339 161.834C77.7247 161.834 78.773 160.786 78.773 159.496C78.773 158.206 77.7247 157.158 76.4339 157.158C75.1431 157.158 74.0948 158.206 74.0948 159.496ZM77.172 156.313C78.1383 156.538 78.9406 157.19 79.3684 158.06C79.5039 157.119 79.4576 155.864 78.8372 154.42C78.338 154.656 77.853 154.898 77.3752 155.144C77.3645 155.636 77.279 156.021 77.172 156.313ZM76.0452 154.795C81.0764 152.007 87.6979 149.936 92.3867 148.682C97.4999 147.316 101.483 146.604 101.522 146.596C101.64 146.575 101.764 146.6 101.864 146.668C103.052 147.459 104.496 147.434 104.51 147.434C104.646 147.434 104.774 147.484 104.863 147.58C104.956 147.676 105.002 147.808 104.988 147.944C104.624 152.032 105.045 158.202 105.048 158.263C105.048 158.288 105.048 158.316 105.048 158.345C104.941 159.389 105.016 162.251 105.041 163.157C106.596 163.877 108.012 163.403 108.557 163.16V158.655C108.557 156.142 107.42 148.054 107.405 147.972C107.388 147.837 107.427 147.701 107.516 147.598C107.605 147.495 107.733 147.438 107.869 147.438C109.088 147.438 110.358 146.632 110.368 146.625C110.461 146.564 110.575 146.539 110.686 146.554C119.682 147.751 125.43 149.519 128.667 150.792C131.72 151.989 133.178 152.977 133.563 153.258C134.611 153.408 135.392 153.109 135.824 152.87C130.144 146.286 110.101 144.13 109.898 144.108C109.659 144.084 109.477 143.884 109.477 143.642V142.105C108.739 142.472 107.512 142.946 106.043 142.946C105.056 142.946 103.957 142.733 102.831 142.13V143.374C102.831 143.602 102.667 143.798 102.442 143.838C90.5147 145.866 77.6284 153.112 75.3285 154.449C75.5318 154.691 75.8705 154.773 76.0488 154.798L76.0452 154.795ZM91.0639 144.75V146.026C93.0285 145.303 95.0752 144.632 97.1398 144.066C94.2017 142.889 91.7306 142.825 90.2794 142.943C90.7608 143.396 91.0639 144.037 91.0639 144.75ZM87.0204 146.44C87.0204 146.817 87.1595 147.177 87.4055 147.459C88.2898 147.092 89.199 146.728 90.1261 146.375V144.75C90.1261 143.895 89.4308 143.196 88.5715 143.196C87.7121 143.196 87.0168 143.891 87.0168 144.75V146.44H87.0204ZM94.7187 140.594C91.2386 140.266 89.0314 141.364 87.9689 142.105C88.222 142.194 88.4823 142.259 88.6749 142.244C89.1562 142.116 93.2639 141.136 98.6053 143.684C99.7035 143.413 100.802 143.175 101.893 142.979V142.187C101.076 141.866 98.4876 140.95 94.7187 140.598V140.594ZM103.982 127.808C105.69 128.343 107.591 127.901 108.318 127.691V124.593C106.878 124.682 105.437 124.743 103.982 124.768V127.812V127.808ZM72.2514 113.715C72.8112 117.211 77.1114 119.967 84.6884 121.681C95.3712 124.101 102.945 124.137 111.025 123.449C117.211 122.922 122.559 118.79 123.807 117.76C123.208 116.545 122.666 114.77 122.231 112.674C121.911 112.874 121.618 113.062 121.369 113.234C120.919 113.54 120.491 113.857 120.074 114.167C117.275 116.249 114.394 118.398 103.209 118.398C102.217 118.398 101.158 118.381 100.028 118.345C86.0256 117.907 74.6582 114.364 72.2763 109.969C72.0517 111.22 72.0766 112.656 72.2478 113.718L72.2514 113.715Z" fill="#373535"/>
</svg>
