<svg width="34" height="35" viewBox="0 0 34 35" fill="none" xmlns="http://www.w3.org/2000/svg">
<path fill-rule="evenodd" clip-rule="evenodd" d="M17 0C7.64909 0 0 7.64909 0 17C0 26.3509 7.64909 34.1056 17 34.1056C26.3509 34.1056 34 26.4565 34 17C34 7.54349 26.4535 0 17 0Z" fill="#59E269"/>
<path fill-rule="evenodd" clip-rule="evenodd" d="M15.406 6.16406C9.98677 6.90634 5.73828 11.5833 5.73828 17.2138C5.73828 19.7635 6.48056 21.9933 7.96814 23.9063C8.17935 24.1176 8.39359 24.2262 8.60481 24.2262C8.81602 24.2262 8.92465 24.1206 9.13587 24.015L12.3222 20.9342C12.4278 20.6144 12.5335 20.2975 12.4278 19.9777C11.8968 19.1268 11.5769 18.1703 11.5769 17.2168C11.5769 14.7727 13.2757 12.5428 15.7198 12.0118C16.0397 11.9062 16.2509 11.6919 16.2509 11.2695V6.80677C16.2509 6.48692 15.8254 6.1701 15.4 6.1701L15.406 6.16406ZM14.6607 7.75725V10.838H14.7663C12.111 11.6889 10.0924 14.2386 10.0924 17.2138C10.0924 18.2759 10.4122 19.338 10.8347 20.2945L8.60481 22.5244C7.64829 20.9312 7.11723 19.1238 7.11723 17.2107C7.11723 12.748 10.3036 8.81635 14.6607 7.75423V7.75725Z" fill="white"/>
<path fill-rule="evenodd" clip-rule="evenodd" d="M19.9742 21.6778C19.8686 21.6778 19.7629 21.7834 19.6543 21.7834C18.912 22.3145 17.9555 22.5257 16.8934 22.5257H16.6822C15.8313 22.5257 14.9834 22.3145 14.2381 21.889C14.0269 21.7834 13.9182 21.7834 13.8126 21.7834C13.6014 21.7834 13.4928 21.889 13.2816 21.9946L10.2008 25.0754C9.88098 25.5009 9.88098 25.9263 10.2008 26.2431C12.2195 27.7307 14.4493 28.473 16.8934 28.473C19.3375 28.473 21.673 27.7307 23.6916 26.1345C24.0114 25.9233 24.117 25.3922 23.7972 25.0724L20.6108 21.886C20.5052 21.7804 20.291 21.6748 19.9742 21.6748V21.6778ZM19.9742 23.3766L22.0984 25.6065C20.6108 26.4574 18.8034 26.9884 16.999 26.9884C15.1946 26.9884 13.3872 26.4574 11.794 25.6065L14.0239 23.3766C14.8748 23.8021 15.9369 24.1189 16.999 24.1189C17.9555 24.1189 19.0176 23.7991 19.9742 23.3766Z" fill="white"/>
<path fill-rule="evenodd" clip-rule="evenodd" d="M18.3779 6.16424C18.058 6.16424 17.7412 6.48408 17.7412 6.80091V11.2636C17.7412 11.6891 17.9524 11.9003 18.2723 12.0059C20.6108 12.537 22.4152 14.6612 22.4152 17.2109C22.4152 18.1674 22.0953 19.1239 21.5642 19.9718C21.353 20.2917 21.4586 20.6085 21.6699 20.9283L24.8562 24.0091C25.0674 24.2203 25.1761 24.2203 25.3873 24.2203C25.5985 24.2203 25.8127 24.1147 26.024 23.9005C27.4059 21.9875 28.2538 19.652 28.2538 17.2079C28.1482 11.6831 23.8967 6.9035 18.4805 6.1582H18.3749L18.3779 6.16424ZM19.1232 7.75742C23.5859 8.71394 26.6667 12.6456 26.6667 17.2139C26.6667 19.127 26.1356 20.9314 25.1791 22.4189L23.0548 20.2947C23.5859 19.3382 23.7971 18.2761 23.7971 17.2139C23.7971 14.2388 21.7785 11.6891 19.1232 10.8382V7.75742Z" fill="white"/>
<path fill-rule="evenodd" clip-rule="evenodd" d="M16.89 12.1143C16.5702 12.1143 16.1477 12.4341 16.1477 12.8565V13.282C15.2968 13.6018 14.6602 14.4497 14.6602 15.4062C14.6602 16.574 15.7223 17.2137 16.3589 17.8503C16.9956 18.2758 17.6353 18.7012 17.6353 19.1267C17.6353 19.4465 17.2099 19.869 16.893 19.869C16.5762 19.869 16.1507 19.4435 16.1507 19.1267C16.1507 18.7012 15.8309 18.2758 15.5141 18.2758C15.0886 18.2758 14.7718 18.7012 14.7718 19.1267C14.7718 20.0832 15.4085 20.8255 16.2594 21.1453V21.6764C16.2594 22.1018 16.5792 22.4187 17.0017 22.4187C17.4241 22.4187 17.7439 22.0988 17.7439 21.6764V21.1453C18.4862 20.9341 19.1259 20.0832 19.1259 19.1267C19.1259 17.8503 18.1694 17.2137 17.4271 16.6826C16.896 16.1515 16.2594 15.8317 16.2594 15.4062C16.2594 14.9808 16.5792 14.664 17.0017 14.664C17.4241 14.664 17.7439 14.9838 17.7439 15.4062C17.7439 15.8287 18.0638 16.1485 18.4862 16.1485C18.9086 16.1485 19.1229 15.8287 19.1229 15.4062C19.1229 14.4497 18.4862 13.5988 17.7409 13.282V12.8565C17.7409 12.4311 17.3155 12.1143 16.89 12.1143Z" fill="white"/>
</svg>
