<svg width="148" height="148" viewBox="0 0 148 148" fill="none" xmlns="http://www.w3.org/2000/svg">
<path d="M74 148C114.869 148 148 114.869 148 74C148 33.1309 114.869 0 74 0C33.1309 0 0 33.1309 0 74C0 114.869 33.1309 148 74 148Z" fill="#F3F7FF"/>
<path d="M26.9755 67.2833C26.9755 67.2833 41.2998 65.0839 52.4973 63.687C63.6948 62.2902 62.8544 61.6353 63.0437 57.0624C63.2292 52.4895 61.6431 28.039 66.1251 18.2422L107.092 19.0826C107.092 19.0826 103.734 41.4321 105.971 55.711C108.212 69.9899 105.778 68.1123 94.0734 69.8498C83.0614 71.4814 76.0166 73.6277 75.1762 76.7091L23.9434 69.9861C23.9434 69.9861 24.2235 68.1653 26.9755 67.2833Z" fill="#81C9E2"/>
<path d="M112.648 50.9534C112.626 50.696 112.41 50.4954 112.152 50.4954H109.204C108.329 43.2575 108.431 35.2361 109.662 19.4998C109.673 19.3597 109.624 19.2234 109.529 19.1212C109.434 19.019 109.302 18.9622 109.162 18.9622H107.421C107.53 18.1446 107.598 17.6827 107.602 17.6676C107.625 17.5275 107.583 17.3799 107.489 17.2739C107.398 17.1641 107.262 17.0998 107.118 17.096L66.1511 16.2556C65.9543 16.2443 65.7688 16.3654 65.6893 16.5471C62.5095 23.5048 62.3391 37.3976 62.464 46.9598H61.1505C61.018 46.9598 60.8893 47.0127 60.7984 47.1074C60.7038 47.202 60.6508 47.3307 60.6546 47.4632L60.7643 60.1636C59.3902 60.7503 56.9221 61.1478 52.459 61.708C41.3826 63.0935 27.0659 65.2853 26.922 65.308C26.8955 65.3118 26.869 65.3194 26.8463 65.327C23.8331 66.2923 23.4848 68.3402 23.4735 68.4273C23.4697 68.4538 23.4697 68.4765 23.4697 68.503V71.5011C23.4697 71.7509 23.6514 71.9591 23.8974 71.9932L24.488 72.0765L21.505 118.305C21.4899 118.536 21.6337 118.744 21.8533 118.812L23.3599 119.278C23.4091 119.293 23.4583 119.301 23.5075 119.301C23.5529 119.301 23.5984 119.293 23.64 119.282L25.4949 118.771C25.6955 118.714 25.8394 118.543 25.8583 118.339L28.8526 87.2866L63.2438 93.3585L63.5013 104.026C63.505 104.223 63.6262 104.397 63.8041 104.473L65.3448 105.128C65.4091 105.154 65.4735 105.165 65.5378 105.165C65.6173 105.165 65.6968 105.143 65.7688 105.105L67.5896 104.151C67.7524 104.064 67.8546 103.894 67.8546 103.708V94.1724L79.0521 96.1485L79.1732 130.328C79.1732 130.521 79.283 130.691 79.4571 130.774L81.6035 131.8C81.6716 131.834 81.7435 131.849 81.8193 131.849C81.8874 131.849 81.9555 131.831 82.0199 131.8L84.2117 130.824C84.3934 130.744 84.507 130.566 84.507 130.366L84.3934 84.826L110.248 88.8008L112.531 113.289C112.55 113.49 112.686 113.66 112.879 113.721L114.98 114.372C114.98 114.372 115.007 114.379 115.018 114.383C115.052 114.391 115.09 114.395 115.124 114.395C115.147 114.395 115.173 114.395 115.196 114.391C115.226 114.387 115.26 114.379 115.291 114.368C115.313 114.36 115.336 114.349 115.359 114.338L117.41 113.221C117.585 113.126 117.683 112.941 117.668 112.744L112.629 50.9572L112.648 50.9534ZM108.624 19.9616C106.981 41.1793 107.424 48.2922 109.574 58.6986C110.385 62.6241 110.078 65.3345 108.605 67.2197C106.652 69.7219 102.552 71.0241 95.7044 71.3156C84.7492 71.7812 77.8937 75.9188 75.5656 77.573L75.6905 75.3093C76.4514 72.7314 82.6634 70.5585 94.1675 68.8513C95.6817 68.6279 97.0483 68.4614 98.2521 68.3175C102.363 67.8216 104.843 67.5226 106.179 65.7547C107.496 64.0134 107.572 61.0834 106.486 54.1446C105.335 46.8197 105.702 37.2954 106.209 30.5989C106.55 26.113 106.997 22.2632 107.296 19.9578H108.628L108.624 19.9616ZM91.9606 79.8254L90.4729 79.6096L108.624 71.3497L109.067 76.0929L99.0811 80.8588L91.9606 79.8254ZM84.382 78.7238L84.3707 74.3743C87.4369 73.3484 91.2451 72.5043 95.7461 72.315C101.939 72.0538 106.016 70.9522 108.397 68.8778L108.53 70.2973L88.6521 79.3446L84.382 78.7238ZM109.166 77.1491L109.654 82.392L100.856 81.1125L109.166 77.1453V77.1491ZM66.0337 86.8967V82.0096L66.859 82.1346V87.0292L66.0337 86.8967ZM37.881 73.9465C32.0438 74.9081 29.7157 78.3453 28.7845 80.9043L26.8955 80.6014L27.5088 72.4967L37.881 73.9465ZM45.312 74.9838L62.8615 77.433L63.0773 86.4197L29.7914 81.067C31.0104 77.9137 34.6179 73.4923 45.3157 74.9838H45.312ZM64.0766 86.5825L63.8609 77.5768L65.0382 77.7396V86.7377L64.0766 86.5825ZM66.0337 80.9989V77.8759L74.9334 79.1175C74.9562 79.1175 74.9827 79.1213 75.0092 79.1213C75.1151 79.1213 75.2211 79.0872 75.3082 79.0229C75.312 79.0191 75.3196 79.0153 75.3233 79.0115C75.3233 79.0115 75.3271 79.0077 75.3309 79.004C75.3498 78.9888 75.5732 78.8033 75.982 78.5081L78.9915 78.9434L79.0066 82.9901L66.0337 80.9951V80.9989ZM78.9915 77.9402L77.2275 77.6828C77.7196 77.3762 78.3063 77.0317 78.9877 76.6721V77.9402H78.9915ZM61.6539 47.9591H62.4792C62.4943 49.0115 62.5132 50.0033 62.5322 50.9118C62.57 53.0203 62.6041 54.6822 62.5662 55.5566C62.5511 55.8859 62.5435 56.1926 62.536 56.4841C62.4981 57.9415 62.4716 58.8727 61.7524 59.5503L61.6502 47.9553L61.6539 47.9591ZM27.1113 66.2885C27.9555 66.1598 41.8028 64.0475 52.5801 62.6998C62.8009 61.4203 63.418 60.7995 63.5315 56.5143C63.5391 56.2304 63.5467 55.9238 63.5618 55.602C63.5997 54.6973 63.5656 53.0203 63.5278 50.8967C63.3688 42.5194 63.047 25.197 66.4653 17.2663L106.539 18.0878C106.315 19.6891 105.668 24.5458 105.214 30.5231C104.703 37.2765 104.335 46.884 105.498 54.3074C106.523 60.8525 106.493 63.6916 105.38 65.1604C104.298 66.5913 101.977 66.8715 98.1272 67.3371C96.9158 67.4847 95.5417 67.6475 94.0161 67.8746C78.9385 70.1118 75.664 72.7541 74.8539 74.6809L24.647 68.0904C24.9233 67.5793 25.582 66.7882 27.1113 66.2885ZM24.4615 69.0708L74.6722 75.6576L74.5398 78.0614L64.9814 76.7251L63.418 76.5055L45.452 73.9957C45.452 73.9957 45.452 73.9957 45.4482 73.9957L27.1227 71.4368L25.0823 71.1528L24.4615 71.0658V69.0708ZM23.057 118.142L22.5233 117.976L25.4722 72.2166L26.517 72.3604L25.8659 80.9838L25.5555 85.091L23.057 118.138V118.142ZM24.9006 117.9L24.0602 118.131L26.4261 86.8551L27.8722 87.1087L24.9044 117.896L24.9006 117.9ZM64.4893 103.678L64.247 93.5327L65.042 93.6727V103.912L64.4931 103.678H64.4893ZM66.859 103.405L66.0337 103.837V93.8469L66.859 93.9907V103.401V103.405ZM26.4981 85.8595L26.8198 81.6008L79.0331 89.997L79.0521 95.1377L26.4981 85.8595ZM67.8546 87.1882V82.2898L79.0104 84.0046L79.0294 88.9863L67.8546 87.1882ZM81.3234 130.562L80.1726 130.013L80.0514 95.7283L80.0439 93.5062L79.9833 76.3352L81.3234 75.7711V130.566V130.562ZM82.3189 130.585V75.1314C82.6596 74.9951 83.0117 74.8588 83.3751 74.7263L83.5152 130.051L82.3189 130.585ZM84.3934 83.8229L84.382 79.7308L88.6483 80.3516L99.0849 81.8658L109.745 83.414L110.154 87.7863L84.3896 83.8229H84.3934ZM113.496 112.873L109.31 67.9352C109.336 67.9011 109.363 67.8708 109.389 67.8368C109.752 67.3711 110.051 66.8639 110.29 66.3112L114.571 113.206L113.496 112.873ZM115.563 113.104L111.013 63.2336C111.013 63.1957 111.002 63.1617 110.99 63.1276C111.058 61.78 110.911 60.2506 110.551 58.4979C110.048 56.0563 109.639 53.8001 109.328 51.4948H111.691L116.665 112.502L115.563 113.104Z" fill="#373535"/>
</svg>
