<svg width="34" height="34" viewBox="0 0 34 34" fill="none" xmlns="http://www.w3.org/2000/svg">
<path fill-rule="evenodd" clip-rule="evenodd" d="M16.9474 0C7.62541 0 0 7.62541 0 17.0526C0 26.4799 7.62541 34 16.9474 34C26.2693 34 33.8947 26.3746 33.8947 17.0526C33.8947 7.73069 26.3716 0 16.9474 0Z" fill="#59E269"/>
<path fill-rule="evenodd" clip-rule="evenodd" d="M13.7675 24.041C13.3434 24.041 13.1328 24.3599 13.1328 24.6757C13.1328 24.9916 13.3434 25.3104 13.7675 25.3104C14.0864 25.3104 14.4022 24.9916 14.4022 24.6757C14.2969 24.3569 14.0834 24.041 13.7675 24.041Z" fill="white"/>
<path fill-rule="evenodd" clip-rule="evenodd" d="M22.0303 8.89648C21.7114 8.89648 21.3956 9.21534 21.3956 9.53118V10.2712C20.6556 10.59 20.2314 11.2247 20.2314 12.073C20.2314 13.0265 21.0797 13.8748 22.0333 13.8748C22.668 13.8748 22.8815 14.5095 22.5627 15.0389C22.3521 15.1442 22.2438 15.1442 22.0333 15.1442C21.928 15.1442 21.7144 15.1442 21.6091 15.0389C21.5038 14.9336 21.3986 14.8284 21.185 14.8284C21.0797 14.8284 20.8661 14.9336 20.7609 15.0389C20.5503 15.1442 20.5503 15.6736 20.7609 15.8872C20.9714 15.9925 21.185 16.206 21.5008 16.3113V17.0513C21.5008 17.3702 21.8197 17.686 22.1355 17.686C22.5597 17.686 22.7702 17.3672 22.7702 17.0513V16.3113C23.5102 15.9925 24.0426 15.3578 24.0426 14.5095C24.0426 13.4507 23.0891 12.6024 22.1355 12.6024C21.8167 12.6024 21.5008 12.2836 21.5008 11.9677C21.5008 11.6519 21.7114 11.333 22.0303 11.333C22.2408 11.333 22.4544 11.4383 22.5597 11.5436C22.665 11.6489 22.8785 11.7541 22.9838 11.7541C23.1944 11.7541 23.3027 11.6489 23.4079 11.5436C23.6185 11.333 23.6185 10.9089 23.4079 10.6953C23.1974 10.4817 22.9838 10.2712 22.668 10.2712V9.53118C22.668 9.21233 22.3491 8.89648 22.0333 8.89648H22.0303Z" fill="white"/>
<path fill-rule="evenodd" clip-rule="evenodd" d="M22.0306 6.24609C20.5476 6.24609 19.1699 6.67023 18.0058 7.5185H9.42682C8.47327 7.5185 7.625 8.36677 7.625 9.32032V25.63C7.625 26.5835 8.47327 27.4318 9.42682 27.4318H18.2163C19.1699 27.4318 20.0182 26.5835 20.0182 25.63V19.5928C20.7582 19.8034 21.3959 19.9117 22.0306 19.9117C25.7365 19.9117 28.916 16.8404 28.916 13.0262C28.8107 9.32032 25.7395 6.2491 22.0306 6.2491V6.24609ZM18.7458 22.4535V25.63C18.7458 25.9488 18.5352 26.1594 18.1111 26.1594H9.42682C9.10797 26.1594 8.79212 25.9488 8.79212 25.63V22.4535H18.7488H18.7458ZM15.3587 11.2244C15.2534 11.7538 15.0398 12.3885 15.0398 13.0262C15.0398 14.2986 15.3587 15.4628 15.9934 16.5216L15.1451 19.1687C15.0398 19.3792 15.1451 19.5928 15.2504 19.8034C15.3557 19.9087 15.5693 19.9087 15.6745 19.9087H15.8851C15.8851 19.9087 17.3681 19.4845 18.5322 19.0604C18.6375 19.1657 18.7428 19.1657 18.851 19.271V21.1781H8.78912V11.2214H15.3557L15.3587 11.2244ZM22.0306 7.5185C25.1018 7.5185 27.6436 10.0603 27.6436 13.1315C27.6436 16.2027 25.1018 18.7445 22.0306 18.7445C20.8664 18.7445 19.8076 18.4257 18.9593 17.8963C18.8541 17.791 18.6405 17.791 18.5352 17.791H18.4299C17.9005 17.8963 17.2658 18.1098 16.7364 18.3204L17.2658 16.6269C17.3711 16.5216 17.2658 16.308 17.1605 16.0975C16.6311 15.2492 16.3123 14.1904 16.3123 13.1315C16.3123 10.0603 18.9593 7.5185 22.0306 7.5185ZM16.7334 8.7879C16.3092 9.10675 16.204 9.52788 15.8851 9.95201H8.78912V9.31731C8.78912 8.99846 9.10797 8.7879 9.42381 8.7879H16.7334Z" fill="white"/>
</svg>
