<svg width="34" height="35" viewBox="0 0 34 35" fill="none" xmlns="http://www.w3.org/2000/svg">
<path fill-rule="evenodd" clip-rule="evenodd" d="M17 0C7.64909 0 0 7.6491 0 17C0 26.3509 7.64909 34.1056 17 34.1056C26.3509 34.1056 34 26.4565 34 17C34 7.54349 26.4535 0 17 0Z" fill="#59E269"/>
<path fill-rule="evenodd" clip-rule="evenodd" d="M8.81746 6.7998C7.75534 6.7998 6.79883 7.75632 6.79883 8.81844V21.1415C6.79883 22.2036 7.75534 23.1601 8.81746 23.1601H13.1746L12.2181 25.8154H11.4758C11.0503 25.8154 10.8391 26.1353 10.8391 26.4521C10.8391 26.8776 11.159 27.1944 11.4758 27.1944H22.5255C22.8453 27.1944 23.1622 26.8745 23.1622 26.4521C23.1622 26.1323 22.8423 25.8154 22.5255 25.8154H21.6746L20.8237 23.1601H25.1808C26.2429 23.1601 27.1994 22.2036 27.1994 21.1415V8.81844C27.1994 7.75632 26.2429 6.7998 25.1808 6.7998H8.81746ZM19.3361 23.2687L20.2926 25.9241H13.7056L14.5566 23.2687H19.3361ZM25.8175 20.5078V21.1445C25.8175 21.57 25.4976 21.8868 25.1808 21.8868H8.81746C8.39201 21.8868 8.07519 21.5669 8.07519 21.1445V20.5078H25.8175ZM25.1808 8.18177C25.6062 8.18177 25.8175 8.50161 25.8175 8.81844V19.2315H8.07519V8.81844C8.07519 8.4986 8.39503 8.18177 8.81746 8.18177H25.1778H25.1808Z" fill="white"/>
<path fill-rule="evenodd" clip-rule="evenodd" d="M17.0001 9.24316C16.5746 9.24316 16.3634 9.56301 16.3634 9.98544V10.3053C15.5125 10.6251 14.9814 11.3674 14.9814 12.3239C14.9814 13.386 15.8324 14.0227 16.5746 14.5538C17.1057 14.8736 17.6368 15.2961 17.6368 15.6159C17.6368 16.0414 17.3169 16.3582 17.0001 16.3582C16.5746 16.3582 16.3634 16.0383 16.3634 15.6159C16.3634 15.2961 16.0436 14.8736 15.7267 14.8736C15.3013 14.8736 14.9845 15.2991 14.9845 15.6159C14.9845 16.5724 15.5155 17.2091 16.3664 17.5289V17.9544C16.3664 18.3798 16.5776 18.6967 17.0031 18.6967C17.3229 18.6967 17.6398 18.3768 17.6398 17.9544V17.5289C18.382 17.3177 19.0217 16.5724 19.0217 15.6159C19.0217 14.5538 18.0652 13.9171 17.4286 13.386C16.8975 13.0662 16.3664 12.6438 16.3664 12.3239C16.3664 11.8985 16.5776 11.5816 17.0031 11.5816C17.3229 11.5816 17.6398 11.9015 17.6398 12.3239C17.6398 12.6438 17.9596 12.9606 18.2764 12.9606C18.5933 12.9606 19.0187 12.6408 19.0187 12.3239C19.0187 11.3674 18.4877 10.7307 17.6368 10.3053V9.98544C17.6368 9.55999 17.3169 9.24316 17.0001 9.24316Z" fill="white"/>
</svg>
