<svg width="746" height="500" viewBox="0 0 746 500" fill="none" xmlns="http://www.w3.org/2000/svg">
<g clip-path="url(#clip0_5075_4052)">
<path d="M667.128 180.442H0.000976562V499.136H667.128V180.442Z" fill="#ACD4F8"/>
<path d="M667.128 158.129H0.000976562V179.204H667.128V158.129Z" fill="#E1EEFE"/>
<path d="M13.9389 168.673C13.9389 171.002 12.2353 172.891 10.1335 172.891C8.0317 172.891 6.32812 171.002 6.32812 168.673C6.32812 166.344 8.0317 164.468 10.1335 164.468C12.2353 164.468 13.9389 166.356 13.9389 168.673Z" fill="#074FDF"/>
<path d="M25.975 168.673C25.975 171.002 24.2715 172.891 22.1696 172.891C20.0678 172.891 18.3643 171.002 18.3643 168.673C18.3643 166.344 20.0678 164.468 22.1696 164.468C24.2715 164.468 25.975 166.356 25.975 168.673Z" fill="#C2DEFF"/>
<path d="M38.0219 168.673C38.0219 171.002 36.3183 172.891 34.2165 172.891C32.1147 172.891 30.4111 171.002 30.4111 168.673C30.4111 166.344 32.1147 164.468 34.2165 164.468C36.3183 164.468 38.0219 166.356 38.0219 168.673Z" fill="#7AB6FE"/>
<path d="M643.997 201.236H22.9111V477.497H643.997V201.236Z" fill="white"/>
<path d="M154.617 230.955H54.8477V235.504H154.617V230.955Z" fill="#C1E3FE"/>
<path d="M87.1713 221.27H54.8477V225.818H87.1713V221.27Z" fill="#C1E3FE"/>
<path d="M364.212 230.955H264.432V235.504H364.212V230.955Z" fill="#C1E3FE"/>
<path d="M269.476 392.373H264.432V396.922H269.476V392.373Z" fill="#C2DEFF"/>
<path d="M348.416 403.31H264.432V407.858H348.416V403.31Z" fill="#C1E3FE"/>
<path d="M381.967 392.373H376.923V396.922H381.967V392.373Z" fill="#7AB6FE"/>
<path d="M460.907 403.31H376.923V407.858H460.907V403.31Z" fill="#C1E3FE"/>
<path d="M296.755 221.27H264.432V225.818H296.755V221.27Z" fill="#C1E3FE"/>
<path d="M618.432 230.955H518.662V235.504H618.432V230.955Z" fill="#C1E3FE"/>
<path d="M550.986 221.27H518.662V225.818H550.986V221.27Z" fill="#C1E3FE"/>
<path d="M214.541 245.018H58.7412V440.765H214.541V245.018Z" stroke="#C1E3FE" stroke-width="0.17" stroke-miterlimit="10"/>
<path d="M58.7412 412.8H214.53" stroke="#C1E3FE" stroke-width="0.17" stroke-miterlimit="10"/>
<path d="M58.7412 384.834H214.53" stroke="#C1E3FE" stroke-width="0.17" stroke-miterlimit="10"/>
<path d="M58.7412 356.868H214.53" stroke="#C1E3FE" stroke-width="0.17" stroke-miterlimit="10"/>
<path d="M58.7412 328.902H214.53" stroke="#C1E3FE" stroke-width="0.17" stroke-miterlimit="10"/>
<path d="M58.7412 300.937H214.53" stroke="#C1E3FE" stroke-width="0.17" stroke-miterlimit="10"/>
<path d="M58.7412 272.983H214.53" stroke="#C1E3FE" stroke-width="0.17" stroke-miterlimit="10"/>
<path d="M162.604 245.018V440.765" stroke="#C1E3FE" stroke-width="0.17" stroke-miterlimit="10"/>
<path d="M110.667 245.018V440.765" stroke="#C1E3FE" stroke-width="0.17" stroke-miterlimit="10"/>
<path d="M58.7408 245.018L50.6875 253.943" stroke="#C1E3FE" stroke-width="0.17" stroke-miterlimit="10"/>
<path d="M58.7408 272.983L50.6875 281.909" stroke="#C1E3FE" stroke-width="0.17" stroke-miterlimit="10"/>
<path d="M58.7408 300.937L50.6875 309.874" stroke="#C1E3FE" stroke-width="0.17" stroke-miterlimit="10"/>
<path d="M58.7408 328.902L50.6875 337.84" stroke="#C1E3FE" stroke-width="0.17" stroke-miterlimit="10"/>
<path d="M58.7408 356.868L50.6875 365.806" stroke="#C1E3FE" stroke-width="0.17" stroke-miterlimit="10"/>
<path d="M58.7408 384.834L50.6875 393.759" stroke="#C1E3FE" stroke-width="0.17" stroke-miterlimit="10"/>
<path d="M58.7408 412.8L50.6875 421.725" stroke="#C1E3FE" stroke-width="0.17" stroke-miterlimit="10"/>
<path d="M43.5191 422.509H43.508L42.7115 422.987L42.5898 422.46L43.5854 421.871H44.1164V426.947H43.5191V422.521V422.509Z" fill="#C1E3FE"/>
<path d="M48.8292 424.348C48.8292 426.077 48.2539 427.021 47.2362 427.021C46.3402 427.021 45.7428 426.089 45.7207 424.409C45.7207 422.705 46.3844 421.773 47.3137 421.773C48.2429 421.773 48.8292 422.73 48.8292 424.336V424.348ZM46.3512 424.434C46.3512 425.758 46.7163 426.506 47.2805 426.506C47.911 426.506 48.2208 425.684 48.2208 424.397C48.2208 423.11 47.9331 422.325 47.2915 422.325C46.7495 422.325 46.3512 423.061 46.3512 424.434Z" fill="#C1E3FE"/>
<path d="M42.1807 399.179V398.762L42.6674 398.235C43.84 396.996 44.3599 396.346 44.371 395.586C44.371 395.071 44.1497 394.593 43.4639 394.593C43.0435 394.593 42.7006 394.826 42.4904 395.022L42.2913 394.544C42.6121 394.25 43.0546 394.029 43.5856 394.029C44.5701 394.029 44.9905 394.777 44.9905 395.501C44.9905 396.432 44.382 397.192 43.4086 398.222L43.0435 398.59L45.1011 398.602V399.166H42.1807V399.179Z" fill="#C1E3FE"/>
<path d="M48.8292 396.591C48.8292 398.32 48.2539 399.264 47.2362 399.264C46.3402 399.264 45.7428 398.332 45.7207 396.653C45.7207 394.948 46.3844 394.017 47.3137 394.017C48.2429 394.017 48.8292 394.973 48.8292 396.579V396.591ZM46.3512 396.665C46.3512 397.989 46.7163 398.737 47.2805 398.737C47.911 398.737 48.2208 397.915 48.2208 396.628C48.2208 395.341 47.9331 394.556 47.2915 394.556C46.7495 394.556 46.3512 395.292 46.3512 396.665Z" fill="#C1E3FE"/>
<path d="M42.3248 370.624C42.5018 370.747 42.9111 370.943 43.3425 370.943C44.139 370.943 44.3823 370.379 44.3823 369.962C44.3823 369.251 43.796 368.944 43.1987 368.944H42.8558V368.429H43.1987C43.6522 368.429 44.2164 368.172 44.2164 367.571C44.2164 367.167 43.9841 366.811 43.4089 366.811C43.0438 366.811 42.6898 366.995 42.4907 367.142L42.3248 366.639C42.5681 366.443 43.0328 366.247 43.5195 366.247C44.4155 366.247 44.8248 366.836 44.8248 367.461C44.8248 367.988 44.5483 368.429 43.9841 368.65C44.5483 368.785 45.0018 369.263 45.0018 369.974C45.0018 370.783 44.4266 371.494 43.3314 371.494C42.8226 371.494 42.369 371.311 42.1367 371.151L42.3027 370.624H42.3248Z" fill="#C1E3FE"/>
<path d="M48.8292 368.822C48.8292 370.55 48.2539 371.494 47.2362 371.494C46.3402 371.494 45.7428 370.563 45.7207 368.883C45.7207 367.179 46.3844 366.247 47.3137 366.247C48.2429 366.247 48.8292 367.203 48.8292 368.809V368.822ZM46.3512 368.895C46.3512 370.219 46.7163 370.967 47.2805 370.967C47.911 370.967 48.2208 370.146 48.2208 368.859C48.2208 367.571 47.9331 366.787 47.2915 366.787C46.7495 366.787 46.3512 367.522 46.3512 368.895Z" fill="#C1E3FE"/>
<path d="M44.0946 343.651V342.266H41.9707V341.812L44.0061 338.575H44.6699V341.726H45.3115V342.266H44.6699V343.651H44.0836H44.0946ZM44.0946 341.726V340.034C44.0946 339.764 44.0946 339.507 44.1168 339.237H44.0946C43.9508 339.532 43.8402 339.752 43.7185 339.985L42.6012 341.714L44.0946 341.726Z" fill="#C1E3FE"/>
<path d="M48.8292 341.052C48.8292 342.781 48.2539 343.725 47.2362 343.725C46.3402 343.725 45.7428 342.793 45.7207 341.113C45.7207 339.409 46.3844 338.478 47.3137 338.478C48.2429 338.478 48.8292 339.434 48.8292 341.04V341.052ZM46.3512 341.138C46.3512 342.462 46.7163 343.21 47.2805 343.21C47.911 343.21 48.2208 342.389 48.2208 341.101C48.2208 339.814 47.9331 339.029 47.2915 339.029C46.7495 339.029 46.3512 339.765 46.3512 341.138Z" fill="#C1E3FE"/>
<path d="M44.9137 311.383H43.1658L42.9888 312.683C43.0995 312.67 43.188 312.646 43.365 312.646C43.7189 312.646 44.0729 312.732 44.3495 312.916C44.7035 313.136 45.0022 313.578 45.0022 314.215C45.0022 315.208 44.2942 315.944 43.2986 315.944C42.8008 315.944 42.3804 315.784 42.1592 315.637L42.314 315.11C42.5021 315.233 42.8782 315.392 43.2875 315.392C43.8738 315.392 44.3716 314.975 44.3716 314.289C44.3716 313.639 43.9734 313.161 43.0552 313.161C42.7897 313.161 42.5906 313.198 42.4247 313.222L42.7233 310.782H44.9137V311.358V311.383Z" fill="#C1E3FE"/>
<path d="M48.8301 313.295C48.8301 315.024 48.2549 315.968 47.2372 315.968C46.3412 315.968 45.7438 315.036 45.7217 313.357C45.7217 311.652 46.3854 310.721 47.3146 310.721C48.2439 310.721 48.8301 311.677 48.8301 313.283V313.295ZM46.3522 313.369C46.3522 314.693 46.7173 315.441 47.2814 315.441C47.912 315.441 48.2217 314.619 48.2217 313.332C48.2217 312.045 47.9341 311.26 47.2925 311.26C46.7505 311.26 46.3522 311.996 46.3522 313.369Z" fill="#C1E3FE"/>
<path d="M44.7916 283.528C44.6699 283.528 44.504 283.528 44.327 283.565C43.3535 283.748 42.8447 284.533 42.7341 285.367H42.7562C42.9774 285.048 43.3535 284.778 43.8624 284.778C44.6699 284.778 45.2452 285.428 45.2452 286.421C45.2452 287.353 44.6699 288.211 43.7186 288.211C42.7672 288.211 42.1035 287.365 42.1035 286.053C42.1035 285.06 42.4243 284.263 42.8779 283.773C43.254 283.356 43.7628 283.099 44.3381 283.025C44.5151 282.988 44.6699 282.988 44.7916 282.988V283.552V283.528ZM44.6146 286.458C44.6146 285.735 44.2385 285.293 43.6743 285.293C43.2982 285.293 42.9553 285.551 42.7894 285.918C42.7451 285.992 42.723 286.102 42.723 286.225C42.7341 287.059 43.088 287.672 43.7297 287.672C44.2606 287.672 44.6257 287.181 44.6257 286.458H44.6146Z" fill="#C1E3FE"/>
<path d="M48.8292 285.526C48.8292 287.255 48.2539 288.199 47.2362 288.199C46.3402 288.199 45.7428 287.267 45.7207 285.587C45.7207 283.883 46.3844 282.951 47.3137 282.951C48.2429 282.951 48.8292 283.907 48.8292 285.514V285.526ZM46.3512 285.599C46.3512 286.924 46.7163 287.671 47.2805 287.671C47.911 287.671 48.2208 286.85 48.2208 285.563C48.2208 284.275 47.9331 283.491 47.2915 283.491C46.7495 283.491 46.3512 284.226 46.3512 285.599Z" fill="#C1E3FE"/>
<path d="M45.146 255.279V255.733L43.1548 260.355H42.5132L44.4933 255.868L42.2588 255.856V255.292H45.146V255.279Z" fill="#C1E3FE"/>
<path d="M48.8301 257.756C48.8301 259.485 48.2549 260.429 47.2372 260.429C46.3412 260.429 45.7438 259.497 45.7217 257.818C45.7217 256.113 46.3854 255.182 47.3146 255.182C48.2439 255.182 48.8301 256.138 48.8301 257.744V257.756ZM46.3522 257.842C46.3522 259.166 46.7173 259.914 47.2814 259.914C47.912 259.914 48.2217 259.093 48.2217 257.805C48.2217 256.518 47.9341 255.733 47.2925 255.733C46.7505 255.733 46.3522 256.469 46.3522 257.842Z" fill="#C1E3FE"/>
<path d="M75.1348 451.089V450.672L75.6215 450.145C76.7941 448.906 77.314 448.257 77.3251 447.496C77.3251 446.982 77.1038 446.503 76.418 446.503C75.9976 446.503 75.6547 446.736 75.4445 446.933L75.2454 446.454C75.5662 446.16 76.0087 445.939 76.5397 445.939C77.5242 445.939 77.9446 446.687 77.9446 447.411C77.9446 448.342 77.3361 449.103 76.3627 450.132L75.9976 450.5L78.0552 450.513V451.077H75.1348V451.089Z" fill="#C1E3FE"/>
<path d="M81.794 448.501C81.794 450.23 81.2188 451.174 80.2011 451.174C79.305 451.174 78.7077 450.242 78.6855 448.563C78.6855 446.859 79.3493 445.927 80.2785 445.927C81.2077 445.927 81.794 446.883 81.794 448.489V448.501ZM79.305 448.587C79.305 449.911 79.6701 450.659 80.2343 450.659C80.8648 450.659 81.1745 449.838 81.1745 448.55C81.1745 447.263 80.8869 446.478 80.2453 446.478C79.7033 446.478 79.305 447.214 79.305 448.587Z" fill="#C1E3FE"/>
<path d="M83.7075 446.662H83.6965L82.9 447.14L82.7783 446.613L83.7739 446.024H84.3049V451.1H83.7075V446.674V446.662Z" fill="#C1E3FE"/>
<path d="M88.9517 446.024V446.478L86.9605 451.1H86.3189L88.299 446.613L86.0645 446.601V446.037H88.9517V446.024Z" fill="#C1E3FE"/>
<path d="M128.123 451.089V450.672L128.61 450.145C129.782 448.906 130.302 448.257 130.313 447.496C130.313 446.982 130.092 446.503 129.406 446.503C128.986 446.503 128.643 446.736 128.433 446.933L128.234 446.454C128.554 446.16 128.997 445.939 129.528 445.939C130.512 445.939 130.933 446.687 130.933 447.411C130.933 448.342 130.324 449.103 129.351 450.132L128.986 450.5L131.043 450.513V451.077H128.123V451.089Z" fill="#C1E3FE"/>
<path d="M134.772 448.501C134.772 450.23 134.196 451.174 133.179 451.174C132.283 451.174 131.685 450.242 131.663 448.563C131.663 446.859 132.327 445.927 133.256 445.927C134.185 445.927 134.772 446.883 134.772 448.489V448.501ZM132.294 448.587C132.294 449.911 132.659 450.659 133.223 450.659C133.853 450.659 134.163 449.838 134.163 448.55C134.163 447.263 133.876 446.478 133.234 446.478C132.692 446.478 132.294 447.214 132.294 448.587Z" fill="#C1E3FE"/>
<path d="M136.696 446.662H136.685L135.888 447.14L135.767 446.613L136.762 446.024H137.293V451.1H136.696V446.674V446.662Z" fill="#C1E3FE"/>
<path d="M138.909 449.801C138.909 449.163 139.251 448.71 139.816 448.44V448.416C139.307 448.146 139.086 447.717 139.086 447.275C139.086 446.466 139.694 445.927 140.501 445.927C141.386 445.927 141.829 446.54 141.829 447.177C141.829 447.606 141.641 448.06 141.077 448.367V448.391C141.652 448.636 141.995 449.09 141.995 449.703C141.995 450.586 141.309 451.174 140.435 451.174C139.473 451.174 138.897 450.537 138.897 449.801H138.909ZM141.364 449.776C141.364 449.163 140.977 448.869 140.358 448.673C139.827 448.845 139.528 449.237 139.528 449.715C139.506 450.23 139.86 450.684 140.446 450.684C141.032 450.684 141.364 450.304 141.364 449.776ZM139.661 447.239C139.661 447.741 140.004 448.023 140.535 448.17C140.933 448.023 141.232 447.705 141.232 447.251C141.232 446.846 141.01 446.429 140.457 446.429C139.948 446.429 139.661 446.797 139.661 447.239Z" fill="#C1E3FE"/>
<path d="M181.1 451.089V450.672L181.586 450.145C182.759 448.906 183.279 448.257 183.29 447.496C183.29 446.982 183.069 446.503 182.383 446.503C181.962 446.503 181.62 446.736 181.409 446.933L181.21 446.454C181.531 446.16 181.974 445.939 182.504 445.939C183.489 445.939 183.909 446.687 183.909 447.411C183.909 448.342 183.301 449.103 182.328 450.132L181.962 450.5L184.02 450.513V451.077H181.1V451.089Z" fill="#C1E3FE"/>
<path d="M187.748 448.501C187.748 450.23 187.173 451.174 186.155 451.174C185.259 451.174 184.662 450.242 184.64 448.563C184.64 446.859 185.303 445.927 186.233 445.927C187.162 445.927 187.748 446.883 187.748 448.489V448.501ZM185.27 448.587C185.27 449.911 185.635 450.659 186.199 450.659C186.83 450.659 187.14 449.838 187.14 448.55C187.14 447.263 186.852 446.478 186.21 446.478C185.668 446.478 185.27 447.214 185.27 448.587Z" fill="#C1E3FE"/>
<path d="M189.672 446.662H189.661L188.865 447.14L188.743 446.613L189.739 446.024H190.27V451.1H189.672V446.674V446.662Z" fill="#C1E3FE"/>
<path d="M192.294 450.611C192.427 450.623 192.582 450.611 192.792 450.586C193.146 450.537 193.489 450.365 193.754 450.096C194.053 449.789 194.274 449.348 194.363 448.747H194.341C194.086 449.09 193.721 449.299 193.268 449.299C192.449 449.299 191.918 448.612 191.918 447.742C191.918 446.785 192.549 445.939 193.478 445.939C194.407 445.939 194.993 446.785 194.993 448.073C194.993 449.188 194.661 449.973 194.208 450.451C193.854 450.831 193.367 451.064 192.88 451.126C192.659 451.162 192.46 451.175 192.316 451.162V450.598L192.294 450.611ZM192.526 447.693C192.526 448.33 192.869 448.772 193.4 448.772C193.821 448.772 194.141 448.551 194.296 448.244C194.33 448.183 194.352 448.11 194.352 447.999C194.352 447.129 194.064 446.467 193.411 446.467C192.88 446.467 192.515 446.982 192.515 447.693H192.526Z" fill="#C1E3FE"/>
<path opacity="0.34" d="M214.541 272.983H58.7412V300.949H214.541V272.983Z" fill="white"/>
<path opacity="0.34" d="M214.541 328.902H58.7412V356.868H214.541V328.902Z" fill="white"/>
<path opacity="0.34" d="M214.541 384.834H58.7412V412.8H214.541V384.834Z" fill="white"/>
<path d="M128.754 272.983H58.7412V277.446H128.754V272.983Z" fill="#C2DEFF"/>
<path d="M179.009 284.729H58.7412V289.191H179.009V284.729Z" fill="#0451DB"/>
<path d="M101.607 296.474H58.7412V300.936H101.607V296.474Z" fill="#7AB6FE"/>
<path d="M185.116 328.902H58.7412V333.365H185.116V328.902Z" fill="#C2DEFF"/>
<path d="M110.667 340.66H58.7412V345.123H110.667V340.66Z" fill="#0451DB"/>
<path d="M162.604 352.405H58.7412V356.868H162.604V352.405Z" fill="#7AB6FE"/>
<path d="M110.667 385.189H58.7412V389.652H110.667V385.189Z" fill="#C2DEFF"/>
<path d="M162.604 396.947H58.7412V401.41H162.604V396.947Z" fill="#0451DB"/>
<path d="M144.473 408.692H58.7412V413.155H144.473V408.692Z" fill="#7AB6FE"/>
<path d="M523.994 253.072H518.662V258.982H523.994V253.072Z" fill="#C1E3FE"/>
<path d="M539.094 253.072H533.762V258.982H539.094V253.072Z" fill="#C1E3FE"/>
<path d="M554.194 253.072H548.862V258.982H554.194V253.072Z" fill="#C1E3FE"/>
<path d="M569.294 253.072H563.962V258.982H569.294V253.072Z" fill="#C1E3FE"/>
<path d="M584.394 253.072H579.062V258.982H584.394V253.072Z" fill="#C1E3FE"/>
<path d="M599.482 253.072H594.15V258.982H599.482V253.072Z" fill="#C2DEFF"/>
<path d="M614.582 253.072H609.25V258.982H614.582V253.072Z" fill="#C2DEFF"/>
<path d="M523.994 267.834H518.662V273.743H523.994V267.834Z" fill="#C1E3FE"/>
<path d="M539.094 267.834H533.762V273.743H539.094V267.834Z" fill="#C1E3FE"/>
<path d="M554.194 267.834H548.862V273.743H554.194V267.834Z" fill="#C1E3FE"/>
<path d="M569.294 267.834H563.962V273.743H569.294V267.834Z" fill="#C1E3FE"/>
<path d="M584.394 267.834H579.062V273.743H584.394V267.834Z" fill="#C1E3FE"/>
<path d="M599.482 267.834H594.15V273.743H599.482V267.834Z" fill="#C2DEFF"/>
<path d="M614.582 267.834H609.25V273.743H614.582V267.834Z" fill="#C2DEFF"/>
<path d="M523.994 282.607H518.662V288.517H523.994V282.607Z" fill="#C1E3FE"/>
<path d="M539.094 282.607H533.762V288.517H539.094V282.607Z" fill="#C1E3FE"/>
<path d="M554.194 282.607H548.862V288.517H554.194V282.607Z" fill="#7AB6FE"/>
<path d="M569.294 282.607H563.962V288.517H569.294V282.607Z" fill="#7AB6FE"/>
<path d="M584.394 282.607H579.062V288.517H584.394V282.607Z" fill="#C1E3FE"/>
<path d="M599.482 282.607H594.15V288.517H599.482V282.607Z" fill="#C2DEFF"/>
<path d="M614.582 282.607H609.25V288.517H614.582V282.607Z" fill="#C2DEFF"/>
<path d="M523.994 297.368H518.662V303.278H523.994V297.368Z" fill="#0451DB"/>
<path d="M539.094 297.368H533.762V303.278H539.094V297.368Z" fill="#C1E3FE"/>
<path d="M554.194 297.368H548.862V303.278H554.194V297.368Z" fill="#C1E3FE"/>
<path d="M569.294 297.368H563.962V303.278H569.294V297.368Z" fill="#C1E3FE"/>
<path d="M584.394 297.368H579.062V303.278H584.394V297.368Z" fill="#C1E3FE"/>
<path d="M599.482 297.368H594.15V303.278H599.482V297.368Z" fill="#C2DEFF"/>
<path d="M614.582 297.368H609.25V303.278H614.582V297.368Z" fill="#C2DEFF"/>
<path d="M523.994 312.13H518.662V318.039H523.994V312.13Z" fill="#C1E3FE"/>
<path d="M539.094 312.13H533.762V318.039H539.094V312.13Z" fill="#C1E3FE"/>
<path d="M554.194 312.13H548.862V318.039H554.194V312.13Z" fill="#C1E3FE"/>
<path d="M569.294 312.13H563.962V318.039H569.294V312.13Z" fill="#C1E3FE"/>
<path d="M584.394 312.13H579.062V318.039H584.394V312.13Z" fill="#C1E3FE"/>
<path d="M599.482 312.13H594.15V318.039H599.482V312.13Z" fill="#C2DEFF"/>
<path d="M614.582 312.13H609.25V318.039H614.582V312.13Z" fill="#C2DEFF"/>
<path d="M523.994 326.892H518.662V332.801H523.994V326.892Z" fill="#C1E3FE"/>
<path d="M539.094 326.892H533.762V332.801H539.094V326.892Z" fill="#C1E3FE"/>
<path d="M554.194 326.892H548.862V332.801H554.194V326.892Z" fill="#C1E3FE"/>
<path d="M569.294 326.892H563.962V332.801H569.294V326.892Z" fill="#C1E3FE"/>
<path d="M584.394 326.892H579.062V332.801H584.394V326.892Z" fill="#C1E3FE"/>
<path d="M599.482 326.892H594.15V332.801H599.482V326.892Z" fill="#C1E3FE"/>
<path d="M614.582 326.892H609.25V332.801H614.582V326.892Z" fill="#C1E3FE"/>
<path d="M423.384 244.331V351.449" stroke="#C1E3FE" stroke-width="0.19" stroke-miterlimit="10"/>
<path d="M383.991 244.331V351.449" stroke="#C1E3FE" stroke-width="0.19" stroke-miterlimit="10"/>
<path d="M344.61 244.331V351.449" stroke="#C1E3FE" stroke-width="0.19" stroke-miterlimit="10"/>
<path d="M305.218 244.331V351.449" stroke="#C1E3FE" stroke-width="0.19" stroke-miterlimit="10"/>
<path opacity="0.34" d="M423.384 244.331H344.61V351.461H423.384V244.331Z" fill="white"/>
<path d="M462.776 244.331H265.836V351.461H462.776V244.331Z" stroke="#C1E3FE" stroke-width="0.19" stroke-miterlimit="10"/>
<path d="M462.765 333.598H265.836" stroke="#C1E3FE" stroke-width="0.19" stroke-miterlimit="10"/>
<path d="M265.836 315.747H462.765" stroke="#C1E3FE" stroke-width="0.19" stroke-miterlimit="10"/>
<path d="M265.836 297.896H462.765" stroke="#C1E3FE" stroke-width="0.19" stroke-miterlimit="10"/>
<path d="M265.836 280.033H462.765" stroke="#C1E3FE" stroke-width="0.19" stroke-miterlimit="10"/>
<path d="M265.836 262.182H462.765" stroke="#C1E3FE" stroke-width="0.19" stroke-miterlimit="10"/>
<path d="M262.529 350.468C262.529 352.05 261.998 352.92 261.068 352.92C260.25 352.92 259.697 352.074 259.686 350.53C259.686 348.972 260.294 348.114 261.146 348.114C261.998 348.114 262.529 348.985 262.529 350.468ZM260.25 350.542C260.25 351.756 260.582 352.43 261.102 352.43C261.677 352.43 261.964 351.682 261.964 350.493C261.964 349.304 261.699 348.605 261.113 348.605C260.615 348.605 260.25 349.279 260.25 350.542Z" fill="#C1E3FE"/>
<path d="M257.661 330.876H257.65L256.92 331.317L256.81 330.839L257.728 330.3H258.214V334.946H257.661V330.888V330.876Z" fill="#C1E3FE"/>
<path d="M262.529 332.556C262.529 334.138 261.998 335.008 261.068 335.008C260.25 335.008 259.697 334.162 259.686 332.617C259.686 331.06 260.294 330.202 261.146 330.202C261.998 330.202 262.529 331.073 262.529 332.556ZM260.25 332.63C260.25 333.843 260.582 334.518 261.102 334.518C261.677 334.518 261.964 333.77 261.964 332.581C261.964 331.391 261.699 330.693 261.113 330.693C260.615 330.693 260.25 331.367 260.25 332.63Z" fill="#C1E3FE"/>
<path d="M256.434 317.022V316.642L256.876 316.164C257.949 315.036 258.436 314.435 258.436 313.737C258.436 313.271 258.226 312.829 257.606 312.829C257.23 312.829 256.909 313.038 256.721 313.222L256.544 312.78C256.832 312.511 257.252 312.314 257.728 312.314C258.635 312.314 259.011 313.001 259.011 313.663C259.011 314.521 258.447 315.208 257.562 316.152L257.23 316.495L259.111 316.507V317.035H256.434V317.022Z" fill="#C1E3FE"/>
<path d="M262.529 314.644C262.529 316.226 261.998 317.096 261.068 317.096C260.25 317.096 259.697 316.25 259.686 314.705C259.686 313.148 260.294 312.29 261.146 312.29C261.998 312.29 262.529 313.161 262.529 314.644ZM260.25 314.718C260.25 315.931 260.582 316.606 261.102 316.606C261.677 316.606 261.964 315.858 261.964 314.669C261.964 313.479 261.699 312.78 261.113 312.78C260.615 312.78 260.25 313.455 260.25 314.718Z" fill="#C1E3FE"/>
<path d="M256.566 298.387C256.732 298.497 257.097 298.681 257.495 298.681C258.225 298.681 258.447 298.166 258.447 297.786C258.447 297.136 257.916 296.854 257.362 296.854H257.042V296.389H257.362C257.772 296.389 258.303 296.156 258.303 295.604C258.303 295.236 258.093 294.905 257.562 294.905C257.23 294.905 256.909 295.064 256.721 295.212L256.577 294.758C256.798 294.574 257.219 294.402 257.672 294.402C258.502 294.402 258.867 294.942 258.867 295.506C258.867 295.984 258.613 296.389 258.093 296.597C258.613 296.72 259.022 297.161 259.022 297.811C259.022 298.559 258.502 299.208 257.495 299.208C257.031 299.208 256.61 299.049 256.411 298.89L256.566 298.399V298.387Z" fill="#C1E3FE"/>
<path d="M262.529 296.732C262.529 298.313 261.998 299.184 261.068 299.184C260.25 299.184 259.697 298.338 259.686 296.793C259.686 295.236 260.294 294.378 261.146 294.378C261.998 294.378 262.529 295.248 262.529 296.732ZM260.25 296.805C260.25 298.019 260.582 298.694 261.102 298.694C261.677 298.694 261.964 297.946 261.964 296.756C261.964 295.567 261.699 294.868 261.113 294.868C260.615 294.868 260.25 295.543 260.25 296.805Z" fill="#C1E3FE"/>
<path d="M258.181 281.197V279.935H256.234V279.518L258.104 276.551H258.712V279.444H259.299V279.935H258.712V281.197H258.181ZM258.181 279.444V277.887C258.181 277.642 258.181 277.397 258.203 277.164H258.181C258.049 277.434 257.949 277.63 257.838 277.85L256.81 279.432L258.181 279.444Z" fill="#C1E3FE"/>
<path d="M262.529 278.832C262.529 280.413 261.998 281.284 261.068 281.284C260.25 281.284 259.697 280.438 259.686 278.893C259.686 277.336 260.294 276.478 261.146 276.478C261.998 276.478 262.529 277.348 262.529 278.832ZM260.25 278.905C260.25 280.119 260.582 280.793 261.102 280.793C261.677 280.793 261.964 280.045 261.964 278.856C261.964 277.667 261.699 276.968 261.113 276.968C260.615 276.968 260.25 277.642 260.25 278.905Z" fill="#C1E3FE"/>
<path d="M258.933 259.178H257.329L257.163 260.367C257.263 260.355 257.351 260.343 257.506 260.343C257.827 260.343 258.148 260.416 258.413 260.588C258.745 260.796 259.011 261.201 259.011 261.777C259.011 262.685 258.358 263.359 257.451 263.359C256.997 263.359 256.61 263.212 256.411 263.077L256.555 262.599C256.732 262.709 257.075 262.856 257.451 262.856C257.982 262.856 258.447 262.476 258.447 261.851C258.447 261.25 258.082 260.821 257.241 260.821C256.997 260.821 256.82 260.846 256.666 260.87L256.931 258.639H258.933V259.166V259.178Z" fill="#C1E3FE"/>
<path d="M262.529 260.919C262.529 262.501 261.998 263.371 261.068 263.371C260.25 263.371 259.697 262.525 259.686 260.981C259.686 259.424 260.294 258.565 261.146 258.565C261.998 258.565 262.529 259.436 262.529 260.919ZM260.25 260.993C260.25 262.207 260.582 262.881 261.102 262.881C261.677 262.881 261.964 262.133 261.964 260.944C261.964 259.755 261.699 259.056 261.113 259.056C260.615 259.056 260.25 259.73 260.25 260.993Z" fill="#C1E3FE"/>
<path d="M284.908 357.359H284.897L284.211 357.763L284.111 357.31L284.974 356.795H285.428V361.147H284.919V357.347L284.908 357.359Z" fill="#C1E3FE"/>
<path d="M323.149 361.159V360.791L323.57 360.337C324.576 359.283 325.03 358.719 325.03 358.057C325.03 357.616 324.842 357.211 324.256 357.211C323.902 357.211 323.603 357.407 323.426 357.579L323.26 357.162C323.537 356.905 323.924 356.721 324.366 356.721C325.218 356.721 325.572 357.358 325.572 357.984C325.572 358.793 325.041 359.442 324.222 360.325L323.913 360.644L325.672 360.656V361.147H323.16L323.149 361.159Z" fill="#C1E3FE"/>
<path d="M362.664 360.485C362.819 360.595 363.162 360.754 363.538 360.754C364.224 360.754 364.434 360.276 364.423 359.908C364.423 359.295 363.925 359.038 363.405 359.038H363.106V358.597H363.405C363.792 358.597 364.279 358.376 364.279 357.861C364.279 357.518 364.08 357.199 363.593 357.199C363.283 357.199 362.974 357.346 362.808 357.481L362.675 357.052C362.885 356.88 363.283 356.721 363.704 356.721C364.478 356.721 364.832 357.223 364.832 357.763C364.832 358.216 364.589 358.597 364.102 358.78C364.589 358.903 364.976 359.308 364.976 359.908C364.976 360.607 364.489 361.22 363.549 361.22C363.106 361.22 362.719 361.061 362.531 360.926L362.675 360.472L362.664 360.485Z" fill="#C1E3FE"/>
<path d="M403.571 361.16V359.97H401.746V359.578L403.494 356.795H404.069V359.504H404.622V359.97H404.069V361.16H403.571ZM403.571 359.504V358.045C403.571 357.813 403.571 357.592 403.593 357.359H403.571C403.45 357.616 403.35 357.8 403.251 357.996L402.288 359.48L403.571 359.492V359.504Z" fill="#C1E3FE"/>
<path d="M443.672 357.298H442.179L442.024 358.413C442.113 358.401 442.201 358.389 442.345 358.389C442.644 358.389 442.953 358.462 443.197 358.622C443.506 358.818 443.761 359.186 443.761 359.737C443.761 360.583 443.152 361.221 442.301 361.221C441.869 361.221 441.504 361.086 441.327 360.951L441.46 360.498C441.626 360.608 441.947 360.743 442.301 360.743C442.798 360.743 443.23 360.387 443.23 359.799C443.23 359.235 442.887 358.83 442.101 358.83C441.88 358.83 441.703 358.855 441.559 358.879L441.814 356.795H443.694V357.285L443.672 357.298Z" fill="#C1E3FE"/>
<path d="M265.836 352.197L305.217 334.334L344.61 315.232L383.991 297.59H423.737L462.765 280.082" stroke="#0451DB" stroke-miterlimit="10"/>
<path d="M265.836 333.598L305.217 315.747L344.61 333.598L383.991 317.022L423.383 263.285L462.765 244.331" stroke="#7AB6FE" stroke-width="1.07" stroke-miterlimit="10"/>
<path d="M425.629 263.285C425.629 264.658 424.622 265.786 423.372 265.786C422.122 265.786 421.115 264.671 421.115 263.285C421.115 261.9 422.133 260.784 423.372 260.784C424.611 260.784 425.629 261.9 425.629 263.285Z" fill="white" stroke="#7AB6FE" stroke-width="1.07" stroke-miterlimit="10"/>
<path d="M386.248 317.023C386.248 318.408 385.241 319.524 383.991 319.524C382.741 319.524 381.734 318.408 381.734 317.023C381.734 315.637 382.741 314.521 383.991 314.521C385.241 314.521 386.248 315.637 386.248 317.023Z" fill="white" stroke="#7AB6FE" stroke-width="1.07" stroke-miterlimit="10"/>
<path d="M346.855 333.598C346.855 334.983 345.849 336.099 344.598 336.099C343.348 336.099 342.342 334.983 342.342 333.598C342.342 332.212 343.348 331.097 344.598 331.097C345.849 331.097 346.855 332.212 346.855 333.598Z" fill="white" stroke="#7AB6FE" stroke-width="1.07" stroke-miterlimit="10"/>
<path d="M307.474 315.747C307.474 317.12 306.468 318.248 305.218 318.248C303.968 318.248 302.961 317.133 302.961 315.747C302.961 314.362 303.968 313.246 305.218 313.246C306.468 313.246 307.474 314.362 307.474 315.747Z" fill="white" stroke="#7AB6FE" stroke-width="1.07" stroke-miterlimit="10"/>
<path d="M385.341 297.811C385.341 299.196 384.334 300.312 383.084 300.312C381.834 300.312 380.827 299.196 380.827 297.811C380.827 296.425 381.834 295.31 383.084 295.31C384.334 295.31 385.341 296.425 385.341 297.811Z" fill="white" stroke="#0451DB" stroke-miterlimit="10"/>
<path d="M425.607 297.811C425.607 299.196 424.6 300.312 423.35 300.312C422.1 300.312 421.094 299.196 421.094 297.811C421.094 296.425 422.1 295.31 423.35 295.31C424.6 295.31 425.607 296.425 425.607 297.811Z" fill="white" stroke="#0451DB" stroke-miterlimit="10"/>
<path d="M513.54 437.087L513.12 437.332L513.054 437.05L513.585 436.731H513.861V439.416H513.54V437.062V437.087Z" fill="#C1E3FE"/>
<path d="M516.361 438.055C516.361 438.975 516.051 439.477 515.52 439.477C515.045 439.477 514.724 438.987 514.713 438.092C514.713 437.185 515.067 436.694 515.554 436.694C516.04 436.694 516.35 437.197 516.35 438.055H516.361ZM515.045 438.104C515.045 438.803 515.244 439.195 515.543 439.195C515.874 439.195 516.04 438.766 516.04 438.08C516.04 437.393 515.885 436.989 515.543 436.989C515.255 436.989 515.045 437.381 515.045 438.104Z" fill="#C1E3FE"/>
<path d="M512.832 425.586V425.365L513.086 425.083C513.706 424.434 513.983 424.078 513.994 423.674C513.994 423.404 513.872 423.146 513.518 423.146C513.297 423.146 513.12 423.269 512.998 423.367L512.898 423.11C513.064 422.95 513.308 422.84 513.584 422.84C514.104 422.84 514.325 423.232 514.325 423.624C514.325 424.115 514.005 424.52 513.496 425.071L513.297 425.267H514.381V425.574H512.832V425.586Z" fill="#C1E3FE"/>
<path d="M516.361 424.212C516.361 425.132 516.051 425.635 515.52 425.635C515.045 425.635 514.724 425.144 514.713 424.249C514.713 423.342 515.067 422.852 515.554 422.852C516.04 422.852 516.35 423.354 516.35 424.212H516.361ZM515.045 424.249C515.045 424.948 515.244 425.34 515.543 425.34C515.874 425.34 516.04 424.911 516.04 424.225C516.04 423.538 515.885 423.134 515.543 423.134C515.255 423.134 515.045 423.526 515.045 424.249Z" fill="#C1E3FE"/>
<path d="M512.91 411.315C512.998 411.377 513.22 411.487 513.452 411.487C513.872 411.487 514.005 411.193 514.005 410.972C514.005 410.592 513.695 410.433 513.374 410.433H513.186V410.163H513.374C513.618 410.163 513.916 410.028 513.916 409.709C513.916 409.488 513.795 409.305 513.496 409.305C513.297 409.305 513.12 409.403 513.009 409.476L512.921 409.206C513.054 409.108 513.297 408.998 513.551 408.998C514.027 408.998 514.248 409.317 514.248 409.636C514.248 409.918 514.105 410.151 513.795 410.273C514.093 410.347 514.337 410.592 514.337 410.972C514.337 411.401 514.038 411.781 513.452 411.781C513.175 411.781 512.943 411.683 512.821 411.597L512.91 411.315Z" fill="#C1E3FE"/>
<path d="M516.361 410.359C516.361 411.278 516.051 411.781 515.52 411.781C515.045 411.781 514.724 411.291 514.713 410.396C514.713 409.488 515.067 408.998 515.554 408.998C516.04 408.998 516.35 409.501 516.35 410.359H516.361ZM515.045 410.396C515.045 411.095 515.244 411.487 515.543 411.487C515.874 411.487 516.04 411.058 516.04 410.371C516.04 409.685 515.885 409.28 515.543 409.28C515.255 409.28 515.045 409.672 515.045 410.396Z" fill="#C1E3FE"/>
<path d="M513.85 397.878V397.142H512.722V396.897L513.806 395.181H514.16V396.848H514.503V397.13H514.16V397.866H513.85V397.878ZM513.85 396.86V395.965C513.85 395.83 513.85 395.683 513.85 395.548C513.773 395.708 513.717 395.818 513.651 395.941L513.054 396.86H513.85Z" fill="#C1E3FE"/>
<path d="M516.361 396.504C516.361 397.424 516.051 397.927 515.52 397.927C515.045 397.927 514.724 397.436 514.713 396.541C514.713 395.634 515.067 395.144 515.554 395.144C516.04 395.144 516.35 395.646 516.35 396.504H516.361ZM515.045 396.553C515.045 397.252 515.244 397.645 515.543 397.645C515.874 397.645 516.04 397.216 516.04 396.529C516.04 395.842 515.885 395.438 515.543 395.438C515.255 395.438 515.045 395.83 515.045 396.553Z" fill="#C1E3FE"/>
<path d="M514.282 381.645H513.353L513.264 382.332C513.264 382.332 513.375 382.319 513.463 382.319C513.651 382.319 513.839 382.368 513.983 382.466C514.171 382.589 514.326 382.822 514.326 383.153C514.326 383.68 513.95 384.072 513.419 384.072C513.153 384.072 512.932 383.987 512.811 383.913L512.888 383.631C512.988 383.692 513.187 383.778 513.408 383.778C513.718 383.778 513.983 383.558 513.983 383.19C513.983 382.846 513.773 382.589 513.286 382.589C513.153 382.589 513.043 382.601 512.954 382.614L513.109 381.326H514.271V381.633L514.282 381.645Z" fill="#C1E3FE"/>
<path d="M516.361 382.663C516.361 383.582 516.051 384.085 515.52 384.085C515.045 384.085 514.724 383.594 514.713 382.699C514.713 381.792 515.067 381.302 515.554 381.302C516.04 381.302 516.35 381.804 516.35 382.663H516.361ZM515.045 382.699C515.045 383.398 515.244 383.791 515.543 383.791C515.874 383.791 516.04 383.361 516.04 382.675C516.04 381.988 515.885 381.584 515.543 381.584C515.255 381.584 515.045 381.976 515.045 382.699Z" fill="#C1E3FE"/>
<path d="M514.215 367.754C514.149 367.754 514.06 367.754 513.972 367.766C513.452 367.865 513.186 368.281 513.131 368.723H513.142C513.253 368.551 513.463 368.416 513.728 368.416C514.16 368.416 514.458 368.76 514.458 369.287C514.458 369.777 514.16 370.231 513.651 370.231C513.142 370.231 512.788 369.789 512.788 369.091C512.788 368.563 512.965 368.147 513.197 367.877C513.397 367.656 513.662 367.521 513.972 367.485C514.071 367.472 514.149 367.46 514.215 367.46V367.754ZM514.127 369.299C514.127 368.919 513.928 368.686 513.629 368.686C513.43 368.686 513.253 368.821 513.164 369.017C513.142 369.054 513.131 369.115 513.131 369.176C513.131 369.618 513.319 369.949 513.662 369.949C513.95 369.949 514.138 369.691 514.138 369.299H514.127Z" fill="#C1E3FE"/>
<path d="M516.361 368.809C516.361 369.729 516.051 370.231 515.52 370.231C515.045 370.231 514.724 369.741 514.713 368.846C514.713 367.939 515.067 367.448 515.554 367.448C516.04 367.448 516.35 367.951 516.35 368.809H516.361ZM515.045 368.846C515.045 369.545 515.244 369.937 515.543 369.937C515.874 369.937 516.04 369.508 516.04 368.821C516.04 368.135 515.885 367.73 515.543 367.73C515.255 367.73 515.045 368.123 515.045 368.846Z" fill="#C1E3FE"/>
<path d="M527.998 449.224L527.633 449.445L527.578 449.199L528.043 448.93H528.286V451.271H528.01V449.224H527.998Z" fill="#C1E3FE"/>
<path d="M546.616 451.284V451.088L546.837 450.842C547.379 450.278 547.623 449.972 547.623 449.616C547.623 449.383 547.523 449.163 547.203 449.163C547.014 449.163 546.849 449.273 546.749 449.359L546.66 449.138C546.804 449.003 547.014 448.905 547.258 448.905C547.711 448.905 547.91 449.249 547.91 449.592C547.91 450.021 547.623 450.377 547.18 450.855L547.014 451.026H547.966V451.284H546.616Z" fill="#C1E3FE"/>
<path d="M565.92 450.916C565.997 450.977 566.185 451.063 566.384 451.063C566.749 451.063 566.871 450.806 566.86 450.609C566.86 450.278 566.583 450.144 566.307 450.144H566.152V449.911H566.307C566.517 449.911 566.782 449.788 566.782 449.518C566.782 449.334 566.672 449.163 566.406 449.163C566.24 449.163 566.074 449.249 565.986 449.322L565.908 449.089C566.019 449.003 566.229 448.905 566.462 448.905C566.882 448.905 567.07 449.175 567.07 449.469C567.07 449.714 566.937 449.923 566.683 450.021C566.948 450.082 567.159 450.303 567.159 450.634C567.159 451.014 566.893 451.333 566.384 451.333C566.152 451.333 565.942 451.247 565.831 451.173L565.908 450.928L565.92 450.916Z" fill="#C1E3FE"/>
<path d="M585.976 451.284V450.647H584.991V450.438L585.931 448.942H586.241V450.401H586.54V450.647H586.241V451.284H585.976ZM585.976 450.389V449.604C585.976 449.482 585.976 449.359 585.976 449.237C585.909 449.372 585.854 449.47 585.799 449.58L585.279 450.377H585.976V450.389Z" fill="#C1E3FE"/>
<path d="M605.589 449.199H604.781L604.704 449.8C604.704 449.8 604.803 449.787 604.881 449.787C605.047 449.787 605.212 449.824 605.334 449.91C605.5 450.02 605.633 450.217 605.633 450.511C605.633 450.964 605.301 451.308 604.847 451.308C604.615 451.308 604.416 451.234 604.316 451.161L604.383 450.915C604.471 450.977 604.648 451.05 604.836 451.05C605.102 451.05 605.334 450.854 605.334 450.535C605.334 450.229 605.146 450.02 604.726 450.02C604.604 450.02 604.516 450.033 604.427 450.045L604.56 448.917H605.578V449.187L605.589 449.199Z" fill="#C1E3FE"/>
<path d="M615.567 361.33H518.353V446.061H615.567V361.33Z" stroke="#C1E3FE" stroke-width="0.17" stroke-miterlimit="10"/>
<path d="M518.353 431.949H615.567" stroke="#C1E3FE" stroke-width="0.17" stroke-miterlimit="10"/>
<path d="M518.353 417.825H615.567" stroke="#C1E3FE" stroke-width="0.17" stroke-miterlimit="10"/>
<path d="M518.353 403.701H615.567" stroke="#C1E3FE" stroke-width="0.17" stroke-miterlimit="10"/>
<path d="M518.353 389.578H615.567" stroke="#C1E3FE" stroke-width="0.17" stroke-miterlimit="10"/>
<path d="M518.353 375.454H615.567" stroke="#C1E3FE" stroke-width="0.17" stroke-miterlimit="10"/>
<path d="M596.12 361.33V446.061" stroke="#C1E3FE" stroke-width="0.17" stroke-miterlimit="10"/>
<path d="M576.684 361.33V446.061" stroke="#C1E3FE" stroke-width="0.17" stroke-miterlimit="10"/>
<path d="M557.236 361.33V446.061" stroke="#C1E3FE" stroke-width="0.17" stroke-miterlimit="10"/>
<path d="M537.789 361.33V446.061" stroke="#C1E3FE" stroke-width="0.17" stroke-miterlimit="10"/>
<path d="M530.399 410.016H525.742V446.061H530.399V410.016Z" fill="#0451DB"/>
<path d="M549.824 410.016H545.167V446.061H549.824V410.016Z" fill="#C2DEFF"/>
<path d="M569.25 410.016H564.593V446.061H569.25V410.016Z" fill="#7AB6FE"/>
<path d="M588.675 410.016H584.018V446.061H588.675V410.016Z" fill="#0451DB"/>
<path d="M608.101 410.016H603.443V446.061H608.101V410.016Z" fill="#7AB6FE"/>
<path d="M530.399 403.701H525.742V410.015H530.399V403.701Z" fill="#0451DB"/>
<path d="M549.824 382.222H545.167V410.016H549.824V382.222Z" fill="#C2DEFF"/>
<path d="M588.675 385.58H584.018V410.015H588.675V385.58Z" fill="#0451DB"/>
<path d="M608.101 364.677H603.443V410.027H608.101V364.677Z" fill="#7AB6FE"/>
<path d="M540.886 389.577C540.886 392.777 538.541 395.388 535.643 395.388C532.745 395.388 530.399 392.789 530.399 389.577C530.399 386.365 532.745 383.766 535.643 383.766C538.541 383.766 540.886 386.365 540.886 389.577Z" fill="#C2DEFF"/>
<path d="M534.637 391.257V390.251H533.088V389.92L534.581 387.566H535.068V389.859H535.533V390.251H535.068V391.257H534.648H534.637ZM534.637 389.859V388.621C534.637 388.425 534.637 388.228 534.648 388.045H534.637C534.537 388.265 534.449 388.425 534.36 388.596L533.541 389.859H534.637Z" fill="#ECF6F8"/>
<path d="M537.867 387.983H536.594L536.462 388.927C536.539 388.927 536.605 388.903 536.738 388.903C536.993 388.903 537.247 388.964 537.457 389.099C537.723 389.258 537.933 389.577 537.933 390.043C537.933 390.766 537.413 391.306 536.694 391.306C536.329 391.306 536.019 391.196 535.864 391.073L535.975 390.693C536.108 390.779 536.384 390.901 536.683 390.901C537.114 390.901 537.468 390.595 537.468 390.104C537.468 389.626 537.181 389.283 536.506 389.283C536.318 389.283 536.163 389.307 536.041 389.32L536.251 387.542H537.844V387.959L537.867 387.983Z" fill="#ECF6F8"/>
<path d="M540.887 389.577H545.168" stroke="#C2DEFF" stroke-width="0.42" stroke-miterlimit="10"/>
<path d="M599.228 375.454C599.228 378.666 596.883 381.265 593.985 381.265C591.086 381.265 588.741 378.666 588.741 375.454C588.741 372.242 591.086 369.643 593.985 369.643C596.883 369.643 599.228 372.242 599.228 375.454Z" fill="#7AB6FE"/>
<path d="M593.586 373.86H592.314L592.181 374.804C592.259 374.804 592.325 374.779 592.458 374.779C592.712 374.779 592.967 374.841 593.177 374.975C593.442 375.135 593.653 375.454 593.653 375.932C593.653 376.655 593.133 377.195 592.414 377.195C592.049 377.195 591.739 377.084 591.584 376.962L591.695 376.582C591.827 376.667 592.104 376.79 592.403 376.79C592.834 376.79 593.188 376.483 593.188 375.993C593.188 375.515 592.9 375.172 592.226 375.172C592.037 375.172 591.883 375.196 591.761 375.208L591.971 373.431H593.564V373.848L593.586 373.86Z" fill="#ECF6F8"/>
<path d="M594.184 376.202C594.184 375.736 594.438 375.405 594.847 375.209C594.482 375 594.316 374.681 594.316 374.363C594.316 373.774 594.759 373.382 595.345 373.382C595.998 373.382 596.319 373.835 596.319 374.289C596.319 374.608 596.186 374.939 595.765 375.16C596.186 375.356 596.44 375.687 596.44 376.128C596.44 376.766 595.942 377.207 595.301 377.207C594.604 377.207 594.184 376.741 594.184 376.202ZM595.976 376.177C595.976 375.724 595.699 375.515 595.246 375.368C594.858 375.491 594.648 375.773 594.648 376.128C594.637 376.508 594.892 376.839 595.312 376.839C595.732 376.839 595.976 376.557 595.976 376.177ZM594.737 374.326C594.737 374.694 594.991 374.89 595.378 375.012C595.666 374.902 595.887 374.681 595.887 374.338C595.887 374.044 595.732 373.737 595.323 373.737C594.947 373.737 594.748 374.007 594.748 374.326H594.737Z" fill="#ECF6F8"/>
<path d="M599.229 375.453H603.521" stroke="#5BA9DD" stroke-width="0.42" stroke-miterlimit="10"/>
<path d="M101.928 208.029V218.29L112.349 208.029H152.858C155.414 208.029 157.494 205.736 157.494 202.904V138.77C157.494 135.938 155.425 133.646 152.858 133.646H88.0452C85.4898 133.646 83.4102 135.938 83.4102 138.77V202.904C83.4102 205.736 85.4898 208.029 88.0452 208.029H94.9923" fill="#387BFF"/>
<path d="M141.265 192.641V190.079C141.265 181.582 135.048 174.68 127.371 174.68H113.477C105.811 174.68 99.583 181.57 99.583 190.079V192.641H141.254H141.265Z" fill="white"/>
<path d="M129.694 156.719C129.694 162.383 125.546 166.981 120.435 166.981C115.324 166.981 111.176 162.383 111.176 156.719C111.176 151.055 115.324 146.457 120.435 146.457C125.546 146.457 129.694 151.055 129.694 156.719Z" fill="white"/>
<path d="M746.001 262.525C746.001 269.501 740.901 275.153 734.607 275.153H727.007V304.627L700.425 275.153H613.078C606.783 275.153 601.684 269.501 601.684 262.525V157.295C601.684 150.319 606.783 144.667 613.078 144.667H734.607C740.901 144.667 746.001 150.319 746.001 157.295V262.525Z" fill="#FEC00F"/>
<path d="M723.202 182.551H624.461V190.974H723.202V182.551Z" fill="white"/>
<path d="M723.202 203.59H624.461V212.013H723.202V203.59Z" fill="white"/>
<path d="M723.202 224.641H624.461V233.063H723.202V224.641Z" fill="white"/>
<path d="M614.461 96.9742C624.649 88.0488 630.457 75.7149 631.264 61.3336C631.309 60.4509 631.353 59.5559 631.364 58.6486C631.43 53.1193 630.822 48.4358 629.351 43.1639C629.306 43.0291 629.262 42.8942 629.229 42.7471C629.262 42.8819 629.306 43.0168 629.351 43.1517L616.054 47.7125C616.994 51.0963 617.492 54.6886 617.448 58.428C617.304 69.9403 612.094 80.0428 604.229 86.2097L612.249 98.8255C613.001 98.237 613.742 97.624 614.461 96.9987V96.9742Z" fill="#0063CB"/>
<path d="M560.732 77.8608C557.059 72.0985 554.935 65.0366 555.024 57.4352C555.267 38.3337 569.438 23.0574 586.673 23.3394C600.545 23.5601 612.16 33.7729 616.054 47.7128L629.351 43.152C629.306 43.0172 629.262 42.8823 629.229 42.7474C629.052 42.1222 628.864 41.5214 628.665 40.9084C628.609 40.7367 628.543 40.5651 628.488 40.3935C622.171 21.4881 606.95 9.04396 588.708 7.98958C588.277 7.96506 587.856 7.9528 587.425 7.94054C587.237 7.94054 587.049 7.91602 586.861 7.91602C586.828 7.91602 586.794 7.91602 586.75 7.91602C586.142 7.91602 585.544 7.91602 584.947 7.94054C584.77 7.94054 584.593 7.94054 584.405 7.9528C583.929 7.97732 583.465 8.0141 583 8.05088C582.679 8.0754 582.347 8.09992 582.016 8.12444C581.75 8.14896 581.496 8.18574 581.241 8.22252C580.699 8.29608 580.157 8.35739 579.626 8.44321C579.593 8.44321 579.571 8.45547 579.538 8.46773C575.688 9.10526 572.004 10.2822 568.531 11.9129C568.11 12.1213 567.679 12.3175 567.248 12.5259C567.237 12.5259 567.225 12.5381 567.214 12.5504C553.354 19.6981 543.287 34.4227 541.406 51.9917C541.395 52.0898 541.384 52.1878 541.373 52.2859C541.318 52.8744 541.263 53.4752 541.229 54.0637C541.207 54.3702 541.185 54.6767 541.174 54.9709C541.152 55.3755 541.141 55.7801 541.13 56.1724C541.13 56.5157 541.097 56.859 541.097 57.2145C540.953 68.1997 544.028 78.4125 549.349 86.7373L560.732 77.8486V77.8608Z" fill="#FEC00F"/>
<path d="M612.248 98.8009L604.228 86.1851C599.018 90.2555 592.657 92.6217 585.798 92.5114C575.411 92.352 566.296 86.5897 560.732 77.8604L549.349 86.749C549.349 86.749 549.349 86.749 549.349 86.7613C549.857 87.5582 550.377 88.3306 550.919 89.0908C558.519 99.794 568.873 106.169 580.942 107.616C581.031 107.616 581.108 107.628 581.197 107.641C581.816 107.714 582.436 107.788 583.055 107.824C583.088 107.824 583.121 107.824 583.155 107.824C583.343 107.837 583.52 107.837 583.708 107.849C584.338 107.886 584.958 107.935 585.588 107.947C595.301 108.094 604.339 104.845 611.773 99.1687C612.691 98.4699 612.989 98.2124 612.237 98.8009H612.248Z" fill="#F99B1C"/>
<path d="M587.138 57.2639L636.209 74.9432C645.015 44.9056 630.181 12.6365 603.078 2.87737C597.658 0.92799 592.835 0.0820312 587.138 0.0820312V57.2639Z" fill="#2B83FD"/>
<path d="M212.66 116.554L204.706 107.751V90.501H209.551V105.52L216.078 112.766L212.66 116.554Z" fill="#7EB3FF"/>
<path d="M197.45 101.229H170.834V106.599H197.45V101.229Z" fill="#7EB3FF"/>
<path d="M185.857 101.449C185.525 103.104 185.348 104.821 185.348 106.599C185.348 107.506 185.403 108.389 185.491 109.284H190.381C190.27 108.401 190.193 107.518 190.193 106.599C190.193 104.809 190.436 103.092 190.857 101.449H185.868H185.857Z" fill="#7EB3FF"/>
<path d="M207.129 82.4586C198.523 82.4586 191.089 88.037 187.549 96.092H193.103C196.156 91.102 201.3 87.8285 207.129 87.8285C216.466 87.8285 224.066 96.2513 224.066 106.599C224.066 116.947 216.466 125.369 207.129 125.369C200.393 125.369 194.574 120.968 191.853 114.642H186.62C189.618 123.996 197.671 130.727 207.129 130.727C219.143 130.727 228.911 119.901 228.911 106.587C228.911 93.2721 219.143 82.4463 207.129 82.4463V82.4586Z" fill="#7EB3FF"/>
<path d="M202.295 114.642H178.091V120.012H202.295V114.642Z" fill="#7EB3FF"/>
<path d="M182.925 87.8164H175.668V93.1864H182.925V87.8164Z" fill="#7EB3FF"/>
<path d="M538.795 110.253L538.563 98.103L528.795 97.4287C528.032 93.4564 526.649 89.766 524.735 86.4803L531.085 77.8L523.175 69.3895L515.841 76.5617C512.876 74.4285 509.547 72.8714 505.996 72.0009L504.945 60.8809L493.971 61.1383L493.363 71.9519C489.79 72.7978 486.46 74.3304 483.484 76.4391L475.652 69.4017L468.064 78.1801L474.535 86.3087C472.61 89.5944 471.194 93.2847 470.42 97.2203L460.397 98.385L460.63 110.535L470.398 111.209C471.15 115.169 472.544 118.86 474.446 122.145L468.097 130.826L476.017 139.236L483.34 132.064C486.305 134.197 489.635 135.754 493.197 136.613L494.237 147.733L505.21 147.475L505.819 136.649C509.392 135.803 512.722 134.271 515.686 132.15L523.518 139.187L531.107 130.421L524.636 122.293C526.56 119.007 527.965 115.316 528.751 111.369L538.773 110.204L538.795 110.253ZM499.912 120.392C491.914 120.588 485.298 113.551 485.121 104.687C484.956 95.8226 491.294 88.4787 499.303 88.2948C507.301 88.1109 513.916 95.136 514.093 104.012C514.259 112.877 507.921 120.221 499.923 120.404L499.912 120.392Z" fill="#FEC00F"/>
<path d="M498.286 112.263L493.606 107.089L496.051 104.38L498.286 106.857L505.697 98.6299L508.142 101.339L498.286 112.263Z" fill="#F99B1C"/>
</g>
<defs>
<clipPath id="clip0_5075_4052">
<rect width="746" height="499.054" fill="white" transform="translate(0.000976562 0.0820312)"/>
</clipPath>
</defs>
</svg>
