<svg width="34" height="34" viewBox="0 0 34 34" fill="none" xmlns="http://www.w3.org/2000/svg">
<path fill-rule="evenodd" clip-rule="evenodd" d="M17 0C7.64925 0 0 7.54459 0 17C0 26.4554 7.64925 34 17 34C26.3507 34 34 26.3507 34 17C34 7.64925 26.4584 0 17 0Z" fill="#59E269"/>
<path fill-rule="evenodd" clip-rule="evenodd" d="M17.8495 5.8418C14.0248 5.8418 10.9418 9.02948 10.9418 12.7494C10.9418 14.4509 11.5788 16.0448 12.748 17.4233C12.428 17.531 12.111 17.7433 11.8987 17.9556C11.4741 17.4233 10.9418 17.211 10.3049 17.211H7.75413C7.43416 17.211 7.11719 17.4233 7.11719 17.7433V26.5618C7.11719 26.8817 7.43715 27.1987 7.75413 27.1987H10.3049C11.1541 27.1987 11.7911 26.6664 12.111 25.9248H21.6741C22.948 25.9248 24.3295 25.2879 25.0741 24.1187L28.0495 20.0817C28.5817 19.3371 28.5817 18.1679 27.7295 17.531C27.4095 17.211 26.9849 17.1064 26.5603 17.1064C26.028 17.1064 25.6034 17.3187 25.1788 17.6386L23.3726 19.6571C23.1603 18.9125 22.5233 18.3832 21.7788 18.3832C22.0987 18.1709 22.311 17.9586 22.628 17.6386C24.0095 16.3648 24.7541 14.5586 24.7541 12.7524C24.7541 9.03247 21.6741 5.84479 17.8465 5.84479L17.8495 5.8418ZM10.3079 18.3802C10.6278 18.3802 10.8401 18.7002 10.8401 19.0172V25.3925C10.8401 25.7125 10.6278 26.0295 10.3079 26.0295H8.2894V18.3802H10.3079ZM14.6648 18.1679C15.4094 18.1679 16.151 18.3802 16.6832 18.9125C16.8956 19.1248 17.4278 19.6571 17.7448 19.6571H21.4648C21.8894 19.6571 22.2094 19.9771 22.2094 20.294C22.2094 20.611 21.8894 20.931 21.4648 20.931H17.1079C16.6832 20.931 16.3633 21.2509 16.3633 21.5679C16.3633 21.9925 16.6832 22.2049 17.1079 22.2049H21.997C22.5293 22.2049 22.954 21.9925 23.3786 21.6726L26.034 18.6972C26.2463 18.5896 26.354 18.4849 26.5663 18.4849C26.6739 18.4849 26.7786 18.4849 26.8862 18.5925C27.2062 18.8049 27.3109 19.1248 27.0985 19.4418L24.1232 23.4787C23.4862 24.2233 22.637 24.7526 21.6801 24.7526H12.117V19.3341L12.5416 18.9095C13.1786 18.3772 13.9232 18.1649 14.6678 18.1649L14.6648 18.1679ZM17.7448 7.11867C20.9325 7.11867 23.4832 9.66941 23.4832 12.7494C23.4832 15.8295 21.1448 18.1679 18.0648 18.3802C17.9571 18.3802 17.9571 18.2726 17.8525 18.2726L17.5325 17.9526C16.6832 17.208 15.6187 16.8911 14.4525 16.8911H14.0278C12.8586 15.9341 12.114 14.3403 12.114 12.7465C12.114 9.66642 14.6648 7.11568 17.7448 7.11568V7.11867Z" fill="white"/>
<path fill-rule="evenodd" clip-rule="evenodd" d="M17.745 8.39264C17.4251 8.39264 17.1081 8.60495 17.1081 9.02958V9.77417C16.3635 9.98648 15.9389 10.7311 15.9389 11.4757C15.8312 12.5372 16.6835 13.3895 17.745 13.3895C18.065 13.3895 18.382 13.7094 18.382 14.0264C18.382 14.3434 18.2743 14.5587 18.062 14.6634H17.8497C17.5297 14.6634 17.3174 14.5557 17.1051 14.3434C16.9975 14.2357 16.8928 14.1311 16.6805 14.1311C16.5728 14.1311 16.3605 14.2387 16.2559 14.3434C16.0435 14.5557 16.0435 14.9803 16.2559 15.1926C16.5758 15.5126 16.8928 15.7249 17.2128 15.7249V16.4695C17.2128 16.7895 17.4251 17.1064 17.8497 17.1064C18.1697 17.1064 18.4866 16.7865 18.4866 16.4695V15.7249H18.5943C19.2312 15.405 19.6559 14.6634 19.6559 14.0234C19.6559 12.8542 18.8066 12.1096 17.8497 12.1096C17.4251 12.1096 17.2128 11.7896 17.2128 11.4727C17.2128 11.1557 17.3204 10.9404 17.6374 10.9404C17.745 10.9404 17.745 10.8327 17.8497 10.8327C18.1697 10.8327 18.382 11.0451 18.5943 11.365C18.7019 11.4727 18.9143 11.5773 19.0189 11.5773C19.2312 11.5773 19.3389 11.5773 19.4435 11.4697C19.7635 11.1497 19.7635 10.7251 19.5512 10.6204C19.2312 10.0882 18.8066 9.87584 18.382 9.77118V9.02659C18.382 8.60196 18.062 8.38965 17.745 8.38965V8.39264Z" fill="white"/>
</svg>
